G75*
G70*
%OFA0B0*%
%FSLAX24Y24*%
%IPPOS*%
%LPD*%
%AMOC8*
5,1,8,0,0,1.08239X$1,22.5*
%
%ADD10R,5.7480X1.5354*%
%ADD11C,0.1319*%
%ADD12C,0.1059*%
%ADD13OC8,0.0659*%
%ADD14C,0.1240*%
%ADD15C,0.0413*%
%ADD16C,0.0925*%
%ADD17C,0.0617*%
%ADD18C,0.0295*%
%ADD19C,0.0335*%
D10*
X031244Y021288D03*
D11*
X024945Y021682D03*
X010772Y021682D03*
X039118Y021682D03*
X053292Y021682D03*
X047905Y008725D03*
X046251Y008725D03*
X044598Y008725D03*
X044598Y007072D03*
X046251Y007072D03*
X047905Y007072D03*
D12*
X042037Y003462D03*
X040787Y003462D03*
X037037Y003462D03*
X034537Y003462D03*
X030787Y003462D03*
X028287Y003462D03*
X024537Y003462D03*
X023287Y008962D03*
X023287Y010212D03*
X023287Y011462D03*
X023287Y012712D03*
X024537Y012712D03*
X028287Y012712D03*
X029537Y012712D03*
X030787Y012712D03*
X034537Y012712D03*
X035787Y012712D03*
X037037Y012712D03*
X040787Y012712D03*
X042037Y012712D03*
D13*
X021703Y008054D03*
X020703Y005054D03*
X021703Y003054D03*
D14*
X044598Y004198D03*
X047905Y004198D03*
D15*
X007101Y002459D03*
X006238Y003622D03*
X007970Y003622D03*
X010801Y002659D03*
X013901Y002559D03*
X016801Y005009D03*
X013451Y006859D03*
X008601Y009409D03*
X007001Y009409D03*
X007781Y008229D03*
X012101Y010109D03*
X016251Y010159D03*
X019955Y009673D03*
X021851Y011759D03*
X024551Y011659D03*
X025601Y012759D03*
X022574Y014193D03*
X023184Y015493D03*
X024311Y017223D03*
X023061Y018209D03*
X023184Y019753D03*
X023184Y020493D03*
X021871Y021159D03*
X020674Y021023D03*
X019301Y021209D03*
X019334Y020503D03*
X017551Y019759D03*
X016098Y019753D03*
X016098Y020493D03*
X014781Y021159D03*
X013588Y021023D03*
X012201Y021209D03*
X012248Y020503D03*
X010651Y019759D03*
X009011Y019753D03*
X009011Y020493D03*
X007691Y021159D03*
X006501Y021023D03*
X005161Y020503D03*
X005071Y021369D03*
X003921Y022989D03*
X009011Y022579D03*
X009011Y021839D03*
X010138Y024309D03*
X008851Y025259D03*
X010701Y026709D03*
X009011Y026839D03*
X009011Y027579D03*
X007701Y028159D03*
X006501Y028109D03*
X005161Y027589D03*
X003551Y025609D03*
X010701Y028109D03*
X012248Y027589D03*
X013588Y028109D03*
X014751Y028159D03*
X016098Y027579D03*
X016098Y026839D03*
X017701Y026709D03*
X019334Y027589D03*
X020674Y028109D03*
X021851Y028159D03*
X023184Y027579D03*
X023184Y026839D03*
X024801Y026709D03*
X026421Y027589D03*
X024801Y028109D03*
X027761Y028109D03*
X028951Y028159D03*
X030271Y027579D03*
X030271Y026839D03*
X031901Y026709D03*
X033508Y027589D03*
X034848Y028109D03*
X036051Y028159D03*
X037358Y027579D03*
X037358Y026839D03*
X039301Y026709D03*
X040594Y027589D03*
X039301Y028109D03*
X041934Y028109D03*
X043151Y028159D03*
X044444Y027579D03*
X044444Y026839D03*
X046401Y026709D03*
X047681Y027589D03*
X046401Y028109D03*
X049021Y028109D03*
X050201Y028159D03*
X051531Y027579D03*
X051531Y026839D03*
X053451Y026709D03*
X054767Y027589D03*
X056107Y028109D03*
X057301Y028159D03*
X058617Y027579D03*
X058617Y026839D03*
X053451Y028109D03*
X051401Y025259D03*
X052657Y024309D03*
X051531Y022579D03*
X051531Y021839D03*
X050221Y021159D03*
X049021Y021023D03*
X047681Y020503D03*
X047611Y021349D03*
X046951Y019659D03*
X044444Y019753D03*
X044444Y020493D03*
X043121Y021169D03*
X041934Y021023D03*
X040594Y020503D03*
X040521Y021339D03*
X037351Y021839D03*
X037358Y022579D03*
X036041Y021159D03*
X034848Y021023D03*
X033508Y020503D03*
X033401Y021209D03*
X031901Y019759D03*
X030271Y019753D03*
X030271Y020493D03*
X028951Y021159D03*
X027761Y021023D03*
X026421Y020503D03*
X026301Y021209D03*
X024851Y019759D03*
X023184Y021839D03*
X023184Y022579D03*
X024311Y024309D03*
X023051Y025259D03*
X017224Y024309D03*
X015951Y025259D03*
X016098Y022579D03*
X016098Y021839D03*
X015981Y018209D03*
X017224Y017223D03*
X016098Y015493D03*
X015488Y014213D03*
X016451Y013759D03*
X019065Y013313D03*
X012401Y014109D03*
X009011Y014753D03*
X009011Y015493D03*
X010138Y017223D03*
X008891Y018209D03*
X003561Y018539D03*
X004251Y014059D03*
X008551Y012759D03*
X023451Y006209D03*
X025451Y006209D03*
X027451Y006209D03*
X029451Y006209D03*
X031451Y006209D03*
X033451Y006209D03*
X037451Y006209D03*
X039451Y006209D03*
X041451Y006209D03*
X041451Y009209D03*
X039451Y009209D03*
X037451Y009209D03*
X033451Y009209D03*
X031451Y009209D03*
X029451Y009209D03*
X027451Y009209D03*
X025451Y009209D03*
X029501Y011659D03*
X030801Y011659D03*
X031951Y012709D03*
X033151Y014009D03*
X036051Y014109D03*
X037358Y014753D03*
X037358Y015493D03*
X039351Y014009D03*
X038201Y012709D03*
X037051Y011659D03*
X043181Y011909D03*
X044271Y011259D03*
X045361Y011909D03*
X046501Y011919D03*
X047631Y012639D03*
X049381Y012629D03*
X050481Y011929D03*
X049381Y011189D03*
X047631Y011189D03*
X044271Y012549D03*
X045701Y014109D03*
X044444Y014753D03*
X044444Y015493D03*
X045571Y017223D03*
X044324Y018209D03*
X040151Y019659D03*
X037358Y019753D03*
X037358Y020493D03*
X037501Y018309D03*
X038484Y017223D03*
X031398Y017223D03*
X030151Y018209D03*
X030271Y015493D03*
X030271Y014753D03*
X030271Y021839D03*
X030271Y022579D03*
X031398Y024309D03*
X030151Y025259D03*
X031901Y028109D03*
X037251Y025259D03*
X038484Y024309D03*
X044301Y025259D03*
X045571Y024309D03*
X044444Y022579D03*
X044444Y021839D03*
X051531Y020493D03*
X051531Y019753D03*
X051411Y018209D03*
X052657Y017223D03*
X051531Y015493D03*
X051531Y014753D03*
X053801Y013259D03*
X053801Y011609D03*
X053801Y009909D03*
X054901Y008859D03*
X056251Y008859D03*
X057601Y008859D03*
X058191Y008039D03*
X058191Y007299D03*
X057601Y007299D03*
X056251Y007289D03*
X056201Y006209D03*
X057171Y006229D03*
X058081Y005129D03*
X058201Y003909D03*
X057801Y003909D03*
X057401Y003909D03*
X055251Y003909D03*
X054851Y003909D03*
X054451Y003909D03*
X053451Y004209D03*
X052451Y004209D03*
X051451Y004209D03*
X050451Y004209D03*
X049451Y004209D03*
X049451Y003309D03*
X050451Y003309D03*
X051451Y003309D03*
X052451Y003309D03*
X054451Y002459D03*
X054851Y002459D03*
X055251Y002459D03*
X053781Y002219D03*
X057401Y002459D03*
X057801Y002459D03*
X058201Y002459D03*
X053451Y005109D03*
X052451Y005109D03*
X051451Y005109D03*
X050451Y005109D03*
X049451Y005109D03*
X049451Y006109D03*
X053451Y007209D03*
X051451Y009209D03*
X049451Y009209D03*
X058701Y009909D03*
X058701Y011609D03*
X058701Y013259D03*
X058617Y014753D03*
X058617Y015493D03*
X059128Y017599D03*
X058617Y019753D03*
X058617Y020493D03*
X057261Y021169D03*
X056701Y020509D03*
X056107Y021023D03*
X054767Y020503D03*
X054701Y021349D03*
X054101Y019609D03*
X058617Y021839D03*
X058617Y022579D03*
X017701Y028109D03*
X026821Y002199D03*
X033101Y002199D03*
X039351Y002199D03*
X042451Y002209D03*
X044451Y002209D03*
X046451Y002209D03*
X048451Y002209D03*
D16*
X018635Y002300D03*
X017651Y002300D03*
X016667Y002300D03*
D17*
X004792Y006816D02*
X004235Y006816D01*
X004235Y007816D02*
X004792Y007816D01*
X004792Y008816D02*
X004235Y008816D01*
X004235Y009816D02*
X004792Y009816D01*
X004792Y010816D02*
X004235Y010816D01*
X004235Y011816D02*
X004792Y011816D01*
D18*
X004551Y013359D03*
X006101Y015059D03*
X006114Y015472D03*
X006410Y015571D03*
X004785Y017047D03*
X003101Y017223D03*
X004801Y018723D03*
X005201Y018923D03*
X008001Y018923D03*
X008401Y018723D03*
X011888Y018723D03*
X012288Y018923D03*
X015101Y018923D03*
X015501Y018723D03*
X018601Y019859D03*
X019374Y018923D03*
X018974Y018723D03*
X022201Y018923D03*
X022601Y018723D03*
X026061Y018723D03*
X026461Y018923D03*
X029301Y018923D03*
X029701Y018723D03*
X031151Y019909D03*
X032551Y020109D03*
X033548Y018923D03*
X033148Y018723D03*
X036401Y018919D03*
X036751Y018719D03*
X040234Y018723D03*
X040634Y018923D03*
X043474Y018923D03*
X043874Y018723D03*
X047321Y018723D03*
X047721Y018923D03*
X050561Y018923D03*
X050961Y018723D03*
X054407Y018723D03*
X054807Y018923D03*
X054391Y017047D03*
X055721Y015472D03*
X056016Y015571D03*
X048929Y015571D03*
X048634Y015472D03*
X047305Y017047D03*
X041843Y015571D03*
X041548Y015472D03*
X040218Y017047D03*
X034756Y015571D03*
X034461Y015472D03*
X032551Y015109D03*
X033131Y017047D03*
X027670Y015571D03*
X027374Y015472D03*
X026045Y017047D03*
X020583Y015571D03*
X020288Y015472D03*
X018958Y017047D03*
X013496Y015571D03*
X013201Y015472D03*
X011872Y017047D03*
X009601Y014959D03*
X011301Y013709D03*
X012901Y012209D03*
X012901Y011709D03*
X012901Y011209D03*
X013601Y009759D03*
X010701Y007959D03*
X012301Y007309D03*
X014501Y007309D03*
X014501Y007809D03*
X014501Y006809D03*
X014501Y006309D03*
X014501Y005809D03*
X012301Y003809D03*
X015651Y002559D03*
X016001Y001859D03*
X019651Y004459D03*
X023851Y001509D03*
X035781Y006209D03*
X021101Y013859D03*
X020601Y013859D03*
X020101Y013859D03*
X018501Y013759D03*
X031201Y022109D03*
X027670Y022657D03*
X027374Y022559D03*
X026045Y024134D03*
X026061Y025809D03*
X026461Y026009D03*
X029301Y026009D03*
X029701Y025809D03*
X033148Y025809D03*
X033548Y026009D03*
X036401Y026009D03*
X036801Y025809D03*
X040234Y025809D03*
X040634Y026009D03*
X043461Y026009D03*
X043861Y025809D03*
X047321Y025809D03*
X047721Y026009D03*
X050548Y026009D03*
X050948Y025809D03*
X054407Y025809D03*
X054807Y026009D03*
X054391Y024134D03*
X055721Y022559D03*
X056016Y022657D03*
X048929Y022657D03*
X048634Y022559D03*
X047305Y024134D03*
X041843Y022657D03*
X041548Y022559D03*
X040218Y024134D03*
X034756Y022657D03*
X034461Y022559D03*
X033131Y024134D03*
X022601Y025809D03*
X022201Y026009D03*
X019374Y026009D03*
X018974Y025809D03*
X018958Y024134D03*
X018601Y022509D03*
X020288Y022559D03*
X020583Y022657D03*
X015501Y025809D03*
X015101Y026009D03*
X012288Y026009D03*
X011888Y025809D03*
X011872Y024134D03*
X013201Y022559D03*
X013496Y022657D03*
X008401Y025809D03*
X008001Y026009D03*
X005201Y026009D03*
X004801Y025809D03*
X004785Y024134D03*
X003111Y024309D03*
X006114Y022559D03*
X006410Y022657D03*
D19*
X006607Y023937D03*
X006951Y024281D03*
X007296Y023937D03*
X007296Y024626D03*
X006951Y024970D03*
X006607Y024626D03*
X006262Y024281D03*
X005918Y023937D03*
X005918Y024626D03*
X006262Y024970D03*
X005918Y025315D03*
X006607Y025315D03*
X007296Y025315D03*
X013004Y025315D03*
X013693Y025315D03*
X014382Y025315D03*
X014038Y024970D03*
X014382Y024626D03*
X014038Y024281D03*
X014382Y023937D03*
X013693Y023937D03*
X013349Y024281D03*
X013004Y023937D03*
X013004Y024626D03*
X013349Y024970D03*
X013693Y024626D03*
X020091Y024626D03*
X020435Y024281D03*
X020091Y023937D03*
X020780Y023937D03*
X021124Y024281D03*
X021469Y023937D03*
X021469Y024626D03*
X021124Y024970D03*
X020780Y024626D03*
X020435Y024970D03*
X020091Y025315D03*
X020780Y025315D03*
X021469Y025315D03*
X027177Y025315D03*
X027866Y025315D03*
X028555Y025315D03*
X028211Y024970D03*
X028555Y024626D03*
X028211Y024281D03*
X028555Y023937D03*
X027866Y023937D03*
X027522Y024281D03*
X027177Y023937D03*
X027177Y024626D03*
X027522Y024970D03*
X027866Y024626D03*
X034264Y024626D03*
X034609Y024281D03*
X034953Y023937D03*
X035298Y024281D03*
X035642Y023937D03*
X035642Y024626D03*
X035298Y024970D03*
X034953Y024626D03*
X034609Y024970D03*
X034953Y025315D03*
X034264Y025315D03*
X035642Y025315D03*
X034264Y023937D03*
X041351Y023937D03*
X041695Y024281D03*
X042040Y023937D03*
X042384Y024281D03*
X042729Y023937D03*
X042729Y024626D03*
X042384Y024970D03*
X042040Y024626D03*
X041695Y024970D03*
X041351Y024626D03*
X041351Y025315D03*
X042040Y025315D03*
X042729Y025315D03*
X048437Y025315D03*
X049126Y025315D03*
X049815Y025315D03*
X049471Y024970D03*
X049815Y024626D03*
X049471Y024281D03*
X049815Y023937D03*
X049126Y023937D03*
X048782Y024281D03*
X048437Y023937D03*
X048437Y024626D03*
X048782Y024970D03*
X049126Y024626D03*
X055524Y024626D03*
X055868Y024281D03*
X055524Y023937D03*
X056213Y023937D03*
X056557Y024281D03*
X056902Y023937D03*
X056902Y024626D03*
X056557Y024970D03*
X056213Y024626D03*
X055868Y024970D03*
X055524Y025315D03*
X056213Y025315D03*
X056902Y025315D03*
X056902Y018228D03*
X056557Y017884D03*
X056213Y018228D03*
X055868Y017884D03*
X055524Y018228D03*
X055524Y017539D03*
X055868Y017195D03*
X056213Y017539D03*
X056557Y017195D03*
X056902Y017539D03*
X056902Y016850D03*
X056213Y016850D03*
X055524Y016850D03*
X049815Y016850D03*
X049126Y016850D03*
X048437Y016850D03*
X048782Y017195D03*
X049126Y017539D03*
X049471Y017195D03*
X049815Y017539D03*
X049471Y017884D03*
X049815Y018228D03*
X049126Y018228D03*
X048782Y017884D03*
X048437Y018228D03*
X048437Y017539D03*
X042729Y017539D03*
X042384Y017195D03*
X042040Y017539D03*
X041695Y017195D03*
X041351Y017539D03*
X041695Y017884D03*
X041351Y018228D03*
X042040Y018228D03*
X042384Y017884D03*
X042729Y018228D03*
X042729Y016850D03*
X042040Y016850D03*
X041351Y016850D03*
X035642Y016850D03*
X034953Y016850D03*
X034264Y016850D03*
X034609Y017195D03*
X034953Y017539D03*
X035298Y017195D03*
X035642Y017539D03*
X035298Y017884D03*
X035642Y018228D03*
X034953Y018228D03*
X034609Y017884D03*
X034264Y018228D03*
X034264Y017539D03*
X028555Y017539D03*
X028211Y017195D03*
X027866Y017539D03*
X027522Y017195D03*
X027177Y017539D03*
X027522Y017884D03*
X027866Y018228D03*
X028211Y017884D03*
X028555Y018228D03*
X027177Y018228D03*
X027177Y016850D03*
X027866Y016850D03*
X028555Y016850D03*
X021469Y016850D03*
X020780Y016850D03*
X020091Y016850D03*
X020435Y017195D03*
X020091Y017539D03*
X020435Y017884D03*
X020091Y018228D03*
X020780Y018228D03*
X021124Y017884D03*
X020780Y017539D03*
X021124Y017195D03*
X021469Y017539D03*
X021469Y018228D03*
X014382Y018228D03*
X014038Y017884D03*
X014382Y017539D03*
X014038Y017195D03*
X013693Y017539D03*
X013349Y017195D03*
X013004Y017539D03*
X013349Y017884D03*
X013693Y018228D03*
X013004Y018228D03*
X013004Y016850D03*
X013693Y016850D03*
X014382Y016850D03*
X007296Y016850D03*
X006951Y017195D03*
X006607Y017539D03*
X006951Y017884D03*
X006607Y018228D03*
X006262Y017884D03*
X005918Y018228D03*
X005918Y017539D03*
X006262Y017195D03*
X005918Y016850D03*
X006607Y016850D03*
X007296Y017539D03*
X007296Y018228D03*
M02*
