G75*
G70*
%OFA0B0*%
%FSLAX24Y24*%
%IPPOS*%
%LPD*%
%AMOC8*
5,1,8,0,0,1.08239X$1,22.5*
%
%ADD10C,0.0000*%
%ADD11C,0.0060*%
%ADD12C,0.0030*%
%ADD13C,0.0050*%
%ADD14C,0.0040*%
%ADD15R,0.1000X0.0250*%
%ADD16R,0.0350X0.0250*%
%ADD17C,0.0080*%
%ADD18R,0.0380X0.0660*%
%ADD19R,0.0492X0.2441*%
%ADD20C,0.0020*%
%ADD21R,0.0240X0.0620*%
%ADD22C,0.0300*%
%ADD23R,0.0200X0.0300*%
%ADD24R,0.0400X0.0300*%
%ADD25C,0.0098*%
%ADD26C,0.0025*%
D10*
X002701Y001209D02*
X002701Y028769D01*
X059788Y028769D01*
X059788Y001209D01*
X002701Y001209D01*
X006061Y003622D02*
X006063Y003648D01*
X006069Y003674D01*
X006079Y003699D01*
X006092Y003722D01*
X006108Y003742D01*
X006128Y003760D01*
X006150Y003775D01*
X006173Y003787D01*
X006199Y003795D01*
X006225Y003799D01*
X006251Y003799D01*
X006277Y003795D01*
X006303Y003787D01*
X006327Y003775D01*
X006348Y003760D01*
X006368Y003742D01*
X006384Y003722D01*
X006397Y003699D01*
X006407Y003674D01*
X006413Y003648D01*
X006415Y003622D01*
X006413Y003596D01*
X006407Y003570D01*
X006397Y003545D01*
X006384Y003522D01*
X006368Y003502D01*
X006348Y003484D01*
X006326Y003469D01*
X006303Y003457D01*
X006277Y003449D01*
X006251Y003445D01*
X006225Y003445D01*
X006199Y003449D01*
X006173Y003457D01*
X006149Y003469D01*
X006128Y003484D01*
X006108Y003502D01*
X006092Y003522D01*
X006079Y003545D01*
X006069Y003570D01*
X006063Y003596D01*
X006061Y003622D01*
X007793Y003622D02*
X007795Y003648D01*
X007801Y003674D01*
X007811Y003699D01*
X007824Y003722D01*
X007840Y003742D01*
X007860Y003760D01*
X007882Y003775D01*
X007905Y003787D01*
X007931Y003795D01*
X007957Y003799D01*
X007983Y003799D01*
X008009Y003795D01*
X008035Y003787D01*
X008059Y003775D01*
X008080Y003760D01*
X008100Y003742D01*
X008116Y003722D01*
X008129Y003699D01*
X008139Y003674D01*
X008145Y003648D01*
X008147Y003622D01*
X008145Y003596D01*
X008139Y003570D01*
X008129Y003545D01*
X008116Y003522D01*
X008100Y003502D01*
X008080Y003484D01*
X008058Y003469D01*
X008035Y003457D01*
X008009Y003449D01*
X007983Y003445D01*
X007957Y003445D01*
X007931Y003449D01*
X007905Y003457D01*
X007881Y003469D01*
X007860Y003484D01*
X007840Y003502D01*
X007824Y003522D01*
X007811Y003545D01*
X007801Y003570D01*
X007795Y003596D01*
X007793Y003622D01*
X010142Y021682D02*
X010144Y021732D01*
X010150Y021782D01*
X010160Y021831D01*
X010174Y021879D01*
X010191Y021926D01*
X010212Y021971D01*
X010237Y022015D01*
X010265Y022056D01*
X010297Y022095D01*
X010331Y022132D01*
X010368Y022166D01*
X010408Y022196D01*
X010450Y022223D01*
X010494Y022247D01*
X010540Y022268D01*
X010587Y022284D01*
X010635Y022297D01*
X010685Y022306D01*
X010734Y022311D01*
X010785Y022312D01*
X010835Y022309D01*
X010884Y022302D01*
X010933Y022291D01*
X010981Y022276D01*
X011027Y022258D01*
X011072Y022236D01*
X011115Y022210D01*
X011156Y022181D01*
X011195Y022149D01*
X011231Y022114D01*
X011263Y022076D01*
X011293Y022036D01*
X011320Y021993D01*
X011343Y021949D01*
X011362Y021903D01*
X011378Y021855D01*
X011390Y021806D01*
X011398Y021757D01*
X011402Y021707D01*
X011402Y021657D01*
X011398Y021607D01*
X011390Y021558D01*
X011378Y021509D01*
X011362Y021461D01*
X011343Y021415D01*
X011320Y021371D01*
X011293Y021328D01*
X011263Y021288D01*
X011231Y021250D01*
X011195Y021215D01*
X011156Y021183D01*
X011115Y021154D01*
X011072Y021128D01*
X011027Y021106D01*
X010981Y021088D01*
X010933Y021073D01*
X010884Y021062D01*
X010835Y021055D01*
X010785Y021052D01*
X010734Y021053D01*
X010685Y021058D01*
X010635Y021067D01*
X010587Y021080D01*
X010540Y021096D01*
X010494Y021117D01*
X010450Y021141D01*
X010408Y021168D01*
X010368Y021198D01*
X010331Y021232D01*
X010297Y021269D01*
X010265Y021308D01*
X010237Y021349D01*
X010212Y021393D01*
X010191Y021438D01*
X010174Y021485D01*
X010160Y021533D01*
X010150Y021582D01*
X010144Y021632D01*
X010142Y021682D01*
X024315Y021682D02*
X024317Y021732D01*
X024323Y021782D01*
X024333Y021831D01*
X024347Y021879D01*
X024364Y021926D01*
X024385Y021971D01*
X024410Y022015D01*
X024438Y022056D01*
X024470Y022095D01*
X024504Y022132D01*
X024541Y022166D01*
X024581Y022196D01*
X024623Y022223D01*
X024667Y022247D01*
X024713Y022268D01*
X024760Y022284D01*
X024808Y022297D01*
X024858Y022306D01*
X024907Y022311D01*
X024958Y022312D01*
X025008Y022309D01*
X025057Y022302D01*
X025106Y022291D01*
X025154Y022276D01*
X025200Y022258D01*
X025245Y022236D01*
X025288Y022210D01*
X025329Y022181D01*
X025368Y022149D01*
X025404Y022114D01*
X025436Y022076D01*
X025466Y022036D01*
X025493Y021993D01*
X025516Y021949D01*
X025535Y021903D01*
X025551Y021855D01*
X025563Y021806D01*
X025571Y021757D01*
X025575Y021707D01*
X025575Y021657D01*
X025571Y021607D01*
X025563Y021558D01*
X025551Y021509D01*
X025535Y021461D01*
X025516Y021415D01*
X025493Y021371D01*
X025466Y021328D01*
X025436Y021288D01*
X025404Y021250D01*
X025368Y021215D01*
X025329Y021183D01*
X025288Y021154D01*
X025245Y021128D01*
X025200Y021106D01*
X025154Y021088D01*
X025106Y021073D01*
X025057Y021062D01*
X025008Y021055D01*
X024958Y021052D01*
X024907Y021053D01*
X024858Y021058D01*
X024808Y021067D01*
X024760Y021080D01*
X024713Y021096D01*
X024667Y021117D01*
X024623Y021141D01*
X024581Y021168D01*
X024541Y021198D01*
X024504Y021232D01*
X024470Y021269D01*
X024438Y021308D01*
X024410Y021349D01*
X024385Y021393D01*
X024364Y021438D01*
X024347Y021485D01*
X024333Y021533D01*
X024323Y021582D01*
X024317Y021632D01*
X024315Y021682D01*
X038488Y021682D02*
X038490Y021732D01*
X038496Y021782D01*
X038506Y021831D01*
X038520Y021879D01*
X038537Y021926D01*
X038558Y021971D01*
X038583Y022015D01*
X038611Y022056D01*
X038643Y022095D01*
X038677Y022132D01*
X038714Y022166D01*
X038754Y022196D01*
X038796Y022223D01*
X038840Y022247D01*
X038886Y022268D01*
X038933Y022284D01*
X038981Y022297D01*
X039031Y022306D01*
X039080Y022311D01*
X039131Y022312D01*
X039181Y022309D01*
X039230Y022302D01*
X039279Y022291D01*
X039327Y022276D01*
X039373Y022258D01*
X039418Y022236D01*
X039461Y022210D01*
X039502Y022181D01*
X039541Y022149D01*
X039577Y022114D01*
X039609Y022076D01*
X039639Y022036D01*
X039666Y021993D01*
X039689Y021949D01*
X039708Y021903D01*
X039724Y021855D01*
X039736Y021806D01*
X039744Y021757D01*
X039748Y021707D01*
X039748Y021657D01*
X039744Y021607D01*
X039736Y021558D01*
X039724Y021509D01*
X039708Y021461D01*
X039689Y021415D01*
X039666Y021371D01*
X039639Y021328D01*
X039609Y021288D01*
X039577Y021250D01*
X039541Y021215D01*
X039502Y021183D01*
X039461Y021154D01*
X039418Y021128D01*
X039373Y021106D01*
X039327Y021088D01*
X039279Y021073D01*
X039230Y021062D01*
X039181Y021055D01*
X039131Y021052D01*
X039080Y021053D01*
X039031Y021058D01*
X038981Y021067D01*
X038933Y021080D01*
X038886Y021096D01*
X038840Y021117D01*
X038796Y021141D01*
X038754Y021168D01*
X038714Y021198D01*
X038677Y021232D01*
X038643Y021269D01*
X038611Y021308D01*
X038583Y021349D01*
X038558Y021393D01*
X038537Y021438D01*
X038520Y021485D01*
X038506Y021533D01*
X038496Y021582D01*
X038490Y021632D01*
X038488Y021682D01*
X052662Y021682D02*
X052664Y021732D01*
X052670Y021782D01*
X052680Y021831D01*
X052694Y021879D01*
X052711Y021926D01*
X052732Y021971D01*
X052757Y022015D01*
X052785Y022056D01*
X052817Y022095D01*
X052851Y022132D01*
X052888Y022166D01*
X052928Y022196D01*
X052970Y022223D01*
X053014Y022247D01*
X053060Y022268D01*
X053107Y022284D01*
X053155Y022297D01*
X053205Y022306D01*
X053254Y022311D01*
X053305Y022312D01*
X053355Y022309D01*
X053404Y022302D01*
X053453Y022291D01*
X053501Y022276D01*
X053547Y022258D01*
X053592Y022236D01*
X053635Y022210D01*
X053676Y022181D01*
X053715Y022149D01*
X053751Y022114D01*
X053783Y022076D01*
X053813Y022036D01*
X053840Y021993D01*
X053863Y021949D01*
X053882Y021903D01*
X053898Y021855D01*
X053910Y021806D01*
X053918Y021757D01*
X053922Y021707D01*
X053922Y021657D01*
X053918Y021607D01*
X053910Y021558D01*
X053898Y021509D01*
X053882Y021461D01*
X053863Y021415D01*
X053840Y021371D01*
X053813Y021328D01*
X053783Y021288D01*
X053751Y021250D01*
X053715Y021215D01*
X053676Y021183D01*
X053635Y021154D01*
X053592Y021128D01*
X053547Y021106D01*
X053501Y021088D01*
X053453Y021073D01*
X053404Y021062D01*
X053355Y021055D01*
X053305Y021052D01*
X053254Y021053D01*
X053205Y021058D01*
X053155Y021067D01*
X053107Y021080D01*
X053060Y021096D01*
X053014Y021117D01*
X052970Y021141D01*
X052928Y021168D01*
X052888Y021198D01*
X052851Y021232D01*
X052817Y021269D01*
X052785Y021308D01*
X052757Y021349D01*
X052732Y021393D01*
X052711Y021438D01*
X052694Y021485D01*
X052680Y021533D01*
X052670Y021582D01*
X052664Y021632D01*
X052662Y021682D01*
X047314Y004198D02*
X047316Y004246D01*
X047322Y004294D01*
X047332Y004341D01*
X047345Y004387D01*
X047363Y004432D01*
X047383Y004476D01*
X047408Y004518D01*
X047436Y004557D01*
X047466Y004594D01*
X047500Y004628D01*
X047537Y004660D01*
X047575Y004689D01*
X047616Y004714D01*
X047659Y004736D01*
X047704Y004754D01*
X047750Y004768D01*
X047797Y004779D01*
X047845Y004786D01*
X047893Y004789D01*
X047941Y004788D01*
X047989Y004783D01*
X048037Y004774D01*
X048083Y004762D01*
X048128Y004745D01*
X048172Y004725D01*
X048214Y004702D01*
X048254Y004675D01*
X048292Y004645D01*
X048327Y004612D01*
X048359Y004576D01*
X048389Y004538D01*
X048415Y004497D01*
X048437Y004454D01*
X048457Y004410D01*
X048472Y004365D01*
X048484Y004318D01*
X048492Y004270D01*
X048496Y004222D01*
X048496Y004174D01*
X048492Y004126D01*
X048484Y004078D01*
X048472Y004031D01*
X048457Y003986D01*
X048437Y003942D01*
X048415Y003899D01*
X048389Y003858D01*
X048359Y003820D01*
X048327Y003784D01*
X048292Y003751D01*
X048254Y003721D01*
X048214Y003694D01*
X048172Y003671D01*
X048128Y003651D01*
X048083Y003634D01*
X048037Y003622D01*
X047989Y003613D01*
X047941Y003608D01*
X047893Y003607D01*
X047845Y003610D01*
X047797Y003617D01*
X047750Y003628D01*
X047704Y003642D01*
X047659Y003660D01*
X047616Y003682D01*
X047575Y003707D01*
X047537Y003736D01*
X047500Y003768D01*
X047466Y003802D01*
X047436Y003839D01*
X047408Y003878D01*
X047383Y003920D01*
X047363Y003964D01*
X047345Y004009D01*
X047332Y004055D01*
X047322Y004102D01*
X047316Y004150D01*
X047314Y004198D01*
X044007Y004198D02*
X044009Y004246D01*
X044015Y004294D01*
X044025Y004341D01*
X044038Y004387D01*
X044056Y004432D01*
X044076Y004476D01*
X044101Y004518D01*
X044129Y004557D01*
X044159Y004594D01*
X044193Y004628D01*
X044230Y004660D01*
X044268Y004689D01*
X044309Y004714D01*
X044352Y004736D01*
X044397Y004754D01*
X044443Y004768D01*
X044490Y004779D01*
X044538Y004786D01*
X044586Y004789D01*
X044634Y004788D01*
X044682Y004783D01*
X044730Y004774D01*
X044776Y004762D01*
X044821Y004745D01*
X044865Y004725D01*
X044907Y004702D01*
X044947Y004675D01*
X044985Y004645D01*
X045020Y004612D01*
X045052Y004576D01*
X045082Y004538D01*
X045108Y004497D01*
X045130Y004454D01*
X045150Y004410D01*
X045165Y004365D01*
X045177Y004318D01*
X045185Y004270D01*
X045189Y004222D01*
X045189Y004174D01*
X045185Y004126D01*
X045177Y004078D01*
X045165Y004031D01*
X045150Y003986D01*
X045130Y003942D01*
X045108Y003899D01*
X045082Y003858D01*
X045052Y003820D01*
X045020Y003784D01*
X044985Y003751D01*
X044947Y003721D01*
X044907Y003694D01*
X044865Y003671D01*
X044821Y003651D01*
X044776Y003634D01*
X044730Y003622D01*
X044682Y003613D01*
X044634Y003608D01*
X044586Y003607D01*
X044538Y003610D01*
X044490Y003617D01*
X044443Y003628D01*
X044397Y003642D01*
X044352Y003660D01*
X044309Y003682D01*
X044268Y003707D01*
X044230Y003736D01*
X044193Y003768D01*
X044159Y003802D01*
X044129Y003839D01*
X044101Y003878D01*
X044076Y003920D01*
X044056Y003964D01*
X044038Y004009D01*
X044025Y004055D01*
X044015Y004102D01*
X044009Y004150D01*
X044007Y004198D01*
D11*
X059031Y004371D02*
X059031Y004444D01*
X059471Y004444D01*
X059471Y004371D02*
X059471Y004517D01*
X059398Y004677D02*
X059471Y004751D01*
X059471Y004898D01*
X059398Y004971D01*
X059251Y004971D01*
X059178Y004898D01*
X059178Y004751D01*
X059251Y004677D01*
X059398Y004677D01*
X059471Y005138D02*
X059178Y005138D01*
X059178Y005358D01*
X059251Y005431D01*
X059471Y005431D01*
X059251Y005598D02*
X059251Y005892D01*
X059398Y006058D02*
X059471Y006132D01*
X059471Y006279D01*
X059398Y006352D01*
X059251Y006352D01*
X059251Y006205D01*
X059104Y006058D02*
X059398Y006058D01*
X059104Y006058D02*
X059031Y006132D01*
X059031Y006279D01*
X059104Y006352D01*
X059251Y006519D02*
X059178Y006592D01*
X059178Y006739D01*
X059251Y006812D01*
X059324Y006812D01*
X059324Y006519D01*
X059251Y006519D02*
X059398Y006519D01*
X059471Y006592D01*
X059471Y006739D01*
X059471Y006979D02*
X059178Y006979D01*
X059178Y007199D01*
X059251Y007273D01*
X059471Y007273D01*
X059471Y007440D02*
X059178Y007733D01*
X059104Y007733D01*
X059031Y007660D01*
X059031Y007513D01*
X059104Y007440D01*
X059471Y007440D02*
X059471Y007733D01*
X059471Y008360D02*
X059031Y008360D01*
X059251Y008360D02*
X059251Y008654D01*
X059031Y008654D02*
X059471Y008654D01*
X059398Y008821D02*
X059324Y008894D01*
X059324Y009114D01*
X059251Y009114D02*
X059471Y009114D01*
X059471Y008894D01*
X059398Y008821D01*
X059178Y008894D02*
X059178Y009041D01*
X059251Y009114D01*
X059251Y009281D02*
X059178Y009354D01*
X059178Y009575D01*
X059324Y009501D02*
X059324Y009354D01*
X059251Y009281D01*
X059471Y009281D02*
X059471Y009501D01*
X059398Y009575D01*
X059324Y009501D01*
X059251Y009741D02*
X059178Y009815D01*
X059178Y009961D01*
X059251Y010035D01*
X059471Y010035D01*
X059398Y010202D02*
X059251Y010202D01*
X059178Y010275D01*
X059178Y010422D01*
X059251Y010495D01*
X059324Y010495D01*
X059324Y010202D01*
X059398Y010202D02*
X059471Y010275D01*
X059471Y010422D01*
X059471Y010662D02*
X059178Y010662D01*
X059324Y010662D02*
X059178Y010809D01*
X059178Y010882D01*
X059178Y011506D02*
X059471Y011653D01*
X059178Y011800D01*
X059178Y011966D02*
X059031Y012113D01*
X059471Y012113D01*
X059471Y011966D02*
X059471Y012260D01*
X059471Y012427D02*
X059471Y012500D01*
X059398Y012500D01*
X059398Y012427D01*
X059471Y012427D01*
X059398Y012657D02*
X059104Y012950D01*
X059398Y012950D01*
X059471Y012877D01*
X059471Y012730D01*
X059398Y012657D01*
X059104Y012657D01*
X059031Y012730D01*
X059031Y012877D01*
X059104Y012950D01*
X059031Y009741D02*
X059471Y009741D01*
X059471Y004204D02*
X059471Y003984D01*
X059398Y003910D01*
X059324Y003984D01*
X059324Y004204D01*
X059251Y004204D02*
X059471Y004204D01*
X059251Y004204D02*
X059178Y004130D01*
X059178Y003984D01*
X059178Y003743D02*
X059471Y003597D01*
X059178Y003450D01*
X059178Y003283D02*
X059471Y003283D01*
X059251Y003283D02*
X059251Y002989D01*
X059178Y002989D02*
X059031Y003136D01*
X059178Y003283D01*
X059178Y002989D02*
X059471Y002989D01*
X014856Y003089D02*
X011966Y003089D01*
X014286Y003439D02*
X014288Y003468D01*
X014294Y003496D01*
X014303Y003523D01*
X014317Y003548D01*
X014333Y003572D01*
X014353Y003592D01*
X014375Y003611D01*
X014399Y003625D01*
X014426Y003637D01*
X014453Y003645D01*
X014482Y003649D01*
X014510Y003649D01*
X014539Y003645D01*
X014566Y003637D01*
X014593Y003625D01*
X014617Y003611D01*
X014639Y003592D01*
X014659Y003572D01*
X014675Y003548D01*
X014689Y003523D01*
X014698Y003496D01*
X014704Y003468D01*
X014706Y003439D01*
X014704Y003410D01*
X014698Y003382D01*
X014689Y003355D01*
X014675Y003330D01*
X014659Y003306D01*
X014639Y003286D01*
X014617Y003267D01*
X014593Y003253D01*
X014566Y003241D01*
X014539Y003233D01*
X014510Y003229D01*
X014482Y003229D01*
X014453Y003233D01*
X014426Y003241D01*
X014399Y003253D01*
X014375Y003267D01*
X014353Y003286D01*
X014333Y003306D01*
X014317Y003330D01*
X014303Y003355D01*
X014294Y003382D01*
X014288Y003410D01*
X014286Y003439D01*
X014856Y008030D02*
X011966Y008030D01*
X011881Y009959D02*
X013121Y009959D01*
X013144Y009961D01*
X013167Y009966D01*
X013189Y009975D01*
X013209Y009988D01*
X013227Y010003D01*
X013242Y010021D01*
X013255Y010041D01*
X013264Y010063D01*
X013269Y010086D01*
X013271Y010109D01*
X011881Y009959D02*
X011858Y009961D01*
X011835Y009966D01*
X011813Y009975D01*
X011793Y009988D01*
X011775Y010003D01*
X011760Y010021D01*
X011747Y010041D01*
X011738Y010063D01*
X011733Y010086D01*
X011731Y010109D01*
X011731Y013309D02*
X011733Y013332D01*
X011738Y013355D01*
X011747Y013377D01*
X011760Y013397D01*
X011775Y013415D01*
X011793Y013430D01*
X011813Y013443D01*
X011835Y013452D01*
X011858Y013457D01*
X011881Y013459D01*
X012301Y013459D01*
X012701Y013459D01*
X013121Y013459D01*
X013144Y013457D01*
X013167Y013452D01*
X013189Y013443D01*
X013209Y013430D01*
X013227Y013415D01*
X013242Y013397D01*
X013255Y013377D01*
X013264Y013355D01*
X013269Y013332D01*
X013271Y013309D01*
X012701Y013459D02*
X012699Y013432D01*
X012694Y013405D01*
X012684Y013379D01*
X012672Y013355D01*
X012656Y013333D01*
X012638Y013313D01*
X012616Y013296D01*
X012593Y013281D01*
X012568Y013271D01*
X012542Y013263D01*
X012515Y013259D01*
X012487Y013259D01*
X012460Y013263D01*
X012434Y013271D01*
X012409Y013281D01*
X012386Y013296D01*
X012364Y013313D01*
X012346Y013333D01*
X012330Y013355D01*
X012318Y013379D01*
X012308Y013405D01*
X012303Y013432D01*
X012301Y013459D01*
X004714Y012289D02*
X004421Y012289D01*
X004568Y012289D02*
X004568Y012730D01*
X004421Y012583D01*
X003764Y012316D02*
X002764Y012316D01*
X002764Y011316D01*
X002764Y010316D01*
X002764Y009316D01*
X002764Y008316D01*
X002764Y007316D01*
X002764Y006316D01*
X003764Y006316D01*
X003764Y007316D01*
X003764Y008316D01*
X003764Y009316D01*
X003764Y010316D01*
X003764Y011316D01*
X003764Y012316D01*
X003764Y011316D02*
X002764Y011316D01*
X002764Y010316D02*
X003764Y010316D01*
X003764Y009316D02*
X002764Y009316D01*
X002764Y008316D02*
X003764Y008316D01*
X003764Y007316D02*
X002764Y007316D01*
X002931Y005730D02*
X003078Y005730D01*
X003004Y005730D02*
X003004Y005289D01*
X002931Y005289D02*
X003078Y005289D01*
X003238Y005363D02*
X003311Y005289D01*
X003458Y005289D01*
X003532Y005363D01*
X003532Y005436D01*
X003458Y005510D01*
X003311Y005510D01*
X003238Y005583D01*
X003238Y005656D01*
X003311Y005730D01*
X003458Y005730D01*
X003532Y005656D01*
X003698Y005730D02*
X003698Y005289D01*
X003698Y005436D02*
X003919Y005436D01*
X003992Y005510D01*
X003992Y005656D01*
X003919Y005730D01*
X003698Y005730D01*
D12*
X023716Y002095D02*
X023863Y002095D01*
X023789Y002095D02*
X023789Y001874D01*
X023946Y001911D02*
X023946Y001985D01*
X023983Y002021D01*
X024056Y002021D01*
X024093Y001985D01*
X024093Y001948D01*
X023946Y001948D01*
X023946Y001911D02*
X023983Y001874D01*
X024056Y001874D01*
X024176Y001874D02*
X024286Y001874D01*
X024323Y001911D01*
X024286Y001948D01*
X024213Y001948D01*
X024176Y001985D01*
X024213Y002021D01*
X024323Y002021D01*
X024407Y002021D02*
X024480Y002021D01*
X024443Y002058D02*
X024443Y001911D01*
X024480Y001874D01*
X024560Y001874D02*
X024670Y001874D01*
X024707Y001911D01*
X024707Y001985D01*
X024670Y002021D01*
X024560Y002021D01*
X024560Y001801D01*
X024790Y001911D02*
X024827Y001874D01*
X024900Y001874D01*
X024937Y001911D01*
X024937Y001985D01*
X024900Y002021D01*
X024827Y002021D01*
X024790Y001985D01*
X024790Y001911D01*
X025020Y001874D02*
X025094Y001874D01*
X025057Y001874D02*
X025057Y002021D01*
X025020Y002021D01*
X025057Y002095D02*
X025057Y002131D01*
X025010Y002188D02*
X025010Y002371D01*
X024900Y002371D01*
X024863Y002335D01*
X024863Y002261D01*
X024900Y002224D01*
X025010Y002224D01*
X025010Y002188D02*
X024974Y002151D01*
X024937Y002151D01*
X024780Y002224D02*
X024670Y002224D01*
X024633Y002261D01*
X024670Y002298D01*
X024780Y002298D01*
X024780Y002335D02*
X024780Y002224D01*
X024780Y002335D02*
X024743Y002371D01*
X024670Y002371D01*
X024553Y002371D02*
X024480Y002371D01*
X024517Y002408D02*
X024517Y002261D01*
X024553Y002224D01*
X024400Y002224D02*
X024326Y002224D01*
X024363Y002224D02*
X024363Y002445D01*
X024326Y002445D01*
X024243Y002335D02*
X024206Y002371D01*
X024133Y002371D01*
X024096Y002335D01*
X024096Y002261D01*
X024133Y002224D01*
X024206Y002224D01*
X024243Y002261D01*
X024243Y002335D01*
X024013Y002298D02*
X024013Y002445D01*
X023866Y002445D02*
X023866Y002298D01*
X023939Y002224D01*
X024013Y002298D01*
X025094Y002298D02*
X025240Y002298D01*
X025240Y002335D01*
X025204Y002371D01*
X025130Y002371D01*
X025094Y002335D01*
X025094Y002261D01*
X025130Y002224D01*
X025204Y002224D01*
X025174Y002021D02*
X025284Y002021D01*
X025321Y001985D01*
X025321Y001874D01*
X025441Y001911D02*
X025477Y001874D01*
X025441Y001911D02*
X025441Y002058D01*
X025477Y002021D02*
X025404Y002021D01*
X025174Y002021D02*
X025174Y001874D01*
X024000Y020048D02*
X024035Y020083D01*
X024035Y020223D01*
X024000Y020258D01*
X023930Y020258D01*
X023895Y020223D01*
X023895Y020188D01*
X023930Y020153D01*
X024035Y020153D01*
X024000Y020048D02*
X023930Y020048D01*
X023895Y020083D01*
X023814Y020083D02*
X023779Y020048D01*
X023709Y020048D01*
X023674Y020083D01*
X023674Y020118D01*
X023709Y020153D01*
X023779Y020153D01*
X023814Y020118D01*
X023814Y020083D01*
X023779Y020153D02*
X023814Y020188D01*
X023814Y020223D01*
X023779Y020258D01*
X023709Y020258D01*
X023674Y020223D01*
X023674Y020188D01*
X023709Y020153D01*
X023593Y020223D02*
X023558Y020258D01*
X023488Y020258D01*
X023453Y020223D01*
X023453Y020083D01*
X023488Y020048D01*
X023558Y020048D01*
X023593Y020083D01*
X021509Y020873D02*
X021509Y020943D01*
X021474Y020978D01*
X021474Y021059D02*
X021439Y021059D01*
X021404Y021094D01*
X021404Y021164D01*
X021439Y021199D01*
X021474Y021199D01*
X021509Y021164D01*
X021509Y021094D01*
X021474Y021059D01*
X021404Y021094D02*
X021369Y021059D01*
X021334Y021059D01*
X021299Y021094D01*
X021299Y021164D01*
X021334Y021199D01*
X021369Y021199D01*
X021404Y021164D01*
X021404Y021280D02*
X021404Y021385D01*
X021439Y021420D01*
X021474Y021420D01*
X021509Y021385D01*
X021509Y021315D01*
X021474Y021280D01*
X021404Y021280D01*
X021334Y021350D01*
X021299Y021420D01*
X021334Y020978D02*
X021299Y020943D01*
X021299Y020873D01*
X021334Y020838D01*
X021474Y020838D01*
X021509Y020873D01*
X021428Y021974D02*
X021463Y022009D01*
X021463Y022080D01*
X021428Y022115D01*
X021358Y022195D02*
X021358Y022336D01*
X021288Y022416D02*
X021253Y022451D01*
X021253Y022521D01*
X021288Y022557D01*
X021323Y022557D01*
X021463Y022416D01*
X021463Y022557D01*
X021463Y022301D02*
X021253Y022301D01*
X021358Y022195D01*
X021288Y022115D02*
X021253Y022080D01*
X021253Y022009D01*
X021288Y021974D01*
X021428Y021974D01*
X023366Y022186D02*
X023401Y022151D01*
X023471Y022151D01*
X023506Y022186D01*
X023587Y022256D02*
X023727Y022256D01*
X023808Y022186D02*
X023843Y022151D01*
X023913Y022151D01*
X023948Y022186D01*
X023948Y022221D01*
X023913Y022256D01*
X023878Y022256D01*
X023913Y022256D02*
X023948Y022291D01*
X023948Y022326D01*
X023913Y022361D01*
X023843Y022361D01*
X023808Y022326D01*
X023692Y022361D02*
X023587Y022256D01*
X023506Y022326D02*
X023471Y022361D01*
X023401Y022361D01*
X023366Y022326D01*
X023366Y022186D01*
X023692Y022151D02*
X023692Y022361D01*
X028266Y022336D02*
X028266Y022195D01*
X028371Y022195D01*
X028336Y022265D01*
X028336Y022301D01*
X028371Y022336D01*
X028441Y022336D01*
X028476Y022301D01*
X028476Y022230D01*
X028441Y022195D01*
X028441Y022115D02*
X028476Y022080D01*
X028476Y022009D01*
X028441Y021974D01*
X028301Y021974D01*
X028266Y022009D01*
X028266Y022080D01*
X028301Y022115D01*
X028336Y022416D02*
X028266Y022486D01*
X028476Y022486D01*
X028476Y022416D02*
X028476Y022557D01*
X030416Y022290D02*
X030416Y022150D01*
X030451Y022115D01*
X030521Y022115D01*
X030556Y022150D01*
X030637Y022150D02*
X030672Y022115D01*
X030742Y022115D01*
X030777Y022150D01*
X030777Y022220D01*
X030742Y022255D01*
X030707Y022255D01*
X030637Y022220D01*
X030637Y022325D01*
X030777Y022325D01*
X030858Y022290D02*
X030893Y022325D01*
X030963Y022325D01*
X030998Y022290D01*
X030998Y022255D01*
X030858Y022115D01*
X030998Y022115D01*
X030556Y022290D02*
X030521Y022325D01*
X030451Y022325D01*
X030416Y022290D01*
X028596Y021385D02*
X028596Y021315D01*
X028561Y021280D01*
X028491Y021280D02*
X028456Y021350D01*
X028456Y021385D01*
X028491Y021420D01*
X028561Y021420D01*
X028596Y021385D01*
X028491Y021280D02*
X028386Y021280D01*
X028386Y021420D01*
X028421Y021199D02*
X028386Y021164D01*
X028386Y021094D01*
X028421Y021059D01*
X028456Y021059D01*
X028491Y021094D01*
X028491Y021199D01*
X028561Y021199D02*
X028421Y021199D01*
X028561Y021199D02*
X028596Y021164D01*
X028596Y021094D01*
X028561Y021059D01*
X028561Y020978D02*
X028596Y020943D01*
X028596Y020873D01*
X028561Y020838D01*
X028421Y020838D01*
X028386Y020873D01*
X028386Y020943D01*
X028421Y020978D01*
X030353Y020209D02*
X030353Y020069D01*
X030388Y020034D01*
X030458Y020034D01*
X030493Y020069D01*
X030574Y020069D02*
X030609Y020034D01*
X030679Y020034D01*
X030714Y020069D01*
X030714Y020209D01*
X030679Y020244D01*
X030609Y020244D01*
X030574Y020209D01*
X030574Y020174D01*
X030609Y020139D01*
X030714Y020139D01*
X030795Y020104D02*
X030830Y020139D01*
X030900Y020139D01*
X030935Y020104D01*
X030935Y020069D01*
X030900Y020034D01*
X030830Y020034D01*
X030795Y020069D01*
X030795Y020104D01*
X030830Y020139D02*
X030795Y020174D01*
X030795Y020209D01*
X030830Y020244D01*
X030900Y020244D01*
X030935Y020209D01*
X030935Y020174D01*
X030900Y020139D01*
X030493Y020209D02*
X030458Y020244D01*
X030388Y020244D01*
X030353Y020209D01*
X035422Y020973D02*
X035457Y020938D01*
X035598Y020938D01*
X035633Y020973D01*
X035633Y021043D01*
X035598Y021078D01*
X035633Y021159D02*
X035633Y021299D01*
X035633Y021229D02*
X035422Y021229D01*
X035492Y021159D01*
X035457Y021078D02*
X035422Y021043D01*
X035422Y020973D01*
X035457Y021380D02*
X035422Y021415D01*
X035422Y021485D01*
X035457Y021520D01*
X035598Y021380D01*
X035633Y021415D01*
X035633Y021485D01*
X035598Y021520D01*
X035457Y021520D01*
X035527Y021601D02*
X035527Y021741D01*
X035422Y021706D02*
X035527Y021601D01*
X035422Y021706D02*
X035633Y021706D01*
X035555Y021974D02*
X035415Y021974D01*
X035379Y022009D01*
X035379Y022080D01*
X035415Y022115D01*
X035485Y022195D02*
X035415Y022265D01*
X035379Y022336D01*
X035415Y022416D02*
X035379Y022451D01*
X035379Y022521D01*
X035415Y022557D01*
X035555Y022416D01*
X035590Y022451D01*
X035590Y022521D01*
X035555Y022557D01*
X035415Y022557D01*
X035415Y022416D02*
X035555Y022416D01*
X035555Y022336D02*
X035520Y022336D01*
X035485Y022301D01*
X035485Y022195D01*
X035555Y022195D01*
X035590Y022230D01*
X035590Y022301D01*
X035555Y022336D01*
X035555Y022115D02*
X035590Y022080D01*
X035590Y022009D01*
X035555Y021974D01*
X035598Y021380D02*
X035457Y021380D01*
X037416Y022163D02*
X037451Y022128D01*
X037521Y022128D01*
X037556Y022163D01*
X037637Y022163D02*
X037672Y022128D01*
X037742Y022128D01*
X037777Y022163D01*
X037777Y022198D01*
X037742Y022233D01*
X037637Y022233D01*
X037637Y022163D01*
X037637Y022233D02*
X037707Y022303D01*
X037777Y022338D01*
X037858Y022268D02*
X037928Y022338D01*
X037928Y022128D01*
X037858Y022128D02*
X037998Y022128D01*
X037556Y022303D02*
X037521Y022338D01*
X037451Y022338D01*
X037416Y022303D01*
X037416Y022163D01*
X037538Y020231D02*
X037503Y020196D01*
X037503Y020056D01*
X037538Y020021D01*
X037608Y020021D01*
X037643Y020056D01*
X037724Y020021D02*
X037864Y020021D01*
X037794Y020021D02*
X037794Y020231D01*
X037724Y020161D01*
X037643Y020196D02*
X037608Y020231D01*
X037538Y020231D01*
X037945Y020196D02*
X037945Y020056D01*
X038085Y020196D01*
X038085Y020056D01*
X038050Y020021D01*
X037980Y020021D01*
X037945Y020056D01*
X037945Y020196D02*
X037980Y020231D01*
X038050Y020231D01*
X038085Y020196D01*
X038166Y020231D02*
X038306Y020231D01*
X038306Y020196D01*
X038166Y020056D01*
X038166Y020021D01*
X042536Y020846D02*
X042571Y020811D01*
X042711Y020811D01*
X042746Y020846D01*
X042746Y020916D01*
X042711Y020951D01*
X042746Y021032D02*
X042746Y021172D01*
X042746Y021102D02*
X042536Y021102D01*
X042606Y021032D01*
X042571Y020951D02*
X042536Y020916D01*
X042536Y020846D01*
X042606Y021253D02*
X042536Y021323D01*
X042746Y021323D01*
X042746Y021253D02*
X042746Y021393D01*
X042746Y021474D02*
X042606Y021614D01*
X042571Y021614D01*
X042536Y021579D01*
X042536Y021509D01*
X042571Y021474D01*
X042746Y021474D02*
X042746Y021614D01*
X042678Y021834D02*
X042538Y021834D01*
X042503Y021869D01*
X042503Y021939D01*
X042538Y021974D01*
X042573Y022055D02*
X042503Y022125D01*
X042713Y022125D01*
X042713Y022055D02*
X042713Y022195D01*
X042608Y022276D02*
X042608Y022416D01*
X042678Y022497D02*
X042538Y022637D01*
X042678Y022637D01*
X042713Y022602D01*
X042713Y022532D01*
X042678Y022497D01*
X042538Y022497D01*
X042503Y022532D01*
X042503Y022602D01*
X042538Y022637D01*
X042503Y022381D02*
X042608Y022276D01*
X042713Y022381D02*
X042503Y022381D01*
X042678Y021974D02*
X042713Y021939D01*
X042713Y021869D01*
X042678Y021834D01*
X044576Y022136D02*
X044611Y022101D01*
X044681Y022101D01*
X044716Y022136D01*
X044797Y022101D02*
X044937Y022101D01*
X044867Y022101D02*
X044867Y022311D01*
X044797Y022241D01*
X044716Y022276D02*
X044681Y022311D01*
X044611Y022311D01*
X044576Y022276D01*
X044576Y022136D01*
X045018Y022206D02*
X045158Y022206D01*
X045239Y022241D02*
X045309Y022311D01*
X045309Y022101D01*
X045239Y022101D02*
X045379Y022101D01*
X045123Y022101D02*
X045123Y022311D01*
X045018Y022206D01*
X044917Y020194D02*
X044917Y019984D01*
X044847Y019984D02*
X044987Y019984D01*
X045068Y019984D02*
X045208Y019984D01*
X045138Y019984D02*
X045138Y020194D01*
X045068Y020124D01*
X044917Y020194D02*
X044847Y020124D01*
X044766Y020159D02*
X044731Y020194D01*
X044661Y020194D01*
X044626Y020159D01*
X044626Y020019D01*
X044661Y019984D01*
X044731Y019984D01*
X044766Y020019D01*
X045289Y020019D02*
X045324Y019984D01*
X045394Y019984D01*
X045429Y020019D01*
X045429Y020089D01*
X045394Y020124D01*
X045359Y020124D01*
X045289Y020089D01*
X045289Y020194D01*
X045429Y020194D01*
X049586Y020783D02*
X049621Y020748D01*
X049761Y020748D01*
X049796Y020783D01*
X049796Y020853D01*
X049761Y020888D01*
X049796Y020969D02*
X049796Y021109D01*
X049796Y021039D02*
X049586Y021039D01*
X049656Y020969D01*
X049621Y020888D02*
X049586Y020853D01*
X049586Y020783D01*
X049621Y021190D02*
X049586Y021225D01*
X049586Y021295D01*
X049621Y021330D01*
X049656Y021330D01*
X049796Y021190D01*
X049796Y021330D01*
X049796Y021411D02*
X049796Y021551D01*
X049796Y021481D02*
X049586Y021481D01*
X049656Y021411D01*
X049588Y021871D02*
X049728Y021871D01*
X049763Y021906D01*
X049763Y021976D01*
X049728Y022011D01*
X049763Y022092D02*
X049763Y022232D01*
X049763Y022162D02*
X049553Y022162D01*
X049623Y022092D01*
X049588Y022011D02*
X049553Y021976D01*
X049553Y021906D01*
X049588Y021871D01*
X049658Y022313D02*
X049658Y022453D01*
X049623Y022534D02*
X049658Y022569D01*
X049658Y022674D01*
X049728Y022674D02*
X049588Y022674D01*
X049553Y022639D01*
X049553Y022569D01*
X049588Y022534D01*
X049623Y022534D01*
X049728Y022534D02*
X049763Y022569D01*
X049763Y022639D01*
X049728Y022674D01*
X049763Y022418D02*
X049553Y022418D01*
X049658Y022313D01*
X051713Y022326D02*
X051713Y022186D01*
X051748Y022151D01*
X051818Y022151D01*
X051853Y022186D01*
X051934Y022151D02*
X052074Y022151D01*
X052004Y022151D02*
X052004Y022361D01*
X051934Y022291D01*
X051853Y022326D02*
X051818Y022361D01*
X051748Y022361D01*
X051713Y022326D01*
X052155Y022361D02*
X052155Y022256D01*
X052225Y022291D01*
X052260Y022291D01*
X052295Y022256D01*
X052295Y022186D01*
X052260Y022151D01*
X052190Y022151D01*
X052155Y022186D01*
X052155Y022361D02*
X052295Y022361D01*
X052376Y022326D02*
X052411Y022361D01*
X052481Y022361D01*
X052516Y022326D01*
X052376Y022186D01*
X052411Y022151D01*
X052481Y022151D01*
X052516Y022186D01*
X052516Y022326D01*
X052376Y022326D02*
X052376Y022186D01*
X052310Y020244D02*
X052240Y020244D01*
X052205Y020209D01*
X052310Y020244D02*
X052345Y020209D01*
X052345Y020174D01*
X052205Y020034D01*
X052345Y020034D01*
X052426Y020139D02*
X052566Y020139D01*
X052531Y020034D02*
X052531Y020244D01*
X052426Y020139D01*
X052124Y020034D02*
X051984Y020034D01*
X052054Y020034D02*
X052054Y020244D01*
X051984Y020174D01*
X051903Y020209D02*
X051868Y020244D01*
X051798Y020244D01*
X051763Y020209D01*
X051763Y020069D01*
X051798Y020034D01*
X051868Y020034D01*
X051903Y020069D01*
X056636Y020869D02*
X056671Y020834D01*
X056811Y020834D01*
X056846Y020869D01*
X056846Y020939D01*
X056811Y020974D01*
X056846Y021055D02*
X056846Y021195D01*
X056846Y021125D02*
X056636Y021125D01*
X056706Y021055D01*
X056671Y020974D02*
X056636Y020939D01*
X056636Y020869D01*
X056671Y021276D02*
X056636Y021311D01*
X056636Y021381D01*
X056671Y021416D01*
X056706Y021416D01*
X056741Y021381D01*
X056776Y021416D01*
X056811Y021416D01*
X056846Y021381D01*
X056846Y021311D01*
X056811Y021276D01*
X056741Y021346D02*
X056741Y021381D01*
X056811Y021497D02*
X056671Y021637D01*
X056811Y021637D01*
X056846Y021602D01*
X056846Y021532D01*
X056811Y021497D01*
X056671Y021497D01*
X056636Y021532D01*
X056636Y021602D01*
X056671Y021637D01*
X056688Y021858D02*
X056828Y021858D01*
X056863Y021893D01*
X056863Y021963D01*
X056828Y021998D01*
X056863Y022079D02*
X056863Y022219D01*
X056863Y022149D02*
X056653Y022149D01*
X056723Y022079D01*
X056688Y021998D02*
X056653Y021963D01*
X056653Y021893D01*
X056688Y021858D01*
X056653Y022299D02*
X056758Y022299D01*
X056723Y022370D01*
X056723Y022405D01*
X056758Y022440D01*
X056828Y022440D01*
X056863Y022405D01*
X056863Y022334D01*
X056828Y022299D01*
X056653Y022299D02*
X056653Y022440D01*
X056688Y022520D02*
X056723Y022520D01*
X056758Y022555D01*
X056758Y022626D01*
X056793Y022661D01*
X056828Y022661D01*
X056863Y022626D01*
X056863Y022555D01*
X056828Y022520D01*
X056793Y022520D01*
X056758Y022555D01*
X056758Y022626D02*
X056723Y022661D01*
X056688Y022661D01*
X056653Y022626D01*
X056653Y022555D01*
X056688Y022520D01*
X058649Y022276D02*
X058649Y022136D01*
X058684Y022101D01*
X058754Y022101D01*
X058789Y022136D01*
X058870Y022101D02*
X059010Y022101D01*
X058940Y022101D02*
X058940Y022311D01*
X058870Y022241D01*
X058789Y022276D02*
X058754Y022311D01*
X058684Y022311D01*
X058649Y022276D01*
X059091Y022311D02*
X059091Y022206D01*
X059161Y022241D01*
X059196Y022241D01*
X059231Y022206D01*
X059231Y022136D01*
X059196Y022101D01*
X059126Y022101D01*
X059091Y022136D01*
X059091Y022311D02*
X059231Y022311D01*
X059312Y022276D02*
X059312Y022241D01*
X059347Y022206D01*
X059452Y022206D01*
X059452Y022136D02*
X059452Y022276D01*
X059417Y022311D01*
X059347Y022311D01*
X059312Y022276D01*
X059312Y022136D02*
X059347Y022101D01*
X059417Y022101D01*
X059452Y022136D01*
X059447Y020194D02*
X059517Y020194D01*
X059552Y020159D01*
X059552Y020124D01*
X059517Y020089D01*
X059552Y020054D01*
X059552Y020019D01*
X059517Y019984D01*
X059447Y019984D01*
X059412Y020019D01*
X059331Y020019D02*
X059296Y019984D01*
X059226Y019984D01*
X059191Y020019D01*
X059110Y019984D02*
X058970Y019984D01*
X059040Y019984D02*
X059040Y020194D01*
X058970Y020124D01*
X058889Y020159D02*
X058854Y020194D01*
X058784Y020194D01*
X058749Y020159D01*
X058749Y020019D01*
X058784Y019984D01*
X058854Y019984D01*
X058889Y020019D01*
X059191Y020159D02*
X059226Y020194D01*
X059296Y020194D01*
X059331Y020159D01*
X059331Y020124D01*
X059296Y020089D01*
X059331Y020054D01*
X059331Y020019D01*
X059296Y020089D02*
X059261Y020089D01*
X059412Y020159D02*
X059447Y020194D01*
X059482Y020089D02*
X059517Y020089D01*
X016885Y020046D02*
X016850Y020011D01*
X016780Y020011D01*
X016745Y020046D01*
X016885Y020186D01*
X016885Y020046D01*
X016885Y020186D02*
X016850Y020221D01*
X016780Y020221D01*
X016745Y020186D01*
X016745Y020046D01*
X016664Y020046D02*
X016629Y020011D01*
X016559Y020011D01*
X016524Y020046D01*
X016524Y020081D01*
X016559Y020116D01*
X016629Y020116D01*
X016664Y020081D01*
X016664Y020046D01*
X016629Y020116D02*
X016664Y020151D01*
X016664Y020186D01*
X016629Y020221D01*
X016559Y020221D01*
X016524Y020186D01*
X016524Y020151D01*
X016559Y020116D01*
X016443Y020046D02*
X016408Y020011D01*
X016338Y020011D01*
X016303Y020046D01*
X016303Y020186D01*
X016338Y020221D01*
X016408Y020221D01*
X016443Y020186D01*
X014373Y020823D02*
X014373Y020893D01*
X014338Y020928D01*
X014338Y021009D02*
X014373Y021009D01*
X014338Y021009D02*
X014198Y021149D01*
X014163Y021149D01*
X014163Y021009D01*
X014198Y020928D02*
X014163Y020893D01*
X014163Y020823D01*
X014198Y020788D01*
X014338Y020788D01*
X014373Y020823D01*
X014373Y021230D02*
X014338Y021230D01*
X014198Y021370D01*
X014163Y021370D01*
X014163Y021230D01*
X014124Y021924D02*
X014264Y021924D01*
X014299Y021959D01*
X014299Y022030D01*
X014264Y022065D01*
X014264Y022145D02*
X014299Y022180D01*
X014299Y022251D01*
X014264Y022286D01*
X014229Y022286D01*
X014194Y022251D01*
X014194Y022215D01*
X014194Y022251D02*
X014159Y022286D01*
X014124Y022286D01*
X014089Y022251D01*
X014089Y022180D01*
X014124Y022145D01*
X014124Y022065D02*
X014089Y022030D01*
X014089Y021959D01*
X014124Y021924D01*
X014124Y022366D02*
X014089Y022401D01*
X014089Y022471D01*
X014124Y022507D01*
X014159Y022507D01*
X014194Y022471D01*
X014229Y022507D01*
X014264Y022507D01*
X014299Y022471D01*
X014299Y022401D01*
X014264Y022366D01*
X014194Y022436D02*
X014194Y022471D01*
X016266Y022313D02*
X016266Y022173D01*
X016301Y022138D01*
X016371Y022138D01*
X016406Y022173D01*
X016487Y022173D02*
X016522Y022138D01*
X016592Y022138D01*
X016627Y022173D01*
X016627Y022208D01*
X016592Y022243D01*
X016557Y022243D01*
X016592Y022243D02*
X016627Y022278D01*
X016627Y022313D01*
X016592Y022348D01*
X016522Y022348D01*
X016487Y022313D01*
X016406Y022313D02*
X016371Y022348D01*
X016301Y022348D01*
X016266Y022313D01*
X016708Y022243D02*
X016848Y022243D01*
X016813Y022348D02*
X016708Y022243D01*
X016813Y022138D02*
X016813Y022348D01*
X009748Y022300D02*
X009748Y022265D01*
X009713Y022230D01*
X009748Y022194D01*
X009748Y022159D01*
X009713Y022124D01*
X009643Y022124D01*
X009608Y022159D01*
X009527Y022124D02*
X009387Y022124D01*
X009527Y022265D01*
X009527Y022300D01*
X009492Y022335D01*
X009422Y022335D01*
X009387Y022300D01*
X009306Y022300D02*
X009271Y022335D01*
X009201Y022335D01*
X009166Y022300D01*
X009166Y022159D01*
X009201Y022124D01*
X009271Y022124D01*
X009306Y022159D01*
X009608Y022300D02*
X009643Y022335D01*
X009713Y022335D01*
X009748Y022300D01*
X009713Y022230D02*
X009678Y022230D01*
X007236Y022286D02*
X007236Y022145D01*
X007096Y022286D01*
X007061Y022286D01*
X007026Y022251D01*
X007026Y022180D01*
X007061Y022145D01*
X007061Y022065D02*
X007026Y022030D01*
X007026Y021959D01*
X007061Y021924D01*
X007201Y021924D01*
X007236Y021959D01*
X007236Y022030D01*
X007201Y022065D01*
X007236Y022366D02*
X007096Y022507D01*
X007061Y022507D01*
X007026Y022471D01*
X007026Y022401D01*
X007061Y022366D01*
X007236Y022366D02*
X007236Y022507D01*
X007251Y021220D02*
X007286Y021185D01*
X007286Y021115D01*
X007251Y021080D01*
X007216Y021080D01*
X007181Y021115D01*
X007181Y021185D01*
X007216Y021220D01*
X007251Y021220D01*
X007181Y021185D02*
X007146Y021220D01*
X007111Y021220D01*
X007076Y021185D01*
X007076Y021115D01*
X007111Y021080D01*
X007146Y021080D01*
X007181Y021115D01*
X007216Y020999D02*
X007181Y020964D01*
X007181Y020859D01*
X007251Y020859D01*
X007286Y020894D01*
X007286Y020964D01*
X007251Y020999D01*
X007216Y020999D01*
X007111Y020929D02*
X007181Y020859D01*
X007111Y020929D02*
X007076Y020999D01*
X007111Y020778D02*
X007076Y020743D01*
X007076Y020673D01*
X007111Y020638D01*
X007251Y020638D01*
X007286Y020673D01*
X007286Y020743D01*
X007251Y020778D01*
X009203Y020200D02*
X009203Y020059D01*
X009238Y020024D01*
X009308Y020024D01*
X009343Y020059D01*
X009424Y020059D02*
X009424Y020024D01*
X009424Y020059D02*
X009564Y020200D01*
X009564Y020235D01*
X009424Y020235D01*
X009343Y020200D02*
X009308Y020235D01*
X009238Y020235D01*
X009203Y020200D01*
X009645Y020165D02*
X009715Y020235D01*
X009715Y020024D01*
X009645Y020024D02*
X009785Y020024D01*
D13*
X007985Y018917D02*
X007985Y018760D01*
X007985Y018917D02*
X007827Y018917D01*
X005386Y018917D02*
X005229Y018917D01*
X005229Y018760D01*
X004921Y019114D02*
X004923Y019134D01*
X004928Y019154D01*
X004938Y019172D01*
X004950Y019189D01*
X004965Y019203D01*
X004983Y019213D01*
X005002Y019221D01*
X005022Y019225D01*
X005042Y019225D01*
X005062Y019221D01*
X005081Y019213D01*
X005099Y019203D01*
X005114Y019189D01*
X005126Y019172D01*
X005136Y019154D01*
X005141Y019134D01*
X005143Y019114D01*
X005141Y019094D01*
X005136Y019074D01*
X005126Y019056D01*
X005114Y019039D01*
X005099Y019025D01*
X005081Y019015D01*
X005062Y019007D01*
X005042Y019003D01*
X005022Y019003D01*
X005002Y019007D01*
X004983Y019015D01*
X004965Y019025D01*
X004950Y019039D01*
X004938Y019056D01*
X004928Y019074D01*
X004923Y019094D01*
X004921Y019114D01*
X005229Y016319D02*
X005229Y016161D01*
X005386Y016161D01*
X007827Y016161D02*
X007985Y016161D01*
X007985Y016319D01*
X012315Y016319D02*
X012315Y016161D01*
X012473Y016161D01*
X014914Y016161D02*
X015071Y016161D01*
X015071Y016319D01*
X019402Y016319D02*
X019402Y016161D01*
X019559Y016161D01*
X022000Y016161D02*
X022158Y016161D01*
X022158Y016319D01*
X022158Y018760D02*
X022158Y018917D01*
X022000Y018917D01*
X019559Y018917D02*
X019402Y018917D01*
X019402Y018760D01*
X019094Y019114D02*
X019096Y019134D01*
X019101Y019154D01*
X019111Y019172D01*
X019123Y019189D01*
X019138Y019203D01*
X019156Y019213D01*
X019175Y019221D01*
X019195Y019225D01*
X019215Y019225D01*
X019235Y019221D01*
X019254Y019213D01*
X019272Y019203D01*
X019287Y019189D01*
X019299Y019172D01*
X019309Y019154D01*
X019314Y019134D01*
X019316Y019114D01*
X019314Y019094D01*
X019309Y019074D01*
X019299Y019056D01*
X019287Y019039D01*
X019272Y019025D01*
X019254Y019015D01*
X019235Y019007D01*
X019215Y019003D01*
X019195Y019003D01*
X019175Y019007D01*
X019156Y019015D01*
X019138Y019025D01*
X019123Y019039D01*
X019111Y019056D01*
X019101Y019074D01*
X019096Y019094D01*
X019094Y019114D01*
X015071Y018917D02*
X015071Y018760D01*
X015071Y018917D02*
X014914Y018917D01*
X012473Y018917D02*
X012315Y018917D01*
X012315Y018760D01*
X012007Y019114D02*
X012009Y019134D01*
X012014Y019154D01*
X012024Y019172D01*
X012036Y019189D01*
X012051Y019203D01*
X012069Y019213D01*
X012088Y019221D01*
X012108Y019225D01*
X012128Y019225D01*
X012148Y019221D01*
X012167Y019213D01*
X012185Y019203D01*
X012200Y019189D01*
X012212Y019172D01*
X012222Y019154D01*
X012227Y019134D01*
X012229Y019114D01*
X012227Y019094D01*
X012222Y019074D01*
X012212Y019056D01*
X012200Y019039D01*
X012185Y019025D01*
X012167Y019015D01*
X012148Y019007D01*
X012128Y019003D01*
X012108Y019003D01*
X012088Y019007D01*
X012069Y019015D01*
X012051Y019025D01*
X012036Y019039D01*
X012024Y019056D01*
X012014Y019074D01*
X012009Y019094D01*
X012007Y019114D01*
X012315Y023248D02*
X012315Y023406D01*
X012315Y023248D02*
X012473Y023248D01*
X014914Y023248D02*
X015071Y023248D01*
X015071Y023406D01*
X019402Y023406D02*
X019402Y023248D01*
X019559Y023248D01*
X022000Y023248D02*
X022158Y023248D01*
X022158Y023406D01*
X022158Y025846D02*
X022158Y026004D01*
X022000Y026004D01*
X019559Y026004D02*
X019402Y026004D01*
X019402Y025846D01*
X019094Y026201D02*
X019096Y026221D01*
X019101Y026241D01*
X019111Y026259D01*
X019123Y026276D01*
X019138Y026290D01*
X019156Y026300D01*
X019175Y026308D01*
X019195Y026312D01*
X019215Y026312D01*
X019235Y026308D01*
X019254Y026300D01*
X019272Y026290D01*
X019287Y026276D01*
X019299Y026259D01*
X019309Y026241D01*
X019314Y026221D01*
X019316Y026201D01*
X019314Y026181D01*
X019309Y026161D01*
X019299Y026143D01*
X019287Y026126D01*
X019272Y026112D01*
X019254Y026102D01*
X019235Y026094D01*
X019215Y026090D01*
X019195Y026090D01*
X019175Y026094D01*
X019156Y026102D01*
X019138Y026112D01*
X019123Y026126D01*
X019111Y026143D01*
X019101Y026161D01*
X019096Y026181D01*
X019094Y026201D01*
X015071Y026004D02*
X015071Y025846D01*
X015071Y026004D02*
X014914Y026004D01*
X012473Y026004D02*
X012315Y026004D01*
X012315Y025846D01*
X012007Y026201D02*
X012009Y026221D01*
X012014Y026241D01*
X012024Y026259D01*
X012036Y026276D01*
X012051Y026290D01*
X012069Y026300D01*
X012088Y026308D01*
X012108Y026312D01*
X012128Y026312D01*
X012148Y026308D01*
X012167Y026300D01*
X012185Y026290D01*
X012200Y026276D01*
X012212Y026259D01*
X012222Y026241D01*
X012227Y026221D01*
X012229Y026201D01*
X012227Y026181D01*
X012222Y026161D01*
X012212Y026143D01*
X012200Y026126D01*
X012185Y026112D01*
X012167Y026102D01*
X012148Y026094D01*
X012128Y026090D01*
X012108Y026090D01*
X012088Y026094D01*
X012069Y026102D01*
X012051Y026112D01*
X012036Y026126D01*
X012024Y026143D01*
X012014Y026161D01*
X012009Y026181D01*
X012007Y026201D01*
X007985Y026004D02*
X007985Y025846D01*
X007985Y026004D02*
X007827Y026004D01*
X005386Y026004D02*
X005229Y026004D01*
X005229Y025846D01*
X004921Y026201D02*
X004923Y026221D01*
X004928Y026241D01*
X004938Y026259D01*
X004950Y026276D01*
X004965Y026290D01*
X004983Y026300D01*
X005002Y026308D01*
X005022Y026312D01*
X005042Y026312D01*
X005062Y026308D01*
X005081Y026300D01*
X005099Y026290D01*
X005114Y026276D01*
X005126Y026259D01*
X005136Y026241D01*
X005141Y026221D01*
X005143Y026201D01*
X005141Y026181D01*
X005136Y026161D01*
X005126Y026143D01*
X005114Y026126D01*
X005099Y026112D01*
X005081Y026102D01*
X005062Y026094D01*
X005042Y026090D01*
X005022Y026090D01*
X005002Y026094D01*
X004983Y026102D01*
X004965Y026112D01*
X004950Y026126D01*
X004938Y026143D01*
X004928Y026161D01*
X004923Y026181D01*
X004921Y026201D01*
X005229Y023406D02*
X005229Y023248D01*
X005386Y023248D01*
X007827Y023248D02*
X007985Y023248D01*
X007985Y023406D01*
X026181Y026201D02*
X026183Y026221D01*
X026188Y026241D01*
X026198Y026259D01*
X026210Y026276D01*
X026225Y026290D01*
X026243Y026300D01*
X026262Y026308D01*
X026282Y026312D01*
X026302Y026312D01*
X026322Y026308D01*
X026341Y026300D01*
X026359Y026290D01*
X026374Y026276D01*
X026386Y026259D01*
X026396Y026241D01*
X026401Y026221D01*
X026403Y026201D01*
X026401Y026181D01*
X026396Y026161D01*
X026386Y026143D01*
X026374Y026126D01*
X026359Y026112D01*
X026341Y026102D01*
X026322Y026094D01*
X026302Y026090D01*
X026282Y026090D01*
X026262Y026094D01*
X026243Y026102D01*
X026225Y026112D01*
X026210Y026126D01*
X026198Y026143D01*
X026188Y026161D01*
X026183Y026181D01*
X026181Y026201D01*
X026489Y026004D02*
X026646Y026004D01*
X026489Y026004D02*
X026489Y025846D01*
X029087Y026004D02*
X029244Y026004D01*
X029244Y025846D01*
X033267Y026201D02*
X033269Y026221D01*
X033274Y026241D01*
X033284Y026259D01*
X033296Y026276D01*
X033311Y026290D01*
X033329Y026300D01*
X033348Y026308D01*
X033368Y026312D01*
X033388Y026312D01*
X033408Y026308D01*
X033427Y026300D01*
X033445Y026290D01*
X033460Y026276D01*
X033472Y026259D01*
X033482Y026241D01*
X033487Y026221D01*
X033489Y026201D01*
X033487Y026181D01*
X033482Y026161D01*
X033472Y026143D01*
X033460Y026126D01*
X033445Y026112D01*
X033427Y026102D01*
X033408Y026094D01*
X033388Y026090D01*
X033368Y026090D01*
X033348Y026094D01*
X033329Y026102D01*
X033311Y026112D01*
X033296Y026126D01*
X033284Y026143D01*
X033274Y026161D01*
X033269Y026181D01*
X033267Y026201D01*
X033575Y026004D02*
X033733Y026004D01*
X033575Y026004D02*
X033575Y025846D01*
X036174Y026004D02*
X036331Y026004D01*
X036331Y025846D01*
X040354Y026201D02*
X040356Y026221D01*
X040361Y026241D01*
X040371Y026259D01*
X040383Y026276D01*
X040398Y026290D01*
X040416Y026300D01*
X040435Y026308D01*
X040455Y026312D01*
X040475Y026312D01*
X040495Y026308D01*
X040514Y026300D01*
X040532Y026290D01*
X040547Y026276D01*
X040559Y026259D01*
X040569Y026241D01*
X040574Y026221D01*
X040576Y026201D01*
X040574Y026181D01*
X040569Y026161D01*
X040559Y026143D01*
X040547Y026126D01*
X040532Y026112D01*
X040514Y026102D01*
X040495Y026094D01*
X040475Y026090D01*
X040455Y026090D01*
X040435Y026094D01*
X040416Y026102D01*
X040398Y026112D01*
X040383Y026126D01*
X040371Y026143D01*
X040361Y026161D01*
X040356Y026181D01*
X040354Y026201D01*
X040662Y026004D02*
X040819Y026004D01*
X040662Y026004D02*
X040662Y025846D01*
X043260Y026004D02*
X043418Y026004D01*
X043418Y025846D01*
X047440Y026201D02*
X047442Y026221D01*
X047447Y026241D01*
X047457Y026259D01*
X047469Y026276D01*
X047484Y026290D01*
X047502Y026300D01*
X047521Y026308D01*
X047541Y026312D01*
X047561Y026312D01*
X047581Y026308D01*
X047600Y026300D01*
X047618Y026290D01*
X047633Y026276D01*
X047645Y026259D01*
X047655Y026241D01*
X047660Y026221D01*
X047662Y026201D01*
X047660Y026181D01*
X047655Y026161D01*
X047645Y026143D01*
X047633Y026126D01*
X047618Y026112D01*
X047600Y026102D01*
X047581Y026094D01*
X047561Y026090D01*
X047541Y026090D01*
X047521Y026094D01*
X047502Y026102D01*
X047484Y026112D01*
X047469Y026126D01*
X047457Y026143D01*
X047447Y026161D01*
X047442Y026181D01*
X047440Y026201D01*
X047748Y026004D02*
X047906Y026004D01*
X047748Y026004D02*
X047748Y025846D01*
X050347Y026004D02*
X050504Y026004D01*
X050504Y025846D01*
X054527Y026201D02*
X054529Y026221D01*
X054534Y026241D01*
X054544Y026259D01*
X054556Y026276D01*
X054571Y026290D01*
X054589Y026300D01*
X054608Y026308D01*
X054628Y026312D01*
X054648Y026312D01*
X054668Y026308D01*
X054687Y026300D01*
X054705Y026290D01*
X054720Y026276D01*
X054732Y026259D01*
X054742Y026241D01*
X054747Y026221D01*
X054749Y026201D01*
X054747Y026181D01*
X054742Y026161D01*
X054732Y026143D01*
X054720Y026126D01*
X054705Y026112D01*
X054687Y026102D01*
X054668Y026094D01*
X054648Y026090D01*
X054628Y026090D01*
X054608Y026094D01*
X054589Y026102D01*
X054571Y026112D01*
X054556Y026126D01*
X054544Y026143D01*
X054534Y026161D01*
X054529Y026181D01*
X054527Y026201D01*
X054835Y026004D02*
X054992Y026004D01*
X054835Y026004D02*
X054835Y025846D01*
X057433Y026004D02*
X057591Y026004D01*
X057591Y025846D01*
X057591Y023406D02*
X057591Y023248D01*
X057433Y023248D01*
X054992Y023248D02*
X054835Y023248D01*
X054835Y023406D01*
X050504Y023406D02*
X050504Y023248D01*
X050347Y023248D01*
X047906Y023248D02*
X047748Y023248D01*
X047748Y023406D01*
X043418Y023406D02*
X043418Y023248D01*
X043260Y023248D01*
X040819Y023248D02*
X040662Y023248D01*
X040662Y023406D01*
X036331Y023406D02*
X036331Y023248D01*
X036174Y023248D01*
X033733Y023248D02*
X033575Y023248D01*
X033575Y023406D01*
X029244Y023406D02*
X029244Y023248D01*
X029087Y023248D01*
X026646Y023248D02*
X026489Y023248D01*
X026489Y023406D01*
X026181Y019114D02*
X026183Y019134D01*
X026188Y019154D01*
X026198Y019172D01*
X026210Y019189D01*
X026225Y019203D01*
X026243Y019213D01*
X026262Y019221D01*
X026282Y019225D01*
X026302Y019225D01*
X026322Y019221D01*
X026341Y019213D01*
X026359Y019203D01*
X026374Y019189D01*
X026386Y019172D01*
X026396Y019154D01*
X026401Y019134D01*
X026403Y019114D01*
X026401Y019094D01*
X026396Y019074D01*
X026386Y019056D01*
X026374Y019039D01*
X026359Y019025D01*
X026341Y019015D01*
X026322Y019007D01*
X026302Y019003D01*
X026282Y019003D01*
X026262Y019007D01*
X026243Y019015D01*
X026225Y019025D01*
X026210Y019039D01*
X026198Y019056D01*
X026188Y019074D01*
X026183Y019094D01*
X026181Y019114D01*
X026489Y018917D02*
X026489Y018760D01*
X026489Y018917D02*
X026646Y018917D01*
X029087Y018917D02*
X029244Y018917D01*
X029244Y018760D01*
X033267Y019114D02*
X033269Y019134D01*
X033274Y019154D01*
X033284Y019172D01*
X033296Y019189D01*
X033311Y019203D01*
X033329Y019213D01*
X033348Y019221D01*
X033368Y019225D01*
X033388Y019225D01*
X033408Y019221D01*
X033427Y019213D01*
X033445Y019203D01*
X033460Y019189D01*
X033472Y019172D01*
X033482Y019154D01*
X033487Y019134D01*
X033489Y019114D01*
X033487Y019094D01*
X033482Y019074D01*
X033472Y019056D01*
X033460Y019039D01*
X033445Y019025D01*
X033427Y019015D01*
X033408Y019007D01*
X033388Y019003D01*
X033368Y019003D01*
X033348Y019007D01*
X033329Y019015D01*
X033311Y019025D01*
X033296Y019039D01*
X033284Y019056D01*
X033274Y019074D01*
X033269Y019094D01*
X033267Y019114D01*
X033575Y018917D02*
X033733Y018917D01*
X033575Y018917D02*
X033575Y018760D01*
X036174Y018917D02*
X036331Y018917D01*
X036331Y018760D01*
X040354Y019114D02*
X040356Y019134D01*
X040361Y019154D01*
X040371Y019172D01*
X040383Y019189D01*
X040398Y019203D01*
X040416Y019213D01*
X040435Y019221D01*
X040455Y019225D01*
X040475Y019225D01*
X040495Y019221D01*
X040514Y019213D01*
X040532Y019203D01*
X040547Y019189D01*
X040559Y019172D01*
X040569Y019154D01*
X040574Y019134D01*
X040576Y019114D01*
X040574Y019094D01*
X040569Y019074D01*
X040559Y019056D01*
X040547Y019039D01*
X040532Y019025D01*
X040514Y019015D01*
X040495Y019007D01*
X040475Y019003D01*
X040455Y019003D01*
X040435Y019007D01*
X040416Y019015D01*
X040398Y019025D01*
X040383Y019039D01*
X040371Y019056D01*
X040361Y019074D01*
X040356Y019094D01*
X040354Y019114D01*
X040662Y018917D02*
X040819Y018917D01*
X040662Y018917D02*
X040662Y018760D01*
X043260Y018917D02*
X043418Y018917D01*
X043418Y018760D01*
X047440Y019114D02*
X047442Y019134D01*
X047447Y019154D01*
X047457Y019172D01*
X047469Y019189D01*
X047484Y019203D01*
X047502Y019213D01*
X047521Y019221D01*
X047541Y019225D01*
X047561Y019225D01*
X047581Y019221D01*
X047600Y019213D01*
X047618Y019203D01*
X047633Y019189D01*
X047645Y019172D01*
X047655Y019154D01*
X047660Y019134D01*
X047662Y019114D01*
X047660Y019094D01*
X047655Y019074D01*
X047645Y019056D01*
X047633Y019039D01*
X047618Y019025D01*
X047600Y019015D01*
X047581Y019007D01*
X047561Y019003D01*
X047541Y019003D01*
X047521Y019007D01*
X047502Y019015D01*
X047484Y019025D01*
X047469Y019039D01*
X047457Y019056D01*
X047447Y019074D01*
X047442Y019094D01*
X047440Y019114D01*
X047748Y018917D02*
X047748Y018760D01*
X047748Y018917D02*
X047906Y018917D01*
X050347Y018917D02*
X050504Y018917D01*
X050504Y018760D01*
X054527Y019114D02*
X054529Y019134D01*
X054534Y019154D01*
X054544Y019172D01*
X054556Y019189D01*
X054571Y019203D01*
X054589Y019213D01*
X054608Y019221D01*
X054628Y019225D01*
X054648Y019225D01*
X054668Y019221D01*
X054687Y019213D01*
X054705Y019203D01*
X054720Y019189D01*
X054732Y019172D01*
X054742Y019154D01*
X054747Y019134D01*
X054749Y019114D01*
X054747Y019094D01*
X054742Y019074D01*
X054732Y019056D01*
X054720Y019039D01*
X054705Y019025D01*
X054687Y019015D01*
X054668Y019007D01*
X054648Y019003D01*
X054628Y019003D01*
X054608Y019007D01*
X054589Y019015D01*
X054571Y019025D01*
X054556Y019039D01*
X054544Y019056D01*
X054534Y019074D01*
X054529Y019094D01*
X054527Y019114D01*
X054835Y018917D02*
X054835Y018760D01*
X054835Y018917D02*
X054992Y018917D01*
X057433Y018917D02*
X057591Y018917D01*
X057591Y018760D01*
X057591Y016319D02*
X057591Y016161D01*
X057433Y016161D01*
X054992Y016161D02*
X054835Y016161D01*
X054835Y016319D01*
X050504Y016319D02*
X050504Y016161D01*
X050347Y016161D01*
X047906Y016161D02*
X047748Y016161D01*
X047748Y016319D01*
X043418Y016319D02*
X043418Y016161D01*
X043260Y016161D01*
X040819Y016161D02*
X040662Y016161D01*
X040662Y016319D01*
X036331Y016319D02*
X036331Y016161D01*
X036174Y016161D01*
X033733Y016161D02*
X033575Y016161D01*
X033575Y016319D01*
X029244Y016319D02*
X029244Y016161D01*
X029087Y016161D01*
X026646Y016161D02*
X026489Y016161D01*
X026489Y016319D01*
X022487Y013512D02*
X022487Y002662D01*
X043337Y002662D01*
X043337Y013512D01*
X022487Y013512D01*
X018173Y012506D02*
X018173Y011325D01*
X017583Y010537D02*
X016795Y010537D01*
X016205Y011325D02*
X016205Y012506D01*
X016835Y013293D02*
X017543Y013293D01*
X020203Y009054D02*
X020203Y002054D01*
X022203Y002054D01*
X022203Y009054D01*
X020203Y009054D01*
X019977Y003609D02*
X017025Y003609D01*
X017025Y001562D01*
X019977Y001562D01*
X019977Y003609D01*
X019977Y001562D02*
X019977Y001326D01*
X017025Y001326D01*
X017025Y001562D01*
X043535Y001599D02*
X043535Y006639D01*
X048968Y006639D01*
X048968Y001599D01*
X043535Y001599D01*
X045424Y001599D02*
X045424Y002308D01*
X047078Y002308D01*
X047078Y002465D01*
X045424Y002465D01*
X045424Y002308D01*
X047078Y002308D02*
X047078Y001599D01*
X049327Y001903D02*
X049327Y006628D01*
X054052Y006628D01*
X054052Y001903D01*
X049327Y001903D01*
D14*
X046567Y001239D02*
X046380Y001239D01*
X046473Y001239D02*
X046473Y001519D01*
X046380Y001425D01*
X046272Y001519D02*
X046085Y001239D01*
X046272Y001239D02*
X046085Y001519D01*
X040613Y001503D02*
X040613Y001456D01*
X040567Y001409D01*
X040473Y001409D01*
X040426Y001456D01*
X040319Y001456D02*
X040272Y001409D01*
X040179Y001409D01*
X040132Y001456D01*
X040132Y001643D01*
X040179Y001690D01*
X040272Y001690D01*
X040319Y001643D01*
X040426Y001643D02*
X040473Y001690D01*
X040567Y001690D01*
X040613Y001643D01*
X040613Y001596D01*
X040567Y001550D01*
X040613Y001503D01*
X040567Y001550D02*
X040520Y001550D01*
X034363Y001550D02*
X034176Y001550D01*
X034317Y001690D01*
X034317Y001409D01*
X034069Y001456D02*
X034022Y001409D01*
X033929Y001409D01*
X033882Y001456D01*
X033882Y001643D01*
X033929Y001690D01*
X034022Y001690D01*
X034069Y001643D01*
X028013Y001690D02*
X027826Y001690D01*
X027826Y001550D01*
X027920Y001596D01*
X027967Y001596D01*
X028013Y001550D01*
X028013Y001456D01*
X027967Y001409D01*
X027873Y001409D01*
X027826Y001456D01*
X027719Y001456D02*
X027672Y001409D01*
X027579Y001409D01*
X027532Y001456D01*
X027532Y001643D01*
X027579Y001690D01*
X027672Y001690D01*
X027719Y001643D01*
X024964Y001419D02*
X024777Y001419D01*
X024870Y001419D02*
X024870Y001699D01*
X024777Y001606D01*
X024669Y001652D02*
X024669Y001559D01*
X024622Y001512D01*
X024482Y001512D01*
X024482Y001419D02*
X024482Y001699D01*
X024622Y001699D01*
X024669Y001652D01*
X024374Y001699D02*
X024188Y001699D01*
X024281Y001699D02*
X024281Y001419D01*
X016901Y002190D02*
X016621Y002377D01*
X016668Y002485D02*
X016621Y002531D01*
X016621Y002625D01*
X016668Y002672D01*
X016714Y002672D01*
X016761Y002625D01*
X016808Y002672D01*
X016854Y002672D01*
X016901Y002625D01*
X016901Y002531D01*
X016854Y002485D01*
X016901Y002377D02*
X016621Y002190D01*
X016761Y002578D02*
X016761Y002625D01*
X015847Y002110D02*
X015660Y002110D01*
X015660Y001970D01*
X015754Y002016D01*
X015801Y002016D01*
X015847Y001970D01*
X015847Y001876D01*
X015801Y001829D01*
X015707Y001829D01*
X015660Y001876D01*
X015553Y001829D02*
X015366Y001829D01*
X015459Y001829D02*
X015459Y002110D01*
X015366Y002016D01*
X015258Y002063D02*
X015211Y002110D01*
X015118Y002110D01*
X015071Y002063D01*
X015071Y001876D01*
X015118Y001829D01*
X015211Y001829D01*
X015258Y001876D01*
X015378Y001646D02*
X015378Y001366D01*
X015565Y001366D01*
X015672Y001366D02*
X015672Y001646D01*
X015812Y001646D01*
X015859Y001599D01*
X015859Y001412D01*
X015812Y001366D01*
X015672Y001366D01*
X015471Y001506D02*
X015378Y001506D01*
X015378Y001646D02*
X015565Y001646D01*
X015270Y001366D02*
X015083Y001366D01*
X015083Y001646D01*
X015967Y001553D02*
X016060Y001646D01*
X016060Y001366D01*
X015967Y001366D02*
X016154Y001366D01*
X013567Y002674D02*
X013567Y002955D01*
X013426Y002815D01*
X013613Y002815D01*
X013319Y002908D02*
X013272Y002955D01*
X013179Y002955D01*
X013132Y002908D01*
X013132Y002721D01*
X013179Y002674D01*
X013272Y002674D01*
X013319Y002721D01*
X013029Y002674D02*
X012935Y002674D01*
X012982Y002674D02*
X012982Y002955D01*
X012935Y002955D02*
X013029Y002955D01*
X013067Y002340D02*
X012973Y002340D01*
X012926Y002293D01*
X012926Y002246D01*
X012973Y002200D01*
X013113Y002200D01*
X013113Y002293D02*
X013067Y002340D01*
X013113Y002293D02*
X013113Y002106D01*
X013067Y002059D01*
X012973Y002059D01*
X012926Y002106D01*
X012819Y002059D02*
X012725Y002153D01*
X012772Y002153D02*
X012632Y002153D01*
X012632Y002059D02*
X012632Y002340D01*
X012772Y002340D01*
X012819Y002293D01*
X012819Y002200D01*
X012772Y002153D01*
X012097Y002073D02*
X012097Y002026D01*
X012051Y001979D01*
X011957Y001979D01*
X011910Y002026D01*
X011910Y002120D01*
X012051Y002120D01*
X012097Y002073D01*
X012004Y002213D02*
X012097Y002260D01*
X012004Y002213D02*
X011910Y002120D01*
X011803Y001979D02*
X011616Y001979D01*
X011709Y001979D02*
X011709Y002260D01*
X011616Y002166D01*
X011508Y002213D02*
X011461Y002260D01*
X011368Y002260D01*
X011321Y002213D01*
X011321Y002026D01*
X011368Y001979D01*
X011461Y001979D01*
X011508Y002026D01*
X008617Y001884D02*
X008617Y001292D01*
X008617Y001292D01*
X005592Y001292D01*
X005592Y001884D01*
X006021Y001823D02*
X005939Y002907D01*
X006021Y002907D01*
X006123Y001966D01*
X006328Y001966D01*
X006430Y002907D01*
X006512Y002907D01*
X006409Y001823D01*
X006410Y001823D02*
X006406Y001804D01*
X006400Y001785D01*
X006390Y001768D01*
X006378Y001752D01*
X006363Y001739D01*
X006346Y001728D01*
X006328Y001721D01*
X006103Y001721D02*
X006085Y001728D01*
X006068Y001739D01*
X006053Y001752D01*
X006041Y001768D01*
X006031Y001785D01*
X006025Y001804D01*
X006021Y001823D01*
X006103Y001722D02*
X006139Y001713D01*
X006177Y001707D01*
X006215Y001705D01*
X006253Y001707D01*
X006290Y001713D01*
X006327Y001722D01*
X006614Y001823D02*
X006695Y003418D01*
X006698Y003436D01*
X006705Y003453D01*
X006714Y003468D01*
X006727Y003481D01*
X006742Y003490D01*
X006759Y003497D01*
X006777Y003500D01*
X006777Y003499D02*
X007431Y003499D01*
X007431Y003500D02*
X007449Y003497D01*
X007466Y003490D01*
X007481Y003481D01*
X007494Y003468D01*
X007503Y003453D01*
X007510Y003436D01*
X007513Y003418D01*
X007595Y001823D01*
X007593Y001807D01*
X007589Y001792D01*
X007581Y001777D01*
X007571Y001765D01*
X007559Y001755D01*
X007544Y001747D01*
X007529Y001743D01*
X007513Y001741D01*
X007497Y001743D01*
X007482Y001747D01*
X007467Y001755D01*
X007455Y001765D01*
X007445Y001777D01*
X007437Y001792D01*
X007433Y001807D01*
X007431Y001823D01*
X007349Y003172D01*
X006859Y003172D01*
X006777Y001823D01*
X006778Y001823D02*
X006776Y001807D01*
X006772Y001792D01*
X006764Y001777D01*
X006754Y001765D01*
X006742Y001755D01*
X006727Y001747D01*
X006712Y001743D01*
X006696Y001741D01*
X006695Y001742D02*
X006696Y001742D01*
X006695Y001741D02*
X006679Y001743D01*
X006664Y001747D01*
X006649Y001755D01*
X006637Y001765D01*
X006627Y001777D01*
X006619Y001792D01*
X006615Y001807D01*
X006613Y001823D01*
X007799Y001823D02*
X007697Y002907D01*
X007779Y002907D01*
X007881Y001966D01*
X008085Y001966D01*
X008187Y002907D01*
X008269Y002907D01*
X008187Y001823D01*
X008188Y001823D02*
X008184Y001804D01*
X008178Y001785D01*
X008168Y001768D01*
X008156Y001752D01*
X008141Y001739D01*
X008124Y001728D01*
X008106Y001721D01*
X007881Y001721D02*
X007863Y001728D01*
X007846Y001739D01*
X007831Y001752D01*
X007819Y001768D01*
X007809Y001785D01*
X007803Y001804D01*
X007799Y001823D01*
X007881Y001722D02*
X007917Y001713D01*
X007955Y001707D01*
X007993Y001705D01*
X008031Y001707D01*
X008068Y001713D01*
X008105Y001722D01*
X008619Y001290D02*
X005590Y001290D01*
X005104Y001463D02*
X005104Y001743D01*
X004964Y001603D01*
X005151Y001603D01*
X004856Y001743D02*
X004669Y001463D01*
X004856Y001463D02*
X004669Y001743D01*
X005590Y003011D02*
X005590Y004009D01*
X005795Y004335D02*
X006081Y004335D01*
X006081Y004780D01*
X005795Y004780D01*
X008167Y004786D02*
X008167Y004335D01*
X008413Y004335D01*
X008619Y004049D02*
X008619Y002991D01*
X008416Y004786D02*
X008167Y004786D01*
X003465Y005886D02*
X003278Y005886D01*
X003465Y006073D01*
X003465Y006119D01*
X003418Y006166D01*
X003325Y006166D01*
X003278Y006119D01*
X003171Y006166D02*
X002984Y005886D01*
X003171Y005886D02*
X002984Y006166D01*
X006135Y008700D02*
X006181Y008654D01*
X006275Y008654D01*
X006322Y008700D01*
X006429Y008654D02*
X006616Y008654D01*
X006523Y008654D02*
X006523Y008934D01*
X006429Y008840D01*
X006322Y008887D02*
X006275Y008934D01*
X006181Y008934D01*
X006135Y008887D01*
X006135Y008700D01*
X006724Y008700D02*
X006911Y008887D01*
X006911Y008700D01*
X006864Y008654D01*
X006771Y008654D01*
X006724Y008700D01*
X006724Y008887D01*
X006771Y008934D01*
X006864Y008934D01*
X006911Y008887D01*
X007401Y009085D02*
X005787Y009085D01*
X005787Y012195D01*
X006692Y013100D01*
X007401Y013100D01*
X008189Y013100D02*
X008897Y013100D01*
X009803Y012195D01*
X009803Y009085D01*
X008189Y009085D01*
X009987Y008643D02*
X009987Y008456D01*
X010034Y008409D01*
X010127Y008409D01*
X010174Y008456D01*
X010282Y008409D02*
X010469Y008409D01*
X010375Y008409D02*
X010375Y008690D01*
X010282Y008596D01*
X010174Y008643D02*
X010127Y008690D01*
X010034Y008690D01*
X009987Y008643D01*
X010576Y008690D02*
X010763Y008690D01*
X010763Y008643D01*
X010576Y008456D01*
X010576Y008409D01*
X010609Y007710D02*
X010609Y007429D01*
X010516Y007429D02*
X010703Y007429D01*
X010810Y007429D02*
X010997Y007429D01*
X010904Y007429D02*
X010904Y007710D01*
X010810Y007616D01*
X010609Y007710D02*
X010516Y007616D01*
X010408Y007570D02*
X010361Y007523D01*
X010221Y007523D01*
X010314Y007523D02*
X010408Y007429D01*
X010408Y007570D02*
X010408Y007663D01*
X010361Y007710D01*
X010221Y007710D01*
X010221Y007429D01*
X011421Y009629D02*
X011421Y009910D01*
X011561Y009910D01*
X011608Y009863D01*
X011608Y009770D01*
X011561Y009723D01*
X011421Y009723D01*
X011514Y009723D02*
X011608Y009629D01*
X011716Y009629D02*
X011903Y009629D01*
X011809Y009629D02*
X011809Y009910D01*
X011716Y009816D01*
X012010Y009863D02*
X012057Y009910D01*
X012151Y009910D01*
X012197Y009863D01*
X012010Y009676D01*
X012057Y009629D01*
X012151Y009629D01*
X012197Y009676D01*
X012197Y009863D01*
X012010Y009863D02*
X012010Y009676D01*
X015151Y011029D02*
X015151Y011170D01*
X015198Y011216D01*
X015291Y011216D01*
X015338Y011170D01*
X015338Y011029D01*
X015431Y011029D02*
X015151Y011029D01*
X015338Y011123D02*
X015431Y011216D01*
X015384Y011324D02*
X015431Y011371D01*
X015431Y011464D01*
X015384Y011511D01*
X015291Y011511D01*
X015244Y011464D01*
X015244Y011417D01*
X015291Y011324D01*
X015151Y011324D01*
X015151Y011511D01*
X015773Y011595D02*
X015773Y011689D01*
X015820Y011735D01*
X016006Y011735D01*
X016053Y011689D01*
X016053Y011595D01*
X016006Y011548D01*
X015820Y011548D01*
X015773Y011595D01*
X015960Y011642D02*
X016053Y011735D01*
X016053Y011843D02*
X016053Y012030D01*
X016053Y011936D02*
X015773Y011936D01*
X015866Y011843D01*
X015401Y012390D02*
X015121Y012390D01*
X015121Y012530D01*
X015168Y012577D01*
X015261Y012577D01*
X015308Y012530D01*
X015308Y012390D01*
X015308Y012484D02*
X015401Y012577D01*
X015354Y012685D02*
X015401Y012731D01*
X015401Y012825D01*
X015354Y012872D01*
X015308Y012872D01*
X015261Y012825D01*
X015261Y012685D01*
X015354Y012685D01*
X015261Y012685D02*
X015168Y012778D01*
X015121Y012872D01*
X015322Y013674D02*
X015416Y013674D01*
X015462Y013721D01*
X015570Y013674D02*
X015757Y013674D01*
X015663Y013674D02*
X015663Y013954D01*
X015570Y013861D01*
X015462Y013907D02*
X015416Y013954D01*
X015322Y013954D01*
X015275Y013907D01*
X015275Y013721D01*
X015322Y013674D01*
X015320Y014046D02*
X015414Y014046D01*
X015461Y014093D01*
X015568Y014093D02*
X015568Y014046D01*
X015568Y014093D02*
X015755Y014280D01*
X015755Y014326D01*
X015568Y014326D01*
X015461Y014280D02*
X015414Y014326D01*
X015320Y014326D01*
X015274Y014280D01*
X015274Y014093D01*
X015320Y014046D01*
X015863Y014093D02*
X015910Y014046D01*
X016003Y014046D01*
X016050Y014093D01*
X016050Y014280D01*
X016003Y014326D01*
X015910Y014326D01*
X015863Y014280D01*
X015863Y014233D01*
X015910Y014186D01*
X016050Y014186D01*
X015958Y013954D02*
X015958Y013674D01*
X015865Y013674D02*
X016052Y013674D01*
X015865Y013861D02*
X015958Y013954D01*
X014338Y014756D02*
X014338Y014849D01*
X014291Y014896D01*
X014291Y015004D02*
X014338Y015004D01*
X014291Y015004D02*
X014104Y015190D01*
X014057Y015190D01*
X014057Y015004D01*
X014104Y014896D02*
X014057Y014849D01*
X014057Y014756D01*
X014104Y014709D01*
X014291Y014709D01*
X014338Y014756D01*
X013851Y014660D02*
X013710Y014520D01*
X013897Y014520D01*
X013851Y014660D02*
X013851Y014379D01*
X013603Y014379D02*
X013416Y014379D01*
X013509Y014379D02*
X013509Y014660D01*
X013416Y014566D01*
X013308Y014613D02*
X013261Y014660D01*
X013168Y014660D01*
X013121Y014613D01*
X013121Y014426D01*
X013168Y014379D01*
X013261Y014379D01*
X013308Y014426D01*
X012938Y014806D02*
X012938Y014899D01*
X012891Y014946D01*
X012891Y015054D02*
X012938Y015054D01*
X012891Y015054D02*
X012704Y015240D01*
X012657Y015240D01*
X012657Y015054D01*
X012704Y014946D02*
X012657Y014899D01*
X012657Y014806D01*
X012704Y014759D01*
X012891Y014759D01*
X012938Y014806D01*
X012891Y015348D02*
X012938Y015395D01*
X012938Y015488D01*
X012891Y015535D01*
X012798Y015535D01*
X012751Y015488D01*
X012751Y015442D01*
X012798Y015348D01*
X012657Y015348D01*
X012657Y015535D01*
X014057Y015438D02*
X014057Y015345D01*
X014104Y015298D01*
X014151Y015298D01*
X014198Y015345D01*
X014198Y015438D01*
X014244Y015485D01*
X014291Y015485D01*
X014338Y015438D01*
X014338Y015345D01*
X014291Y015298D01*
X014244Y015298D01*
X014198Y015345D01*
X014198Y015438D02*
X014151Y015485D01*
X014104Y015485D01*
X014057Y015438D01*
X016460Y016670D02*
X016507Y016623D01*
X016601Y016623D01*
X016647Y016670D01*
X016755Y016670D02*
X016755Y016716D01*
X016802Y016763D01*
X016895Y016763D01*
X016942Y016716D01*
X016942Y016670D01*
X016895Y016623D01*
X016802Y016623D01*
X016755Y016670D01*
X016802Y016763D02*
X016755Y016810D01*
X016755Y016856D01*
X016802Y016903D01*
X016895Y016903D01*
X016942Y016856D01*
X016942Y016810D01*
X016895Y016763D01*
X017050Y016856D02*
X017096Y016903D01*
X017190Y016903D01*
X017236Y016856D01*
X017236Y016810D01*
X017050Y016623D01*
X017236Y016623D01*
X016647Y016856D02*
X016601Y016903D01*
X016507Y016903D01*
X016460Y016856D01*
X016460Y016670D01*
X017894Y016073D02*
X017894Y015793D01*
X018081Y015793D01*
X018189Y015840D02*
X018236Y015793D01*
X018329Y015793D01*
X018376Y015840D01*
X018376Y016026D01*
X018329Y016073D01*
X018236Y016073D01*
X018189Y016026D01*
X018189Y015980D01*
X018236Y015933D01*
X018376Y015933D01*
X019744Y015488D02*
X019884Y015348D01*
X019884Y015535D01*
X020024Y015488D02*
X019744Y015488D01*
X019791Y015240D02*
X019838Y015240D01*
X019884Y015194D01*
X019884Y015100D01*
X019838Y015054D01*
X019791Y015054D01*
X019744Y015100D01*
X019744Y015194D01*
X019791Y015240D01*
X019884Y015194D02*
X019931Y015240D01*
X019978Y015240D01*
X020024Y015194D01*
X020024Y015100D01*
X019978Y015054D01*
X019931Y015054D01*
X019884Y015100D01*
X019791Y014946D02*
X019744Y014899D01*
X019744Y014806D01*
X019791Y014759D01*
X019978Y014759D01*
X020024Y014806D01*
X020024Y014899D01*
X019978Y014946D01*
X021144Y015000D02*
X021144Y015094D01*
X021191Y015140D01*
X021238Y015140D01*
X021284Y015094D01*
X021284Y015000D01*
X021238Y014954D01*
X021191Y014954D01*
X021144Y015000D01*
X021284Y015000D02*
X021331Y014954D01*
X021378Y014954D01*
X021424Y015000D01*
X021424Y015094D01*
X021378Y015140D01*
X021331Y015140D01*
X021284Y015094D01*
X021378Y015248D02*
X021424Y015248D01*
X021378Y015248D02*
X021191Y015435D01*
X021144Y015435D01*
X021144Y015248D01*
X021191Y014846D02*
X021144Y014799D01*
X021144Y014706D01*
X021191Y014659D01*
X021378Y014659D01*
X021424Y014706D01*
X021424Y014799D01*
X021378Y014846D01*
X021832Y014140D02*
X021972Y014140D01*
X022019Y014093D01*
X022019Y014000D01*
X021972Y013953D01*
X021832Y013953D01*
X021925Y013953D02*
X022019Y013859D01*
X022126Y013859D02*
X022313Y014046D01*
X022313Y014093D01*
X022267Y014140D01*
X022173Y014140D01*
X022126Y014093D01*
X022126Y013859D02*
X022313Y013859D01*
X021832Y013859D02*
X021832Y014140D01*
X023324Y015029D02*
X023370Y014983D01*
X023464Y014983D01*
X023511Y015029D01*
X023618Y015029D02*
X023618Y015076D01*
X023665Y015123D01*
X023759Y015123D01*
X023805Y015076D01*
X023805Y015029D01*
X023759Y014983D01*
X023665Y014983D01*
X023618Y015029D01*
X023665Y015123D02*
X023618Y015169D01*
X023618Y015216D01*
X023665Y015263D01*
X023759Y015263D01*
X023805Y015216D01*
X023805Y015169D01*
X023759Y015123D01*
X023913Y015169D02*
X023913Y015216D01*
X023960Y015263D01*
X024053Y015263D01*
X024100Y015216D01*
X024100Y015169D01*
X024053Y015123D01*
X023960Y015123D01*
X023913Y015169D01*
X023960Y015123D02*
X023913Y015076D01*
X023913Y015029D01*
X023960Y014983D01*
X024053Y014983D01*
X024100Y015029D01*
X024100Y015076D01*
X024053Y015123D01*
X023511Y015216D02*
X023464Y015263D01*
X023370Y015263D01*
X023324Y015216D01*
X023324Y015029D01*
X024781Y015793D02*
X024968Y015793D01*
X025076Y015793D02*
X025262Y015793D01*
X025169Y015793D02*
X025169Y016073D01*
X025076Y015980D01*
X025370Y016026D02*
X025417Y016073D01*
X025510Y016073D01*
X025557Y016026D01*
X025370Y015840D01*
X025417Y015793D01*
X025510Y015793D01*
X025557Y015840D01*
X025557Y016026D01*
X025370Y016026D02*
X025370Y015840D01*
X024781Y015793D02*
X024781Y016073D01*
X024373Y016623D02*
X024186Y016623D01*
X024280Y016623D02*
X024280Y016903D01*
X024186Y016810D01*
X024078Y016856D02*
X024032Y016903D01*
X023938Y016903D01*
X023892Y016856D01*
X023892Y016810D01*
X023938Y016763D01*
X024078Y016763D01*
X024078Y016670D02*
X024078Y016856D01*
X024078Y016670D02*
X024032Y016623D01*
X023938Y016623D01*
X023892Y016670D01*
X023784Y016670D02*
X023737Y016623D01*
X023644Y016623D01*
X023597Y016670D01*
X023597Y016856D01*
X023644Y016903D01*
X023737Y016903D01*
X023784Y016856D01*
X023608Y017993D02*
X023421Y017993D01*
X023374Y018040D01*
X023374Y018133D01*
X023421Y018180D01*
X023421Y018287D02*
X023468Y018287D01*
X023514Y018334D01*
X023514Y018428D01*
X023561Y018474D01*
X023608Y018474D01*
X023654Y018428D01*
X023654Y018334D01*
X023608Y018287D01*
X023561Y018287D01*
X023514Y018334D01*
X023514Y018428D02*
X023468Y018474D01*
X023421Y018474D01*
X023374Y018428D01*
X023374Y018334D01*
X023421Y018287D01*
X023608Y018180D02*
X023654Y018133D01*
X023654Y018040D01*
X023608Y017993D01*
X023608Y018582D02*
X023654Y018629D01*
X023654Y018722D01*
X023608Y018769D01*
X023561Y018769D01*
X023514Y018722D01*
X023514Y018676D01*
X023514Y018722D02*
X023468Y018769D01*
X023421Y018769D01*
X023374Y018722D01*
X023374Y018629D01*
X023421Y018582D01*
X024747Y018556D02*
X024747Y018370D01*
X024794Y018323D01*
X024887Y018323D01*
X024934Y018370D01*
X025042Y018370D02*
X025088Y018323D01*
X025182Y018323D01*
X025228Y018370D01*
X025228Y018556D01*
X025182Y018603D01*
X025088Y018603D01*
X025042Y018556D01*
X025042Y018510D01*
X025088Y018463D01*
X025228Y018463D01*
X025336Y018463D02*
X025476Y018603D01*
X025476Y018323D01*
X025523Y018463D02*
X025336Y018463D01*
X024934Y018556D02*
X024887Y018603D01*
X024794Y018603D01*
X024747Y018556D01*
X025432Y019428D02*
X025525Y019428D01*
X025478Y019428D02*
X025478Y019708D01*
X025432Y019708D02*
X025525Y019708D01*
X025628Y019661D02*
X025628Y019475D01*
X025675Y019428D01*
X025768Y019428D01*
X025815Y019475D01*
X025923Y019428D02*
X026110Y019428D01*
X026016Y019428D02*
X026016Y019708D01*
X025923Y019615D01*
X025815Y019661D02*
X025768Y019708D01*
X025675Y019708D01*
X025628Y019661D01*
X026217Y019568D02*
X026404Y019568D01*
X026358Y019708D02*
X026217Y019568D01*
X026358Y019428D02*
X026358Y019708D01*
X028181Y019756D02*
X028227Y019709D01*
X028414Y019709D01*
X028461Y019756D01*
X028461Y019849D01*
X028414Y019896D01*
X028414Y020004D02*
X028461Y020050D01*
X028461Y020144D01*
X028414Y020190D01*
X028227Y020190D01*
X028181Y020144D01*
X028181Y020050D01*
X028227Y020004D01*
X028274Y020004D01*
X028321Y020050D01*
X028321Y020190D01*
X028414Y020298D02*
X028227Y020485D01*
X028414Y020485D01*
X028461Y020438D01*
X028461Y020345D01*
X028414Y020298D01*
X028227Y020298D01*
X028181Y020345D01*
X028181Y020438D01*
X028227Y020485D01*
X027434Y020936D02*
X027387Y020889D01*
X027294Y020889D01*
X027247Y020936D01*
X027139Y020889D02*
X026952Y020889D01*
X027139Y021076D01*
X027139Y021123D01*
X027092Y021170D01*
X026999Y021170D01*
X026952Y021123D01*
X026845Y021123D02*
X026845Y021029D01*
X026798Y020983D01*
X026658Y020983D01*
X026751Y020983D02*
X026845Y020889D01*
X026658Y020889D02*
X026658Y021170D01*
X026798Y021170D01*
X026845Y021123D01*
X027247Y021123D02*
X027294Y021170D01*
X027387Y021170D01*
X027434Y021123D01*
X027434Y021076D01*
X027387Y021029D01*
X027434Y020983D01*
X027434Y020936D01*
X027387Y021029D02*
X027340Y021029D01*
X027064Y021846D02*
X026877Y021846D01*
X026831Y021892D01*
X026831Y021986D01*
X026877Y022032D01*
X026971Y022140D02*
X026971Y022327D01*
X027018Y022435D02*
X026971Y022481D01*
X026971Y022575D01*
X027018Y022622D01*
X027064Y022622D01*
X027111Y022575D01*
X027111Y022481D01*
X027064Y022435D01*
X027018Y022435D01*
X026971Y022481D02*
X026924Y022435D01*
X026877Y022435D01*
X026831Y022481D01*
X026831Y022575D01*
X026877Y022622D01*
X026924Y022622D01*
X026971Y022575D01*
X027111Y022280D02*
X026831Y022280D01*
X026971Y022140D01*
X027064Y022032D02*
X027111Y021986D01*
X027111Y021892D01*
X027064Y021846D01*
X025412Y022976D02*
X025366Y022929D01*
X025272Y022929D01*
X025226Y022976D01*
X025226Y023070D02*
X025319Y023116D01*
X025366Y023116D01*
X025412Y023070D01*
X025412Y022976D01*
X025226Y023070D02*
X025226Y023210D01*
X025412Y023210D01*
X025118Y022929D02*
X024931Y022929D01*
X024931Y023210D01*
X024373Y023756D02*
X024373Y023803D01*
X024326Y023850D01*
X024186Y023850D01*
X024186Y023756D01*
X024233Y023709D01*
X024326Y023709D01*
X024373Y023756D01*
X024280Y023943D02*
X024186Y023850D01*
X024078Y023850D02*
X023892Y023850D01*
X024032Y023990D01*
X024032Y023709D01*
X023784Y023756D02*
X023737Y023709D01*
X023644Y023709D01*
X023597Y023756D01*
X023597Y023943D01*
X023644Y023990D01*
X023737Y023990D01*
X023784Y023943D01*
X023808Y024379D02*
X023854Y024426D01*
X023854Y024520D01*
X023808Y024566D01*
X023808Y024674D02*
X023854Y024721D01*
X023854Y024814D01*
X023808Y024861D01*
X023761Y024861D01*
X023714Y024814D01*
X023714Y024767D01*
X023714Y024814D02*
X023668Y024861D01*
X023621Y024861D01*
X023574Y024814D01*
X023574Y024721D01*
X023621Y024674D01*
X023621Y024566D02*
X023574Y024520D01*
X023574Y024426D01*
X023621Y024379D01*
X023808Y024379D01*
X024280Y023943D02*
X024373Y023990D01*
X023808Y024969D02*
X023761Y024969D01*
X023714Y025015D01*
X023714Y025109D01*
X023761Y025156D01*
X023808Y025156D01*
X023854Y025109D01*
X023854Y025015D01*
X023808Y024969D01*
X023714Y025015D02*
X023668Y024969D01*
X023621Y024969D01*
X023574Y025015D01*
X023574Y025109D01*
X023621Y025156D01*
X023668Y025156D01*
X023714Y025109D01*
X024797Y025506D02*
X024797Y025693D01*
X024844Y025740D01*
X024937Y025740D01*
X024984Y025693D01*
X025092Y025600D02*
X025278Y025600D01*
X025386Y025646D02*
X025433Y025600D01*
X025573Y025600D01*
X025573Y025693D02*
X025526Y025740D01*
X025433Y025740D01*
X025386Y025693D01*
X025386Y025646D01*
X025386Y025506D02*
X025433Y025459D01*
X025526Y025459D01*
X025573Y025506D01*
X025573Y025693D01*
X025232Y025740D02*
X025232Y025459D01*
X025092Y025600D02*
X025232Y025740D01*
X024984Y025506D02*
X024937Y025459D01*
X024844Y025459D01*
X024797Y025506D01*
X025682Y026414D02*
X025775Y026414D01*
X025728Y026414D02*
X025728Y026695D01*
X025682Y026695D02*
X025775Y026695D01*
X025878Y026648D02*
X025878Y026461D01*
X025925Y026414D01*
X026018Y026414D01*
X026065Y026461D01*
X026173Y026461D02*
X026219Y026414D01*
X026313Y026414D01*
X026360Y026461D01*
X026360Y026648D01*
X026313Y026695D01*
X026219Y026695D01*
X026173Y026648D01*
X026173Y026601D01*
X026219Y026555D01*
X026360Y026555D01*
X026065Y026648D02*
X026018Y026695D01*
X025925Y026695D01*
X025878Y026648D01*
X028181Y026842D02*
X028227Y026796D01*
X028414Y026796D01*
X028461Y026842D01*
X028461Y026936D01*
X028414Y026982D01*
X028321Y027090D02*
X028181Y027230D01*
X028461Y027230D01*
X028321Y027277D02*
X028321Y027090D01*
X028227Y026982D02*
X028181Y026936D01*
X028181Y026842D01*
X028181Y027385D02*
X028321Y027385D01*
X028274Y027478D01*
X028274Y027525D01*
X028321Y027572D01*
X028414Y027572D01*
X028461Y027525D01*
X028461Y027431D01*
X028414Y027385D01*
X028181Y027385D02*
X028181Y027572D01*
X027297Y027986D02*
X027251Y027939D01*
X027157Y027939D01*
X027110Y027986D01*
X027110Y028033D01*
X027157Y028079D01*
X027251Y028079D01*
X027297Y028033D01*
X027297Y027986D01*
X027251Y028079D02*
X027297Y028126D01*
X027297Y028173D01*
X027251Y028220D01*
X027157Y028220D01*
X027110Y028173D01*
X027110Y028126D01*
X027157Y028079D01*
X027003Y027939D02*
X026816Y027939D01*
X026909Y027939D02*
X026909Y028220D01*
X026816Y028126D01*
X026708Y028079D02*
X026661Y028033D01*
X026521Y028033D01*
X026614Y028033D02*
X026708Y027939D01*
X026708Y028079D02*
X026708Y028173D01*
X026661Y028220D01*
X026521Y028220D01*
X026521Y027939D01*
X028437Y028416D02*
X028484Y028369D01*
X028577Y028369D01*
X028624Y028416D01*
X028732Y028416D02*
X028779Y028369D01*
X028872Y028369D01*
X028919Y028416D01*
X028919Y028509D01*
X028872Y028556D01*
X028825Y028556D01*
X028732Y028509D01*
X028732Y028650D01*
X028919Y028650D01*
X029026Y028603D02*
X029073Y028650D01*
X029167Y028650D01*
X029213Y028603D01*
X029026Y028416D01*
X029073Y028369D01*
X029167Y028369D01*
X029213Y028416D01*
X029213Y028603D01*
X029026Y028603D02*
X029026Y028416D01*
X029421Y028223D02*
X029421Y028036D01*
X029468Y027989D01*
X029561Y027989D01*
X029608Y028036D01*
X029716Y028036D02*
X029762Y027989D01*
X029856Y027989D01*
X029903Y028036D01*
X029903Y028129D01*
X029856Y028176D01*
X029809Y028176D01*
X029716Y028129D01*
X029716Y028270D01*
X029903Y028270D01*
X030010Y028223D02*
X030057Y028270D01*
X030151Y028270D01*
X030197Y028223D01*
X030197Y028176D01*
X030151Y028129D01*
X030197Y028083D01*
X030197Y028036D01*
X030151Y027989D01*
X030057Y027989D01*
X030010Y028036D01*
X030104Y028129D02*
X030151Y028129D01*
X029608Y028223D02*
X029561Y028270D01*
X029468Y028270D01*
X029421Y028223D01*
X028624Y028603D02*
X028577Y028650D01*
X028484Y028650D01*
X028437Y028603D01*
X028437Y028416D01*
X032518Y026745D02*
X032612Y026745D01*
X032565Y026745D02*
X032565Y026464D01*
X032518Y026464D02*
X032612Y026464D01*
X032715Y026511D02*
X032761Y026464D01*
X032855Y026464D01*
X032902Y026511D01*
X033009Y026464D02*
X033196Y026464D01*
X033103Y026464D02*
X033103Y026745D01*
X033009Y026651D01*
X032902Y026698D02*
X032855Y026745D01*
X032761Y026745D01*
X032715Y026698D01*
X032715Y026511D01*
X033304Y026511D02*
X033491Y026698D01*
X033491Y026511D01*
X033444Y026464D01*
X033351Y026464D01*
X033304Y026511D01*
X033304Y026698D01*
X033351Y026745D01*
X033444Y026745D01*
X033491Y026698D01*
X032563Y025740D02*
X032610Y025693D01*
X032610Y025646D01*
X032563Y025600D01*
X032470Y025600D01*
X032423Y025646D01*
X032423Y025693D01*
X032470Y025740D01*
X032563Y025740D01*
X032563Y025600D02*
X032610Y025553D01*
X032610Y025506D01*
X032563Y025459D01*
X032470Y025459D01*
X032423Y025506D01*
X032423Y025553D01*
X032470Y025600D01*
X032315Y025600D02*
X032315Y025506D01*
X032268Y025459D01*
X032175Y025459D01*
X032128Y025506D01*
X032128Y025600D02*
X032222Y025646D01*
X032268Y025646D01*
X032315Y025600D01*
X032315Y025740D02*
X032128Y025740D01*
X032128Y025600D01*
X032020Y025693D02*
X031974Y025740D01*
X031880Y025740D01*
X031834Y025693D01*
X031834Y025506D01*
X031880Y025459D01*
X031974Y025459D01*
X032020Y025506D01*
X030891Y025019D02*
X030844Y025019D01*
X030657Y025206D01*
X030611Y025206D01*
X030611Y025019D01*
X030611Y024864D02*
X030751Y024724D01*
X030751Y024911D01*
X030891Y024864D02*
X030611Y024864D01*
X030657Y024616D02*
X030611Y024570D01*
X030611Y024476D01*
X030657Y024429D01*
X030844Y024429D01*
X030891Y024476D01*
X030891Y024570D01*
X030844Y024616D01*
X030824Y023990D02*
X030730Y023990D01*
X030684Y023943D01*
X030684Y023756D01*
X030730Y023709D01*
X030824Y023709D01*
X030870Y023756D01*
X030978Y023756D02*
X031025Y023709D01*
X031118Y023709D01*
X031165Y023756D01*
X031165Y023850D01*
X031118Y023896D01*
X031072Y023896D01*
X030978Y023850D01*
X030978Y023990D01*
X031165Y023990D01*
X031273Y023990D02*
X031273Y023850D01*
X031366Y023896D01*
X031413Y023896D01*
X031460Y023850D01*
X031460Y023756D01*
X031413Y023709D01*
X031320Y023709D01*
X031273Y023756D01*
X031273Y023990D02*
X031460Y023990D01*
X030870Y023943D02*
X030824Y023990D01*
X032018Y023210D02*
X032018Y022929D01*
X032204Y022929D01*
X032312Y022976D02*
X032359Y022929D01*
X032452Y022929D01*
X032499Y022976D01*
X032499Y023023D01*
X032452Y023070D01*
X032312Y023070D01*
X032312Y022976D01*
X032312Y023070D02*
X032406Y023163D01*
X032499Y023210D01*
X033917Y022572D02*
X033964Y022572D01*
X034151Y022385D01*
X034198Y022385D01*
X034151Y022277D02*
X034198Y022230D01*
X034198Y022137D01*
X034151Y022090D01*
X034057Y022090D02*
X034011Y022184D01*
X034011Y022230D01*
X034057Y022277D01*
X034151Y022277D01*
X034057Y022090D02*
X033917Y022090D01*
X033917Y022277D01*
X033917Y022385D02*
X033917Y022572D01*
X033964Y021982D02*
X033917Y021936D01*
X033917Y021842D01*
X033964Y021796D01*
X034151Y021796D01*
X034198Y021842D01*
X034198Y021936D01*
X034151Y021982D01*
X034192Y021156D02*
X034099Y021156D01*
X034052Y021109D01*
X033945Y021109D02*
X033945Y021016D01*
X033898Y020969D01*
X033758Y020969D01*
X033851Y020969D02*
X033945Y020876D01*
X034052Y020876D02*
X034239Y021063D01*
X034239Y021109D01*
X034192Y021156D01*
X034347Y021016D02*
X034534Y021016D01*
X034487Y020876D02*
X034487Y021156D01*
X034347Y021016D01*
X034239Y020876D02*
X034052Y020876D01*
X033945Y021109D02*
X033898Y021156D01*
X033758Y021156D01*
X033758Y020876D01*
X035267Y020488D02*
X035267Y020395D01*
X035314Y020348D01*
X035361Y020348D01*
X035407Y020395D01*
X035407Y020535D01*
X035314Y020535D02*
X035267Y020488D01*
X035314Y020535D02*
X035501Y020535D01*
X035548Y020488D01*
X035548Y020395D01*
X035501Y020348D01*
X035501Y020240D02*
X035314Y020240D01*
X035267Y020194D01*
X035267Y020100D01*
X035314Y020054D01*
X035361Y020054D01*
X035407Y020100D01*
X035407Y020240D01*
X035501Y020240D02*
X035548Y020194D01*
X035548Y020100D01*
X035501Y020054D01*
X035501Y019946D02*
X035548Y019899D01*
X035548Y019806D01*
X035501Y019759D01*
X035314Y019759D01*
X035267Y019806D01*
X035267Y019899D01*
X035314Y019946D01*
X033341Y019608D02*
X033154Y019608D01*
X033154Y019468D01*
X033247Y019515D01*
X033294Y019515D01*
X033341Y019468D01*
X033341Y019375D01*
X033294Y019328D01*
X033201Y019328D01*
X033154Y019375D01*
X033046Y019328D02*
X032859Y019328D01*
X032953Y019328D02*
X032953Y019608D01*
X032859Y019515D01*
X032752Y019561D02*
X032705Y019608D01*
X032611Y019608D01*
X032565Y019561D01*
X032565Y019375D01*
X032611Y019328D01*
X032705Y019328D01*
X032752Y019375D01*
X032462Y019328D02*
X032368Y019328D01*
X032415Y019328D02*
X032415Y019608D01*
X032368Y019608D02*
X032462Y019608D01*
X031867Y020209D02*
X031867Y020490D01*
X031726Y020350D01*
X031913Y020350D01*
X031619Y020209D02*
X031432Y020209D01*
X031525Y020209D02*
X031525Y020490D01*
X031432Y020396D01*
X031324Y020350D02*
X031277Y020303D01*
X031137Y020303D01*
X031231Y020303D02*
X031324Y020209D01*
X031324Y020350D02*
X031324Y020443D01*
X031277Y020490D01*
X031137Y020490D01*
X031137Y020209D01*
X030691Y018869D02*
X030691Y018682D01*
X030504Y018869D01*
X030457Y018869D01*
X030411Y018822D01*
X030411Y018729D01*
X030457Y018682D01*
X030457Y018574D02*
X030411Y018528D01*
X030411Y018434D01*
X030457Y018387D01*
X030504Y018387D01*
X030551Y018434D01*
X030551Y018574D01*
X030644Y018574D02*
X030457Y018574D01*
X030644Y018574D02*
X030691Y018528D01*
X030691Y018434D01*
X030644Y018387D01*
X030644Y018280D02*
X030691Y018233D01*
X030691Y018140D01*
X030644Y018093D01*
X030457Y018093D01*
X030411Y018140D01*
X030411Y018233D01*
X030457Y018280D01*
X030854Y017668D02*
X031041Y017481D01*
X031088Y017528D01*
X031088Y017621D01*
X031041Y017668D01*
X030854Y017668D01*
X030807Y017621D01*
X030807Y017528D01*
X030854Y017481D01*
X031041Y017481D01*
X031041Y017373D02*
X031088Y017327D01*
X031088Y017233D01*
X031041Y017187D01*
X030854Y017373D01*
X031041Y017373D01*
X031041Y017187D02*
X030854Y017187D01*
X030807Y017233D01*
X030807Y017327D01*
X030854Y017373D01*
X031088Y017079D02*
X031088Y016892D01*
X031088Y016985D02*
X030807Y016985D01*
X030901Y016892D01*
X030854Y016784D02*
X030807Y016737D01*
X030807Y016644D01*
X030854Y016597D01*
X031041Y016597D01*
X031088Y016644D01*
X031088Y016737D01*
X031041Y016784D01*
X031868Y016123D02*
X031868Y015843D01*
X032054Y015843D01*
X032162Y015843D02*
X032349Y015843D01*
X032256Y015843D02*
X032256Y016123D01*
X032162Y016030D01*
X032457Y016030D02*
X032550Y016123D01*
X032550Y015843D01*
X032457Y015843D02*
X032644Y015843D01*
X032764Y015735D02*
X032717Y015688D01*
X032717Y015595D01*
X032764Y015548D01*
X032764Y015440D02*
X032951Y015254D01*
X032998Y015300D01*
X032998Y015394D01*
X032951Y015440D01*
X032764Y015440D01*
X032717Y015394D01*
X032717Y015300D01*
X032764Y015254D01*
X032951Y015254D01*
X032998Y015146D02*
X032998Y014959D01*
X032998Y015052D02*
X032717Y015052D01*
X032811Y014959D01*
X032764Y014851D02*
X032717Y014804D01*
X032717Y014711D01*
X032764Y014664D01*
X032951Y014664D01*
X032998Y014711D01*
X032998Y014804D01*
X032951Y014851D01*
X032998Y015548D02*
X032811Y015735D01*
X032764Y015735D01*
X032998Y015735D02*
X032998Y015548D01*
X031300Y015250D02*
X031300Y015203D01*
X031113Y015016D01*
X031113Y014969D01*
X031005Y015016D02*
X031005Y015203D01*
X030959Y015250D01*
X030865Y015250D01*
X030818Y015203D01*
X030818Y015156D01*
X030865Y015109D01*
X031005Y015109D01*
X031005Y015016D02*
X030959Y014969D01*
X030865Y014969D01*
X030818Y015016D01*
X030711Y015016D02*
X030664Y014969D01*
X030570Y014969D01*
X030524Y015016D01*
X030524Y015203D01*
X030570Y015250D01*
X030664Y015250D01*
X030711Y015203D01*
X031113Y015250D02*
X031300Y015250D01*
X030603Y014210D02*
X030509Y014163D01*
X030416Y014070D01*
X030556Y014070D01*
X030603Y014023D01*
X030603Y013976D01*
X030556Y013929D01*
X030462Y013929D01*
X030416Y013976D01*
X030416Y014070D01*
X030308Y014163D02*
X030261Y014210D01*
X030168Y014210D01*
X030121Y014163D01*
X030121Y013976D01*
X030168Y013929D01*
X030261Y013929D01*
X030308Y013976D01*
X028511Y014706D02*
X028511Y014799D01*
X028464Y014846D01*
X028464Y014954D02*
X028511Y015000D01*
X028511Y015094D01*
X028464Y015140D01*
X028277Y015140D01*
X028231Y015094D01*
X028231Y015000D01*
X028277Y014954D01*
X028324Y014954D01*
X028371Y015000D01*
X028371Y015140D01*
X028371Y015248D02*
X028371Y015388D01*
X028418Y015435D01*
X028464Y015435D01*
X028511Y015388D01*
X028511Y015295D01*
X028464Y015248D01*
X028371Y015248D01*
X028277Y015342D01*
X028231Y015435D01*
X027111Y015395D02*
X027064Y015348D01*
X027111Y015395D02*
X027111Y015488D01*
X027064Y015535D01*
X027018Y015535D01*
X026971Y015488D01*
X026971Y015442D01*
X026971Y015488D02*
X026924Y015535D01*
X026877Y015535D01*
X026831Y015488D01*
X026831Y015395D01*
X026877Y015348D01*
X026877Y015240D02*
X026831Y015194D01*
X026831Y015100D01*
X026877Y015054D01*
X026924Y015054D01*
X026971Y015100D01*
X026971Y015240D01*
X027064Y015240D02*
X026877Y015240D01*
X027064Y015240D02*
X027111Y015194D01*
X027111Y015100D01*
X027064Y015054D01*
X027064Y014946D02*
X027111Y014899D01*
X027111Y014806D01*
X027064Y014759D01*
X026877Y014759D01*
X026831Y014806D01*
X026831Y014899D01*
X026877Y014946D01*
X028231Y014799D02*
X028231Y014706D01*
X028277Y014659D01*
X028464Y014659D01*
X028511Y014706D01*
X028277Y014846D02*
X028231Y014799D01*
X021383Y013049D02*
X021383Y012863D01*
X021383Y012956D02*
X021103Y012956D01*
X021196Y012863D01*
X021150Y012755D02*
X021103Y012708D01*
X021103Y012615D01*
X021150Y012568D01*
X021337Y012568D01*
X021383Y012615D01*
X021383Y012708D01*
X021337Y012755D01*
X020667Y010386D02*
X020574Y010386D01*
X020527Y010339D01*
X020419Y010339D02*
X020373Y010386D01*
X020279Y010386D01*
X020232Y010339D01*
X020232Y010152D01*
X020279Y010105D01*
X020373Y010105D01*
X020419Y010152D01*
X020527Y010105D02*
X020714Y010292D01*
X020714Y010339D01*
X020667Y010386D01*
X020714Y010105D02*
X020527Y010105D01*
X020129Y010105D02*
X020036Y010105D01*
X020083Y010105D02*
X020083Y010386D01*
X020129Y010386D02*
X020036Y010386D01*
X021537Y009442D02*
X021677Y009442D01*
X021724Y009395D01*
X021724Y009302D01*
X021677Y009255D01*
X021537Y009255D01*
X021630Y009255D02*
X021724Y009161D01*
X021832Y009208D02*
X021878Y009161D01*
X021972Y009161D01*
X022018Y009208D01*
X022018Y009255D01*
X021972Y009302D01*
X021925Y009302D01*
X021972Y009302D02*
X022018Y009348D01*
X022018Y009395D01*
X021972Y009442D01*
X021878Y009442D01*
X021832Y009395D01*
X021537Y009442D02*
X021537Y009161D01*
X017947Y008163D02*
X017947Y008116D01*
X017760Y007929D01*
X017947Y007929D01*
X017947Y008163D02*
X017901Y008210D01*
X017807Y008210D01*
X017760Y008163D01*
X017559Y008210D02*
X017559Y007929D01*
X017466Y007929D02*
X017653Y007929D01*
X017466Y008116D02*
X017559Y008210D01*
X017358Y008163D02*
X017358Y008070D01*
X017311Y008023D01*
X017171Y008023D01*
X017264Y008023D02*
X017358Y007929D01*
X017171Y007929D02*
X017171Y008210D01*
X017311Y008210D01*
X017358Y008163D01*
X018337Y006790D02*
X018477Y006790D01*
X018524Y006743D01*
X018524Y006650D01*
X018477Y006603D01*
X018337Y006603D01*
X018431Y006603D02*
X018524Y006509D01*
X018632Y006509D02*
X018819Y006509D01*
X018725Y006509D02*
X018725Y006790D01*
X018632Y006696D01*
X018926Y006743D02*
X018973Y006790D01*
X019067Y006790D01*
X019113Y006743D01*
X019113Y006696D01*
X019067Y006650D01*
X019113Y006603D01*
X019113Y006556D01*
X019067Y006509D01*
X018973Y006509D01*
X018926Y006556D01*
X019020Y006650D02*
X019067Y006650D01*
X018337Y006509D02*
X018337Y006790D01*
X018771Y005860D02*
X018911Y005860D01*
X018958Y005813D01*
X018958Y005720D01*
X018911Y005673D01*
X018771Y005673D01*
X018864Y005673D02*
X018958Y005579D01*
X019066Y005720D02*
X019253Y005720D01*
X019206Y005860D02*
X019066Y005720D01*
X019206Y005860D02*
X019206Y005579D01*
X019571Y005510D02*
X019711Y005510D01*
X019758Y005463D01*
X019758Y005370D01*
X019711Y005323D01*
X019571Y005323D01*
X019664Y005323D02*
X019758Y005229D01*
X019866Y005229D02*
X019866Y005276D01*
X020053Y005463D01*
X020053Y005510D01*
X019866Y005510D01*
X019571Y005510D02*
X019571Y005229D01*
X018771Y005579D02*
X018771Y005860D01*
X016869Y005600D02*
X016822Y005647D01*
X016729Y005647D01*
X016682Y005600D01*
X016574Y005600D02*
X016574Y005413D01*
X016527Y005367D01*
X016434Y005367D01*
X016387Y005413D01*
X016387Y005600D01*
X016434Y005647D01*
X016527Y005647D01*
X016574Y005600D01*
X016481Y005460D02*
X016574Y005367D01*
X016682Y005367D02*
X016869Y005553D01*
X016869Y005600D01*
X016869Y005367D02*
X016682Y005367D01*
X016501Y004372D02*
X016501Y004185D01*
X016314Y004372D01*
X016268Y004372D01*
X016221Y004325D01*
X016221Y004231D01*
X016268Y004185D01*
X016268Y004077D02*
X016221Y004030D01*
X016221Y003890D01*
X016501Y003890D01*
X016501Y004030D01*
X016454Y004077D01*
X016268Y004077D01*
X007401Y009183D02*
X007308Y009205D01*
X007217Y009231D01*
X007127Y009261D01*
X007038Y009296D01*
X006951Y009335D01*
X006866Y009378D01*
X006784Y009426D01*
X006704Y009477D01*
X006626Y009532D01*
X006551Y009591D01*
X006479Y009654D01*
X006411Y009720D01*
X006345Y009789D01*
X006283Y009861D01*
X006225Y009936D01*
X006170Y010014D01*
X006120Y010095D01*
X006073Y010178D01*
X006030Y010263D01*
X005992Y010350D01*
X005958Y010439D01*
X005928Y010530D01*
X005903Y010622D01*
X005882Y010714D01*
X005866Y010808D01*
X005854Y010903D01*
X005847Y010998D01*
X005845Y011093D01*
X005847Y011188D01*
X005854Y011283D01*
X005866Y011378D01*
X005882Y011472D01*
X005903Y011564D01*
X005928Y011656D01*
X005958Y011747D01*
X005992Y011836D01*
X006030Y011923D01*
X006073Y012008D01*
X006120Y012091D01*
X006170Y012172D01*
X006225Y012250D01*
X006283Y012325D01*
X006345Y012397D01*
X006411Y012466D01*
X006479Y012532D01*
X006551Y012595D01*
X006626Y012654D01*
X006704Y012709D01*
X006784Y012760D01*
X006866Y012808D01*
X006951Y012851D01*
X007038Y012890D01*
X007127Y012925D01*
X007217Y012955D01*
X007308Y012981D01*
X007401Y013003D01*
X005784Y013446D02*
X005504Y013446D01*
X005504Y013587D01*
X005551Y013633D01*
X005644Y013633D01*
X005691Y013587D01*
X005691Y013446D01*
X005691Y013540D02*
X005784Y013633D01*
X005784Y013741D02*
X005784Y013928D01*
X005784Y013834D02*
X005504Y013834D01*
X005597Y013741D01*
X004604Y014809D02*
X004651Y014856D01*
X004651Y014949D01*
X004604Y014996D01*
X004604Y015104D02*
X004651Y015150D01*
X004651Y015244D01*
X004604Y015290D01*
X004558Y015290D01*
X004511Y015244D01*
X004511Y015104D01*
X004604Y015104D01*
X004511Y015104D02*
X004418Y015197D01*
X004371Y015290D01*
X004511Y015398D02*
X004511Y015538D01*
X004558Y015585D01*
X004604Y015585D01*
X004651Y015538D01*
X004651Y015445D01*
X004604Y015398D01*
X004511Y015398D01*
X004418Y015492D01*
X004371Y015585D01*
X004016Y015793D02*
X004016Y015840D01*
X004203Y016026D01*
X004203Y016073D01*
X004016Y016073D01*
X003721Y016073D02*
X003721Y015793D01*
X003908Y015793D01*
X003238Y016192D02*
X003238Y016286D01*
X003191Y016332D01*
X003191Y016440D02*
X003238Y016487D01*
X003238Y016580D01*
X003191Y016627D01*
X003144Y016627D01*
X003098Y016580D01*
X003098Y016440D01*
X003191Y016440D01*
X003098Y016440D02*
X003004Y016534D01*
X002957Y016627D01*
X003098Y016735D02*
X002957Y016875D01*
X003238Y016875D01*
X003098Y016922D02*
X003098Y016735D01*
X003004Y016332D02*
X002957Y016286D01*
X002957Y016192D01*
X003004Y016146D01*
X003191Y016146D01*
X003238Y016192D01*
X004418Y014996D02*
X004371Y014949D01*
X004371Y014856D01*
X004418Y014809D01*
X004604Y014809D01*
X006971Y014849D02*
X006971Y014756D01*
X007018Y014709D01*
X007204Y014709D01*
X007251Y014756D01*
X007251Y014849D01*
X007204Y014896D01*
X007204Y015004D02*
X007251Y015050D01*
X007251Y015144D01*
X007204Y015190D01*
X007158Y015190D01*
X007111Y015144D01*
X007111Y015004D01*
X007204Y015004D01*
X007111Y015004D02*
X007018Y015097D01*
X006971Y015190D01*
X007018Y015298D02*
X007064Y015298D01*
X007111Y015345D01*
X007111Y015485D01*
X007018Y015485D02*
X006971Y015438D01*
X006971Y015345D01*
X007018Y015298D01*
X007204Y015298D02*
X007251Y015345D01*
X007251Y015438D01*
X007204Y015485D01*
X007018Y015485D01*
X007018Y014896D02*
X006971Y014849D01*
X008124Y014293D02*
X008124Y014106D01*
X008170Y014059D01*
X008264Y014059D01*
X008311Y014106D01*
X008418Y014106D02*
X008605Y014293D01*
X008605Y014340D01*
X008418Y014340D01*
X008311Y014293D02*
X008264Y014340D01*
X008170Y014340D01*
X008124Y014293D01*
X008418Y014106D02*
X008418Y014059D01*
X008713Y014106D02*
X008900Y014293D01*
X008900Y014106D01*
X008853Y014059D01*
X008760Y014059D01*
X008713Y014106D01*
X008713Y014293D01*
X008760Y014340D01*
X008853Y014340D01*
X008900Y014293D01*
X010758Y015793D02*
X010945Y015793D01*
X011052Y015840D02*
X011052Y015886D01*
X011099Y015933D01*
X011192Y015933D01*
X011239Y015886D01*
X011239Y015840D01*
X011192Y015793D01*
X011099Y015793D01*
X011052Y015840D01*
X011099Y015933D02*
X011052Y015980D01*
X011052Y016026D01*
X011099Y016073D01*
X011192Y016073D01*
X011239Y016026D01*
X011239Y015980D01*
X011192Y015933D01*
X010758Y016073D02*
X010758Y015793D01*
X009262Y016011D02*
X009076Y016011D01*
X009169Y016011D02*
X009169Y016291D01*
X009076Y016198D01*
X008968Y016011D02*
X008781Y016011D01*
X008874Y016011D02*
X008874Y016291D01*
X008781Y016198D01*
X008673Y016245D02*
X008626Y016291D01*
X008533Y016291D01*
X008486Y016245D01*
X008486Y016058D01*
X008533Y016011D01*
X008626Y016011D01*
X008673Y016058D01*
X008383Y016011D02*
X008290Y016011D01*
X008337Y016011D02*
X008337Y016291D01*
X008383Y016291D02*
X008290Y016291D01*
X009424Y016720D02*
X009424Y016906D01*
X009470Y016953D01*
X009564Y016953D01*
X009611Y016906D01*
X009718Y016953D02*
X009905Y016953D01*
X009905Y016906D01*
X009718Y016720D01*
X009718Y016673D01*
X009611Y016720D02*
X009564Y016673D01*
X009470Y016673D01*
X009424Y016720D01*
X010013Y016720D02*
X010060Y016673D01*
X010153Y016673D01*
X010200Y016720D01*
X010200Y016766D01*
X010153Y016813D01*
X010106Y016813D01*
X010153Y016813D02*
X010200Y016860D01*
X010200Y016906D01*
X010153Y016953D01*
X010060Y016953D01*
X010013Y016906D01*
X009484Y018043D02*
X009531Y018090D01*
X009531Y018183D01*
X009484Y018230D01*
X009484Y018337D02*
X009531Y018384D01*
X009531Y018478D01*
X009484Y018524D01*
X009438Y018524D01*
X009391Y018478D01*
X009391Y018337D01*
X009484Y018337D01*
X009391Y018337D02*
X009298Y018431D01*
X009251Y018524D01*
X009251Y018632D02*
X009391Y018632D01*
X009344Y018726D01*
X009344Y018772D01*
X009391Y018819D01*
X009484Y018819D01*
X009531Y018772D01*
X009531Y018679D01*
X009484Y018632D01*
X009251Y018632D02*
X009251Y018819D01*
X009298Y018230D02*
X009251Y018183D01*
X009251Y018090D01*
X009298Y018043D01*
X009484Y018043D01*
X010624Y018420D02*
X010624Y018606D01*
X010670Y018653D01*
X010764Y018653D01*
X010811Y018606D01*
X010918Y018653D02*
X011105Y018653D01*
X011105Y018606D01*
X010918Y018420D01*
X010918Y018373D01*
X010811Y018420D02*
X010764Y018373D01*
X010670Y018373D01*
X010624Y018420D01*
X011213Y018420D02*
X011260Y018373D01*
X011353Y018373D01*
X011400Y018420D01*
X011400Y018466D01*
X011353Y018513D01*
X011213Y018513D01*
X011213Y018420D01*
X011213Y018513D02*
X011306Y018606D01*
X011400Y018653D01*
X011452Y019378D02*
X011405Y019425D01*
X011405Y019611D01*
X011452Y019658D01*
X011545Y019658D01*
X011592Y019611D01*
X011700Y019565D02*
X011793Y019658D01*
X011793Y019378D01*
X011700Y019378D02*
X011886Y019378D01*
X011994Y019378D02*
X012181Y019565D01*
X012181Y019611D01*
X012134Y019658D01*
X012041Y019658D01*
X011994Y019611D01*
X011994Y019378D02*
X012181Y019378D01*
X011592Y019425D02*
X011545Y019378D01*
X011452Y019378D01*
X011302Y019378D02*
X011209Y019378D01*
X011255Y019378D02*
X011255Y019658D01*
X011209Y019658D02*
X011302Y019658D01*
X012508Y020916D02*
X012508Y021196D01*
X012648Y021196D01*
X012695Y021150D01*
X012695Y021056D01*
X012648Y021009D01*
X012508Y021009D01*
X012601Y021009D02*
X012695Y020916D01*
X012802Y020916D02*
X012989Y021103D01*
X012989Y021150D01*
X012942Y021196D01*
X012849Y021196D01*
X012802Y021150D01*
X012802Y020916D02*
X012989Y020916D01*
X013097Y020916D02*
X013284Y020916D01*
X013190Y020916D02*
X013190Y021196D01*
X013097Y021103D01*
X013957Y020438D02*
X013957Y020345D01*
X014004Y020298D01*
X014004Y020190D02*
X014191Y020004D01*
X014238Y020004D01*
X014191Y019896D02*
X014238Y019849D01*
X014238Y019756D01*
X014191Y019709D01*
X014004Y019709D01*
X013957Y019756D01*
X013957Y019849D01*
X014004Y019896D01*
X013957Y020004D02*
X013957Y020190D01*
X014004Y020190D01*
X013957Y020438D02*
X014004Y020485D01*
X014051Y020485D01*
X014238Y020298D01*
X014238Y020485D01*
X012891Y021896D02*
X012938Y021942D01*
X012938Y022036D01*
X012891Y022082D01*
X012891Y022190D02*
X012938Y022237D01*
X012938Y022330D01*
X012891Y022377D01*
X012844Y022377D01*
X012798Y022330D01*
X012798Y022284D01*
X012798Y022330D02*
X012751Y022377D01*
X012704Y022377D01*
X012657Y022330D01*
X012657Y022237D01*
X012704Y022190D01*
X012704Y022082D02*
X012657Y022036D01*
X012657Y021942D01*
X012704Y021896D01*
X012891Y021896D01*
X012891Y022485D02*
X012704Y022672D01*
X012891Y022672D01*
X012938Y022625D01*
X012938Y022531D01*
X012891Y022485D01*
X012704Y022485D01*
X012657Y022531D01*
X012657Y022625D01*
X012704Y022672D01*
X011239Y022926D02*
X011192Y022879D01*
X011099Y022879D01*
X011052Y022926D01*
X010945Y022879D02*
X010758Y022879D01*
X010758Y023160D01*
X011052Y023113D02*
X011099Y023160D01*
X011192Y023160D01*
X011239Y023113D01*
X011239Y023066D01*
X011192Y023020D01*
X011239Y022973D01*
X011239Y022926D01*
X011192Y023020D02*
X011146Y023020D01*
X010200Y023756D02*
X010153Y023709D01*
X010060Y023709D01*
X010013Y023756D01*
X010013Y023803D01*
X010060Y023850D01*
X010153Y023850D01*
X010200Y023803D01*
X010200Y023756D01*
X010153Y023850D02*
X010200Y023896D01*
X010200Y023943D01*
X010153Y023990D01*
X010060Y023990D01*
X010013Y023943D01*
X010013Y023896D01*
X010060Y023850D01*
X009905Y023896D02*
X009905Y023943D01*
X009859Y023990D01*
X009765Y023990D01*
X009718Y023943D01*
X009611Y023943D02*
X009564Y023990D01*
X009470Y023990D01*
X009424Y023943D01*
X009424Y023756D01*
X009470Y023709D01*
X009564Y023709D01*
X009611Y023756D01*
X009718Y023709D02*
X009905Y023896D01*
X009905Y023709D02*
X009718Y023709D01*
X009584Y024329D02*
X009631Y024376D01*
X009631Y024470D01*
X009584Y024516D01*
X009631Y024624D02*
X009631Y024811D01*
X009631Y024717D02*
X009351Y024717D01*
X009444Y024624D01*
X009398Y024516D02*
X009351Y024470D01*
X009351Y024376D01*
X009398Y024329D01*
X009584Y024329D01*
X009584Y024919D02*
X009538Y024919D01*
X009491Y024965D01*
X009491Y025059D01*
X009538Y025106D01*
X009584Y025106D01*
X009631Y025059D01*
X009631Y024965D01*
X009584Y024919D01*
X009491Y024965D02*
X009444Y024919D01*
X009398Y024919D01*
X009351Y024965D01*
X009351Y025059D01*
X009398Y025106D01*
X009444Y025106D01*
X009491Y025059D01*
X010624Y025506D02*
X010624Y025693D01*
X010670Y025740D01*
X010764Y025740D01*
X010811Y025693D01*
X010918Y025693D02*
X010965Y025740D01*
X011059Y025740D01*
X011105Y025693D01*
X011105Y025646D01*
X011059Y025600D01*
X011105Y025553D01*
X011105Y025506D01*
X011059Y025459D01*
X010965Y025459D01*
X010918Y025506D01*
X010811Y025506D02*
X010764Y025459D01*
X010670Y025459D01*
X010624Y025506D01*
X011012Y025600D02*
X011059Y025600D01*
X011213Y025646D02*
X011306Y025740D01*
X011306Y025459D01*
X011213Y025459D02*
X011400Y025459D01*
X011509Y026464D02*
X011602Y026464D01*
X011555Y026464D02*
X011555Y026745D01*
X011509Y026745D02*
X011602Y026745D01*
X011705Y026698D02*
X011752Y026745D01*
X011845Y026745D01*
X011892Y026698D01*
X012000Y026745D02*
X012186Y026745D01*
X012186Y026698D01*
X012000Y026511D01*
X012000Y026464D01*
X011892Y026511D02*
X011845Y026464D01*
X011752Y026464D01*
X011705Y026511D01*
X011705Y026698D01*
X014007Y026892D02*
X014054Y026846D01*
X014241Y026846D01*
X014288Y026892D01*
X014288Y026986D01*
X014241Y027032D01*
X014288Y027140D02*
X014101Y027327D01*
X014054Y027327D01*
X014007Y027280D01*
X014007Y027187D01*
X014054Y027140D01*
X014054Y027032D02*
X014007Y026986D01*
X014007Y026892D01*
X014288Y027140D02*
X014288Y027327D01*
X014288Y027435D02*
X014241Y027435D01*
X014054Y027622D01*
X014007Y027622D01*
X014007Y027435D01*
X013097Y028013D02*
X013097Y028059D01*
X013051Y028106D01*
X012910Y028106D01*
X012910Y028013D01*
X012957Y027966D01*
X013051Y027966D01*
X013097Y028013D01*
X013004Y028200D02*
X012910Y028106D01*
X013004Y028200D02*
X013097Y028246D01*
X012709Y028246D02*
X012709Y027966D01*
X012616Y027966D02*
X012803Y027966D01*
X012616Y028153D02*
X012709Y028246D01*
X012508Y028200D02*
X012508Y028106D01*
X012461Y028059D01*
X012321Y028059D01*
X012321Y027966D02*
X012321Y028246D01*
X012461Y028246D01*
X012508Y028200D01*
X012414Y028059D02*
X012508Y027966D01*
X014187Y028443D02*
X014234Y028396D01*
X014327Y028396D01*
X014374Y028443D01*
X014482Y028443D02*
X014529Y028396D01*
X014622Y028396D01*
X014669Y028443D01*
X014669Y028489D01*
X014622Y028536D01*
X014575Y028536D01*
X014622Y028536D02*
X014669Y028583D01*
X014669Y028630D01*
X014622Y028676D01*
X014529Y028676D01*
X014482Y028630D01*
X014374Y028630D02*
X014327Y028676D01*
X014234Y028676D01*
X014187Y028630D01*
X014187Y028443D01*
X014776Y028396D02*
X014963Y028583D01*
X014963Y028630D01*
X014917Y028676D01*
X014823Y028676D01*
X014776Y028630D01*
X014776Y028396D02*
X014963Y028396D01*
X015321Y028300D02*
X015321Y028113D01*
X015368Y028066D01*
X015461Y028066D01*
X015508Y028113D01*
X015616Y028113D02*
X015662Y028066D01*
X015756Y028066D01*
X015803Y028113D01*
X015803Y028159D01*
X015756Y028206D01*
X015709Y028206D01*
X015756Y028206D02*
X015803Y028253D01*
X015803Y028300D01*
X015756Y028346D01*
X015662Y028346D01*
X015616Y028300D01*
X015508Y028300D02*
X015461Y028346D01*
X015368Y028346D01*
X015321Y028300D01*
X015910Y028346D02*
X015910Y028206D01*
X016004Y028253D01*
X016051Y028253D01*
X016097Y028206D01*
X016097Y028113D01*
X016051Y028066D01*
X015957Y028066D01*
X015910Y028113D01*
X015910Y028346D02*
X016097Y028346D01*
X018645Y026745D02*
X018739Y026745D01*
X018692Y026745D02*
X018692Y026464D01*
X018645Y026464D02*
X018739Y026464D01*
X018842Y026511D02*
X018888Y026464D01*
X018982Y026464D01*
X019028Y026511D01*
X019136Y026511D02*
X019136Y026558D01*
X019183Y026605D01*
X019276Y026605D01*
X019323Y026558D01*
X019323Y026511D01*
X019276Y026464D01*
X019183Y026464D01*
X019136Y026511D01*
X019183Y026605D02*
X019136Y026651D01*
X019136Y026698D01*
X019183Y026745D01*
X019276Y026745D01*
X019323Y026698D01*
X019323Y026651D01*
X019276Y026605D01*
X019028Y026698D02*
X018982Y026745D01*
X018888Y026745D01*
X018842Y026698D01*
X018842Y026511D01*
X018440Y025740D02*
X018486Y025693D01*
X018300Y025506D01*
X018346Y025459D01*
X018440Y025459D01*
X018486Y025506D01*
X018486Y025693D01*
X018440Y025740D02*
X018346Y025740D01*
X018300Y025693D01*
X018300Y025506D01*
X018192Y025600D02*
X018005Y025600D01*
X018145Y025740D01*
X018145Y025459D01*
X017897Y025506D02*
X017851Y025459D01*
X017757Y025459D01*
X017710Y025506D01*
X017710Y025693D01*
X017757Y025740D01*
X017851Y025740D01*
X017897Y025693D01*
X016768Y025009D02*
X016721Y025056D01*
X016534Y025056D01*
X016487Y025009D01*
X016487Y024915D01*
X016534Y024869D01*
X016581Y024869D01*
X016628Y024915D01*
X016628Y025056D01*
X016768Y025009D02*
X016768Y024915D01*
X016721Y024869D01*
X016768Y024761D02*
X016768Y024574D01*
X016581Y024761D01*
X016534Y024761D01*
X016487Y024714D01*
X016487Y024621D01*
X016534Y024574D01*
X016534Y024466D02*
X016487Y024420D01*
X016487Y024326D01*
X016534Y024279D01*
X016721Y024279D01*
X016768Y024326D01*
X016768Y024420D01*
X016721Y024466D01*
X016701Y023990D02*
X016607Y023990D01*
X016560Y023943D01*
X016560Y023756D01*
X016607Y023709D01*
X016701Y023709D01*
X016747Y023756D01*
X016855Y023756D02*
X016902Y023709D01*
X016995Y023709D01*
X017042Y023756D01*
X017042Y023803D01*
X016995Y023850D01*
X016948Y023850D01*
X016995Y023850D02*
X017042Y023896D01*
X017042Y023943D01*
X016995Y023990D01*
X016902Y023990D01*
X016855Y023943D01*
X016747Y023943D02*
X016701Y023990D01*
X017150Y023990D02*
X017336Y023990D01*
X017336Y023943D01*
X017150Y023756D01*
X017150Y023709D01*
X017844Y023210D02*
X017844Y022929D01*
X018031Y022929D01*
X018139Y023070D02*
X018326Y023070D01*
X018279Y023210D02*
X018139Y023070D01*
X018279Y023210D02*
X018279Y022929D01*
X019794Y022675D02*
X019794Y022581D01*
X019841Y022535D01*
X019888Y022535D01*
X019934Y022581D01*
X019934Y022722D01*
X019841Y022722D02*
X019794Y022675D01*
X019841Y022722D02*
X020028Y022722D01*
X020074Y022675D01*
X020074Y022581D01*
X020028Y022535D01*
X020028Y022427D02*
X020074Y022380D01*
X020074Y022287D01*
X020028Y022240D01*
X020028Y022132D02*
X020074Y022086D01*
X020074Y021992D01*
X020028Y021946D01*
X019841Y021946D01*
X019794Y021992D01*
X019794Y022086D01*
X019841Y022132D01*
X019841Y022240D02*
X019794Y022287D01*
X019794Y022380D01*
X019841Y022427D01*
X019888Y022427D01*
X019934Y022380D01*
X019981Y022427D01*
X020028Y022427D01*
X019934Y022380D02*
X019934Y022334D01*
X019899Y021183D02*
X019852Y021136D01*
X019899Y021183D02*
X019992Y021183D01*
X020039Y021136D01*
X020039Y021089D01*
X019852Y020903D01*
X020039Y020903D01*
X020147Y020903D02*
X020334Y021089D01*
X020334Y021136D01*
X020287Y021183D01*
X020194Y021183D01*
X020147Y021136D01*
X020147Y020903D02*
X020334Y020903D01*
X019745Y020903D02*
X019651Y020996D01*
X019698Y020996D02*
X019558Y020996D01*
X019558Y020903D02*
X019558Y021183D01*
X019698Y021183D01*
X019745Y021136D01*
X019745Y021043D01*
X019698Y020996D01*
X021094Y020442D02*
X021374Y020442D01*
X021374Y020535D02*
X021374Y020348D01*
X021328Y020240D02*
X021374Y020194D01*
X021374Y020100D01*
X021328Y020054D01*
X021281Y020054D01*
X021234Y020100D01*
X021234Y020194D01*
X021281Y020240D01*
X021328Y020240D01*
X021234Y020194D02*
X021188Y020240D01*
X021141Y020240D01*
X021094Y020194D01*
X021094Y020100D01*
X021141Y020054D01*
X021188Y020054D01*
X021234Y020100D01*
X021141Y019946D02*
X021094Y019899D01*
X021094Y019806D01*
X021141Y019759D01*
X021328Y019759D01*
X021374Y019806D01*
X021374Y019899D01*
X021328Y019946D01*
X021188Y020348D02*
X021094Y020442D01*
X019368Y019561D02*
X019368Y019515D01*
X019321Y019468D01*
X019368Y019421D01*
X019368Y019375D01*
X019321Y019328D01*
X019228Y019328D01*
X019181Y019375D01*
X019073Y019328D02*
X018886Y019328D01*
X018980Y019328D02*
X018980Y019608D01*
X018886Y019515D01*
X018778Y019561D02*
X018732Y019608D01*
X018638Y019608D01*
X018592Y019561D01*
X018592Y019375D01*
X018638Y019328D01*
X018732Y019328D01*
X018778Y019375D01*
X018489Y019328D02*
X018395Y019328D01*
X018442Y019328D02*
X018442Y019608D01*
X018395Y019608D02*
X018489Y019608D01*
X019181Y019561D02*
X019228Y019608D01*
X019321Y019608D01*
X019368Y019561D01*
X019321Y019468D02*
X019274Y019468D01*
X018436Y018653D02*
X018250Y018653D01*
X018250Y018513D01*
X018343Y018560D01*
X018390Y018560D01*
X018436Y018513D01*
X018436Y018420D01*
X018390Y018373D01*
X018296Y018373D01*
X018250Y018420D01*
X018142Y018420D02*
X018095Y018373D01*
X018002Y018373D01*
X017955Y018420D01*
X017955Y018466D01*
X018002Y018513D01*
X018095Y018513D01*
X018142Y018466D01*
X018142Y018420D01*
X018095Y018513D02*
X018142Y018560D01*
X018142Y018606D01*
X018095Y018653D01*
X018002Y018653D01*
X017955Y018606D01*
X017955Y018560D01*
X018002Y018513D01*
X017847Y018606D02*
X017801Y018653D01*
X017707Y018653D01*
X017660Y018606D01*
X017660Y018420D01*
X017707Y018373D01*
X017801Y018373D01*
X017847Y018420D01*
X016518Y018287D02*
X016471Y018287D01*
X016284Y018474D01*
X016237Y018474D01*
X016237Y018287D01*
X016284Y018180D02*
X016237Y018133D01*
X016237Y018040D01*
X016284Y017993D01*
X016471Y017993D01*
X016518Y018040D01*
X016518Y018133D01*
X016471Y018180D01*
X016378Y018582D02*
X016378Y018769D01*
X016518Y018722D02*
X016237Y018722D01*
X016378Y018582D01*
X012649Y013860D02*
X012462Y013860D01*
X012462Y013720D01*
X012556Y013766D01*
X012602Y013766D01*
X012649Y013720D01*
X012649Y013626D01*
X012602Y013579D01*
X012509Y013579D01*
X012462Y013626D01*
X012354Y013626D02*
X012308Y013579D01*
X012214Y013579D01*
X012168Y013626D01*
X012168Y013813D01*
X012214Y013860D01*
X012308Y013860D01*
X012354Y013813D01*
X012064Y013860D02*
X011971Y013860D01*
X012018Y013860D02*
X012018Y013579D01*
X012064Y013579D02*
X011971Y013579D01*
X010506Y012060D02*
X010553Y012013D01*
X010553Y011966D01*
X010506Y011920D01*
X010412Y011920D01*
X010366Y011966D01*
X010366Y012013D01*
X010412Y012060D01*
X010506Y012060D01*
X010506Y011920D02*
X010553Y011873D01*
X010553Y011826D01*
X010506Y011779D01*
X010412Y011779D01*
X010366Y011826D01*
X010366Y011873D01*
X010412Y011920D01*
X010258Y011920D02*
X010211Y011873D01*
X010071Y011873D01*
X010164Y011873D02*
X010258Y011779D01*
X010258Y011920D02*
X010258Y012013D01*
X010211Y012060D01*
X010071Y012060D01*
X010071Y011779D01*
X008189Y013003D02*
X008282Y012981D01*
X008373Y012955D01*
X008463Y012925D01*
X008552Y012890D01*
X008639Y012851D01*
X008724Y012808D01*
X008806Y012760D01*
X008886Y012709D01*
X008964Y012654D01*
X009039Y012595D01*
X009111Y012532D01*
X009179Y012466D01*
X009245Y012397D01*
X009307Y012325D01*
X009365Y012250D01*
X009420Y012172D01*
X009470Y012091D01*
X009517Y012008D01*
X009560Y011923D01*
X009598Y011836D01*
X009632Y011747D01*
X009662Y011656D01*
X009687Y011564D01*
X009708Y011472D01*
X009724Y011378D01*
X009736Y011283D01*
X009743Y011188D01*
X009745Y011093D01*
X009743Y010998D01*
X009736Y010903D01*
X009724Y010808D01*
X009708Y010714D01*
X009687Y010622D01*
X009662Y010530D01*
X009632Y010439D01*
X009598Y010350D01*
X009560Y010263D01*
X009517Y010178D01*
X009470Y010095D01*
X009420Y010014D01*
X009365Y009936D01*
X009307Y009861D01*
X009245Y009789D01*
X009179Y009720D01*
X009111Y009654D01*
X009039Y009591D01*
X008964Y009532D01*
X008886Y009477D01*
X008806Y009426D01*
X008724Y009378D01*
X008639Y009335D01*
X008552Y009296D01*
X008463Y009261D01*
X008373Y009231D01*
X008282Y009205D01*
X008189Y009183D01*
X004426Y018323D02*
X004426Y018370D01*
X004613Y018556D01*
X004613Y018603D01*
X004426Y018603D01*
X004319Y018603D02*
X004225Y018556D01*
X004132Y018463D01*
X004272Y018463D01*
X004319Y018416D01*
X004319Y018370D01*
X004272Y018323D01*
X004179Y018323D01*
X004132Y018370D01*
X004132Y018463D01*
X004024Y018556D02*
X003977Y018603D01*
X003884Y018603D01*
X003837Y018556D01*
X003837Y018370D01*
X003884Y018323D01*
X003977Y018323D01*
X004024Y018370D01*
X005071Y019409D02*
X005071Y019549D01*
X005118Y019596D01*
X005211Y019596D01*
X005258Y019549D01*
X005258Y019409D01*
X005351Y019409D02*
X005071Y019409D01*
X005258Y019502D02*
X005351Y019596D01*
X005351Y019704D02*
X005164Y019890D01*
X005118Y019890D01*
X005071Y019844D01*
X005071Y019750D01*
X005118Y019704D01*
X005351Y019704D02*
X005351Y019890D01*
X005304Y019998D02*
X005118Y020185D01*
X005304Y020185D01*
X005351Y020138D01*
X005351Y020045D01*
X005304Y019998D01*
X005118Y019998D01*
X005071Y020045D01*
X005071Y020138D01*
X005118Y020185D01*
X006871Y020140D02*
X006918Y020047D01*
X007011Y019954D01*
X007011Y020094D01*
X007058Y020140D01*
X007104Y020140D01*
X007151Y020094D01*
X007151Y020000D01*
X007104Y019954D01*
X007011Y019954D01*
X006918Y019846D02*
X006871Y019799D01*
X006871Y019706D01*
X006918Y019659D01*
X007104Y019659D01*
X007151Y019706D01*
X007151Y019799D01*
X007104Y019846D01*
X007104Y020248D02*
X007151Y020295D01*
X007151Y020388D01*
X007104Y020435D01*
X007058Y020435D01*
X007011Y020388D01*
X007011Y020342D01*
X007011Y020388D02*
X006964Y020435D01*
X006918Y020435D01*
X006871Y020388D01*
X006871Y020295D01*
X006918Y020248D01*
X005804Y021796D02*
X005851Y021842D01*
X005851Y021936D01*
X005804Y021982D01*
X005851Y022090D02*
X005851Y022277D01*
X005851Y022184D02*
X005571Y022184D01*
X005664Y022090D01*
X005618Y021982D02*
X005571Y021936D01*
X005571Y021842D01*
X005618Y021796D01*
X005804Y021796D01*
X005804Y022385D02*
X005851Y022431D01*
X005851Y022525D01*
X005804Y022572D01*
X005618Y022572D01*
X005571Y022525D01*
X005571Y022431D01*
X005618Y022385D01*
X005664Y022385D01*
X005711Y022431D01*
X005711Y022572D01*
X003603Y022829D02*
X003416Y022829D01*
X003603Y023016D01*
X003603Y023063D01*
X003556Y023110D01*
X003462Y023110D01*
X003416Y023063D01*
X003308Y022829D02*
X003121Y022829D01*
X003121Y023110D01*
X003104Y023296D02*
X002918Y023296D01*
X002871Y023342D01*
X002871Y023436D01*
X002918Y023482D01*
X002918Y023590D02*
X002871Y023637D01*
X002871Y023730D01*
X002918Y023777D01*
X002964Y023777D01*
X003151Y023590D01*
X003151Y023777D01*
X003104Y023885D02*
X003151Y023931D01*
X003151Y024025D01*
X003104Y024072D01*
X003011Y024072D01*
X002964Y024025D01*
X002964Y023978D01*
X003011Y023885D01*
X002871Y023885D01*
X002871Y024072D01*
X003104Y023482D02*
X003151Y023436D01*
X003151Y023342D01*
X003104Y023296D01*
X003834Y025409D02*
X003927Y025409D01*
X003974Y025456D01*
X004082Y025409D02*
X004269Y025596D01*
X004269Y025643D01*
X004222Y025690D01*
X004129Y025690D01*
X004082Y025643D01*
X003974Y025643D02*
X003927Y025690D01*
X003834Y025690D01*
X003787Y025643D01*
X003787Y025456D01*
X003834Y025409D01*
X004082Y025409D02*
X004269Y025409D01*
X004376Y025456D02*
X004563Y025643D01*
X004563Y025456D01*
X004517Y025409D01*
X004423Y025409D01*
X004376Y025456D01*
X004376Y025643D01*
X004423Y025690D01*
X004517Y025690D01*
X004563Y025643D01*
X004565Y026364D02*
X004658Y026364D01*
X004705Y026411D01*
X004813Y026411D02*
X004813Y026505D01*
X004953Y026505D01*
X005000Y026458D01*
X005000Y026411D01*
X004953Y026364D01*
X004860Y026364D01*
X004813Y026411D01*
X004813Y026505D02*
X004906Y026598D01*
X005000Y026645D01*
X004705Y026598D02*
X004658Y026645D01*
X004565Y026645D01*
X004518Y026598D01*
X004518Y026411D01*
X004565Y026364D01*
X004415Y026364D02*
X004322Y026364D01*
X004369Y026364D02*
X004369Y026645D01*
X004415Y026645D02*
X004322Y026645D01*
X006871Y026842D02*
X006918Y026796D01*
X007104Y026796D01*
X007151Y026842D01*
X007151Y026936D01*
X007104Y026982D01*
X007151Y027090D02*
X006964Y027277D01*
X006918Y027277D01*
X006871Y027230D01*
X006871Y027137D01*
X006918Y027090D01*
X006918Y026982D02*
X006871Y026936D01*
X006871Y026842D01*
X007151Y027090D02*
X007151Y027277D01*
X007104Y027385D02*
X007151Y027431D01*
X007151Y027525D01*
X007104Y027572D01*
X007058Y027572D01*
X007011Y027525D01*
X007011Y027385D01*
X007104Y027385D01*
X007011Y027385D02*
X006918Y027478D01*
X006871Y027572D01*
X006047Y027976D02*
X006001Y027929D01*
X005907Y027929D01*
X005860Y027976D01*
X005860Y028070D02*
X005954Y028116D01*
X006001Y028116D01*
X006047Y028070D01*
X006047Y027976D01*
X005860Y028070D02*
X005860Y028210D01*
X006047Y028210D01*
X005659Y028210D02*
X005659Y027929D01*
X005566Y027929D02*
X005753Y027929D01*
X005566Y028116D02*
X005659Y028210D01*
X005458Y028163D02*
X005411Y028210D01*
X005271Y028210D01*
X005271Y027929D01*
X005271Y028023D02*
X005411Y028023D01*
X005458Y028070D01*
X005458Y028163D01*
X005364Y028023D02*
X005458Y027929D01*
X007087Y028406D02*
X007087Y028593D01*
X007134Y028640D01*
X007227Y028640D01*
X007274Y028593D01*
X007382Y028593D02*
X007429Y028640D01*
X007522Y028640D01*
X007569Y028593D01*
X007569Y028546D01*
X007382Y028359D01*
X007569Y028359D01*
X007676Y028359D02*
X007863Y028359D01*
X007770Y028359D02*
X007770Y028640D01*
X007676Y028546D01*
X007274Y028406D02*
X007227Y028359D01*
X007134Y028359D01*
X007087Y028406D01*
X008221Y028263D02*
X008221Y028076D01*
X008268Y028029D01*
X008361Y028029D01*
X008408Y028076D01*
X008516Y028029D02*
X008703Y028216D01*
X008703Y028263D01*
X008656Y028310D01*
X008562Y028310D01*
X008516Y028263D01*
X008408Y028263D02*
X008361Y028310D01*
X008268Y028310D01*
X008221Y028263D01*
X008516Y028029D02*
X008703Y028029D01*
X008810Y028170D02*
X008997Y028170D01*
X008951Y028310D02*
X008810Y028170D01*
X008951Y028310D02*
X008951Y028029D01*
X019521Y028003D02*
X019521Y028283D01*
X019661Y028283D01*
X019708Y028236D01*
X019708Y028143D01*
X019661Y028096D01*
X019521Y028096D01*
X019614Y028096D02*
X019708Y028003D01*
X019816Y028003D02*
X020003Y028003D01*
X019909Y028003D02*
X019909Y028283D01*
X019816Y028189D01*
X020110Y028283D02*
X020297Y028283D01*
X020297Y028236D01*
X020110Y028049D01*
X020110Y028003D01*
X021094Y027572D02*
X021141Y027478D01*
X021234Y027385D01*
X021234Y027525D01*
X021281Y027572D01*
X021328Y027572D01*
X021374Y027525D01*
X021374Y027431D01*
X021328Y027385D01*
X021234Y027385D01*
X021188Y027277D02*
X021234Y027230D01*
X021281Y027277D01*
X021328Y027277D01*
X021374Y027230D01*
X021374Y027137D01*
X021328Y027090D01*
X021328Y026982D02*
X021374Y026936D01*
X021374Y026842D01*
X021328Y026796D01*
X021141Y026796D01*
X021094Y026842D01*
X021094Y026936D01*
X021141Y026982D01*
X021141Y027090D02*
X021094Y027137D01*
X021094Y027230D01*
X021141Y027277D01*
X021188Y027277D01*
X021234Y027230D02*
X021234Y027184D01*
X022321Y028049D02*
X022368Y028003D01*
X022461Y028003D01*
X022508Y028049D01*
X022616Y028143D02*
X022803Y028143D01*
X022910Y028143D02*
X023051Y028283D01*
X023051Y028003D01*
X023097Y028143D02*
X022910Y028143D01*
X022756Y028283D02*
X022616Y028143D01*
X022508Y028236D02*
X022461Y028283D01*
X022368Y028283D01*
X022321Y028236D01*
X022321Y028049D01*
X022213Y028383D02*
X022026Y028383D01*
X022120Y028383D02*
X022120Y028663D01*
X022026Y028569D01*
X021919Y028523D02*
X021732Y028523D01*
X021872Y028663D01*
X021872Y028383D01*
X021624Y028429D02*
X021577Y028383D01*
X021484Y028383D01*
X021437Y028429D01*
X021437Y028616D01*
X021484Y028663D01*
X021577Y028663D01*
X021624Y028616D01*
X022756Y028283D02*
X022756Y028003D01*
X033671Y027976D02*
X033671Y028256D01*
X033811Y028256D01*
X033858Y028209D01*
X033858Y028116D01*
X033811Y028069D01*
X033671Y028069D01*
X033764Y028069D02*
X033858Y027976D01*
X033966Y027976D02*
X034153Y027976D01*
X034059Y027976D02*
X034059Y028256D01*
X033966Y028163D01*
X034260Y028163D02*
X034260Y028209D01*
X034307Y028256D01*
X034401Y028256D01*
X034447Y028209D01*
X034447Y028023D01*
X034401Y027976D01*
X034307Y027976D01*
X034260Y028023D01*
X034307Y028116D02*
X034447Y028116D01*
X034307Y028116D02*
X034260Y028163D01*
X035267Y027475D02*
X035407Y027335D01*
X035407Y027522D01*
X035267Y027475D02*
X035548Y027475D01*
X035501Y027227D02*
X035407Y027227D01*
X035361Y027180D01*
X035361Y027134D01*
X035407Y027040D01*
X035267Y027040D01*
X035267Y027227D01*
X035501Y027227D02*
X035548Y027180D01*
X035548Y027087D01*
X035501Y027040D01*
X035501Y026932D02*
X035548Y026886D01*
X035548Y026792D01*
X035501Y026746D01*
X035314Y026746D01*
X035267Y026792D01*
X035267Y026886D01*
X035314Y026932D01*
X036571Y028073D02*
X036618Y028026D01*
X036711Y028026D01*
X036758Y028073D01*
X036866Y028073D02*
X036912Y028026D01*
X037006Y028026D01*
X037053Y028073D01*
X037053Y028119D01*
X037006Y028166D01*
X036866Y028166D01*
X036866Y028073D01*
X036866Y028166D02*
X036959Y028259D01*
X037053Y028306D01*
X037160Y028259D02*
X037207Y028306D01*
X037301Y028306D01*
X037347Y028259D01*
X037347Y028213D01*
X037160Y028026D01*
X037347Y028026D01*
X036758Y028259D02*
X036711Y028306D01*
X036618Y028306D01*
X036571Y028259D01*
X036571Y028073D01*
X036217Y028406D02*
X036263Y028453D01*
X036263Y028639D01*
X036217Y028686D01*
X036123Y028686D01*
X036076Y028639D01*
X036076Y028593D01*
X036123Y028546D01*
X036263Y028546D01*
X036217Y028406D02*
X036123Y028406D01*
X036076Y028453D01*
X035969Y028453D02*
X035969Y028546D01*
X035922Y028593D01*
X035875Y028593D01*
X035782Y028546D01*
X035782Y028686D01*
X035969Y028686D01*
X035969Y028453D02*
X035922Y028406D01*
X035829Y028406D01*
X035782Y028453D01*
X035674Y028453D02*
X035627Y028406D01*
X035534Y028406D01*
X035487Y028453D01*
X035487Y028639D01*
X035534Y028686D01*
X035627Y028686D01*
X035674Y028639D01*
X039905Y026745D02*
X039998Y026745D01*
X039952Y026745D02*
X039952Y026464D01*
X039998Y026464D02*
X039905Y026464D01*
X040101Y026511D02*
X040148Y026464D01*
X040241Y026464D01*
X040288Y026511D01*
X040396Y026464D02*
X040583Y026464D01*
X040489Y026464D02*
X040489Y026745D01*
X040396Y026651D01*
X040288Y026698D02*
X040241Y026745D01*
X040148Y026745D01*
X040101Y026698D01*
X040101Y026511D01*
X040691Y026511D02*
X040737Y026464D01*
X040831Y026464D01*
X040877Y026511D01*
X040877Y026698D01*
X040831Y026745D01*
X040737Y026745D01*
X040691Y026698D01*
X040691Y026651D01*
X040737Y026605D01*
X040877Y026605D01*
X042354Y026641D02*
X042354Y026548D01*
X042401Y026501D01*
X042587Y026501D01*
X042634Y026548D01*
X042634Y026641D01*
X042587Y026688D01*
X042634Y026796D02*
X042634Y026982D01*
X042634Y026889D02*
X042354Y026889D01*
X042447Y026796D01*
X042401Y026688D02*
X042354Y026641D01*
X042401Y027090D02*
X042354Y027137D01*
X042354Y027230D01*
X042401Y027277D01*
X042447Y027277D01*
X042494Y027230D01*
X042541Y027277D01*
X042587Y027277D01*
X042634Y027230D01*
X042634Y027137D01*
X042587Y027090D01*
X042494Y027184D02*
X042494Y027230D01*
X042494Y027385D02*
X042494Y027572D01*
X042354Y027525D02*
X042494Y027385D01*
X042634Y027525D02*
X042354Y027525D01*
X041557Y028049D02*
X041510Y028003D01*
X041417Y028003D01*
X041370Y028049D01*
X041370Y028096D01*
X041417Y028143D01*
X041510Y028143D01*
X041557Y028096D01*
X041557Y028049D01*
X041510Y028143D02*
X041557Y028189D01*
X041557Y028236D01*
X041510Y028283D01*
X041417Y028283D01*
X041370Y028236D01*
X041370Y028189D01*
X041417Y028143D01*
X041262Y028189D02*
X041262Y028236D01*
X041216Y028283D01*
X041122Y028283D01*
X041076Y028236D01*
X040968Y028236D02*
X040968Y028143D01*
X040921Y028096D01*
X040781Y028096D01*
X040781Y028003D02*
X040781Y028283D01*
X040921Y028283D01*
X040968Y028236D01*
X040874Y028096D02*
X040968Y028003D01*
X041076Y028003D02*
X041262Y028189D01*
X041262Y028003D02*
X041076Y028003D01*
X042252Y028429D02*
X042252Y028616D01*
X042299Y028663D01*
X042392Y028663D01*
X042439Y028616D01*
X042547Y028569D02*
X042640Y028663D01*
X042640Y028383D01*
X042547Y028383D02*
X042734Y028383D01*
X042842Y028429D02*
X042888Y028383D01*
X042982Y028383D01*
X043028Y028429D01*
X043028Y028476D01*
X042982Y028523D01*
X042935Y028523D01*
X042982Y028523D02*
X043028Y028569D01*
X043028Y028616D01*
X042982Y028663D01*
X042888Y028663D01*
X042842Y028616D01*
X043136Y028616D02*
X043136Y028569D01*
X043183Y028523D01*
X043323Y028523D01*
X043323Y028616D02*
X043276Y028663D01*
X043183Y028663D01*
X043136Y028616D01*
X043136Y028429D02*
X043183Y028383D01*
X043276Y028383D01*
X043323Y028429D01*
X043323Y028616D01*
X043628Y028283D02*
X043581Y028236D01*
X043581Y028049D01*
X043628Y028003D01*
X043721Y028003D01*
X043768Y028049D01*
X043876Y028003D02*
X044062Y028003D01*
X043969Y028003D02*
X043969Y028283D01*
X043876Y028189D01*
X043768Y028236D02*
X043721Y028283D01*
X043628Y028283D01*
X044170Y028143D02*
X044357Y028143D01*
X044465Y028236D02*
X044512Y028283D01*
X044605Y028283D01*
X044652Y028236D01*
X044652Y028189D01*
X044465Y028003D01*
X044652Y028003D01*
X044310Y028003D02*
X044310Y028283D01*
X044170Y028143D01*
X042439Y028429D02*
X042392Y028383D01*
X042299Y028383D01*
X042252Y028429D01*
X044434Y026250D02*
X044481Y026157D01*
X044574Y026063D01*
X044574Y026204D01*
X044621Y026250D01*
X044667Y026250D01*
X044714Y026204D01*
X044714Y026110D01*
X044667Y026063D01*
X044574Y026063D01*
X044527Y025956D02*
X044574Y025909D01*
X044621Y025956D01*
X044667Y025956D01*
X044714Y025909D01*
X044714Y025815D01*
X044667Y025769D01*
X044714Y025661D02*
X044714Y025474D01*
X044714Y025567D02*
X044434Y025567D01*
X044527Y025474D01*
X044481Y025366D02*
X044434Y025320D01*
X044434Y025226D01*
X044481Y025179D01*
X044667Y025179D01*
X044714Y025226D01*
X044714Y025320D01*
X044667Y025366D01*
X044481Y025769D02*
X044434Y025815D01*
X044434Y025909D01*
X044481Y025956D01*
X044527Y025956D01*
X044574Y025909D02*
X044574Y025862D01*
X045762Y025693D02*
X045762Y025506D01*
X045809Y025459D01*
X045902Y025459D01*
X045949Y025506D01*
X046057Y025459D02*
X046244Y025459D01*
X046150Y025459D02*
X046150Y025740D01*
X046057Y025646D01*
X045949Y025693D02*
X045902Y025740D01*
X045809Y025740D01*
X045762Y025693D01*
X046351Y025600D02*
X046538Y025600D01*
X046646Y025506D02*
X046833Y025693D01*
X046833Y025740D01*
X046646Y025740D01*
X046492Y025740D02*
X046351Y025600D01*
X046492Y025740D02*
X046492Y025459D01*
X046646Y025459D02*
X046646Y025506D01*
X046992Y026464D02*
X047085Y026464D01*
X047038Y026464D02*
X047038Y026745D01*
X046992Y026745D02*
X047085Y026745D01*
X047188Y026698D02*
X047235Y026745D01*
X047328Y026745D01*
X047375Y026698D01*
X047483Y026698D02*
X047529Y026745D01*
X047623Y026745D01*
X047669Y026698D01*
X047669Y026651D01*
X047483Y026464D01*
X047669Y026464D01*
X047777Y026511D02*
X047964Y026698D01*
X047964Y026511D01*
X047917Y026464D01*
X047824Y026464D01*
X047777Y026511D01*
X047777Y026698D01*
X047824Y026745D01*
X047917Y026745D01*
X047964Y026698D01*
X047375Y026511D02*
X047328Y026464D01*
X047235Y026464D01*
X047188Y026511D01*
X047188Y026698D01*
X049441Y026641D02*
X049441Y026548D01*
X049487Y026501D01*
X049674Y026501D01*
X049721Y026548D01*
X049721Y026641D01*
X049674Y026688D01*
X049721Y026796D02*
X049721Y026982D01*
X049721Y026889D02*
X049441Y026889D01*
X049534Y026796D01*
X049487Y026688D02*
X049441Y026641D01*
X049581Y027090D02*
X049581Y027277D01*
X049674Y027385D02*
X049721Y027431D01*
X049721Y027525D01*
X049674Y027572D01*
X049627Y027572D01*
X049581Y027525D01*
X049581Y027478D01*
X049581Y027525D02*
X049534Y027572D01*
X049487Y027572D01*
X049441Y027525D01*
X049441Y027431D01*
X049487Y027385D01*
X049441Y027230D02*
X049581Y027090D01*
X049721Y027230D02*
X049441Y027230D01*
X048644Y028049D02*
X048644Y028236D01*
X048597Y028283D01*
X048504Y028283D01*
X048457Y028236D01*
X048457Y028189D01*
X048504Y028143D01*
X048644Y028143D01*
X048644Y028049D02*
X048597Y028003D01*
X048504Y028003D01*
X048457Y028049D01*
X048349Y028003D02*
X048162Y028003D01*
X048349Y028189D01*
X048349Y028236D01*
X048302Y028283D01*
X048209Y028283D01*
X048162Y028236D01*
X048054Y028236D02*
X048054Y028143D01*
X048008Y028096D01*
X047868Y028096D01*
X047961Y028096D02*
X048054Y028003D01*
X047868Y028003D02*
X047868Y028283D01*
X048008Y028283D01*
X048054Y028236D01*
X049339Y028429D02*
X049386Y028383D01*
X049479Y028383D01*
X049526Y028429D01*
X049634Y028383D02*
X049820Y028383D01*
X049727Y028383D02*
X049727Y028663D01*
X049634Y028569D01*
X049526Y028616D02*
X049479Y028663D01*
X049386Y028663D01*
X049339Y028616D01*
X049339Y028429D01*
X049928Y028523D02*
X050115Y028523D01*
X050223Y028569D02*
X050223Y028616D01*
X050270Y028663D01*
X050363Y028663D01*
X050410Y028616D01*
X050410Y028569D01*
X050363Y028523D01*
X050270Y028523D01*
X050223Y028569D01*
X050270Y028523D02*
X050223Y028476D01*
X050223Y028429D01*
X050270Y028383D01*
X050363Y028383D01*
X050410Y028429D01*
X050410Y028476D01*
X050363Y028523D01*
X050068Y028663D02*
X049928Y028523D01*
X050068Y028383D02*
X050068Y028663D01*
X050668Y028236D02*
X050668Y028049D01*
X050714Y028003D01*
X050808Y028003D01*
X050854Y028049D01*
X050962Y028003D02*
X051149Y028003D01*
X051056Y028003D02*
X051056Y028283D01*
X050962Y028189D01*
X050854Y028236D02*
X050808Y028283D01*
X050714Y028283D01*
X050668Y028236D01*
X051257Y028283D02*
X051257Y028143D01*
X051350Y028189D01*
X051397Y028189D01*
X051444Y028143D01*
X051444Y028049D01*
X051397Y028003D01*
X051304Y028003D01*
X051257Y028049D01*
X051257Y028283D02*
X051444Y028283D01*
X051551Y028189D02*
X051645Y028283D01*
X051645Y028003D01*
X051738Y028003D02*
X051551Y028003D01*
X054078Y026745D02*
X054172Y026745D01*
X054125Y026745D02*
X054125Y026464D01*
X054078Y026464D02*
X054172Y026464D01*
X054275Y026511D02*
X054321Y026464D01*
X054415Y026464D01*
X054461Y026511D01*
X054569Y026464D02*
X054756Y026651D01*
X054756Y026698D01*
X054709Y026745D01*
X054616Y026745D01*
X054569Y026698D01*
X054461Y026698D02*
X054415Y026745D01*
X054321Y026745D01*
X054275Y026698D01*
X054275Y026511D01*
X054569Y026464D02*
X054756Y026464D01*
X054864Y026464D02*
X055051Y026464D01*
X054957Y026464D02*
X054957Y026745D01*
X054864Y026651D01*
X053920Y025740D02*
X053826Y025693D01*
X053733Y025600D01*
X053873Y025600D01*
X053920Y025553D01*
X053920Y025506D01*
X053873Y025459D01*
X053779Y025459D01*
X053733Y025506D01*
X053733Y025600D01*
X053625Y025600D02*
X053625Y025506D01*
X053578Y025459D01*
X053485Y025459D01*
X053438Y025506D01*
X053438Y025600D02*
X053531Y025646D01*
X053578Y025646D01*
X053625Y025600D01*
X053625Y025740D02*
X053438Y025740D01*
X053438Y025600D01*
X053330Y025459D02*
X053143Y025459D01*
X053237Y025459D02*
X053237Y025740D01*
X053143Y025646D01*
X053036Y025693D02*
X052989Y025740D01*
X052896Y025740D01*
X052849Y025693D01*
X052849Y025506D01*
X052896Y025459D01*
X052989Y025459D01*
X053036Y025506D01*
X052201Y024804D02*
X052201Y024710D01*
X052154Y024663D01*
X052061Y024663D02*
X052014Y024757D01*
X052014Y024804D01*
X052061Y024850D01*
X052154Y024850D01*
X052201Y024804D01*
X052061Y024663D02*
X051921Y024663D01*
X051921Y024850D01*
X052061Y024556D02*
X052061Y024369D01*
X051921Y024509D01*
X052201Y024509D01*
X052201Y024261D02*
X052201Y024074D01*
X052201Y024167D02*
X051921Y024167D01*
X052014Y024074D01*
X051967Y023966D02*
X051921Y023920D01*
X051921Y023826D01*
X051967Y023779D01*
X052154Y023779D01*
X052201Y023826D01*
X052201Y023920D01*
X052154Y023966D01*
X052471Y023881D02*
X052471Y023788D01*
X052518Y023741D01*
X052471Y023633D02*
X052471Y023446D01*
X052611Y023446D01*
X052564Y023540D01*
X052564Y023587D01*
X052611Y023633D01*
X052704Y023633D01*
X052751Y023587D01*
X052751Y023493D01*
X052704Y023446D01*
X052751Y023339D02*
X052751Y023152D01*
X052751Y023245D02*
X052471Y023245D01*
X052564Y023152D01*
X052518Y023044D02*
X052471Y022997D01*
X052471Y022904D01*
X052518Y022857D01*
X052704Y022857D01*
X052751Y022904D01*
X052751Y022997D01*
X052704Y023044D01*
X053127Y022929D02*
X053314Y022929D01*
X053422Y022929D02*
X053609Y022929D01*
X053515Y022929D02*
X053515Y023210D01*
X053422Y023116D01*
X053127Y023210D02*
X053127Y022929D01*
X053717Y022929D02*
X053717Y022976D01*
X053904Y023163D01*
X053904Y023210D01*
X053717Y023210D01*
X052751Y023788D02*
X052704Y023741D01*
X052751Y023788D02*
X052751Y023881D01*
X052704Y023928D01*
X052658Y023928D01*
X052611Y023881D01*
X052611Y023834D01*
X052611Y023881D02*
X052564Y023928D01*
X052518Y023928D01*
X052471Y023881D01*
X055227Y022722D02*
X055227Y022535D01*
X055367Y022535D01*
X055321Y022628D01*
X055321Y022675D01*
X055367Y022722D01*
X055461Y022722D01*
X055507Y022675D01*
X055507Y022581D01*
X055461Y022535D01*
X055461Y022427D02*
X055507Y022380D01*
X055507Y022287D01*
X055461Y022240D01*
X055367Y022240D02*
X055321Y022334D01*
X055321Y022380D01*
X055367Y022427D01*
X055461Y022427D01*
X055367Y022240D02*
X055227Y022240D01*
X055227Y022427D01*
X055507Y022132D02*
X055507Y021946D01*
X055507Y022039D02*
X055227Y022039D01*
X055321Y021946D01*
X055274Y021838D02*
X055227Y021791D01*
X055227Y021698D01*
X055274Y021651D01*
X055461Y021651D01*
X055507Y021698D01*
X055507Y021791D01*
X055461Y021838D01*
X055439Y021170D02*
X055346Y021170D01*
X055299Y021123D01*
X055191Y021123D02*
X055191Y021029D01*
X055144Y020983D01*
X055004Y020983D01*
X055098Y020983D02*
X055191Y020889D01*
X055299Y020889D02*
X055486Y021076D01*
X055486Y021123D01*
X055439Y021170D01*
X055593Y021170D02*
X055780Y021170D01*
X055780Y021123D01*
X055593Y020936D01*
X055593Y020889D01*
X055486Y020889D02*
X055299Y020889D01*
X055191Y021123D02*
X055144Y021170D01*
X055004Y021170D01*
X055004Y020889D01*
X056527Y020285D02*
X056527Y020098D01*
X056667Y020098D01*
X056621Y020192D01*
X056621Y020238D01*
X056667Y020285D01*
X056761Y020285D01*
X056807Y020238D01*
X056807Y020145D01*
X056761Y020098D01*
X056807Y019990D02*
X056807Y019804D01*
X056621Y019990D01*
X056574Y019990D01*
X056527Y019944D01*
X056527Y019850D01*
X056574Y019804D01*
X056527Y019602D02*
X056807Y019602D01*
X056807Y019509D02*
X056807Y019696D01*
X056621Y019509D02*
X056527Y019602D01*
X056574Y019401D02*
X056527Y019354D01*
X056527Y019261D01*
X056574Y019214D01*
X056761Y019214D01*
X056807Y019261D01*
X056807Y019354D01*
X056761Y019401D01*
X054351Y019311D02*
X054351Y019265D01*
X054304Y019218D01*
X054211Y019218D01*
X054164Y019265D01*
X054164Y019311D01*
X054211Y019358D01*
X054304Y019358D01*
X054351Y019311D01*
X054304Y019218D02*
X054351Y019171D01*
X054351Y019125D01*
X054304Y019078D01*
X054211Y019078D01*
X054164Y019125D01*
X054164Y019171D01*
X054211Y019218D01*
X054056Y019078D02*
X053869Y019078D01*
X053963Y019078D02*
X053963Y019358D01*
X053869Y019265D01*
X053761Y019311D02*
X053715Y019358D01*
X053621Y019358D01*
X053575Y019311D01*
X053575Y019125D01*
X053621Y019078D01*
X053715Y019078D01*
X053761Y019125D01*
X053472Y019078D02*
X053378Y019078D01*
X053425Y019078D02*
X053425Y019358D01*
X053378Y019358D02*
X053472Y019358D01*
X053435Y018603D02*
X053388Y018556D01*
X053435Y018603D02*
X053528Y018603D01*
X053575Y018556D01*
X053575Y018510D01*
X053388Y018323D01*
X053575Y018323D01*
X053683Y018370D02*
X053729Y018323D01*
X053823Y018323D01*
X053870Y018370D01*
X053870Y018556D01*
X053823Y018603D01*
X053729Y018603D01*
X053683Y018556D01*
X053683Y018510D01*
X053729Y018463D01*
X053870Y018463D01*
X053280Y018323D02*
X053093Y018323D01*
X053187Y018323D02*
X053187Y018603D01*
X053093Y018510D01*
X052986Y018556D02*
X052939Y018603D01*
X052846Y018603D01*
X052799Y018556D01*
X052799Y018370D01*
X052846Y018323D01*
X052939Y018323D01*
X052986Y018370D01*
X051951Y018387D02*
X051951Y018574D01*
X051951Y018481D02*
X051671Y018481D01*
X051764Y018387D01*
X051717Y018280D02*
X051671Y018233D01*
X051671Y018140D01*
X051717Y018093D01*
X051904Y018093D01*
X051951Y018140D01*
X051951Y018233D01*
X051904Y018280D01*
X051951Y018682D02*
X051951Y018869D01*
X051951Y018776D02*
X051671Y018776D01*
X051764Y018682D01*
X051764Y018977D02*
X051717Y018977D01*
X051671Y019023D01*
X051671Y019117D01*
X051717Y019164D01*
X051764Y019164D01*
X051811Y019117D01*
X051811Y019023D01*
X051764Y018977D01*
X051811Y019023D02*
X051857Y018977D01*
X051904Y018977D01*
X051951Y019023D01*
X051951Y019117D01*
X051904Y019164D01*
X051857Y019164D01*
X051811Y019117D01*
X049721Y019511D02*
X049674Y019464D01*
X049487Y019464D01*
X049441Y019511D01*
X049441Y019604D01*
X049487Y019651D01*
X049534Y019759D02*
X049441Y019852D01*
X049721Y019852D01*
X049721Y019759D02*
X049721Y019946D01*
X049721Y020054D02*
X049721Y020240D01*
X049721Y020147D02*
X049441Y020147D01*
X049534Y020054D01*
X049674Y019651D02*
X049721Y019604D01*
X049721Y019511D01*
X049674Y020348D02*
X049721Y020395D01*
X049721Y020488D01*
X049674Y020535D01*
X049627Y020535D01*
X049581Y020488D01*
X049581Y020348D01*
X049674Y020348D01*
X049581Y020348D02*
X049487Y020442D01*
X049441Y020535D01*
X048694Y020936D02*
X048694Y020983D01*
X048647Y021029D01*
X048507Y021029D01*
X048507Y020936D01*
X048554Y020889D01*
X048647Y020889D01*
X048694Y020936D01*
X048600Y021123D02*
X048694Y021170D01*
X048600Y021123D02*
X048507Y021029D01*
X048399Y021076D02*
X048399Y021123D01*
X048352Y021170D01*
X048259Y021170D01*
X048212Y021123D01*
X048104Y021123D02*
X048104Y021029D01*
X048058Y020983D01*
X047918Y020983D01*
X048011Y020983D02*
X048104Y020889D01*
X048212Y020889D02*
X048399Y021076D01*
X048399Y020889D02*
X048212Y020889D01*
X048104Y021123D02*
X048058Y021170D01*
X047918Y021170D01*
X047918Y020889D01*
X048187Y021651D02*
X048374Y021651D01*
X048421Y021698D01*
X048421Y021791D01*
X048374Y021838D01*
X048421Y021946D02*
X048421Y022132D01*
X048421Y022039D02*
X048141Y022039D01*
X048234Y021946D01*
X048187Y021838D02*
X048141Y021791D01*
X048141Y021698D01*
X048187Y021651D01*
X048281Y022240D02*
X048281Y022427D01*
X048281Y022535D02*
X048281Y022675D01*
X048327Y022722D01*
X048374Y022722D01*
X048421Y022675D01*
X048421Y022581D01*
X048374Y022535D01*
X048281Y022535D01*
X048187Y022628D01*
X048141Y022722D01*
X048141Y022380D02*
X048281Y022240D01*
X048421Y022380D02*
X048141Y022380D01*
X046967Y022976D02*
X046920Y022929D01*
X046827Y022929D01*
X046780Y022976D01*
X046780Y023070D01*
X046920Y023070D01*
X046967Y023023D01*
X046967Y022976D01*
X046873Y023163D02*
X046780Y023070D01*
X046873Y023163D02*
X046967Y023210D01*
X046579Y023210D02*
X046579Y022929D01*
X046672Y022929D02*
X046485Y022929D01*
X046378Y022929D02*
X046191Y022929D01*
X046191Y023210D01*
X046485Y023116D02*
X046579Y023210D01*
X045701Y023165D02*
X045701Y023352D01*
X045701Y023259D02*
X045421Y023259D01*
X045514Y023165D01*
X045468Y023057D02*
X045421Y023011D01*
X045421Y022917D01*
X045468Y022871D01*
X045654Y022871D01*
X045701Y022917D01*
X045701Y023011D01*
X045654Y023057D01*
X045561Y023460D02*
X045561Y023647D01*
X045561Y023754D02*
X045561Y023941D01*
X045421Y023895D02*
X045561Y023754D01*
X045701Y023895D02*
X045421Y023895D01*
X045421Y023600D02*
X045561Y023460D01*
X045701Y023600D02*
X045421Y023600D01*
X041284Y022535D02*
X041237Y022535D01*
X041051Y022722D01*
X041004Y022722D01*
X041004Y022535D01*
X041051Y022427D02*
X041097Y022427D01*
X041144Y022380D01*
X041191Y022427D01*
X041237Y022427D01*
X041284Y022380D01*
X041284Y022287D01*
X041237Y022240D01*
X041284Y022132D02*
X041284Y021946D01*
X041284Y022039D02*
X041004Y022039D01*
X041097Y021946D01*
X041051Y021838D02*
X041004Y021791D01*
X041004Y021698D01*
X041051Y021651D01*
X041237Y021651D01*
X041284Y021698D01*
X041284Y021791D01*
X041237Y021838D01*
X041051Y022240D02*
X041004Y022287D01*
X041004Y022380D01*
X041051Y022427D01*
X041144Y022380D02*
X041144Y022334D01*
X039880Y022976D02*
X039834Y022929D01*
X039740Y022929D01*
X039693Y022976D01*
X039693Y023070D02*
X039787Y023116D01*
X039834Y023116D01*
X039880Y023070D01*
X039880Y022976D01*
X039693Y023070D02*
X039693Y023210D01*
X039880Y023210D01*
X039492Y023210D02*
X039492Y022929D01*
X039399Y022929D02*
X039586Y022929D01*
X039399Y023116D02*
X039492Y023210D01*
X039291Y022929D02*
X039104Y022929D01*
X039104Y023210D01*
X038601Y023222D02*
X038321Y023222D01*
X038414Y023129D01*
X038368Y023021D02*
X038321Y022974D01*
X038321Y022881D01*
X038368Y022834D01*
X038554Y022834D01*
X038601Y022881D01*
X038601Y022974D01*
X038554Y023021D01*
X038601Y023129D02*
X038601Y023315D01*
X038554Y023423D02*
X038601Y023470D01*
X038601Y023563D01*
X038554Y023610D01*
X038508Y023610D01*
X038461Y023563D01*
X038461Y023517D01*
X038461Y023563D02*
X038414Y023610D01*
X038368Y023610D01*
X038321Y023563D01*
X038321Y023470D01*
X038368Y023423D01*
X038321Y023718D02*
X038461Y023718D01*
X038414Y023811D01*
X038414Y023858D01*
X038461Y023905D01*
X038554Y023905D01*
X038601Y023858D01*
X038601Y023765D01*
X038554Y023718D01*
X038321Y023718D02*
X038321Y023905D01*
X037958Y024296D02*
X037771Y024296D01*
X037724Y024342D01*
X037724Y024436D01*
X037771Y024482D01*
X037724Y024590D02*
X037865Y024590D01*
X037818Y024684D01*
X037818Y024730D01*
X037865Y024777D01*
X037958Y024777D01*
X038005Y024730D01*
X038005Y024637D01*
X037958Y024590D01*
X037958Y024482D02*
X038005Y024436D01*
X038005Y024342D01*
X037958Y024296D01*
X037724Y024590D02*
X037724Y024777D01*
X037865Y024885D02*
X037771Y024978D01*
X037724Y025072D01*
X037865Y025025D02*
X037865Y024885D01*
X037958Y024885D01*
X038005Y024931D01*
X038005Y025025D01*
X037958Y025072D01*
X037911Y025072D01*
X037865Y025025D01*
X038676Y025506D02*
X038722Y025459D01*
X038816Y025459D01*
X038862Y025506D01*
X038970Y025459D02*
X039157Y025459D01*
X039064Y025459D02*
X039064Y025740D01*
X038970Y025646D01*
X038862Y025693D02*
X038816Y025740D01*
X038722Y025740D01*
X038676Y025693D01*
X038676Y025506D01*
X039265Y025506D02*
X039312Y025459D01*
X039405Y025459D01*
X039452Y025506D01*
X039452Y025553D01*
X039405Y025600D01*
X039358Y025600D01*
X039405Y025600D02*
X039452Y025646D01*
X039452Y025693D01*
X039405Y025740D01*
X039312Y025740D01*
X039265Y025693D01*
X039560Y025693D02*
X039560Y025646D01*
X039606Y025600D01*
X039700Y025600D01*
X039746Y025553D01*
X039746Y025506D01*
X039700Y025459D01*
X039606Y025459D01*
X039560Y025506D01*
X039560Y025553D01*
X039606Y025600D01*
X039700Y025600D02*
X039746Y025646D01*
X039746Y025693D01*
X039700Y025740D01*
X039606Y025740D01*
X039560Y025693D01*
X031820Y022290D02*
X031820Y022009D01*
X031913Y022009D02*
X031726Y022009D01*
X031726Y022196D02*
X031820Y022290D01*
X031619Y022290D02*
X031432Y022290D01*
X031525Y022290D02*
X031525Y022009D01*
X031324Y022009D02*
X031231Y022103D01*
X031277Y022103D02*
X031137Y022103D01*
X031137Y022009D02*
X031137Y022290D01*
X031277Y022290D01*
X031324Y022243D01*
X031324Y022150D01*
X031277Y022103D01*
X028227Y019896D02*
X028181Y019849D01*
X028181Y019756D01*
X031739Y018556D02*
X031739Y018370D01*
X031786Y018323D01*
X031879Y018323D01*
X031926Y018370D01*
X032034Y018323D02*
X032220Y018323D01*
X032127Y018323D02*
X032127Y018603D01*
X032034Y018510D01*
X031926Y018556D02*
X031879Y018603D01*
X031786Y018603D01*
X031739Y018556D01*
X032328Y018556D02*
X032375Y018603D01*
X032468Y018603D01*
X032515Y018556D01*
X032328Y018370D01*
X032375Y018323D01*
X032468Y018323D01*
X032515Y018370D01*
X032515Y018556D01*
X032623Y018556D02*
X032670Y018603D01*
X032763Y018603D01*
X032810Y018556D01*
X032810Y018510D01*
X032763Y018463D01*
X032810Y018416D01*
X032810Y018370D01*
X032763Y018323D01*
X032670Y018323D01*
X032623Y018370D01*
X032716Y018463D02*
X032763Y018463D01*
X032328Y018370D02*
X032328Y018556D01*
X036679Y016339D02*
X036679Y016153D01*
X036726Y016106D01*
X036819Y016106D01*
X036866Y016153D01*
X036974Y016106D02*
X037161Y016106D01*
X037067Y016106D02*
X037067Y016386D01*
X036974Y016293D01*
X036866Y016339D02*
X036819Y016386D01*
X036726Y016386D01*
X036679Y016339D01*
X037268Y016339D02*
X037268Y016153D01*
X037455Y016339D01*
X037455Y016153D01*
X037409Y016106D01*
X037315Y016106D01*
X037268Y016153D01*
X037268Y016339D02*
X037315Y016386D01*
X037409Y016386D01*
X037455Y016339D01*
X037563Y016293D02*
X037656Y016386D01*
X037656Y016106D01*
X037563Y016106D02*
X037750Y016106D01*
X037770Y016623D02*
X037957Y016623D01*
X037864Y016623D02*
X037864Y016903D01*
X037770Y016810D01*
X037662Y016856D02*
X037616Y016903D01*
X037522Y016903D01*
X037476Y016856D01*
X037476Y016670D01*
X037522Y016623D01*
X037616Y016623D01*
X037662Y016670D01*
X038065Y016670D02*
X038252Y016856D01*
X038252Y016670D01*
X038205Y016623D01*
X038112Y016623D01*
X038065Y016670D01*
X038065Y016856D01*
X038112Y016903D01*
X038205Y016903D01*
X038252Y016856D01*
X038360Y016856D02*
X038360Y016810D01*
X038406Y016763D01*
X038500Y016763D01*
X038546Y016716D01*
X038546Y016670D01*
X038500Y016623D01*
X038406Y016623D01*
X038360Y016670D01*
X038360Y016716D01*
X038406Y016763D01*
X038500Y016763D02*
X038546Y016810D01*
X038546Y016856D01*
X038500Y016903D01*
X038406Y016903D01*
X038360Y016856D01*
X038954Y016073D02*
X038954Y015793D01*
X039141Y015793D01*
X039249Y015793D02*
X039436Y015793D01*
X039342Y015793D02*
X039342Y016073D01*
X039249Y015980D01*
X039543Y016026D02*
X039590Y016073D01*
X039684Y016073D01*
X039730Y016026D01*
X039730Y015980D01*
X039543Y015793D01*
X039730Y015793D01*
X041004Y015488D02*
X041004Y015395D01*
X041051Y015348D01*
X041237Y015348D01*
X041051Y015535D01*
X041237Y015535D01*
X041284Y015488D01*
X041284Y015395D01*
X041237Y015348D01*
X041284Y015240D02*
X041284Y015054D01*
X041284Y015147D02*
X041004Y015147D01*
X041097Y015054D01*
X041284Y014946D02*
X041284Y014759D01*
X041284Y014852D02*
X041004Y014852D01*
X041097Y014759D01*
X041051Y014651D02*
X041004Y014604D01*
X041004Y014511D01*
X041051Y014464D01*
X041237Y014464D01*
X041284Y014511D01*
X041284Y014604D01*
X041237Y014651D01*
X041229Y014140D02*
X041182Y014093D01*
X041182Y013906D01*
X041229Y013859D01*
X041322Y013859D01*
X041369Y013906D01*
X041476Y013906D02*
X041476Y013953D01*
X041523Y014000D01*
X041617Y014000D01*
X041663Y013953D01*
X041663Y013906D01*
X041617Y013859D01*
X041523Y013859D01*
X041476Y013906D01*
X041523Y014000D02*
X041476Y014046D01*
X041476Y014093D01*
X041523Y014140D01*
X041617Y014140D01*
X041663Y014093D01*
X041663Y014046D01*
X041617Y014000D01*
X041369Y014093D02*
X041322Y014140D01*
X041229Y014140D01*
X042404Y014411D02*
X042451Y014364D01*
X042637Y014364D01*
X042684Y014411D01*
X042684Y014504D01*
X042637Y014551D01*
X042684Y014659D02*
X042684Y014846D01*
X042684Y014752D02*
X042404Y014752D01*
X042497Y014659D01*
X042451Y014551D02*
X042404Y014504D01*
X042404Y014411D01*
X042497Y014954D02*
X042404Y015047D01*
X042684Y015047D01*
X042684Y014954D02*
X042684Y015140D01*
X042637Y015248D02*
X042684Y015295D01*
X042684Y015388D01*
X042637Y015435D01*
X042591Y015435D01*
X042544Y015388D01*
X042544Y015342D01*
X042544Y015388D02*
X042497Y015435D01*
X042451Y015435D01*
X042404Y015388D01*
X042404Y015295D01*
X042451Y015248D01*
X041051Y015535D02*
X041004Y015488D01*
X043302Y014303D02*
X043302Y014116D01*
X043349Y014069D01*
X043442Y014069D01*
X043489Y014116D01*
X043597Y014069D02*
X043784Y014069D01*
X043690Y014069D02*
X043690Y014350D01*
X043597Y014256D01*
X043489Y014303D02*
X043442Y014350D01*
X043349Y014350D01*
X043302Y014303D01*
X043892Y014256D02*
X043985Y014350D01*
X043985Y014069D01*
X043892Y014069D02*
X044078Y014069D01*
X044186Y014209D02*
X044373Y014209D01*
X044326Y014069D02*
X044326Y014350D01*
X044186Y014209D01*
X044849Y013917D02*
X047959Y013917D01*
X047959Y012303D01*
X049043Y012303D02*
X049043Y013917D01*
X052153Y013917D01*
X053059Y013012D01*
X053059Y012303D01*
X053059Y011516D02*
X053059Y010807D01*
X052153Y009902D01*
X049043Y009902D01*
X049043Y011516D01*
X047959Y011516D02*
X047959Y009902D01*
X044849Y009902D01*
X043943Y010807D01*
X043943Y011516D01*
X043943Y012303D02*
X043943Y013012D01*
X044849Y013917D01*
X048091Y014511D02*
X048137Y014464D01*
X048324Y014464D01*
X048371Y014511D01*
X048371Y014604D01*
X048324Y014651D01*
X048371Y014759D02*
X048371Y014946D01*
X048371Y014852D02*
X048091Y014852D01*
X048184Y014759D01*
X048137Y014651D02*
X048091Y014604D01*
X048091Y014511D01*
X048184Y015054D02*
X048091Y015147D01*
X048371Y015147D01*
X048371Y015054D02*
X048371Y015240D01*
X048324Y015348D02*
X048371Y015395D01*
X048371Y015488D01*
X048324Y015535D01*
X048137Y015535D01*
X048091Y015488D01*
X048091Y015395D01*
X048137Y015348D01*
X048184Y015348D01*
X048231Y015395D01*
X048231Y015535D01*
X049491Y015388D02*
X049491Y015295D01*
X049537Y015248D01*
X049537Y015140D02*
X049491Y015094D01*
X049491Y015000D01*
X049537Y014954D01*
X049537Y015140D02*
X049584Y015140D01*
X049771Y014954D01*
X049771Y015140D01*
X049771Y015248D02*
X049584Y015435D01*
X049537Y015435D01*
X049491Y015388D01*
X049771Y015435D02*
X049771Y015248D01*
X049771Y014846D02*
X049771Y014659D01*
X049771Y014752D02*
X049491Y014752D01*
X049584Y014659D01*
X049537Y014551D02*
X049491Y014504D01*
X049491Y014411D01*
X049537Y014364D01*
X049724Y014364D01*
X049771Y014411D01*
X049771Y014504D01*
X049724Y014551D01*
X050389Y014303D02*
X050389Y014116D01*
X050436Y014069D01*
X050529Y014069D01*
X050576Y014116D01*
X050684Y014069D02*
X050870Y014069D01*
X050777Y014069D02*
X050777Y014350D01*
X050684Y014256D01*
X050576Y014303D02*
X050529Y014350D01*
X050436Y014350D01*
X050389Y014303D01*
X050978Y014303D02*
X051025Y014350D01*
X051118Y014350D01*
X051165Y014303D01*
X051165Y014256D01*
X050978Y014069D01*
X051165Y014069D01*
X051273Y014116D02*
X051320Y014069D01*
X051413Y014069D01*
X051460Y014116D01*
X051460Y014163D01*
X051413Y014209D01*
X051366Y014209D01*
X051413Y014209D02*
X051460Y014256D01*
X051460Y014303D01*
X051413Y014350D01*
X051320Y014350D01*
X051273Y014303D01*
X053127Y015793D02*
X053314Y015793D01*
X053422Y015793D02*
X053609Y015793D01*
X053515Y015793D02*
X053515Y016073D01*
X053422Y015980D01*
X053717Y015933D02*
X053857Y016073D01*
X053857Y015793D01*
X053904Y015933D02*
X053717Y015933D01*
X053127Y016073D02*
X053127Y015793D01*
X052773Y016623D02*
X052820Y016670D01*
X052820Y016716D01*
X052773Y016763D01*
X052633Y016763D01*
X052633Y016670D01*
X052679Y016623D01*
X052773Y016623D01*
X052633Y016763D02*
X052726Y016856D01*
X052820Y016903D01*
X052525Y016856D02*
X052478Y016903D01*
X052385Y016903D01*
X052338Y016856D01*
X052525Y016856D02*
X052525Y016810D01*
X052338Y016623D01*
X052525Y016623D01*
X052230Y016623D02*
X052043Y016623D01*
X052137Y016623D02*
X052137Y016903D01*
X052043Y016810D01*
X051936Y016856D02*
X051889Y016903D01*
X051796Y016903D01*
X051749Y016856D01*
X051749Y016670D01*
X051796Y016623D01*
X051889Y016623D01*
X051936Y016670D01*
X055177Y015638D02*
X055224Y015685D01*
X055271Y015685D01*
X055317Y015638D01*
X055317Y015545D01*
X055271Y015498D01*
X055224Y015498D01*
X055177Y015545D01*
X055177Y015638D01*
X055317Y015638D02*
X055364Y015685D01*
X055411Y015685D01*
X055457Y015638D01*
X055457Y015545D01*
X055411Y015498D01*
X055364Y015498D01*
X055317Y015545D01*
X055271Y015390D02*
X055224Y015390D01*
X055177Y015344D01*
X055177Y015250D01*
X055224Y015204D01*
X055271Y015390D02*
X055457Y015204D01*
X055457Y015390D01*
X055457Y015096D02*
X055457Y014909D01*
X055457Y015002D02*
X055177Y015002D01*
X055271Y014909D01*
X055224Y014801D02*
X055177Y014754D01*
X055177Y014661D01*
X055224Y014614D01*
X055411Y014614D01*
X055457Y014661D01*
X055457Y014754D01*
X055411Y014801D01*
X056577Y014704D02*
X056577Y014611D01*
X056624Y014564D01*
X056811Y014564D01*
X056857Y014611D01*
X056857Y014704D01*
X056811Y014751D01*
X056857Y014859D02*
X056857Y015046D01*
X056857Y014952D02*
X056577Y014952D01*
X056671Y014859D01*
X056624Y014751D02*
X056577Y014704D01*
X056624Y015154D02*
X056577Y015200D01*
X056577Y015294D01*
X056624Y015340D01*
X056671Y015340D01*
X056717Y015294D01*
X056764Y015340D01*
X056811Y015340D01*
X056857Y015294D01*
X056857Y015200D01*
X056811Y015154D01*
X056717Y015247D02*
X056717Y015294D01*
X056671Y015448D02*
X056577Y015542D01*
X056857Y015542D01*
X056857Y015635D02*
X056857Y015448D01*
X058911Y015465D02*
X058958Y015418D01*
X058911Y015465D02*
X058911Y015558D01*
X058958Y015605D01*
X059004Y015605D01*
X059191Y015418D01*
X059191Y015605D01*
X059145Y015310D02*
X059191Y015263D01*
X059191Y015170D01*
X059145Y015123D01*
X059191Y015015D02*
X059191Y014829D01*
X059191Y014922D02*
X058911Y014922D01*
X059004Y014829D01*
X058958Y014721D02*
X058911Y014674D01*
X058911Y014581D01*
X058958Y014534D01*
X059145Y014534D01*
X059191Y014581D01*
X059191Y014674D01*
X059145Y014721D01*
X058958Y015123D02*
X058911Y015170D01*
X058911Y015263D01*
X058958Y015310D01*
X059004Y015310D01*
X059051Y015263D01*
X059098Y015310D01*
X059145Y015310D01*
X059051Y015263D02*
X059051Y015217D01*
X059054Y016193D02*
X059241Y016193D01*
X059287Y016240D01*
X059287Y016333D01*
X059241Y016380D01*
X059287Y016487D02*
X059287Y016674D01*
X059287Y016581D02*
X059007Y016581D01*
X059101Y016487D01*
X059054Y016380D02*
X059007Y016333D01*
X059007Y016240D01*
X059054Y016193D01*
X059054Y016782D02*
X059007Y016829D01*
X059007Y016922D01*
X059054Y016969D01*
X059101Y016969D01*
X059287Y016782D01*
X059287Y016969D01*
X059287Y017077D02*
X059241Y017077D01*
X059054Y017264D01*
X059007Y017264D01*
X059007Y017077D01*
X052961Y012303D02*
X052939Y012396D01*
X052913Y012487D01*
X052883Y012577D01*
X052848Y012666D01*
X052809Y012753D01*
X052766Y012838D01*
X052718Y012920D01*
X052667Y013000D01*
X052612Y013078D01*
X052553Y013153D01*
X052490Y013225D01*
X052424Y013293D01*
X052355Y013359D01*
X052283Y013421D01*
X052208Y013479D01*
X052130Y013534D01*
X052049Y013584D01*
X051966Y013631D01*
X051881Y013674D01*
X051794Y013712D01*
X051705Y013746D01*
X051614Y013776D01*
X051522Y013801D01*
X051430Y013822D01*
X051336Y013838D01*
X051241Y013850D01*
X051146Y013857D01*
X051051Y013859D01*
X050956Y013857D01*
X050861Y013850D01*
X050766Y013838D01*
X050672Y013822D01*
X050580Y013801D01*
X050488Y013776D01*
X050397Y013746D01*
X050308Y013712D01*
X050221Y013674D01*
X050136Y013631D01*
X050053Y013584D01*
X049972Y013534D01*
X049894Y013479D01*
X049819Y013421D01*
X049747Y013359D01*
X049678Y013293D01*
X049612Y013225D01*
X049549Y013153D01*
X049490Y013078D01*
X049435Y013000D01*
X049384Y012920D01*
X049336Y012838D01*
X049293Y012753D01*
X049254Y012666D01*
X049219Y012577D01*
X049189Y012487D01*
X049163Y012396D01*
X049141Y012303D01*
X049141Y011515D02*
X049163Y011422D01*
X049189Y011331D01*
X049219Y011241D01*
X049254Y011152D01*
X049293Y011065D01*
X049336Y010980D01*
X049384Y010898D01*
X049435Y010818D01*
X049490Y010740D01*
X049549Y010665D01*
X049612Y010593D01*
X049678Y010525D01*
X049747Y010459D01*
X049819Y010397D01*
X049894Y010339D01*
X049972Y010284D01*
X050053Y010234D01*
X050136Y010187D01*
X050221Y010144D01*
X050308Y010106D01*
X050397Y010072D01*
X050488Y010042D01*
X050580Y010017D01*
X050672Y009996D01*
X050766Y009980D01*
X050861Y009968D01*
X050956Y009961D01*
X051051Y009959D01*
X051146Y009961D01*
X051241Y009968D01*
X051336Y009980D01*
X051430Y009996D01*
X051522Y010017D01*
X051614Y010042D01*
X051705Y010072D01*
X051794Y010106D01*
X051881Y010144D01*
X051966Y010187D01*
X052049Y010234D01*
X052130Y010284D01*
X052208Y010339D01*
X052283Y010397D01*
X052355Y010459D01*
X052424Y010525D01*
X052490Y010593D01*
X052553Y010665D01*
X052612Y010740D01*
X052667Y010818D01*
X052718Y010898D01*
X052766Y010980D01*
X052809Y011065D01*
X052848Y011152D01*
X052883Y011241D01*
X052913Y011331D01*
X052939Y011422D01*
X052961Y011515D01*
X050999Y009752D02*
X050952Y009799D01*
X050859Y009799D01*
X050812Y009752D01*
X050704Y009752D02*
X050657Y009799D01*
X050564Y009799D01*
X050517Y009752D01*
X050517Y009565D01*
X050564Y009518D01*
X050657Y009518D01*
X050704Y009565D01*
X050812Y009518D02*
X050999Y009705D01*
X050999Y009752D01*
X050999Y009518D02*
X050812Y009518D01*
X053833Y008909D02*
X053926Y008909D01*
X053880Y008909D02*
X053880Y008628D01*
X053926Y008628D02*
X053833Y008628D01*
X054029Y008675D02*
X054076Y008628D01*
X054170Y008628D01*
X054216Y008675D01*
X054324Y008675D02*
X054371Y008628D01*
X054464Y008628D01*
X054511Y008675D01*
X054511Y008722D01*
X054464Y008768D01*
X054417Y008768D01*
X054464Y008768D02*
X054511Y008815D01*
X054511Y008862D01*
X054464Y008909D01*
X054371Y008909D01*
X054324Y008862D01*
X054216Y008862D02*
X054170Y008909D01*
X054076Y008909D01*
X054029Y008862D01*
X054029Y008675D01*
X055227Y007442D02*
X058031Y007442D01*
X054954Y005257D02*
X054954Y004977D01*
X055047Y004977D02*
X054860Y004977D01*
X054752Y005023D02*
X054752Y005210D01*
X054706Y005257D01*
X054566Y005257D01*
X054566Y004977D01*
X054706Y004977D01*
X054752Y005023D01*
X054860Y005164D02*
X054954Y005257D01*
X055227Y004997D02*
X058031Y004997D01*
X058001Y004820D02*
X058001Y003600D01*
X058001Y002813D02*
X058001Y001592D01*
X055679Y001592D01*
X054773Y002498D01*
X054773Y002813D01*
X054871Y003560D02*
X054891Y003637D01*
X054914Y003712D01*
X054942Y003786D01*
X054973Y003858D01*
X055008Y003929D01*
X055046Y003998D01*
X055088Y004064D01*
X055133Y004129D01*
X055181Y004191D01*
X055233Y004251D01*
X055287Y004308D01*
X055344Y004362D01*
X055404Y004414D01*
X055466Y004462D01*
X055531Y004507D01*
X055598Y004548D01*
X055667Y004586D01*
X055738Y004621D01*
X055810Y004652D01*
X055884Y004680D01*
X055959Y004703D01*
X056035Y004723D01*
X056113Y004739D01*
X056191Y004751D01*
X056269Y004759D01*
X056348Y004763D01*
X056426Y004763D01*
X056505Y004759D01*
X056583Y004751D01*
X056661Y004739D01*
X056739Y004723D01*
X056815Y004703D01*
X056890Y004680D01*
X056964Y004652D01*
X057036Y004621D01*
X057107Y004586D01*
X057176Y004548D01*
X057243Y004507D01*
X057308Y004462D01*
X057370Y004414D01*
X057430Y004362D01*
X057487Y004308D01*
X057541Y004251D01*
X057593Y004191D01*
X057641Y004129D01*
X057686Y004064D01*
X057728Y003998D01*
X057766Y003929D01*
X057801Y003858D01*
X057832Y003786D01*
X057860Y003712D01*
X057883Y003637D01*
X057903Y003560D01*
X057903Y002852D02*
X057883Y002775D01*
X057860Y002700D01*
X057832Y002626D01*
X057801Y002554D01*
X057766Y002483D01*
X057728Y002414D01*
X057686Y002348D01*
X057641Y002283D01*
X057593Y002221D01*
X057541Y002161D01*
X057487Y002104D01*
X057430Y002050D01*
X057370Y001998D01*
X057308Y001950D01*
X057243Y001905D01*
X057176Y001864D01*
X057107Y001826D01*
X057036Y001791D01*
X056964Y001760D01*
X056890Y001732D01*
X056815Y001709D01*
X056739Y001689D01*
X056661Y001673D01*
X056583Y001661D01*
X056505Y001653D01*
X056426Y001649D01*
X056348Y001649D01*
X056269Y001653D01*
X056191Y001661D01*
X056113Y001673D01*
X056035Y001689D01*
X055959Y001709D01*
X055884Y001732D01*
X055810Y001760D01*
X055738Y001791D01*
X055667Y001826D01*
X055598Y001864D01*
X055531Y001905D01*
X055466Y001950D01*
X055404Y001998D01*
X055344Y002050D01*
X055287Y002104D01*
X055233Y002161D01*
X055181Y002221D01*
X055133Y002283D01*
X055088Y002348D01*
X055046Y002414D01*
X055008Y002483D01*
X054973Y002554D01*
X054942Y002626D01*
X054914Y002700D01*
X054891Y002775D01*
X054871Y002852D01*
X054773Y003600D02*
X054773Y003915D01*
X055679Y004820D01*
X058001Y004820D01*
X055242Y001725D02*
X055288Y001678D01*
X055288Y001631D01*
X055242Y001585D01*
X055288Y001538D01*
X055288Y001491D01*
X055242Y001444D01*
X055148Y001444D01*
X055102Y001491D01*
X054994Y001444D02*
X054807Y001444D01*
X054900Y001444D02*
X054900Y001725D01*
X054807Y001631D01*
X054699Y001678D02*
X054652Y001725D01*
X054559Y001725D01*
X054512Y001678D01*
X054512Y001491D01*
X054559Y001444D01*
X054652Y001444D01*
X054699Y001491D01*
X055102Y001678D02*
X055148Y001725D01*
X055242Y001725D01*
X055242Y001585D02*
X055195Y001585D01*
X053612Y001424D02*
X053426Y001424D01*
X053519Y001424D02*
X053519Y001704D01*
X053426Y001611D01*
X053318Y001424D02*
X053131Y001424D01*
X053131Y001704D01*
X044267Y009967D02*
X044267Y010154D01*
X044221Y010201D01*
X044127Y010201D01*
X044080Y010154D01*
X044080Y010107D01*
X044127Y010061D01*
X044267Y010061D01*
X044267Y009967D02*
X044221Y009920D01*
X044127Y009920D01*
X044080Y009967D01*
X043973Y009967D02*
X043926Y009920D01*
X043832Y009920D01*
X043786Y009967D01*
X043786Y010154D01*
X043832Y010201D01*
X043926Y010201D01*
X043973Y010154D01*
X044041Y011515D02*
X044063Y011422D01*
X044089Y011331D01*
X044119Y011241D01*
X044154Y011152D01*
X044193Y011065D01*
X044236Y010980D01*
X044284Y010898D01*
X044335Y010818D01*
X044390Y010740D01*
X044449Y010665D01*
X044512Y010593D01*
X044578Y010525D01*
X044647Y010459D01*
X044719Y010397D01*
X044794Y010339D01*
X044872Y010284D01*
X044953Y010234D01*
X045036Y010187D01*
X045121Y010144D01*
X045208Y010106D01*
X045297Y010072D01*
X045388Y010042D01*
X045480Y010017D01*
X045572Y009996D01*
X045666Y009980D01*
X045761Y009968D01*
X045856Y009961D01*
X045951Y009959D01*
X046046Y009961D01*
X046141Y009968D01*
X046236Y009980D01*
X046330Y009996D01*
X046422Y010017D01*
X046514Y010042D01*
X046605Y010072D01*
X046694Y010106D01*
X046781Y010144D01*
X046866Y010187D01*
X046949Y010234D01*
X047030Y010284D01*
X047108Y010339D01*
X047183Y010397D01*
X047255Y010459D01*
X047324Y010525D01*
X047390Y010593D01*
X047453Y010665D01*
X047512Y010740D01*
X047567Y010818D01*
X047618Y010898D01*
X047666Y010980D01*
X047709Y011065D01*
X047748Y011152D01*
X047783Y011241D01*
X047813Y011331D01*
X047839Y011422D01*
X047861Y011515D01*
X047861Y012303D02*
X047839Y012396D01*
X047813Y012487D01*
X047783Y012577D01*
X047748Y012666D01*
X047709Y012753D01*
X047666Y012838D01*
X047618Y012920D01*
X047567Y013000D01*
X047512Y013078D01*
X047453Y013153D01*
X047390Y013225D01*
X047324Y013293D01*
X047255Y013359D01*
X047183Y013421D01*
X047108Y013479D01*
X047030Y013534D01*
X046949Y013584D01*
X046866Y013631D01*
X046781Y013674D01*
X046694Y013712D01*
X046605Y013746D01*
X046514Y013776D01*
X046422Y013801D01*
X046330Y013822D01*
X046236Y013838D01*
X046141Y013850D01*
X046046Y013857D01*
X045951Y013859D01*
X045856Y013857D01*
X045761Y013850D01*
X045666Y013838D01*
X045572Y013822D01*
X045480Y013801D01*
X045388Y013776D01*
X045297Y013746D01*
X045208Y013712D01*
X045121Y013674D01*
X045036Y013631D01*
X044953Y013584D01*
X044872Y013534D01*
X044794Y013479D01*
X044719Y013421D01*
X044647Y013359D01*
X044578Y013293D01*
X044512Y013225D01*
X044449Y013153D01*
X044390Y013078D01*
X044335Y013000D01*
X044284Y012920D01*
X044236Y012838D01*
X044193Y012753D01*
X044154Y012666D01*
X044119Y012577D01*
X044089Y012487D01*
X044063Y012396D01*
X044041Y012303D01*
X037600Y014103D02*
X037600Y014149D01*
X037553Y014196D01*
X037413Y014196D01*
X037413Y014103D01*
X037460Y014056D01*
X037553Y014056D01*
X037600Y014103D01*
X037506Y014289D02*
X037413Y014196D01*
X037506Y014289D02*
X037600Y014336D01*
X037305Y014289D02*
X037118Y014103D01*
X037165Y014056D01*
X037259Y014056D01*
X037305Y014103D01*
X037305Y014289D01*
X037259Y014336D01*
X037165Y014336D01*
X037118Y014289D01*
X037118Y014103D01*
X037011Y014056D02*
X036824Y014056D01*
X036917Y014056D02*
X036917Y014336D01*
X036824Y014243D01*
X036716Y014289D02*
X036669Y014336D01*
X036576Y014336D01*
X036529Y014289D01*
X036529Y014103D01*
X036576Y014056D01*
X036669Y014056D01*
X036716Y014103D01*
X035513Y014093D02*
X035326Y013906D01*
X035326Y013859D01*
X035219Y013906D02*
X035172Y013859D01*
X035079Y013859D01*
X035032Y013906D01*
X035032Y014093D01*
X035079Y014140D01*
X035172Y014140D01*
X035219Y014093D01*
X035326Y014140D02*
X035513Y014140D01*
X035513Y014093D01*
X035551Y014564D02*
X035364Y014564D01*
X035317Y014611D01*
X035317Y014704D01*
X035364Y014751D01*
X035411Y014859D02*
X035317Y014952D01*
X035598Y014952D01*
X035598Y014859D02*
X035598Y015046D01*
X035551Y015154D02*
X035364Y015340D01*
X035551Y015340D01*
X035598Y015294D01*
X035598Y015200D01*
X035551Y015154D01*
X035364Y015154D01*
X035317Y015200D01*
X035317Y015294D01*
X035364Y015340D01*
X035317Y015448D02*
X035457Y015448D01*
X035411Y015542D01*
X035411Y015588D01*
X035457Y015635D01*
X035551Y015635D01*
X035598Y015588D01*
X035598Y015495D01*
X035551Y015448D01*
X035317Y015448D02*
X035317Y015635D01*
X035551Y014751D02*
X035598Y014704D01*
X035598Y014611D01*
X035551Y014564D01*
X038672Y018323D02*
X038766Y018323D01*
X038812Y018370D01*
X038920Y018323D02*
X039107Y018323D01*
X039014Y018323D02*
X039014Y018603D01*
X038920Y018510D01*
X038812Y018556D02*
X038766Y018603D01*
X038672Y018603D01*
X038626Y018556D01*
X038626Y018370D01*
X038672Y018323D01*
X039215Y018323D02*
X039402Y018323D01*
X039308Y018323D02*
X039308Y018603D01*
X039215Y018510D01*
X039510Y018510D02*
X039603Y018603D01*
X039603Y018323D01*
X039510Y018323D02*
X039696Y018323D01*
X039691Y019178D02*
X039598Y019178D01*
X039551Y019225D01*
X039551Y019411D01*
X039598Y019458D01*
X039691Y019458D01*
X039738Y019411D01*
X039846Y019365D02*
X039939Y019458D01*
X039939Y019178D01*
X039846Y019178D02*
X040033Y019178D01*
X040141Y019225D02*
X040187Y019178D01*
X040281Y019178D01*
X040327Y019225D01*
X040327Y019271D01*
X040281Y019318D01*
X040141Y019318D01*
X040141Y019225D01*
X040141Y019318D02*
X040234Y019411D01*
X040327Y019458D01*
X039738Y019225D02*
X039691Y019178D01*
X039448Y019178D02*
X039355Y019178D01*
X039402Y019178D02*
X039402Y019458D01*
X039448Y019458D02*
X039355Y019458D01*
X040831Y020889D02*
X040831Y021170D01*
X040971Y021170D01*
X041018Y021123D01*
X041018Y021029D01*
X040971Y020983D01*
X040831Y020983D01*
X040924Y020983D02*
X041018Y020889D01*
X041126Y020889D02*
X041312Y021076D01*
X041312Y021123D01*
X041266Y021170D01*
X041172Y021170D01*
X041126Y021123D01*
X041126Y020889D02*
X041312Y020889D01*
X041420Y020936D02*
X041467Y020889D01*
X041560Y020889D01*
X041607Y020936D01*
X041607Y021029D01*
X041560Y021076D01*
X041514Y021076D01*
X041420Y021029D01*
X041420Y021170D01*
X041607Y021170D01*
X042354Y020438D02*
X042354Y020345D01*
X042401Y020298D01*
X042354Y020438D02*
X042401Y020485D01*
X042447Y020485D01*
X042634Y020298D01*
X042634Y020485D01*
X042634Y020190D02*
X042634Y020004D01*
X042634Y020097D02*
X042354Y020097D01*
X042447Y020004D01*
X042401Y019896D02*
X042354Y019849D01*
X042354Y019756D01*
X042401Y019709D01*
X042587Y019709D01*
X042634Y019756D01*
X042634Y019849D01*
X042587Y019896D01*
X044584Y019117D02*
X044584Y019023D01*
X044631Y018977D01*
X044677Y018977D01*
X044724Y019023D01*
X044724Y019164D01*
X044631Y019164D02*
X044584Y019117D01*
X044631Y019164D02*
X044817Y019164D01*
X044864Y019117D01*
X044864Y019023D01*
X044817Y018977D01*
X044817Y018869D02*
X044864Y018822D01*
X044864Y018729D01*
X044817Y018682D01*
X044631Y018869D01*
X044817Y018869D01*
X044631Y018869D02*
X044584Y018822D01*
X044584Y018729D01*
X044631Y018682D01*
X044817Y018682D01*
X044864Y018574D02*
X044864Y018387D01*
X044864Y018481D02*
X044584Y018481D01*
X044677Y018387D01*
X044631Y018280D02*
X044584Y018233D01*
X044584Y018140D01*
X044631Y018093D01*
X044817Y018093D01*
X044864Y018140D01*
X044864Y018233D01*
X044817Y018280D01*
X045712Y018370D02*
X045759Y018323D01*
X045852Y018323D01*
X045899Y018370D01*
X046007Y018323D02*
X046194Y018323D01*
X046100Y018323D02*
X046100Y018603D01*
X046007Y018510D01*
X045899Y018556D02*
X045852Y018603D01*
X045759Y018603D01*
X045712Y018556D01*
X045712Y018370D01*
X046301Y018323D02*
X046488Y018510D01*
X046488Y018556D01*
X046442Y018603D01*
X046348Y018603D01*
X046301Y018556D01*
X046301Y018323D02*
X046488Y018323D01*
X046596Y018370D02*
X046783Y018556D01*
X046783Y018370D01*
X046736Y018323D01*
X046643Y018323D01*
X046596Y018370D01*
X046596Y018556D01*
X046643Y018603D01*
X046736Y018603D01*
X046783Y018556D01*
X046783Y019128D02*
X046969Y019128D01*
X046876Y019128D02*
X046876Y019408D01*
X046783Y019315D01*
X046675Y019361D02*
X046628Y019408D01*
X046535Y019408D01*
X046488Y019361D01*
X046488Y019175D01*
X046535Y019128D01*
X046628Y019128D01*
X046675Y019175D01*
X046385Y019128D02*
X046292Y019128D01*
X046338Y019128D02*
X046338Y019408D01*
X046292Y019408D02*
X046385Y019408D01*
X047077Y019408D02*
X047264Y019408D01*
X047264Y019361D01*
X047077Y019175D01*
X047077Y019128D01*
X045633Y016903D02*
X045633Y016856D01*
X045446Y016670D01*
X045446Y016623D01*
X045338Y016623D02*
X045151Y016623D01*
X045245Y016623D02*
X045245Y016903D01*
X045151Y016810D01*
X045044Y016623D02*
X044857Y016623D01*
X044950Y016623D02*
X044950Y016903D01*
X044857Y016810D01*
X044749Y016856D02*
X044702Y016903D01*
X044609Y016903D01*
X044562Y016856D01*
X044562Y016670D01*
X044609Y016623D01*
X044702Y016623D01*
X044749Y016670D01*
X045446Y016903D02*
X045633Y016903D01*
X046041Y016073D02*
X046041Y015793D01*
X046228Y015793D01*
X046335Y015793D02*
X046522Y015793D01*
X046429Y015793D02*
X046429Y016073D01*
X046335Y015980D01*
X046630Y016026D02*
X046677Y016073D01*
X046770Y016073D01*
X046817Y016026D01*
X046817Y015980D01*
X046770Y015933D01*
X046817Y015886D01*
X046817Y015840D01*
X046770Y015793D01*
X046677Y015793D01*
X046630Y015840D01*
X046723Y015933D02*
X046770Y015933D01*
X032825Y008444D02*
X032825Y008163D01*
X032918Y008163D02*
X032731Y008163D01*
X032624Y008210D02*
X032577Y008163D01*
X032484Y008163D01*
X032437Y008210D01*
X032437Y008397D01*
X032484Y008444D01*
X032577Y008444D01*
X032624Y008397D01*
X032731Y008350D02*
X032825Y008444D01*
X032334Y008444D02*
X032240Y008444D01*
X032287Y008444D02*
X032287Y008163D01*
X032240Y008163D02*
X032334Y008163D01*
X058957Y023776D02*
X059004Y023729D01*
X059191Y023729D01*
X059237Y023776D01*
X059237Y023870D01*
X059191Y023916D01*
X059237Y024024D02*
X059237Y024211D01*
X059237Y024117D02*
X058957Y024117D01*
X059051Y024024D01*
X059004Y023916D02*
X058957Y023870D01*
X058957Y023776D01*
X058957Y024319D02*
X059097Y024319D01*
X059051Y024412D01*
X059051Y024459D01*
X059097Y024506D01*
X059191Y024506D01*
X059237Y024459D01*
X059237Y024365D01*
X059191Y024319D01*
X058957Y024319D02*
X058957Y024506D01*
X059097Y024613D02*
X059097Y024800D01*
X058957Y024754D02*
X059097Y024613D01*
X059237Y024754D02*
X058957Y024754D01*
X056807Y026548D02*
X056807Y026641D01*
X056761Y026688D01*
X056807Y026796D02*
X056807Y026982D01*
X056807Y026889D02*
X056527Y026889D01*
X056621Y026796D01*
X056574Y026688D02*
X056527Y026641D01*
X056527Y026548D01*
X056574Y026501D01*
X056761Y026501D01*
X056807Y026548D01*
X056761Y027090D02*
X056807Y027137D01*
X056807Y027230D01*
X056761Y027277D01*
X056667Y027277D01*
X056621Y027230D01*
X056621Y027184D01*
X056667Y027090D01*
X056527Y027090D01*
X056527Y027277D01*
X056574Y027385D02*
X056527Y027431D01*
X056527Y027525D01*
X056574Y027572D01*
X056621Y027572D01*
X056807Y027385D01*
X056807Y027572D01*
X057604Y028049D02*
X057651Y028003D01*
X057744Y028003D01*
X057791Y028049D01*
X057899Y028003D02*
X058086Y028003D01*
X057992Y028003D02*
X057992Y028283D01*
X057899Y028189D01*
X057791Y028236D02*
X057744Y028283D01*
X057651Y028283D01*
X057604Y028236D01*
X057604Y028049D01*
X057610Y028383D02*
X057610Y028429D01*
X057796Y028616D01*
X057796Y028663D01*
X057610Y028663D01*
X057502Y028663D02*
X057315Y028663D01*
X057315Y028523D01*
X057408Y028569D01*
X057455Y028569D01*
X057502Y028523D01*
X057502Y028429D01*
X057455Y028383D01*
X057362Y028383D01*
X057315Y028429D01*
X057207Y028383D02*
X057020Y028383D01*
X057114Y028383D02*
X057114Y028663D01*
X057020Y028569D01*
X056912Y028616D02*
X056866Y028663D01*
X056772Y028663D01*
X056726Y028616D01*
X056726Y028429D01*
X056772Y028383D01*
X056866Y028383D01*
X056912Y028429D01*
X055730Y028236D02*
X055543Y028049D01*
X055590Y028003D01*
X055684Y028003D01*
X055730Y028049D01*
X055730Y028236D01*
X055684Y028283D01*
X055590Y028283D01*
X055543Y028236D01*
X055543Y028049D01*
X055436Y028049D02*
X055389Y028003D01*
X055296Y028003D01*
X055249Y028049D01*
X055141Y028003D02*
X055048Y028096D01*
X055094Y028096D02*
X054954Y028096D01*
X054954Y028003D02*
X054954Y028283D01*
X055094Y028283D01*
X055141Y028236D01*
X055141Y028143D01*
X055094Y028096D01*
X055249Y028236D02*
X055296Y028283D01*
X055389Y028283D01*
X055436Y028236D01*
X055436Y028189D01*
X055389Y028143D01*
X055436Y028096D01*
X055436Y028049D01*
X055389Y028143D02*
X055342Y028143D01*
X058193Y028143D02*
X058334Y028143D01*
X058380Y028096D01*
X058380Y028049D01*
X058334Y028003D01*
X058240Y028003D01*
X058193Y028049D01*
X058193Y028143D01*
X058287Y028236D01*
X058380Y028283D01*
X058488Y028236D02*
X058535Y028283D01*
X058628Y028283D01*
X058675Y028236D01*
X058488Y028049D01*
X058535Y028003D01*
X058628Y028003D01*
X058675Y028049D01*
X058675Y028236D01*
X058488Y028236D02*
X058488Y028049D01*
D15*
X021203Y001929D03*
D16*
X020878Y001679D03*
X021528Y001679D03*
D17*
X017698Y004159D02*
X017304Y003923D01*
X017304Y004396D01*
X017698Y004159D01*
X054264Y009178D02*
X058276Y009178D01*
X056843Y006613D02*
X056843Y005826D01*
X056302Y006220D01*
X056843Y006613D01*
D18*
X056940Y008882D03*
X056270Y008882D03*
X055600Y008882D03*
X054930Y008882D03*
X057610Y008882D03*
D19*
X056048Y006220D03*
D20*
X011871Y009959D02*
X011871Y013459D01*
D21*
X017771Y004159D03*
D22*
X002514Y006816D02*
X000264Y006816D01*
X000264Y007816D02*
X002514Y007816D01*
X002514Y008816D02*
X000264Y008816D01*
X000264Y009816D02*
X002514Y009816D01*
X002514Y010816D02*
X000264Y010816D01*
X000264Y011816D02*
X002514Y011816D01*
D23*
X002664Y011816D03*
X002664Y010816D03*
X002664Y009816D03*
X002664Y008816D03*
X002664Y007816D03*
X002664Y006816D03*
D24*
X003964Y006816D03*
X003964Y007816D03*
X003964Y008816D03*
X003964Y009816D03*
X003964Y010816D03*
X003964Y011816D03*
D25*
X014309Y001502D03*
D26*
X014201Y001600D02*
X014142Y001659D01*
X014211Y001728D01*
X014270Y001669D01*
X014201Y001600D01*
M02*
