G75*
G70*
%OFA0B0*%
%FSLAX24Y24*%
%IPPOS*%
%LPD*%
%AMOC8*
5,1,8,0,0,1.08239X$1,22.5*
%
%ADD10C,0.1000*%
%ADD11OC8,0.0600*%
%ADD12C,0.1260*%
%ADD13C,0.0709*%
%ADD14C,0.0557*%
%ADD15C,0.0354*%
%ADD16C,0.0236*%
%ADD17C,0.0276*%
%ADD18C,0.0160*%
D10*
X023287Y008962D03*
X023287Y010212D03*
X023287Y011462D03*
X023287Y012712D03*
X024537Y012712D03*
X028287Y012712D03*
X029537Y012712D03*
X030787Y012712D03*
X034537Y012712D03*
X035787Y012712D03*
X037037Y012712D03*
X040787Y012712D03*
X042037Y012712D03*
X042037Y003462D03*
X040787Y003462D03*
X037037Y003462D03*
X034537Y003462D03*
X030787Y003462D03*
X028287Y003462D03*
X024537Y003462D03*
D11*
X021703Y003054D03*
X020703Y005054D03*
X021703Y008054D03*
D12*
X044598Y008725D03*
X046251Y008725D03*
X047905Y008725D03*
X047905Y007072D03*
X046251Y007072D03*
X044598Y007072D03*
D13*
X019485Y002350D03*
X018501Y002350D03*
X017517Y002350D03*
D14*
X004792Y006816D02*
X004235Y006816D01*
X004235Y007816D02*
X004792Y007816D01*
X004792Y008816D02*
X004235Y008816D01*
X004235Y009816D02*
X004792Y009816D01*
X004792Y010816D02*
X004235Y010816D01*
X004235Y011816D02*
X004792Y011816D01*
D15*
X008551Y012759D03*
X012401Y014109D03*
X009011Y014753D03*
X009011Y015493D03*
X010138Y017223D03*
X008891Y018209D03*
X009011Y019753D03*
X009011Y020493D03*
X007691Y021159D03*
X006501Y021023D03*
X005161Y020503D03*
X005071Y021369D03*
X003921Y022989D03*
X009011Y022579D03*
X009011Y021839D03*
X012201Y021209D03*
X012248Y020503D03*
X013588Y021023D03*
X014781Y021159D03*
X016098Y020493D03*
X016098Y019753D03*
X017551Y019759D03*
X019334Y020503D03*
X019301Y021209D03*
X020674Y021023D03*
X021871Y021159D03*
X023184Y020493D03*
X023184Y019753D03*
X024851Y019759D03*
X026421Y020503D03*
X026301Y021209D03*
X027761Y021023D03*
X028951Y021159D03*
X030271Y020493D03*
X030271Y019753D03*
X031901Y019759D03*
X033508Y020503D03*
X033401Y021209D03*
X034848Y021023D03*
X036041Y021159D03*
X037358Y020493D03*
X037358Y019753D03*
X040151Y019659D03*
X040594Y020503D03*
X041934Y021023D03*
X043121Y021169D03*
X044444Y020493D03*
X044444Y019753D03*
X044324Y018209D03*
X045571Y017223D03*
X044444Y015493D03*
X044444Y014753D03*
X045701Y014109D03*
X044271Y012549D03*
X043181Y011909D03*
X044271Y011259D03*
X045361Y011909D03*
X046501Y011919D03*
X047631Y012639D03*
X049381Y012629D03*
X050481Y011929D03*
X049381Y011189D03*
X047631Y011189D03*
X049451Y009209D03*
X051451Y009209D03*
X053801Y009909D03*
X054901Y008859D03*
X056251Y008859D03*
X057601Y008859D03*
X058191Y008039D03*
X058191Y007299D03*
X057601Y007299D03*
X056251Y007289D03*
X056201Y006209D03*
X057171Y006229D03*
X058081Y005129D03*
X058201Y003909D03*
X057801Y003909D03*
X057401Y003909D03*
X055251Y003909D03*
X054851Y003909D03*
X054451Y003909D03*
X053451Y004209D03*
X052451Y004209D03*
X051451Y004209D03*
X050451Y004209D03*
X049451Y004209D03*
X049451Y003309D03*
X050451Y003309D03*
X051451Y003309D03*
X052451Y003309D03*
X054451Y002459D03*
X054851Y002459D03*
X055251Y002459D03*
X053781Y002219D03*
X057401Y002459D03*
X057801Y002459D03*
X058201Y002459D03*
X053451Y005109D03*
X052451Y005109D03*
X051451Y005109D03*
X050451Y005109D03*
X049451Y005109D03*
X049451Y006109D03*
X053451Y007209D03*
X058701Y009909D03*
X058701Y011609D03*
X058701Y013259D03*
X058617Y014753D03*
X058617Y015493D03*
X059228Y017599D03*
X058617Y019753D03*
X058617Y020493D03*
X057261Y021169D03*
X056701Y020509D03*
X056107Y021023D03*
X054767Y020503D03*
X054701Y021349D03*
X054101Y019609D03*
X051531Y019753D03*
X051531Y020493D03*
X050221Y021159D03*
X049021Y021023D03*
X047681Y020503D03*
X047611Y021349D03*
X046951Y019659D03*
X051411Y018209D03*
X052657Y017223D03*
X051531Y015493D03*
X051531Y014753D03*
X053801Y013259D03*
X053801Y011609D03*
X041451Y009209D03*
X039451Y009209D03*
X037451Y009209D03*
X033451Y009209D03*
X031451Y009209D03*
X029451Y009209D03*
X027451Y009209D03*
X025451Y009209D03*
X021851Y011759D03*
X019065Y013313D03*
X016451Y013759D03*
X016098Y014753D03*
X016098Y015493D03*
X017224Y017223D03*
X015981Y018209D03*
X010651Y019759D03*
X016098Y021839D03*
X016098Y022579D03*
X017224Y024309D03*
X015951Y025259D03*
X017701Y026709D03*
X016098Y026839D03*
X016098Y027579D03*
X014751Y028159D03*
X013588Y028109D03*
X012248Y027589D03*
X010701Y028109D03*
X009011Y027579D03*
X009011Y026839D03*
X010701Y026709D03*
X008851Y025259D03*
X010138Y024309D03*
X005161Y027589D03*
X006501Y028109D03*
X007701Y028159D03*
X003551Y025609D03*
X017701Y028109D03*
X019334Y027589D03*
X020674Y028109D03*
X021851Y028159D03*
X023184Y027579D03*
X023184Y026839D03*
X024801Y026709D03*
X026421Y027589D03*
X024801Y028109D03*
X027761Y028109D03*
X028951Y028159D03*
X030271Y027579D03*
X030271Y026839D03*
X031901Y026709D03*
X033508Y027589D03*
X034848Y028109D03*
X036051Y028159D03*
X037358Y027579D03*
X037358Y026839D03*
X039301Y026709D03*
X040594Y027589D03*
X039301Y028109D03*
X041934Y028109D03*
X043151Y028159D03*
X044444Y027579D03*
X044444Y026839D03*
X046401Y026709D03*
X047681Y027589D03*
X046401Y028109D03*
X049021Y028109D03*
X050201Y028159D03*
X051531Y027579D03*
X051531Y026839D03*
X053451Y026709D03*
X054767Y027589D03*
X056107Y028109D03*
X057301Y028159D03*
X058617Y027579D03*
X058617Y026839D03*
X053451Y028109D03*
X051401Y025259D03*
X052657Y024309D03*
X051531Y022579D03*
X051531Y021839D03*
X045571Y024309D03*
X044301Y025259D03*
X044444Y022579D03*
X044444Y021839D03*
X040521Y021339D03*
X037351Y021839D03*
X037358Y022579D03*
X038484Y024309D03*
X037251Y025259D03*
X031398Y024309D03*
X030151Y025259D03*
X030271Y022579D03*
X030271Y021839D03*
X024311Y024309D03*
X023051Y025259D03*
X023184Y022579D03*
X023184Y021839D03*
X023061Y018209D03*
X024311Y017223D03*
X023184Y015493D03*
X023184Y014753D03*
X030271Y014753D03*
X030271Y015493D03*
X033151Y014009D03*
X036051Y014109D03*
X037358Y014753D03*
X037358Y015493D03*
X039351Y014009D03*
X038484Y017223D03*
X037501Y018309D03*
X031398Y017223D03*
X030151Y018209D03*
X016251Y010159D03*
X019955Y009673D03*
X013451Y006859D03*
X016801Y005009D03*
X013901Y002559D03*
X010801Y002659D03*
X007101Y002459D03*
X007781Y008229D03*
X007001Y009409D03*
X008601Y009409D03*
X012101Y010109D03*
X004251Y014059D03*
X003561Y018539D03*
X023451Y006209D03*
X025451Y006209D03*
X027451Y006209D03*
X029451Y006209D03*
X031451Y006209D03*
X033451Y006209D03*
X037451Y006209D03*
X039451Y006209D03*
X041451Y006209D03*
X042451Y002209D03*
X044451Y002209D03*
X046451Y002209D03*
X048451Y002209D03*
X039351Y002199D03*
X033101Y002199D03*
X026821Y002199D03*
X058617Y021839D03*
X058617Y022579D03*
X031901Y028109D03*
D16*
X033548Y026009D03*
X033148Y025809D03*
X033131Y024134D03*
X034461Y022559D03*
X034756Y022657D03*
X032551Y020109D03*
X033548Y018923D03*
X033148Y018723D03*
X036401Y018919D03*
X036751Y018719D03*
X040234Y018723D03*
X040634Y018923D03*
X043474Y018923D03*
X043874Y018723D03*
X047321Y018723D03*
X047721Y018923D03*
X050561Y018923D03*
X050961Y018723D03*
X054407Y018723D03*
X054807Y018923D03*
X054391Y017047D03*
X055721Y015472D03*
X056016Y015571D03*
X048929Y015571D03*
X048634Y015472D03*
X047305Y017047D03*
X041843Y015571D03*
X041548Y015472D03*
X040218Y017047D03*
X034756Y015571D03*
X034461Y015472D03*
X032551Y015109D03*
X033131Y017047D03*
X029701Y018723D03*
X029301Y018923D03*
X026461Y018923D03*
X026061Y018723D03*
X026045Y017047D03*
X027374Y015472D03*
X027670Y015571D03*
X022601Y018723D03*
X022201Y018923D03*
X019374Y018923D03*
X018974Y018723D03*
X018601Y019859D03*
X015501Y018723D03*
X015101Y018923D03*
X012288Y018923D03*
X011888Y018723D03*
X011872Y017047D03*
X013201Y015472D03*
X013496Y015571D03*
X011301Y013709D03*
X009601Y014959D03*
X006410Y015571D03*
X006114Y015472D03*
X006101Y015059D03*
X004551Y013359D03*
X004785Y017047D03*
X003051Y017223D03*
X004801Y018723D03*
X005201Y018923D03*
X008001Y018923D03*
X008401Y018723D03*
X006410Y022657D03*
X006114Y022559D03*
X004785Y024134D03*
X003111Y024309D03*
X004801Y025809D03*
X005201Y026009D03*
X008001Y026009D03*
X008401Y025809D03*
X011888Y025809D03*
X012288Y026009D03*
X015101Y026009D03*
X015501Y025809D03*
X018974Y025809D03*
X019374Y026009D03*
X022201Y026009D03*
X022601Y025809D03*
X026061Y025809D03*
X026461Y026009D03*
X029301Y026009D03*
X029701Y025809D03*
X026045Y024134D03*
X027374Y022559D03*
X027670Y022657D03*
X020583Y022657D03*
X020288Y022559D03*
X018601Y022509D03*
X018958Y024134D03*
X013496Y022657D03*
X013201Y022559D03*
X011872Y024134D03*
X018958Y017047D03*
X020288Y015472D03*
X020583Y015571D03*
X020601Y013859D03*
X020101Y013859D03*
X021101Y013859D03*
X018501Y013759D03*
X012901Y012209D03*
X012901Y011709D03*
X012901Y011209D03*
X013601Y009759D03*
X010701Y007959D03*
X012301Y007309D03*
X014501Y007309D03*
X014501Y007809D03*
X014501Y006809D03*
X014501Y006309D03*
X014501Y005809D03*
X012301Y003809D03*
X015901Y002559D03*
X016251Y001859D03*
X019001Y005359D03*
X023851Y001509D03*
X035781Y006209D03*
X041548Y022559D03*
X041843Y022657D03*
X040218Y024134D03*
X040234Y025809D03*
X040634Y026009D03*
X043461Y026009D03*
X043861Y025809D03*
X047321Y025809D03*
X047721Y026009D03*
X050548Y026009D03*
X050948Y025809D03*
X054407Y025809D03*
X054807Y026009D03*
X054391Y024134D03*
X055721Y022559D03*
X056016Y022657D03*
X048929Y022657D03*
X048634Y022559D03*
X047305Y024134D03*
X036801Y025809D03*
X036401Y026009D03*
D17*
X035642Y025315D03*
X034953Y025315D03*
X034264Y025315D03*
X034609Y024970D03*
X034953Y024626D03*
X034609Y024281D03*
X034953Y023937D03*
X035298Y024281D03*
X035642Y023937D03*
X035642Y024626D03*
X035298Y024970D03*
X034264Y024626D03*
X034264Y023937D03*
X028555Y023937D03*
X028211Y024281D03*
X027866Y023937D03*
X027522Y024281D03*
X027177Y023937D03*
X027177Y024626D03*
X027522Y024970D03*
X027866Y024626D03*
X028211Y024970D03*
X028555Y024626D03*
X028555Y025315D03*
X027866Y025315D03*
X027177Y025315D03*
X021469Y025315D03*
X020780Y025315D03*
X020091Y025315D03*
X020435Y024970D03*
X020091Y024626D03*
X020435Y024281D03*
X020091Y023937D03*
X020780Y023937D03*
X021124Y024281D03*
X021469Y023937D03*
X021469Y024626D03*
X021124Y024970D03*
X020780Y024626D03*
X014382Y024626D03*
X014038Y024281D03*
X014382Y023937D03*
X013693Y023937D03*
X013349Y024281D03*
X013004Y023937D03*
X013004Y024626D03*
X013349Y024970D03*
X013693Y024626D03*
X014038Y024970D03*
X014382Y025315D03*
X013693Y025315D03*
X013004Y025315D03*
X007296Y025315D03*
X006951Y024970D03*
X006607Y024626D03*
X006951Y024281D03*
X006607Y023937D03*
X006262Y024281D03*
X005918Y023937D03*
X005918Y024626D03*
X006262Y024970D03*
X005918Y025315D03*
X006607Y025315D03*
X007296Y024626D03*
X007296Y023937D03*
X007296Y018228D03*
X006951Y017884D03*
X006607Y018228D03*
X006262Y017884D03*
X005918Y018228D03*
X005918Y017539D03*
X006262Y017195D03*
X006607Y017539D03*
X006951Y017195D03*
X007296Y017539D03*
X007296Y016850D03*
X006607Y016850D03*
X005918Y016850D03*
X013004Y016850D03*
X013693Y016850D03*
X014382Y016850D03*
X014038Y017195D03*
X014382Y017539D03*
X014038Y017884D03*
X014382Y018228D03*
X013693Y018228D03*
X013349Y017884D03*
X013693Y017539D03*
X013349Y017195D03*
X013004Y017539D03*
X013004Y018228D03*
X020091Y018228D03*
X020435Y017884D03*
X020091Y017539D03*
X020435Y017195D03*
X020780Y017539D03*
X021124Y017195D03*
X021469Y017539D03*
X021124Y017884D03*
X020780Y018228D03*
X021469Y018228D03*
X021469Y016850D03*
X020780Y016850D03*
X020091Y016850D03*
X027177Y016850D03*
X027866Y016850D03*
X028555Y016850D03*
X028211Y017195D03*
X028555Y017539D03*
X028211Y017884D03*
X028555Y018228D03*
X027866Y018228D03*
X027522Y017884D03*
X027177Y018228D03*
X027177Y017539D03*
X027522Y017195D03*
X027866Y017539D03*
X034264Y017539D03*
X034609Y017195D03*
X034953Y017539D03*
X035298Y017195D03*
X035642Y017539D03*
X035298Y017884D03*
X035642Y018228D03*
X034953Y018228D03*
X034609Y017884D03*
X034264Y018228D03*
X034264Y016850D03*
X034953Y016850D03*
X035642Y016850D03*
X041351Y016850D03*
X042040Y016850D03*
X042384Y017195D03*
X042040Y017539D03*
X041695Y017195D03*
X041351Y017539D03*
X041695Y017884D03*
X041351Y018228D03*
X042040Y018228D03*
X042384Y017884D03*
X042729Y018228D03*
X042729Y017539D03*
X042729Y016850D03*
X048437Y016850D03*
X049126Y016850D03*
X049815Y016850D03*
X049471Y017195D03*
X049815Y017539D03*
X049471Y017884D03*
X049815Y018228D03*
X049126Y018228D03*
X048782Y017884D03*
X049126Y017539D03*
X048782Y017195D03*
X048437Y017539D03*
X048437Y018228D03*
X055524Y018228D03*
X055868Y017884D03*
X055524Y017539D03*
X055868Y017195D03*
X056213Y017539D03*
X056557Y017195D03*
X056902Y017539D03*
X056557Y017884D03*
X056213Y018228D03*
X056902Y018228D03*
X056902Y016850D03*
X056213Y016850D03*
X055524Y016850D03*
X055524Y023937D03*
X055868Y024281D03*
X056213Y023937D03*
X056557Y024281D03*
X056902Y023937D03*
X056902Y024626D03*
X056557Y024970D03*
X056213Y024626D03*
X055868Y024970D03*
X055524Y024626D03*
X055524Y025315D03*
X056213Y025315D03*
X056902Y025315D03*
X049815Y025315D03*
X049126Y025315D03*
X048437Y025315D03*
X048782Y024970D03*
X049126Y024626D03*
X048782Y024281D03*
X049126Y023937D03*
X049471Y024281D03*
X049815Y023937D03*
X049815Y024626D03*
X049471Y024970D03*
X048437Y024626D03*
X048437Y023937D03*
X042729Y023937D03*
X042384Y024281D03*
X042040Y023937D03*
X041695Y024281D03*
X041351Y023937D03*
X041351Y024626D03*
X041695Y024970D03*
X042040Y024626D03*
X042384Y024970D03*
X042729Y024626D03*
X042729Y025315D03*
X042040Y025315D03*
X041351Y025315D03*
D18*
X002941Y028529D02*
X002941Y001449D01*
X023493Y001449D01*
X023493Y001581D01*
X023548Y001712D01*
X023648Y001813D01*
X023780Y001868D01*
X023922Y001868D01*
X024054Y001813D01*
X024155Y001712D01*
X024209Y001581D01*
X024209Y001449D01*
X059548Y001449D01*
X059548Y017330D01*
X059464Y017246D01*
X059311Y017182D01*
X059145Y017182D01*
X058991Y017246D01*
X058874Y017363D01*
X058810Y017516D01*
X058810Y017682D01*
X058874Y017836D01*
X058991Y017953D01*
X059145Y018017D01*
X059311Y018017D01*
X059464Y017953D01*
X059548Y017869D01*
X059548Y028529D01*
X057500Y028529D01*
X057537Y028513D01*
X057655Y028396D01*
X057718Y028242D01*
X057718Y028076D01*
X057655Y027923D01*
X057537Y027806D01*
X057384Y027742D01*
X057218Y027742D01*
X057065Y027806D01*
X056947Y027923D01*
X056884Y028076D01*
X056884Y028242D01*
X056947Y028396D01*
X057065Y028513D01*
X057102Y028529D01*
X050400Y028529D01*
X050437Y028513D01*
X050555Y028396D01*
X050618Y028242D01*
X050618Y028076D01*
X050555Y027923D01*
X050437Y027806D01*
X050284Y027742D01*
X050118Y027742D01*
X049965Y027806D01*
X049847Y027923D01*
X049784Y028076D01*
X049784Y028242D01*
X049847Y028396D01*
X049965Y028513D01*
X050002Y028529D01*
X043350Y028529D01*
X043387Y028513D01*
X043505Y028396D01*
X043568Y028242D01*
X043568Y028076D01*
X043505Y027923D01*
X043387Y027806D01*
X043234Y027742D01*
X043068Y027742D01*
X042915Y027806D01*
X042797Y027923D01*
X042734Y028076D01*
X042734Y028242D01*
X042797Y028396D01*
X042915Y028513D01*
X042952Y028529D01*
X036250Y028529D01*
X036287Y028513D01*
X036405Y028396D01*
X036468Y028242D01*
X036468Y028076D01*
X036405Y027923D01*
X036287Y027806D01*
X036134Y027742D01*
X035968Y027742D01*
X035815Y027806D01*
X035697Y027923D01*
X035634Y028076D01*
X035634Y028242D01*
X035697Y028396D01*
X035815Y028513D01*
X035852Y028529D01*
X029150Y028529D01*
X029187Y028513D01*
X029305Y028396D01*
X029368Y028242D01*
X029368Y028076D01*
X029305Y027923D01*
X029187Y027806D01*
X029034Y027742D01*
X028868Y027742D01*
X028715Y027806D01*
X028597Y027923D01*
X028534Y028076D01*
X028534Y028242D01*
X028597Y028396D01*
X028715Y028513D01*
X028752Y028529D01*
X022050Y028529D01*
X022087Y028513D01*
X022205Y028396D01*
X022268Y028242D01*
X022268Y028076D01*
X022205Y027923D01*
X022087Y027806D01*
X021934Y027742D01*
X021768Y027742D01*
X021615Y027806D01*
X021497Y027923D01*
X021434Y028076D01*
X021434Y028242D01*
X021497Y028396D01*
X021615Y028513D01*
X021652Y028529D01*
X014950Y028529D01*
X014987Y028513D01*
X015105Y028396D01*
X015168Y028242D01*
X015168Y028076D01*
X015105Y027923D01*
X014987Y027806D01*
X014834Y027742D01*
X014668Y027742D01*
X014515Y027806D01*
X014397Y027923D01*
X014334Y028076D01*
X014334Y028242D01*
X014397Y028396D01*
X014515Y028513D01*
X014552Y028529D01*
X007900Y028529D01*
X007937Y028513D01*
X008055Y028396D01*
X008118Y028242D01*
X008118Y028076D01*
X008055Y027923D01*
X007937Y027806D01*
X007784Y027742D01*
X007618Y027742D01*
X007465Y027806D01*
X007347Y027923D01*
X007284Y028076D01*
X007284Y028242D01*
X007347Y028396D01*
X007465Y028513D01*
X007502Y028529D01*
X002941Y028529D01*
X002941Y028479D02*
X007431Y028479D01*
X007316Y028320D02*
X002941Y028320D01*
X002941Y028162D02*
X007284Y028162D01*
X007314Y028003D02*
X005252Y028003D01*
X005244Y028007D02*
X005078Y028007D01*
X004925Y027943D01*
X004807Y027826D01*
X004744Y027672D01*
X004744Y027506D01*
X004807Y027353D01*
X004925Y027236D01*
X005078Y027172D01*
X005244Y027172D01*
X005397Y027236D01*
X005515Y027353D01*
X005578Y027506D01*
X005578Y027672D01*
X005515Y027826D01*
X005397Y027943D01*
X005244Y028007D01*
X005070Y028003D02*
X002941Y028003D01*
X002941Y027845D02*
X004826Y027845D01*
X004750Y027686D02*
X002941Y027686D01*
X002941Y027528D02*
X004744Y027528D01*
X004801Y027369D02*
X002941Y027369D01*
X002941Y027211D02*
X004986Y027211D01*
X005336Y027211D02*
X008817Y027211D01*
X008775Y027193D02*
X008657Y027076D01*
X008594Y026922D01*
X008594Y026756D01*
X008657Y026603D01*
X008775Y026486D01*
X008928Y026422D01*
X009094Y026422D01*
X009247Y026486D01*
X009365Y026603D01*
X009428Y026756D01*
X009428Y026922D01*
X009365Y027076D01*
X009247Y027193D01*
X009094Y027257D01*
X008928Y027257D01*
X008775Y027193D01*
X008648Y027052D02*
X002941Y027052D01*
X002941Y026893D02*
X008594Y026893D01*
X008603Y026735D02*
X002941Y026735D01*
X002941Y026576D02*
X008684Y026576D01*
X008472Y026168D02*
X008330Y026168D01*
X008324Y026165D01*
X008305Y026212D01*
X008204Y026313D01*
X008072Y026368D01*
X007930Y026368D01*
X007798Y026313D01*
X007698Y026212D01*
X007643Y026081D01*
X007643Y025938D01*
X007698Y025807D01*
X007798Y025706D01*
X007930Y025651D01*
X008072Y025651D01*
X008078Y025654D01*
X008098Y025607D01*
X008198Y025506D01*
X008330Y025451D01*
X008472Y025451D01*
X008480Y025455D01*
X008434Y025342D01*
X008434Y025176D01*
X008497Y025023D01*
X008615Y024906D01*
X008768Y024842D01*
X008934Y024842D01*
X009087Y024906D01*
X009205Y025023D01*
X009268Y025176D01*
X009268Y025342D01*
X009205Y025496D01*
X009087Y025613D01*
X008934Y025677D01*
X008768Y025677D01*
X008726Y025659D01*
X008759Y025738D01*
X008759Y025881D01*
X008705Y026012D01*
X008604Y026113D01*
X008472Y026168D01*
X008616Y026101D02*
X011673Y026101D01*
X011685Y026113D02*
X011584Y026012D01*
X011530Y025881D01*
X011530Y025738D01*
X011584Y025607D01*
X011685Y025506D01*
X011816Y025451D01*
X011959Y025451D01*
X012091Y025506D01*
X012191Y025607D01*
X012211Y025654D01*
X012216Y025651D01*
X012359Y025651D01*
X012491Y025706D01*
X012591Y025807D01*
X012646Y025938D01*
X012646Y026081D01*
X012591Y026212D01*
X012491Y026313D01*
X012359Y026368D01*
X012216Y026368D01*
X012085Y026313D01*
X011984Y026212D01*
X011965Y026165D01*
X011959Y026168D01*
X011816Y026168D01*
X011685Y026113D01*
X011555Y025942D02*
X008734Y025942D01*
X008759Y025784D02*
X011530Y025784D01*
X011576Y025625D02*
X009058Y025625D01*
X009217Y025467D02*
X011780Y025467D01*
X011996Y025467D02*
X015393Y025467D01*
X015430Y025451D02*
X015572Y025451D01*
X015580Y025455D01*
X015534Y025342D01*
X015534Y025176D01*
X015597Y025023D01*
X015715Y024906D01*
X015868Y024842D01*
X016034Y024842D01*
X016187Y024906D01*
X016305Y025023D01*
X016368Y025176D01*
X016368Y025342D01*
X016305Y025496D01*
X016187Y025613D01*
X016034Y025677D01*
X015868Y025677D01*
X015826Y025659D01*
X015859Y025738D01*
X015859Y025881D01*
X015805Y026012D01*
X015704Y026113D01*
X015572Y026168D01*
X015430Y026168D01*
X015424Y026165D01*
X015405Y026212D01*
X015304Y026313D01*
X015172Y026368D01*
X015030Y026368D01*
X014898Y026313D01*
X014798Y026212D01*
X014743Y026081D01*
X014743Y025938D01*
X014798Y025807D01*
X014898Y025706D01*
X015030Y025651D01*
X015172Y025651D01*
X015178Y025654D01*
X015198Y025607D01*
X015298Y025506D01*
X015430Y025451D01*
X015534Y025308D02*
X009268Y025308D01*
X009257Y025149D02*
X015545Y025149D01*
X015630Y024991D02*
X009173Y024991D01*
X008530Y024991D02*
X002941Y024991D01*
X002941Y025149D02*
X008445Y025149D01*
X008434Y025308D02*
X003840Y025308D01*
X003787Y025256D02*
X003905Y025373D01*
X003968Y025526D01*
X003968Y025692D01*
X003905Y025846D01*
X003787Y025963D01*
X003634Y026027D01*
X003468Y026027D01*
X003315Y025963D01*
X003197Y025846D01*
X003134Y025692D01*
X003134Y025526D01*
X003197Y025373D01*
X003315Y025256D01*
X003468Y025192D01*
X003634Y025192D01*
X003787Y025256D01*
X003943Y025467D02*
X004693Y025467D01*
X004730Y025451D02*
X004872Y025451D01*
X005004Y025506D01*
X005105Y025607D01*
X005124Y025654D01*
X005130Y025651D01*
X005272Y025651D01*
X005404Y025706D01*
X005505Y025807D01*
X005559Y025938D01*
X005559Y026081D01*
X005505Y026212D01*
X005404Y026313D01*
X005272Y026368D01*
X005130Y026368D01*
X004998Y026313D01*
X004898Y026212D01*
X004878Y026165D01*
X004872Y026168D01*
X004730Y026168D01*
X004598Y026113D01*
X004498Y026012D01*
X004443Y025881D01*
X004443Y025738D01*
X004498Y025607D01*
X004598Y025506D01*
X004730Y025451D01*
X004909Y025467D02*
X008293Y025467D01*
X008090Y025625D02*
X005112Y025625D01*
X005482Y025784D02*
X007720Y025784D01*
X007643Y025942D02*
X005559Y025942D01*
X005551Y026101D02*
X007651Y026101D01*
X007745Y026259D02*
X005458Y026259D01*
X004945Y026259D02*
X002941Y026259D01*
X002941Y026101D02*
X004586Y026101D01*
X004469Y025942D02*
X003808Y025942D01*
X003930Y025784D02*
X004443Y025784D01*
X004490Y025625D02*
X003968Y025625D01*
X003294Y025942D02*
X002941Y025942D01*
X002941Y025784D02*
X003172Y025784D01*
X003134Y025625D02*
X002941Y025625D01*
X002941Y025467D02*
X003159Y025467D01*
X003263Y025308D02*
X002941Y025308D01*
X002941Y024832D02*
X059548Y024832D01*
X059548Y024674D02*
X002941Y024674D01*
X002941Y024515D02*
X059548Y024515D01*
X059548Y024357D02*
X054675Y024357D01*
X054695Y024337D02*
X054594Y024437D01*
X054462Y024492D01*
X054320Y024492D01*
X054188Y024437D01*
X054088Y024337D01*
X054033Y024205D01*
X054033Y024063D01*
X054088Y023931D01*
X054188Y023830D01*
X054320Y023776D01*
X054462Y023776D01*
X054594Y023830D01*
X054695Y023931D01*
X054749Y024063D01*
X054749Y024205D01*
X054695Y024337D01*
X054749Y024198D02*
X059548Y024198D01*
X059548Y024040D02*
X054740Y024040D01*
X054645Y023881D02*
X059548Y023881D01*
X059548Y023723D02*
X002941Y023723D01*
X002941Y023881D02*
X004531Y023881D01*
X004481Y023931D02*
X004582Y023830D01*
X004714Y023776D01*
X004856Y023776D01*
X004988Y023830D01*
X005089Y023931D01*
X005143Y024063D01*
X005143Y024205D01*
X005089Y024337D01*
X004988Y024437D01*
X004856Y024492D01*
X004714Y024492D01*
X004582Y024437D01*
X004481Y024337D01*
X004427Y024205D01*
X004427Y024063D01*
X004481Y023931D01*
X004436Y024040D02*
X002941Y024040D01*
X002941Y024198D02*
X004427Y024198D01*
X004501Y024357D02*
X002941Y024357D01*
X002941Y023564D02*
X059548Y023564D01*
X059548Y023406D02*
X004007Y023406D01*
X004004Y023407D02*
X003838Y023407D01*
X003685Y023343D01*
X003567Y023226D01*
X003504Y023072D01*
X003504Y022906D01*
X003567Y022753D01*
X003685Y022636D01*
X003838Y022572D01*
X004004Y022572D01*
X004157Y022636D01*
X004275Y022753D01*
X004338Y022906D01*
X004338Y023072D01*
X004275Y023226D01*
X004157Y023343D01*
X004004Y023407D01*
X003836Y023406D02*
X002941Y023406D01*
X002941Y023247D02*
X003589Y023247D01*
X003511Y023088D02*
X002941Y023088D01*
X002941Y022930D02*
X003504Y022930D01*
X003560Y022771D02*
X002941Y022771D01*
X002941Y022613D02*
X003740Y022613D01*
X004102Y022613D02*
X005756Y022613D01*
X005756Y022630D02*
X005756Y022488D01*
X005811Y022356D01*
X005912Y022255D01*
X006043Y022201D01*
X006186Y022201D01*
X006317Y022255D01*
X006361Y022299D01*
X006481Y022299D01*
X006613Y022354D01*
X006713Y022455D01*
X006768Y022586D01*
X006768Y022729D01*
X006713Y022860D01*
X006613Y022961D01*
X006481Y023016D01*
X006339Y023016D01*
X006207Y022961D01*
X006163Y022917D01*
X006043Y022917D01*
X005912Y022863D01*
X005811Y022762D01*
X005756Y022630D01*
X005820Y022771D02*
X004282Y022771D01*
X004338Y022930D02*
X006176Y022930D01*
X006644Y022930D02*
X008772Y022930D01*
X008775Y022933D02*
X008657Y022816D01*
X008594Y022662D01*
X008594Y022496D01*
X008657Y022343D01*
X008775Y022226D01*
X008928Y022162D01*
X009094Y022162D01*
X009247Y022226D01*
X009365Y022343D01*
X009428Y022496D01*
X009428Y022662D01*
X009365Y022816D01*
X009247Y022933D01*
X009094Y022997D01*
X008928Y022997D01*
X008775Y022933D01*
X008639Y022771D02*
X006750Y022771D01*
X006768Y022613D02*
X008594Y022613D01*
X008611Y022454D02*
X006713Y022454D01*
X006358Y022296D02*
X008705Y022296D01*
X009317Y022296D02*
X010156Y022296D01*
X010034Y022175D02*
X009902Y021855D01*
X009902Y021509D01*
X010034Y021189D01*
X010279Y020944D01*
X010599Y020812D01*
X010945Y020812D01*
X011265Y020944D01*
X011509Y021189D01*
X011642Y021509D01*
X011642Y021855D01*
X011509Y022175D01*
X011265Y022419D01*
X010945Y022552D01*
X010599Y022552D01*
X010279Y022419D01*
X010034Y022175D01*
X010019Y022137D02*
X002941Y022137D01*
X002941Y021979D02*
X009953Y021979D01*
X009902Y021820D02*
X002941Y021820D01*
X002941Y021662D02*
X004773Y021662D01*
X004717Y021606D02*
X004654Y021452D01*
X004654Y021286D01*
X004717Y021133D01*
X004835Y021016D01*
X004988Y020952D01*
X005154Y020952D01*
X005307Y021016D01*
X005425Y021133D01*
X005488Y021286D01*
X005488Y021452D01*
X005425Y021606D01*
X005307Y021723D01*
X005154Y021787D01*
X004988Y021787D01*
X004835Y021723D01*
X004717Y021606D01*
X004675Y021503D02*
X002941Y021503D01*
X002941Y021344D02*
X004654Y021344D01*
X004696Y021186D02*
X002941Y021186D01*
X002941Y021027D02*
X004823Y021027D01*
X004925Y020856D02*
X004807Y020739D01*
X004744Y020586D01*
X004744Y020420D01*
X004807Y020266D01*
X004925Y020149D01*
X005078Y020086D01*
X005244Y020086D01*
X005397Y020149D01*
X005515Y020266D01*
X005578Y020420D01*
X005578Y020586D01*
X005515Y020739D01*
X005397Y020856D01*
X005244Y020920D01*
X005078Y020920D01*
X004925Y020856D01*
X004955Y020869D02*
X002941Y020869D01*
X002941Y020710D02*
X004796Y020710D01*
X004744Y020552D02*
X002941Y020552D01*
X002941Y020393D02*
X004755Y020393D01*
X004839Y020235D02*
X002941Y020235D01*
X002941Y020076D02*
X008744Y020076D01*
X008775Y020106D02*
X008657Y019989D01*
X008594Y019836D01*
X008594Y019670D01*
X008657Y019516D01*
X008775Y019399D01*
X008928Y019336D01*
X009094Y019336D01*
X009247Y019399D01*
X009365Y019516D01*
X009428Y019670D01*
X009428Y019836D01*
X009365Y019989D01*
X009247Y020106D01*
X009094Y020170D01*
X008928Y020170D01*
X008775Y020106D01*
X008628Y019918D02*
X002941Y019918D01*
X002941Y019759D02*
X008594Y019759D01*
X008623Y019600D02*
X002941Y019600D01*
X002941Y019442D02*
X008732Y019442D01*
X008604Y019026D02*
X008472Y019081D01*
X008330Y019081D01*
X008324Y019079D01*
X008305Y019126D01*
X008204Y019226D01*
X008072Y019281D01*
X007930Y019281D01*
X007798Y019226D01*
X007698Y019126D01*
X007643Y018994D01*
X007643Y018852D01*
X007698Y018720D01*
X007798Y018619D01*
X007930Y018565D01*
X008072Y018565D01*
X008078Y018567D01*
X008098Y018520D01*
X008198Y018419D01*
X008330Y018365D01*
X008472Y018365D01*
X008510Y018381D01*
X008474Y018292D01*
X008474Y018126D01*
X008537Y017973D01*
X008655Y017856D01*
X008808Y017792D01*
X008974Y017792D01*
X009127Y017856D01*
X009245Y017973D01*
X009308Y018126D01*
X009308Y018292D01*
X009245Y018446D01*
X009127Y018563D01*
X008974Y018627D01*
X008808Y018627D01*
X008736Y018597D01*
X008759Y018652D01*
X008759Y018794D01*
X008705Y018926D01*
X008604Y019026D01*
X008664Y018966D02*
X011625Y018966D01*
X011584Y018926D02*
X011530Y018794D01*
X011530Y018652D01*
X011584Y018520D01*
X011685Y018419D01*
X011816Y018365D01*
X011959Y018365D01*
X012091Y018419D01*
X012191Y018520D01*
X012211Y018567D01*
X012216Y018565D01*
X012359Y018565D01*
X012491Y018619D01*
X012591Y018720D01*
X012646Y018852D01*
X012646Y018994D01*
X012591Y019126D01*
X012491Y019226D01*
X012359Y019281D01*
X012216Y019281D01*
X012085Y019226D01*
X011984Y019126D01*
X011965Y019079D01*
X011959Y019081D01*
X011816Y019081D01*
X011685Y019026D01*
X011584Y018926D01*
X011535Y018808D02*
X008754Y018808D01*
X008758Y018649D02*
X011531Y018649D01*
X011613Y018491D02*
X009200Y018491D01*
X009292Y018332D02*
X015580Y018332D01*
X015572Y018365D02*
X015598Y018376D01*
X015564Y018292D01*
X015564Y018126D01*
X015627Y017973D01*
X015745Y017856D01*
X015898Y017792D01*
X016064Y017792D01*
X016217Y017856D01*
X016335Y017973D01*
X016398Y018126D01*
X016398Y018292D01*
X016335Y018446D01*
X016217Y018563D01*
X016064Y018627D01*
X015898Y018627D01*
X015839Y018602D01*
X015859Y018652D01*
X015859Y018794D01*
X015805Y018926D01*
X015704Y019026D01*
X015572Y019081D01*
X015430Y019081D01*
X015424Y019079D01*
X015405Y019126D01*
X015304Y019226D01*
X015172Y019281D01*
X015030Y019281D01*
X014898Y019226D01*
X014798Y019126D01*
X014743Y018994D01*
X014743Y018852D01*
X014798Y018720D01*
X014898Y018619D01*
X015030Y018565D01*
X015172Y018565D01*
X015178Y018567D01*
X015198Y018520D01*
X015298Y018419D01*
X015430Y018365D01*
X015572Y018365D01*
X015564Y018174D02*
X009308Y018174D01*
X009262Y018015D02*
X015610Y018015D01*
X015744Y017856D02*
X009128Y017856D01*
X008654Y017856D02*
X002941Y017856D01*
X002941Y017698D02*
X058817Y017698D01*
X058810Y017539D02*
X002941Y017539D01*
X002941Y017381D02*
X004655Y017381D01*
X004714Y017405D02*
X004582Y017351D01*
X004481Y017250D01*
X004427Y017118D01*
X004427Y016976D01*
X004481Y016844D01*
X004582Y016744D01*
X004714Y016689D01*
X004856Y016689D01*
X004988Y016744D01*
X005089Y016844D01*
X005143Y016976D01*
X005143Y017118D01*
X005089Y017250D01*
X004988Y017351D01*
X004856Y017405D01*
X004714Y017405D01*
X004915Y017381D02*
X011741Y017381D01*
X011800Y017405D02*
X011669Y017351D01*
X011568Y017250D01*
X011513Y017118D01*
X011513Y016976D01*
X011568Y016844D01*
X011669Y016744D01*
X011800Y016689D01*
X011943Y016689D01*
X012074Y016744D01*
X012175Y016844D01*
X012230Y016976D01*
X012230Y017118D01*
X012175Y017250D01*
X012074Y017351D01*
X011943Y017405D01*
X011800Y017405D01*
X012002Y017381D02*
X018828Y017381D01*
X018887Y017405D02*
X018755Y017351D01*
X018655Y017250D01*
X018600Y017118D01*
X018600Y016976D01*
X018655Y016844D01*
X018755Y016744D01*
X018887Y016689D01*
X019029Y016689D01*
X019161Y016744D01*
X019262Y016844D01*
X019316Y016976D01*
X019316Y017118D01*
X019262Y017250D01*
X019161Y017351D01*
X019029Y017405D01*
X018887Y017405D01*
X019088Y017381D02*
X025915Y017381D01*
X025974Y017405D02*
X025842Y017351D01*
X025741Y017250D01*
X025687Y017118D01*
X025687Y016976D01*
X025741Y016844D01*
X025842Y016744D01*
X025974Y016689D01*
X026116Y016689D01*
X026248Y016744D01*
X026348Y016844D01*
X026403Y016976D01*
X026403Y017118D01*
X026348Y017250D01*
X026248Y017351D01*
X026116Y017405D01*
X025974Y017405D01*
X026175Y017381D02*
X033001Y017381D01*
X033060Y017405D02*
X032929Y017351D01*
X032828Y017250D01*
X032773Y017118D01*
X032773Y016976D01*
X032828Y016844D01*
X032929Y016744D01*
X033060Y016689D01*
X033203Y016689D01*
X033334Y016744D01*
X033435Y016844D01*
X033489Y016976D01*
X033489Y017118D01*
X033435Y017250D01*
X033334Y017351D01*
X033203Y017405D01*
X033060Y017405D01*
X033262Y017381D02*
X040088Y017381D01*
X040147Y017405D02*
X040015Y017351D01*
X039914Y017250D01*
X039860Y017118D01*
X039860Y016976D01*
X039914Y016844D01*
X040015Y016744D01*
X040147Y016689D01*
X040289Y016689D01*
X040421Y016744D01*
X040522Y016844D01*
X040576Y016976D01*
X040576Y017118D01*
X040522Y017250D01*
X040421Y017351D01*
X040289Y017405D01*
X040147Y017405D01*
X040348Y017381D02*
X047174Y017381D01*
X047233Y017405D02*
X047102Y017351D01*
X047001Y017250D01*
X046947Y017118D01*
X046947Y016976D01*
X047001Y016844D01*
X047102Y016744D01*
X047233Y016689D01*
X047376Y016689D01*
X047507Y016744D01*
X047608Y016844D01*
X047663Y016976D01*
X047663Y017118D01*
X047608Y017250D01*
X047507Y017351D01*
X047376Y017405D01*
X047233Y017405D01*
X047435Y017381D02*
X054261Y017381D01*
X054320Y017405D02*
X054188Y017351D01*
X054088Y017250D01*
X054033Y017118D01*
X054033Y016976D01*
X054088Y016844D01*
X054188Y016744D01*
X054320Y016689D01*
X054462Y016689D01*
X054594Y016744D01*
X054695Y016844D01*
X054749Y016976D01*
X054749Y017118D01*
X054695Y017250D01*
X054594Y017351D01*
X054462Y017405D01*
X054320Y017405D01*
X054521Y017381D02*
X058867Y017381D01*
X059048Y017222D02*
X054706Y017222D01*
X054749Y017064D02*
X059548Y017064D01*
X059548Y017222D02*
X059407Y017222D01*
X059548Y016905D02*
X054720Y016905D01*
X054597Y016747D02*
X059548Y016747D01*
X059548Y016588D02*
X002941Y016588D01*
X002941Y016430D02*
X059548Y016430D01*
X059548Y016271D02*
X002941Y016271D01*
X002941Y016113D02*
X059548Y016113D01*
X059548Y015954D02*
X002941Y015954D01*
X002941Y015795D02*
X005959Y015795D01*
X005912Y015776D02*
X005811Y015675D01*
X005756Y015544D01*
X005756Y015401D01*
X005809Y015274D01*
X005798Y015262D01*
X005743Y015131D01*
X005743Y014988D01*
X005798Y014857D01*
X005898Y014756D01*
X006030Y014701D01*
X006172Y014701D01*
X006304Y014756D01*
X006405Y014857D01*
X006459Y014988D01*
X006459Y015131D01*
X006425Y015213D01*
X006481Y015213D01*
X006613Y015267D01*
X006713Y015368D01*
X006768Y015500D01*
X006768Y015642D01*
X006713Y015774D01*
X006613Y015874D01*
X006481Y015929D01*
X006339Y015929D01*
X006207Y015874D01*
X006163Y015831D01*
X006043Y015831D01*
X005912Y015776D01*
X005795Y015637D02*
X002941Y015637D01*
X002941Y015478D02*
X005756Y015478D01*
X005790Y015320D02*
X002941Y015320D01*
X002941Y015161D02*
X005756Y015161D01*
X005743Y015003D02*
X002941Y015003D01*
X002941Y014844D02*
X005810Y014844D01*
X006392Y014844D02*
X009261Y014844D01*
X009243Y014888D02*
X009298Y014757D01*
X009398Y014656D01*
X009530Y014601D01*
X009672Y014601D01*
X009804Y014656D01*
X009905Y014757D01*
X009959Y014888D01*
X009959Y015031D01*
X009905Y015162D01*
X009804Y015263D01*
X009672Y015318D01*
X009530Y015318D01*
X009398Y015263D01*
X009298Y015162D01*
X009243Y015031D01*
X009243Y014888D01*
X009243Y015003D02*
X006459Y015003D01*
X006447Y015161D02*
X008753Y015161D01*
X008775Y015139D02*
X008928Y015076D01*
X009094Y015076D01*
X009247Y015139D01*
X009365Y015256D01*
X009428Y015410D01*
X009428Y015576D01*
X009365Y015729D01*
X009247Y015846D01*
X009094Y015910D01*
X008928Y015910D01*
X008775Y015846D01*
X008657Y015729D01*
X008594Y015576D01*
X008594Y015410D01*
X008657Y015256D01*
X008775Y015139D01*
X008631Y015320D02*
X006665Y015320D01*
X006759Y015478D02*
X008594Y015478D01*
X008619Y015637D02*
X006768Y015637D01*
X006692Y015795D02*
X008724Y015795D01*
X009298Y015795D02*
X013045Y015795D01*
X012998Y015776D02*
X012898Y015675D01*
X012843Y015544D01*
X012843Y015401D01*
X012898Y015270D01*
X012998Y015169D01*
X013130Y015114D01*
X013272Y015114D01*
X013404Y015169D01*
X013448Y015213D01*
X013568Y015213D01*
X013699Y015267D01*
X013800Y015368D01*
X013854Y015500D01*
X013854Y015642D01*
X013800Y015774D01*
X013699Y015874D01*
X013568Y015929D01*
X013425Y015929D01*
X013294Y015874D01*
X013250Y015831D01*
X013130Y015831D01*
X012998Y015776D01*
X012882Y015637D02*
X009403Y015637D01*
X009428Y015478D02*
X012843Y015478D01*
X012877Y015320D02*
X009391Y015320D01*
X009297Y015161D02*
X009269Y015161D01*
X009905Y015161D02*
X013017Y015161D01*
X013386Y015161D02*
X015839Y015161D01*
X015861Y015139D02*
X016015Y015076D01*
X016181Y015076D01*
X016334Y015139D01*
X016451Y015256D01*
X016515Y015410D01*
X016515Y015576D01*
X016451Y015729D01*
X016334Y015846D01*
X016181Y015910D01*
X016015Y015910D01*
X015861Y015846D01*
X015744Y015729D01*
X015681Y015576D01*
X015681Y015410D01*
X015744Y015256D01*
X015861Y015139D01*
X015718Y015320D02*
X013752Y015320D01*
X013846Y015478D02*
X015681Y015478D01*
X015706Y015637D02*
X013854Y015637D01*
X013778Y015795D02*
X015810Y015795D01*
X016385Y015795D02*
X020132Y015795D01*
X020085Y015776D02*
X019984Y015675D01*
X019930Y015544D01*
X019930Y015401D01*
X019984Y015270D01*
X020085Y015169D01*
X020216Y015114D01*
X020359Y015114D01*
X020491Y015169D01*
X020534Y015213D01*
X020654Y015213D01*
X020786Y015267D01*
X020887Y015368D01*
X020941Y015500D01*
X020941Y015642D01*
X020887Y015774D01*
X020786Y015874D01*
X020654Y015929D01*
X020512Y015929D01*
X020380Y015874D01*
X020336Y015831D01*
X020216Y015831D01*
X020085Y015776D01*
X019968Y015637D02*
X016490Y015637D01*
X016515Y015478D02*
X019930Y015478D01*
X019963Y015320D02*
X016478Y015320D01*
X016356Y015161D02*
X020103Y015161D01*
X020472Y015161D02*
X022926Y015161D01*
X022948Y015139D02*
X023101Y015076D01*
X023267Y015076D01*
X023421Y015139D01*
X023538Y015256D01*
X023601Y015410D01*
X023601Y015576D01*
X023538Y015729D01*
X023421Y015846D01*
X023267Y015910D01*
X023101Y015910D01*
X022948Y015846D01*
X022831Y015729D01*
X022767Y015576D01*
X022767Y015410D01*
X022831Y015256D01*
X022948Y015139D01*
X022804Y015320D02*
X020838Y015320D01*
X020932Y015478D02*
X022767Y015478D01*
X022792Y015637D02*
X020941Y015637D01*
X020865Y015795D02*
X022897Y015795D01*
X023472Y015795D02*
X027218Y015795D01*
X027171Y015776D02*
X027071Y015675D01*
X027016Y015544D01*
X027016Y015401D01*
X027071Y015270D01*
X027171Y015169D01*
X027303Y015114D01*
X027446Y015114D01*
X027577Y015169D01*
X027621Y015213D01*
X027741Y015213D01*
X027872Y015267D01*
X027973Y015368D01*
X028028Y015500D01*
X028028Y015642D01*
X027973Y015774D01*
X027872Y015874D01*
X027741Y015929D01*
X027598Y015929D01*
X027467Y015874D01*
X027423Y015831D01*
X027303Y015831D01*
X027171Y015776D01*
X027055Y015637D02*
X023576Y015637D01*
X023601Y015478D02*
X027016Y015478D01*
X027050Y015320D02*
X023564Y015320D01*
X023443Y015161D02*
X027190Y015161D01*
X027559Y015161D02*
X030013Y015161D01*
X030035Y015139D02*
X030188Y015076D01*
X030354Y015076D01*
X030507Y015139D01*
X030625Y015256D01*
X030688Y015410D01*
X030688Y015576D01*
X030625Y015729D01*
X030507Y015846D01*
X030354Y015910D01*
X030188Y015910D01*
X030035Y015846D01*
X029917Y015729D01*
X029854Y015576D01*
X029854Y015410D01*
X029917Y015256D01*
X030035Y015139D01*
X029891Y015320D02*
X027925Y015320D01*
X028019Y015478D02*
X029854Y015478D01*
X029879Y015637D02*
X028028Y015637D01*
X027951Y015795D02*
X029984Y015795D01*
X030558Y015795D02*
X034305Y015795D01*
X034258Y015776D02*
X034157Y015675D01*
X034103Y015544D01*
X034103Y015401D01*
X034157Y015270D01*
X034258Y015169D01*
X034390Y015114D01*
X034532Y015114D01*
X034664Y015169D01*
X034708Y015213D01*
X034827Y015213D01*
X034959Y015267D01*
X035060Y015368D01*
X035114Y015500D01*
X035114Y015642D01*
X035060Y015774D01*
X034959Y015874D01*
X034827Y015929D01*
X034685Y015929D01*
X034553Y015874D01*
X034509Y015831D01*
X034390Y015831D01*
X034258Y015776D01*
X034141Y015637D02*
X030663Y015637D01*
X030688Y015478D02*
X034103Y015478D01*
X034137Y015320D02*
X032847Y015320D01*
X032855Y015312D02*
X032754Y015413D01*
X032622Y015468D01*
X032480Y015468D01*
X032348Y015413D01*
X032248Y015312D01*
X032193Y015181D01*
X032193Y015038D01*
X032248Y014907D01*
X032348Y014806D01*
X032480Y014751D01*
X032622Y014751D01*
X032754Y014806D01*
X032855Y014907D01*
X032909Y015038D01*
X032909Y015181D01*
X032855Y015312D01*
X032909Y015161D02*
X034276Y015161D01*
X034645Y015161D02*
X037099Y015161D01*
X037121Y015139D02*
X037275Y015076D01*
X037441Y015076D01*
X037594Y015139D01*
X037711Y015256D01*
X037775Y015410D01*
X037775Y015576D01*
X037711Y015729D01*
X037594Y015846D01*
X037441Y015910D01*
X037275Y015910D01*
X037121Y015846D01*
X037004Y015729D01*
X036940Y015576D01*
X036940Y015410D01*
X037004Y015256D01*
X037121Y015139D01*
X036978Y015320D02*
X035012Y015320D01*
X035105Y015478D02*
X036940Y015478D01*
X036966Y015637D02*
X035114Y015637D01*
X035038Y015795D02*
X037070Y015795D01*
X037645Y015795D02*
X041392Y015795D01*
X041345Y015776D02*
X041244Y015675D01*
X041189Y015544D01*
X041189Y015401D01*
X041244Y015270D01*
X041345Y015169D01*
X041476Y015114D01*
X041619Y015114D01*
X041750Y015169D01*
X041794Y015213D01*
X041914Y015213D01*
X042046Y015267D01*
X042146Y015368D01*
X042201Y015500D01*
X042201Y015642D01*
X042146Y015774D01*
X042046Y015874D01*
X041914Y015929D01*
X041772Y015929D01*
X041640Y015874D01*
X041596Y015831D01*
X041476Y015831D01*
X041345Y015776D01*
X041228Y015637D02*
X037749Y015637D01*
X037775Y015478D02*
X041189Y015478D01*
X041223Y015320D02*
X037737Y015320D01*
X037616Y015161D02*
X041363Y015161D01*
X041732Y015161D02*
X044186Y015161D01*
X044208Y015139D02*
X044361Y015076D01*
X044527Y015076D01*
X044680Y015139D01*
X044798Y015256D01*
X044861Y015410D01*
X044861Y015576D01*
X044798Y015729D01*
X044680Y015846D01*
X044527Y015910D01*
X044361Y015910D01*
X044208Y015846D01*
X044091Y015729D01*
X044027Y015576D01*
X044027Y015410D01*
X044091Y015256D01*
X044208Y015139D01*
X044064Y015320D02*
X042098Y015320D01*
X042192Y015478D02*
X044027Y015478D01*
X044052Y015637D02*
X042201Y015637D01*
X042125Y015795D02*
X044157Y015795D01*
X044731Y015795D02*
X048478Y015795D01*
X048431Y015776D02*
X048331Y015675D01*
X048276Y015544D01*
X048276Y015401D01*
X048331Y015270D01*
X048431Y015169D01*
X048563Y015114D01*
X048705Y015114D01*
X048837Y015169D01*
X048881Y015213D01*
X049001Y015213D01*
X049132Y015267D01*
X049233Y015368D01*
X049288Y015500D01*
X049288Y015642D01*
X049233Y015774D01*
X049132Y015874D01*
X049001Y015929D01*
X048858Y015929D01*
X048727Y015874D01*
X048683Y015831D01*
X048563Y015831D01*
X048431Y015776D01*
X048315Y015637D02*
X044836Y015637D01*
X044861Y015478D02*
X048276Y015478D01*
X048310Y015320D02*
X044824Y015320D01*
X044703Y015161D02*
X048450Y015161D01*
X048819Y015161D02*
X051272Y015161D01*
X051294Y015139D02*
X051448Y015076D01*
X051614Y015076D01*
X051767Y015139D01*
X051884Y015256D01*
X051948Y015410D01*
X051948Y015576D01*
X051884Y015729D01*
X051767Y015846D01*
X051614Y015910D01*
X051448Y015910D01*
X051294Y015846D01*
X051177Y015729D01*
X051114Y015576D01*
X051114Y015410D01*
X051177Y015256D01*
X051294Y015139D01*
X051151Y015320D02*
X049185Y015320D01*
X049279Y015478D02*
X051114Y015478D01*
X051139Y015637D02*
X049288Y015637D01*
X049211Y015795D02*
X051243Y015795D01*
X051818Y015795D02*
X055565Y015795D01*
X055518Y015776D02*
X055417Y015675D01*
X055363Y015544D01*
X055363Y015401D01*
X055417Y015270D01*
X055518Y015169D01*
X055650Y015114D01*
X055792Y015114D01*
X055924Y015169D01*
X055967Y015213D01*
X056087Y015213D01*
X056219Y015267D01*
X056320Y015368D01*
X056374Y015500D01*
X056374Y015642D01*
X056320Y015774D01*
X056219Y015874D01*
X056087Y015929D01*
X055945Y015929D01*
X055813Y015874D01*
X055769Y015831D01*
X055650Y015831D01*
X055518Y015776D01*
X055401Y015637D02*
X051923Y015637D01*
X051948Y015478D02*
X055363Y015478D01*
X055396Y015320D02*
X051911Y015320D01*
X051789Y015161D02*
X055536Y015161D01*
X055905Y015161D02*
X058359Y015161D01*
X058381Y015139D02*
X058534Y015076D01*
X058700Y015076D01*
X058854Y015139D01*
X058971Y015256D01*
X059035Y015410D01*
X059035Y015576D01*
X058971Y015729D01*
X058854Y015846D01*
X058700Y015910D01*
X058534Y015910D01*
X058381Y015846D01*
X058264Y015729D01*
X058200Y015576D01*
X058200Y015410D01*
X058264Y015256D01*
X058381Y015139D01*
X058238Y015320D02*
X056271Y015320D01*
X056365Y015478D02*
X058200Y015478D01*
X058226Y015637D02*
X056374Y015637D01*
X056298Y015795D02*
X058330Y015795D01*
X058905Y015795D02*
X059548Y015795D01*
X059548Y015637D02*
X059009Y015637D01*
X059035Y015478D02*
X059548Y015478D01*
X059548Y015320D02*
X058997Y015320D01*
X058876Y015161D02*
X059548Y015161D01*
X059548Y015003D02*
X032894Y015003D01*
X032792Y014844D02*
X059548Y014844D01*
X059548Y014686D02*
X009834Y014686D01*
X009941Y014844D02*
X032310Y014844D01*
X032208Y015003D02*
X009959Y015003D01*
X009368Y014686D02*
X002941Y014686D01*
X002941Y014527D02*
X059548Y014527D01*
X059548Y014369D02*
X046032Y014369D01*
X046055Y014346D02*
X045937Y014463D01*
X045784Y014527D01*
X045618Y014527D01*
X045465Y014463D01*
X045347Y014346D01*
X045284Y014192D01*
X045284Y014026D01*
X045347Y013873D01*
X045465Y013756D01*
X045618Y013692D01*
X045784Y013692D01*
X045937Y013756D01*
X046055Y013873D01*
X046118Y014026D01*
X046118Y014192D01*
X046055Y014346D01*
X046111Y014210D02*
X059548Y014210D01*
X059548Y014051D02*
X046118Y014051D01*
X046063Y013893D02*
X059548Y013893D01*
X059548Y013734D02*
X045886Y013734D01*
X045516Y013734D02*
X036236Y013734D01*
X036287Y013756D02*
X036405Y013873D01*
X036468Y014026D01*
X036468Y014192D01*
X036405Y014346D01*
X036287Y014463D01*
X036134Y014527D01*
X035968Y014527D01*
X035815Y014463D01*
X035697Y014346D01*
X035634Y014192D01*
X035634Y014026D01*
X035697Y013873D01*
X035815Y013756D01*
X035968Y013692D01*
X036134Y013692D01*
X036287Y013756D01*
X036413Y013893D02*
X045339Y013893D01*
X045284Y014051D02*
X036468Y014051D01*
X036461Y014210D02*
X045291Y014210D01*
X045370Y014369D02*
X036382Y014369D01*
X035720Y014369D02*
X004532Y014369D01*
X004487Y014413D02*
X004334Y014477D01*
X004168Y014477D01*
X004015Y014413D01*
X003897Y014296D01*
X003834Y014142D01*
X003834Y013976D01*
X003897Y013823D01*
X004015Y013706D01*
X004168Y013642D01*
X004328Y013642D01*
X004248Y013562D01*
X004193Y013431D01*
X004193Y013288D01*
X004248Y013157D01*
X004348Y013056D01*
X004480Y013001D01*
X004622Y013001D01*
X004754Y013056D01*
X004855Y013157D01*
X004909Y013288D01*
X004909Y013431D01*
X004855Y013562D01*
X004754Y013663D01*
X004622Y013718D01*
X004499Y013718D01*
X004605Y013823D01*
X004668Y013976D01*
X004668Y014142D01*
X004605Y014296D01*
X004487Y014413D01*
X004640Y014210D02*
X020012Y014210D01*
X020030Y014218D02*
X019898Y014163D01*
X019798Y014062D01*
X019743Y013931D01*
X019743Y013788D01*
X019798Y013657D01*
X019898Y013556D01*
X020030Y013501D01*
X020172Y013501D01*
X020304Y013556D01*
X020351Y013603D01*
X020398Y013556D01*
X020530Y013501D01*
X020672Y013501D01*
X020804Y013556D01*
X020851Y013603D01*
X020898Y013556D01*
X021030Y013501D01*
X021172Y013501D01*
X021304Y013556D01*
X021405Y013657D01*
X021459Y013788D01*
X021459Y013931D01*
X021405Y014062D01*
X021304Y014163D01*
X021172Y014218D01*
X021030Y014218D01*
X020898Y014163D01*
X020851Y014116D01*
X020804Y014163D01*
X020672Y014218D01*
X020530Y014218D01*
X020398Y014163D01*
X020351Y014116D01*
X020304Y014163D01*
X020172Y014218D01*
X020030Y014218D01*
X020191Y014210D02*
X020512Y014210D01*
X020691Y014210D02*
X021012Y014210D01*
X021191Y014210D02*
X035641Y014210D01*
X035634Y014051D02*
X021409Y014051D01*
X021459Y013893D02*
X035689Y013893D01*
X035866Y013734D02*
X021437Y013734D01*
X021324Y013576D02*
X059548Y013576D01*
X059548Y013417D02*
X042267Y013417D01*
X042184Y013452D02*
X041889Y013452D01*
X041617Y013339D01*
X041411Y013133D01*
X041206Y013339D01*
X040934Y013452D01*
X040639Y013452D01*
X040367Y013339D01*
X040159Y013131D01*
X040047Y012859D01*
X040047Y012565D01*
X040159Y012293D01*
X040367Y012084D01*
X040639Y011972D01*
X040934Y011972D01*
X041206Y012084D01*
X041411Y012290D01*
X041617Y012084D01*
X041889Y011972D01*
X042184Y011972D01*
X042456Y012084D01*
X042664Y012293D01*
X042776Y012565D01*
X042776Y012859D01*
X042664Y013131D01*
X042456Y013339D01*
X042184Y013452D01*
X041806Y013417D02*
X041017Y013417D01*
X041286Y013259D02*
X041537Y013259D01*
X042536Y013259D02*
X059548Y013259D01*
X059548Y013100D02*
X042677Y013100D01*
X042742Y012942D02*
X044128Y012942D01*
X044188Y012967D02*
X044035Y012903D01*
X043917Y012786D01*
X043854Y012632D01*
X043854Y012466D01*
X042736Y012466D01*
X042776Y012625D02*
X043854Y012625D01*
X043854Y012466D02*
X043917Y012313D01*
X044035Y012196D01*
X044188Y012132D01*
X044354Y012132D01*
X044507Y012196D01*
X044625Y012313D01*
X044688Y012466D01*
X059548Y012466D01*
X059548Y012307D02*
X045490Y012307D01*
X045444Y012327D02*
X045278Y012327D01*
X045125Y012263D01*
X045007Y012146D01*
X044944Y011992D01*
X044944Y011826D01*
X045007Y011673D01*
X044362Y011673D01*
X044354Y011677D02*
X044188Y011677D01*
X044035Y011613D01*
X043917Y011496D01*
X043854Y011342D01*
X043854Y011176D01*
X043917Y011023D01*
X044035Y010906D01*
X044188Y010842D01*
X044354Y010842D01*
X044507Y010906D01*
X044625Y011023D01*
X044688Y011176D01*
X044688Y011342D01*
X044625Y011496D01*
X044507Y011613D01*
X044354Y011677D01*
X044180Y011673D02*
X043535Y011673D01*
X043598Y011826D01*
X043598Y011992D01*
X043535Y012146D01*
X043417Y012263D01*
X043264Y012327D01*
X043098Y012327D01*
X042945Y012263D01*
X042827Y012146D01*
X042764Y011992D01*
X042764Y011826D01*
X042827Y011673D01*
X024000Y011673D01*
X024026Y011609D02*
X023914Y011881D01*
X023708Y012087D01*
X023914Y012293D01*
X023957Y012398D01*
X023988Y012345D01*
X024040Y012277D01*
X024101Y012215D01*
X024170Y012163D01*
X024245Y012120D01*
X024324Y012087D01*
X024408Y012064D01*
X024489Y012054D01*
X024489Y012664D01*
X024584Y012664D01*
X024584Y012054D01*
X024665Y012064D01*
X024749Y012087D01*
X024829Y012120D01*
X024903Y012163D01*
X024972Y012215D01*
X025033Y012277D01*
X025085Y012345D01*
X025129Y012420D01*
X025162Y012500D01*
X025184Y012583D01*
X025195Y012664D01*
X024585Y012664D01*
X024585Y012760D01*
X025195Y012760D01*
X025184Y012841D01*
X025162Y012924D01*
X025129Y013004D01*
X025085Y013079D01*
X025033Y013147D01*
X024972Y013208D01*
X024903Y013261D01*
X024829Y013304D01*
X024749Y013337D01*
X024665Y013359D01*
X024584Y013370D01*
X024584Y012760D01*
X024489Y012760D01*
X024489Y013370D01*
X024408Y013359D01*
X024324Y013337D01*
X024245Y013304D01*
X024170Y013261D01*
X024101Y013208D01*
X024040Y013147D01*
X023988Y013079D01*
X023957Y013026D01*
X023914Y013131D01*
X023706Y013339D01*
X023434Y013452D01*
X023139Y013452D01*
X022867Y013339D01*
X022659Y013131D01*
X022547Y012859D01*
X022547Y012565D01*
X022659Y012293D01*
X022865Y012087D01*
X022659Y011881D01*
X022547Y011609D01*
X022547Y011315D01*
X022659Y011043D01*
X022865Y010837D01*
X022659Y010631D01*
X022547Y010359D01*
X022547Y010065D01*
X022659Y009793D01*
X022865Y009587D01*
X022659Y009381D01*
X022547Y009109D01*
X022547Y008815D01*
X022659Y008543D01*
X022867Y008334D01*
X023139Y008222D01*
X023434Y008222D01*
X023706Y008334D01*
X023914Y008543D01*
X024026Y008815D01*
X024026Y009109D01*
X023914Y009381D01*
X023708Y009587D01*
X023914Y009793D01*
X024026Y010065D01*
X024026Y010359D01*
X023914Y010631D01*
X023708Y010837D01*
X023914Y011043D01*
X024026Y011315D01*
X024026Y011609D01*
X024026Y011515D02*
X043044Y011515D01*
X043098Y011492D02*
X043264Y011492D01*
X043417Y011556D01*
X043535Y011673D01*
X043598Y011832D02*
X044944Y011832D01*
X044944Y011990D02*
X043598Y011990D01*
X043532Y012149D02*
X044148Y012149D01*
X044394Y012149D02*
X045011Y012149D01*
X045232Y012307D02*
X044619Y012307D01*
X044688Y012466D02*
X044688Y012632D01*
X044625Y012786D01*
X044507Y012903D01*
X044354Y012967D01*
X044188Y012967D01*
X044414Y012942D02*
X059548Y012942D01*
X059548Y012783D02*
X044626Y012783D01*
X044688Y012625D02*
X059548Y012625D01*
X059548Y012149D02*
X045712Y012149D01*
X045715Y012146D02*
X045597Y012263D01*
X045444Y012327D01*
X045715Y012146D02*
X045778Y011992D01*
X045778Y011826D01*
X045715Y011673D01*
X045597Y011556D01*
X045444Y011492D01*
X045278Y011492D01*
X045125Y011556D01*
X045007Y011673D01*
X045224Y011515D02*
X044606Y011515D01*
X044683Y011356D02*
X059548Y011356D01*
X059548Y011198D02*
X044688Y011198D01*
X044631Y011039D02*
X059548Y011039D01*
X059548Y010881D02*
X044447Y010881D01*
X044096Y010881D02*
X023752Y010881D01*
X023823Y010722D02*
X059548Y010722D01*
X059548Y010564D02*
X023942Y010564D01*
X024007Y010405D02*
X059548Y010405D01*
X059548Y010246D02*
X024026Y010246D01*
X024026Y010088D02*
X059548Y010088D01*
X059548Y009929D02*
X023970Y009929D01*
X023892Y009771D02*
X059548Y009771D01*
X059548Y009612D02*
X023733Y009612D01*
X023841Y009454D02*
X044296Y009454D01*
X044343Y009474D02*
X044248Y009434D01*
X044158Y009382D01*
X044076Y009319D01*
X044003Y009246D01*
X043940Y009164D01*
X043889Y009075D01*
X043849Y008979D01*
X043822Y008879D01*
X043813Y008805D01*
X044517Y008805D01*
X044517Y008645D01*
X043813Y008645D01*
X043822Y008571D01*
X043849Y008471D01*
X043889Y008376D01*
X043940Y008286D01*
X044003Y008204D01*
X044076Y008131D01*
X044158Y008068D01*
X044248Y008016D01*
X044343Y007977D01*
X044443Y007950D01*
X044508Y007942D01*
X044424Y007942D01*
X044105Y007809D01*
X043860Y007564D01*
X043728Y007245D01*
X043728Y006899D01*
X043860Y006579D01*
X044105Y006334D01*
X044424Y006202D01*
X044771Y006202D01*
X045090Y006334D01*
X045335Y006579D01*
X045424Y006794D01*
X045514Y006579D01*
X045758Y006334D01*
X046078Y006202D01*
X046424Y006202D01*
X046744Y006334D01*
X046989Y006579D01*
X047078Y006794D01*
X047167Y006579D01*
X047412Y006334D01*
X047732Y006202D01*
X048078Y006202D01*
X048397Y006334D01*
X048642Y006579D01*
X048775Y006899D01*
X048775Y007245D01*
X048642Y007564D01*
X048397Y007809D01*
X048078Y007942D01*
X047994Y007942D01*
X048059Y007950D01*
X048159Y007977D01*
X048254Y008016D01*
X048344Y008068D01*
X048426Y008131D01*
X048499Y008204D01*
X048562Y008286D01*
X048613Y008376D01*
X048653Y008471D01*
X048680Y008571D01*
X048690Y008645D01*
X047985Y008645D01*
X047985Y008805D01*
X048690Y008805D01*
X048680Y008879D01*
X048653Y008979D01*
X048613Y009075D01*
X048562Y009164D01*
X048499Y009246D01*
X048426Y009319D01*
X048344Y009382D01*
X048254Y009434D01*
X048159Y009474D01*
X048059Y009500D01*
X047985Y009510D01*
X047985Y008805D01*
X047825Y008805D01*
X047825Y009510D01*
X047750Y009500D01*
X047651Y009474D01*
X047555Y009434D01*
X047466Y009382D01*
X047384Y009319D01*
X047310Y009246D01*
X047247Y009164D01*
X047196Y009075D01*
X047156Y008979D01*
X047129Y008879D01*
X047120Y008805D01*
X047824Y008805D01*
X047824Y008645D01*
X047120Y008645D01*
X047129Y008571D01*
X047156Y008471D01*
X047196Y008376D01*
X047247Y008286D01*
X047310Y008204D01*
X047384Y008131D01*
X047466Y008068D01*
X047555Y008016D01*
X047651Y007977D01*
X047750Y007950D01*
X047815Y007942D01*
X047732Y007942D01*
X047412Y007809D01*
X047167Y007564D01*
X047078Y007349D01*
X046989Y007564D01*
X046744Y007809D01*
X046424Y007942D01*
X046341Y007942D01*
X046405Y007950D01*
X046505Y007977D01*
X046601Y008016D01*
X046690Y008068D01*
X046772Y008131D01*
X046845Y008204D01*
X046908Y008286D01*
X046960Y008376D01*
X046999Y008471D01*
X047026Y008571D01*
X047036Y008645D01*
X046331Y008645D01*
X046331Y008805D01*
X047036Y008805D01*
X047026Y008879D01*
X046999Y008979D01*
X046960Y009075D01*
X046908Y009164D01*
X046845Y009246D01*
X046772Y009319D01*
X046690Y009382D01*
X046601Y009434D01*
X046505Y009474D01*
X046405Y009500D01*
X046331Y009510D01*
X046331Y008805D01*
X046171Y008805D01*
X046171Y008645D01*
X045466Y008645D01*
X045476Y008571D01*
X045503Y008471D01*
X045542Y008376D01*
X045594Y008286D01*
X045657Y008204D01*
X045730Y008131D01*
X045812Y008068D01*
X045902Y008016D01*
X045997Y007977D01*
X046097Y007950D01*
X046161Y007942D01*
X046078Y007942D01*
X045758Y007809D01*
X045514Y007564D01*
X045424Y007349D01*
X045335Y007564D01*
X045090Y007809D01*
X044771Y007942D01*
X044687Y007942D01*
X044752Y007950D01*
X044852Y007977D01*
X044947Y008016D01*
X045037Y008068D01*
X045119Y008131D01*
X045192Y008204D01*
X045255Y008286D01*
X045306Y008376D01*
X045346Y008471D01*
X045373Y008571D01*
X045382Y008645D01*
X044678Y008645D01*
X044678Y008805D01*
X045382Y008805D01*
X045373Y008879D01*
X045346Y008979D01*
X045306Y009075D01*
X045255Y009164D01*
X045192Y009246D01*
X045119Y009319D01*
X045037Y009382D01*
X044947Y009434D01*
X044852Y009474D01*
X044752Y009500D01*
X044677Y009510D01*
X044677Y008805D01*
X044518Y008805D01*
X044518Y009510D01*
X044443Y009500D01*
X044343Y009474D01*
X044518Y009454D02*
X044677Y009454D01*
X044677Y009295D02*
X044518Y009295D01*
X044518Y009137D02*
X044677Y009137D01*
X044677Y008978D02*
X044518Y008978D01*
X044518Y008820D02*
X044677Y008820D01*
X044678Y008661D02*
X046171Y008661D01*
X046171Y008805D02*
X045466Y008805D01*
X045476Y008879D01*
X045503Y008979D01*
X045542Y009075D01*
X045594Y009164D01*
X045657Y009246D01*
X045730Y009319D01*
X045812Y009382D01*
X045902Y009434D01*
X045997Y009474D01*
X046097Y009500D01*
X046171Y009510D01*
X046171Y008805D01*
X046171Y008820D02*
X046331Y008820D01*
X046331Y008978D02*
X046171Y008978D01*
X046171Y009137D02*
X046331Y009137D01*
X046331Y009295D02*
X046171Y009295D01*
X046171Y009454D02*
X046331Y009454D01*
X046553Y009454D02*
X047603Y009454D01*
X047825Y009454D02*
X047985Y009454D01*
X047985Y009295D02*
X047825Y009295D01*
X047825Y009137D02*
X047985Y009137D01*
X047985Y008978D02*
X047825Y008978D01*
X047825Y008820D02*
X047985Y008820D01*
X047985Y008661D02*
X059548Y008661D01*
X059548Y008502D02*
X048661Y008502D01*
X048595Y008344D02*
X059548Y008344D01*
X059548Y008185D02*
X048480Y008185D01*
X048272Y008027D02*
X059548Y008027D01*
X059548Y007868D02*
X048255Y007868D01*
X048497Y007710D02*
X059548Y007710D01*
X059548Y007551D02*
X048648Y007551D01*
X048713Y007393D02*
X059548Y007393D01*
X059548Y007234D02*
X048775Y007234D01*
X048775Y007076D02*
X059548Y007076D01*
X059548Y006917D02*
X048775Y006917D01*
X048716Y006758D02*
X059548Y006758D01*
X059548Y006600D02*
X048651Y006600D01*
X048505Y006441D02*
X059548Y006441D01*
X059548Y006283D02*
X048273Y006283D01*
X047536Y006283D02*
X046620Y006283D01*
X046851Y006441D02*
X047305Y006441D01*
X047158Y006600D02*
X046997Y006600D01*
X047063Y006758D02*
X047093Y006758D01*
X047060Y007393D02*
X047096Y007393D01*
X047162Y007551D02*
X046994Y007551D01*
X046843Y007710D02*
X047312Y007710D01*
X047555Y007868D02*
X046601Y007868D01*
X046619Y008027D02*
X047537Y008027D01*
X047329Y008185D02*
X046827Y008185D01*
X046942Y008344D02*
X047214Y008344D01*
X047148Y008502D02*
X047008Y008502D01*
X047034Y008820D02*
X047122Y008820D01*
X047156Y008978D02*
X047000Y008978D01*
X046924Y009137D02*
X047232Y009137D01*
X047359Y009295D02*
X046796Y009295D01*
X045949Y009454D02*
X044900Y009454D01*
X045143Y009295D02*
X045706Y009295D01*
X045578Y009137D02*
X045271Y009137D01*
X045346Y008978D02*
X045502Y008978D01*
X045468Y008820D02*
X045381Y008820D01*
X045354Y008502D02*
X045494Y008502D01*
X045561Y008344D02*
X045288Y008344D01*
X045173Y008185D02*
X045676Y008185D01*
X045883Y008027D02*
X044965Y008027D01*
X044947Y007868D02*
X045901Y007868D01*
X045659Y007710D02*
X045190Y007710D01*
X045341Y007551D02*
X045508Y007551D01*
X045442Y007393D02*
X045406Y007393D01*
X045409Y006758D02*
X045439Y006758D01*
X045505Y006600D02*
X045344Y006600D01*
X045198Y006441D02*
X045651Y006441D01*
X045882Y006283D02*
X044966Y006283D01*
X044229Y006283D02*
X036138Y006283D01*
X036139Y006281D02*
X036085Y006412D01*
X035984Y006513D01*
X035852Y006568D01*
X035710Y006568D01*
X035578Y006513D01*
X035478Y006412D01*
X035423Y006281D01*
X035423Y006138D01*
X035478Y006007D01*
X035578Y005906D01*
X035710Y005851D01*
X035852Y005851D01*
X035984Y005906D01*
X036085Y006007D01*
X036139Y006138D01*
X036139Y006281D01*
X036133Y006124D02*
X059548Y006124D01*
X059548Y005966D02*
X036044Y005966D01*
X035518Y005966D02*
X014824Y005966D01*
X014805Y006012D02*
X014757Y006059D01*
X014805Y006107D01*
X014859Y006238D01*
X014859Y006381D01*
X014805Y006512D01*
X014757Y006559D01*
X014805Y006607D01*
X014859Y006738D01*
X014859Y006881D01*
X014805Y007012D01*
X014757Y007059D01*
X014805Y007107D01*
X014859Y007238D01*
X014859Y007381D01*
X014805Y007512D01*
X014757Y007559D01*
X014805Y007607D01*
X014859Y007738D01*
X014859Y007881D01*
X014805Y008012D01*
X014704Y008113D01*
X014572Y008168D01*
X014430Y008168D01*
X014298Y008113D01*
X014198Y008012D01*
X014143Y007881D01*
X014143Y007738D01*
X014198Y007607D01*
X014245Y007559D01*
X014198Y007512D01*
X014143Y007381D01*
X014143Y007238D01*
X014198Y007107D01*
X014245Y007059D01*
X014198Y007012D01*
X014143Y006881D01*
X014143Y006738D01*
X014198Y006607D01*
X014245Y006559D01*
X014198Y006512D01*
X014143Y006381D01*
X014143Y006238D01*
X014198Y006107D01*
X014245Y006059D01*
X014198Y006012D01*
X014143Y005881D01*
X014143Y005738D01*
X014198Y005607D01*
X014298Y005506D01*
X014430Y005451D01*
X014572Y005451D01*
X014704Y005506D01*
X014805Y005607D01*
X014859Y005738D01*
X014859Y005881D01*
X014805Y006012D01*
X014812Y006124D02*
X035429Y006124D01*
X035424Y006283D02*
X014859Y006283D01*
X014834Y006441D02*
X035507Y006441D01*
X036056Y006441D02*
X043998Y006441D01*
X043851Y006600D02*
X014798Y006600D01*
X014859Y006758D02*
X043786Y006758D01*
X043728Y006917D02*
X014844Y006917D01*
X014774Y007076D02*
X043728Y007076D01*
X043728Y007234D02*
X014857Y007234D01*
X014854Y007393D02*
X043789Y007393D01*
X043855Y007551D02*
X014766Y007551D01*
X014847Y007710D02*
X021399Y007710D01*
X021513Y007596D02*
X021244Y007864D01*
X021244Y008054D01*
X021703Y008054D01*
X021703Y008054D01*
X021703Y007596D01*
X021513Y007596D01*
X021703Y007596D02*
X021703Y008054D01*
X021703Y008054D01*
X021703Y008054D01*
X022162Y008054D01*
X022162Y007864D01*
X021893Y007596D01*
X021703Y007596D01*
X021703Y007710D02*
X021703Y007710D01*
X021703Y007868D02*
X021703Y007868D01*
X021703Y008027D02*
X021703Y008027D01*
X021703Y008054D02*
X021244Y008054D01*
X021244Y008244D01*
X021513Y008513D01*
X021703Y008513D01*
X021703Y008055D01*
X021703Y008055D01*
X021703Y008513D01*
X021893Y008513D01*
X022162Y008244D01*
X022162Y008054D01*
X021703Y008054D01*
X021703Y008185D02*
X021703Y008185D01*
X021703Y008344D02*
X021703Y008344D01*
X021703Y008502D02*
X021703Y008502D01*
X021502Y008502D02*
X005213Y008502D01*
X005232Y008522D02*
X005311Y008713D01*
X005311Y008919D01*
X005232Y009110D01*
X005086Y009255D01*
X004896Y009334D01*
X004132Y009334D01*
X003941Y009255D01*
X003795Y009110D01*
X003716Y008919D01*
X003716Y008713D01*
X003795Y008522D01*
X003941Y008376D01*
X004087Y008316D01*
X003941Y008255D01*
X003795Y008110D01*
X003716Y007919D01*
X003716Y007713D01*
X003795Y007522D01*
X003941Y007376D01*
X004087Y007316D01*
X003941Y007255D01*
X003795Y007110D01*
X003716Y006919D01*
X003716Y006713D01*
X003795Y006522D01*
X003941Y006376D01*
X004132Y006297D01*
X004896Y006297D01*
X005086Y006376D01*
X005232Y006522D01*
X005311Y006713D01*
X005311Y006919D01*
X005232Y007110D01*
X005086Y007255D01*
X004941Y007316D01*
X005086Y007376D01*
X005232Y007522D01*
X005311Y007713D01*
X005311Y007919D01*
X005232Y008110D01*
X005086Y008255D01*
X004941Y008316D01*
X005086Y008376D01*
X005232Y008522D01*
X005290Y008661D02*
X022610Y008661D01*
X022547Y008820D02*
X005311Y008820D01*
X005287Y008978D02*
X022547Y008978D01*
X022558Y009137D02*
X005205Y009137D01*
X004990Y009295D02*
X022624Y009295D01*
X022732Y009454D02*
X013799Y009454D01*
X013804Y009456D02*
X013905Y009557D01*
X013959Y009688D01*
X013959Y009831D01*
X013905Y009962D01*
X013804Y010063D01*
X013672Y010118D01*
X013530Y010118D01*
X013398Y010063D01*
X013298Y009962D01*
X013243Y009831D01*
X013243Y009688D01*
X013298Y009557D01*
X013398Y009456D01*
X013530Y009401D01*
X013672Y009401D01*
X013804Y009456D01*
X013928Y009612D02*
X022840Y009612D01*
X022681Y009771D02*
X013959Y009771D01*
X013918Y009929D02*
X022603Y009929D01*
X022547Y010088D02*
X013744Y010088D01*
X013458Y010088D02*
X005135Y010088D01*
X005126Y010101D02*
X005077Y010149D01*
X005022Y010190D01*
X004960Y010221D01*
X004895Y010242D01*
X004827Y010253D01*
X004534Y010253D01*
X004534Y009836D01*
X005230Y009836D01*
X005230Y009850D01*
X005219Y009918D01*
X005198Y009984D01*
X005167Y010045D01*
X005126Y010101D01*
X005216Y009929D02*
X013284Y009929D01*
X013243Y009771D02*
X005228Y009771D01*
X005230Y009781D02*
X005219Y009713D01*
X005198Y009648D01*
X005167Y009586D01*
X005126Y009531D01*
X005077Y009482D01*
X005022Y009442D01*
X004960Y009410D01*
X004895Y009389D01*
X004827Y009378D01*
X004534Y009378D01*
X004534Y009795D01*
X004494Y009795D01*
X004494Y009378D01*
X004201Y009378D01*
X004132Y009389D01*
X004067Y009410D01*
X004006Y009442D01*
X003950Y009482D01*
X003901Y009531D01*
X003861Y009586D01*
X003830Y009648D01*
X003808Y009713D01*
X003797Y009781D01*
X003797Y009796D01*
X004493Y009796D01*
X004493Y009836D01*
X003797Y009836D01*
X003797Y009850D01*
X003808Y009918D01*
X003830Y009984D01*
X003861Y010045D01*
X003901Y010101D01*
X003950Y010149D01*
X004006Y010190D01*
X004067Y010221D01*
X004132Y010242D01*
X004201Y010253D01*
X004494Y010253D01*
X004494Y009836D01*
X004534Y009836D01*
X004534Y009796D01*
X005230Y009796D01*
X005230Y009781D01*
X005180Y009612D02*
X013274Y009612D01*
X013403Y009454D02*
X005038Y009454D01*
X004534Y009454D02*
X004494Y009454D01*
X004494Y009612D02*
X004534Y009612D01*
X004534Y009771D02*
X004494Y009771D01*
X004494Y009929D02*
X004534Y009929D01*
X004534Y010088D02*
X004494Y010088D01*
X004494Y010246D02*
X004534Y010246D01*
X004870Y010246D02*
X022547Y010246D01*
X022566Y010405D02*
X005115Y010405D01*
X005086Y010376D02*
X005232Y010522D01*
X005311Y010713D01*
X005311Y010919D01*
X005232Y011110D01*
X005086Y011255D01*
X004941Y011316D01*
X005086Y011376D01*
X005232Y011522D01*
X005311Y011713D01*
X005311Y011919D01*
X005232Y012110D01*
X005086Y012255D01*
X004896Y012334D01*
X004132Y012334D01*
X003941Y012255D01*
X003795Y012110D01*
X003716Y011919D01*
X003716Y011713D01*
X003795Y011522D01*
X003941Y011376D01*
X004087Y011316D01*
X003941Y011255D01*
X003795Y011110D01*
X003716Y010919D01*
X003716Y010713D01*
X003795Y010522D01*
X003941Y010376D01*
X004132Y010297D01*
X004896Y010297D01*
X005086Y010376D01*
X005249Y010564D02*
X022631Y010564D01*
X022750Y010722D02*
X005311Y010722D01*
X005311Y010881D02*
X012759Y010881D01*
X012698Y010906D02*
X012830Y010851D01*
X012972Y010851D01*
X013104Y010906D01*
X013205Y011007D01*
X013259Y011138D01*
X013259Y011281D01*
X013205Y011412D01*
X013157Y011459D01*
X013205Y011507D01*
X013259Y011638D01*
X013259Y011781D01*
X013205Y011912D01*
X013157Y011959D01*
X013205Y012007D01*
X013259Y012138D01*
X013259Y012281D01*
X013205Y012412D01*
X013104Y012513D01*
X012972Y012568D01*
X012830Y012568D01*
X012698Y012513D01*
X012598Y012412D01*
X012543Y012281D01*
X012543Y012138D01*
X012598Y012007D01*
X012645Y011959D01*
X012598Y011912D01*
X012543Y011781D01*
X012543Y011638D01*
X012598Y011507D01*
X012645Y011459D01*
X012598Y011412D01*
X012543Y011281D01*
X012543Y011138D01*
X012598Y011007D01*
X012698Y010906D01*
X012584Y011039D02*
X005261Y011039D01*
X005144Y011198D02*
X012543Y011198D01*
X012574Y011356D02*
X005039Y011356D01*
X005225Y011515D02*
X012594Y011515D01*
X012543Y011673D02*
X005295Y011673D01*
X005311Y011832D02*
X012564Y011832D01*
X012614Y011990D02*
X005282Y011990D01*
X005193Y012149D02*
X012543Y012149D01*
X012554Y012307D02*
X004961Y012307D01*
X004067Y012307D02*
X002941Y012307D01*
X002941Y012149D02*
X003835Y012149D01*
X003746Y011990D02*
X002941Y011990D01*
X002941Y011832D02*
X003716Y011832D01*
X003732Y011673D02*
X002941Y011673D01*
X002941Y011515D02*
X003802Y011515D01*
X003989Y011356D02*
X002941Y011356D01*
X002941Y011198D02*
X003883Y011198D01*
X003766Y011039D02*
X002941Y011039D01*
X002941Y010881D02*
X003716Y010881D01*
X003716Y010722D02*
X002941Y010722D01*
X002941Y010564D02*
X003778Y010564D01*
X003912Y010405D02*
X002941Y010405D01*
X002941Y010246D02*
X004158Y010246D01*
X003892Y010088D02*
X002941Y010088D01*
X002941Y009929D02*
X003812Y009929D01*
X003799Y009771D02*
X002941Y009771D01*
X002941Y009612D02*
X003848Y009612D01*
X003989Y009454D02*
X002941Y009454D01*
X002941Y009295D02*
X004037Y009295D01*
X003822Y009137D02*
X002941Y009137D01*
X002941Y008978D02*
X003741Y008978D01*
X003716Y008820D02*
X002941Y008820D01*
X002941Y008661D02*
X003738Y008661D01*
X003815Y008502D02*
X002941Y008502D01*
X002941Y008344D02*
X004019Y008344D01*
X003871Y008185D02*
X002941Y008185D01*
X002941Y008027D02*
X003761Y008027D01*
X003716Y007868D02*
X002941Y007868D01*
X002941Y007710D02*
X003717Y007710D01*
X003783Y007551D02*
X002941Y007551D01*
X002941Y007393D02*
X003924Y007393D01*
X003920Y007234D02*
X002941Y007234D01*
X002941Y007076D02*
X003781Y007076D01*
X003716Y006917D02*
X002941Y006917D01*
X002941Y006758D02*
X003716Y006758D01*
X003763Y006600D02*
X002941Y006600D01*
X002941Y006441D02*
X003876Y006441D01*
X002941Y006283D02*
X014143Y006283D01*
X014168Y006441D02*
X005152Y006441D01*
X005264Y006600D02*
X014204Y006600D01*
X014143Y006758D02*
X005311Y006758D01*
X005311Y006917D02*
X014158Y006917D01*
X014229Y007076D02*
X012574Y007076D01*
X012605Y007107D02*
X012659Y007238D01*
X012659Y007381D01*
X012605Y007512D01*
X012504Y007613D01*
X012372Y007668D01*
X012230Y007668D01*
X012098Y007613D01*
X011998Y007512D01*
X011943Y007381D01*
X011943Y007238D01*
X011998Y007107D01*
X012098Y007006D01*
X012230Y006951D01*
X012372Y006951D01*
X012504Y007006D01*
X012605Y007107D01*
X012657Y007234D02*
X014145Y007234D01*
X014148Y007393D02*
X012654Y007393D01*
X012566Y007551D02*
X014236Y007551D01*
X014155Y007710D02*
X010958Y007710D01*
X011005Y007757D02*
X011059Y007888D01*
X011059Y008031D01*
X011005Y008162D01*
X010904Y008263D01*
X010772Y008318D01*
X010630Y008318D01*
X010498Y008263D01*
X010398Y008162D01*
X010343Y008031D01*
X010343Y007888D01*
X010398Y007757D01*
X010498Y007656D01*
X010630Y007601D01*
X010772Y007601D01*
X010904Y007656D01*
X011005Y007757D01*
X011051Y007868D02*
X014143Y007868D01*
X014212Y008027D02*
X011059Y008027D01*
X010982Y008185D02*
X021244Y008185D01*
X021244Y008027D02*
X014790Y008027D01*
X014859Y007868D02*
X021244Y007868D01*
X021344Y008344D02*
X005009Y008344D01*
X005156Y008185D02*
X010421Y008185D01*
X010343Y008027D02*
X005266Y008027D01*
X005311Y007868D02*
X010351Y007868D01*
X010444Y007710D02*
X005310Y007710D01*
X005244Y007551D02*
X012036Y007551D01*
X011948Y007393D02*
X005103Y007393D01*
X005108Y007234D02*
X011945Y007234D01*
X012029Y007076D02*
X005246Y007076D01*
X002941Y006124D02*
X014190Y006124D01*
X014178Y005966D02*
X002941Y005966D01*
X002941Y005807D02*
X014143Y005807D01*
X014180Y005649D02*
X002941Y005649D01*
X002941Y005490D02*
X014336Y005490D01*
X014666Y005490D02*
X018668Y005490D01*
X018643Y005431D02*
X018643Y005288D01*
X018698Y005157D01*
X018798Y005056D01*
X018930Y005001D01*
X019072Y005001D01*
X019204Y005056D01*
X019305Y005157D01*
X019359Y005288D01*
X019359Y005431D01*
X019305Y005562D01*
X019204Y005663D01*
X019072Y005718D01*
X018930Y005718D01*
X018798Y005663D01*
X018698Y005562D01*
X018643Y005431D01*
X018643Y005332D02*
X002941Y005332D01*
X002941Y005173D02*
X018691Y005173D01*
X018898Y005014D02*
X002941Y005014D01*
X002941Y004856D02*
X020253Y004856D01*
X020244Y004864D02*
X020513Y004596D01*
X020703Y004596D01*
X020703Y005054D01*
X020703Y005054D01*
X020703Y004596D01*
X020893Y004596D01*
X021162Y004864D01*
X021162Y005054D01*
X020703Y005054D01*
X020244Y005054D01*
X020244Y004864D01*
X020244Y005014D02*
X019104Y005014D01*
X019311Y005173D02*
X020244Y005173D01*
X020244Y005244D02*
X020244Y005054D01*
X020703Y005054D01*
X020703Y005054D01*
X020703Y005054D01*
X021162Y005054D01*
X021162Y005244D01*
X020893Y005513D01*
X020703Y005513D01*
X020513Y005513D01*
X020244Y005244D01*
X020332Y005332D02*
X019359Y005332D01*
X019335Y005490D02*
X020490Y005490D01*
X020703Y005490D02*
X020703Y005490D01*
X020703Y005513D02*
X020703Y005055D01*
X020703Y005055D01*
X020703Y005513D01*
X020703Y005332D02*
X020703Y005332D01*
X020703Y005173D02*
X020703Y005173D01*
X020703Y005014D02*
X020703Y005014D01*
X020703Y004856D02*
X020703Y004856D01*
X020703Y004697D02*
X020703Y004697D01*
X020411Y004697D02*
X002941Y004697D01*
X002941Y004539D02*
X043840Y004539D01*
X043893Y004668D02*
X043767Y004363D01*
X043767Y004032D01*
X043893Y003727D01*
X044127Y003494D01*
X044432Y003367D01*
X044763Y003367D01*
X045068Y003494D01*
X045302Y003727D01*
X045428Y004032D01*
X045428Y004363D01*
X045302Y004668D01*
X045068Y004902D01*
X044763Y005028D01*
X044432Y005028D01*
X044127Y004902D01*
X043893Y004668D01*
X043923Y004697D02*
X020995Y004697D01*
X021153Y004856D02*
X044081Y004856D01*
X044399Y005014D02*
X021162Y005014D01*
X021162Y005173D02*
X059548Y005173D01*
X059548Y005014D02*
X048103Y005014D01*
X048070Y005028D02*
X047739Y005028D01*
X047434Y004902D01*
X047201Y004668D01*
X047074Y004363D01*
X047074Y004032D01*
X047201Y003727D01*
X047434Y003494D01*
X047739Y003367D01*
X048070Y003367D01*
X048375Y003494D01*
X048609Y003727D01*
X048735Y004032D01*
X048735Y004363D01*
X048609Y004668D01*
X048375Y004902D01*
X048070Y005028D01*
X047706Y005014D02*
X044796Y005014D01*
X045114Y004856D02*
X047388Y004856D01*
X047230Y004697D02*
X045272Y004697D01*
X045355Y004539D02*
X047147Y004539D01*
X047081Y004380D02*
X045421Y004380D01*
X045428Y004222D02*
X047074Y004222D01*
X047074Y004063D02*
X045428Y004063D01*
X045375Y003905D02*
X047127Y003905D01*
X047193Y003746D02*
X045309Y003746D01*
X045162Y003588D02*
X047340Y003588D01*
X047590Y003429D02*
X044912Y003429D01*
X044283Y003429D02*
X042776Y003429D01*
X042776Y003315D02*
X042776Y003609D01*
X042664Y003881D01*
X042456Y004089D01*
X042184Y004202D01*
X041889Y004202D01*
X041617Y004089D01*
X041411Y003883D01*
X041206Y004089D01*
X040934Y004202D01*
X040639Y004202D01*
X040367Y004089D01*
X040159Y003881D01*
X040047Y003609D01*
X040047Y003315D01*
X040159Y003043D01*
X040367Y002834D01*
X040639Y002722D01*
X040934Y002722D01*
X041206Y002834D01*
X041411Y003040D01*
X041617Y002834D01*
X041889Y002722D01*
X042184Y002722D01*
X042456Y002834D01*
X042664Y003043D01*
X042776Y003315D01*
X042758Y003271D02*
X059548Y003271D01*
X059548Y003429D02*
X048219Y003429D01*
X048469Y003588D02*
X054183Y003588D01*
X054215Y003556D02*
X054368Y003492D01*
X054534Y003492D01*
X054651Y003541D01*
X054768Y003492D01*
X054934Y003492D01*
X055051Y003541D01*
X055168Y003492D01*
X055334Y003492D01*
X055487Y003556D01*
X055605Y003673D01*
X055668Y003826D01*
X055668Y003992D01*
X055605Y004146D01*
X055487Y004263D01*
X055334Y004327D01*
X055168Y004327D01*
X055051Y004278D01*
X054934Y004327D01*
X054768Y004327D01*
X054651Y004278D01*
X054534Y004327D01*
X054368Y004327D01*
X054215Y004263D01*
X054097Y004146D01*
X054034Y003992D01*
X054034Y003826D01*
X054097Y003673D01*
X054215Y003556D01*
X054067Y003746D02*
X048617Y003746D01*
X048682Y003905D02*
X054034Y003905D01*
X054063Y004063D02*
X048735Y004063D01*
X048735Y004222D02*
X054173Y004222D01*
X055529Y004222D02*
X059548Y004222D01*
X059548Y004380D02*
X048728Y004380D01*
X048662Y004539D02*
X059548Y004539D01*
X059548Y004697D02*
X048579Y004697D01*
X048421Y004856D02*
X059548Y004856D01*
X059548Y005332D02*
X021075Y005332D01*
X020916Y005490D02*
X059548Y005490D01*
X059548Y005649D02*
X019218Y005649D01*
X018784Y005649D02*
X014822Y005649D01*
X014859Y005807D02*
X059548Y005807D01*
X059548Y004063D02*
X055639Y004063D01*
X055668Y003905D02*
X059548Y003905D01*
X059548Y003746D02*
X055635Y003746D01*
X055519Y003588D02*
X059548Y003588D01*
X059548Y003112D02*
X042693Y003112D01*
X042575Y002953D02*
X059548Y002953D01*
X059548Y002795D02*
X055506Y002795D01*
X055487Y002813D02*
X055334Y002877D01*
X055168Y002877D01*
X055051Y002828D01*
X054934Y002877D01*
X054768Y002877D01*
X054651Y002828D01*
X054534Y002877D01*
X054368Y002877D01*
X054215Y002813D01*
X054097Y002696D01*
X054034Y002542D01*
X054034Y002376D01*
X054097Y002223D01*
X054215Y002106D01*
X054368Y002042D01*
X054534Y002042D01*
X054651Y002091D01*
X054768Y002042D01*
X054934Y002042D01*
X055051Y002091D01*
X055168Y002042D01*
X055334Y002042D01*
X055487Y002106D01*
X055605Y002223D01*
X055668Y002376D01*
X055668Y002542D01*
X055605Y002696D01*
X055487Y002813D01*
X055629Y002636D02*
X059548Y002636D01*
X059548Y002478D02*
X055668Y002478D01*
X055645Y002319D02*
X059548Y002319D01*
X059548Y002161D02*
X055542Y002161D01*
X054160Y002161D02*
X020050Y002161D01*
X020080Y002231D02*
X019989Y002013D01*
X019822Y001846D01*
X019604Y001755D01*
X019367Y001755D01*
X019149Y001846D01*
X018993Y002001D01*
X018838Y001846D01*
X018619Y001755D01*
X018383Y001755D01*
X018164Y001846D01*
X018009Y002001D01*
X017854Y001846D01*
X017635Y001755D01*
X017399Y001755D01*
X017180Y001846D01*
X017013Y002013D01*
X016923Y002231D01*
X016923Y002468D01*
X017013Y002686D01*
X017180Y002853D01*
X017399Y002944D01*
X017635Y002944D01*
X017854Y002853D01*
X018009Y002698D01*
X018164Y002853D01*
X018383Y002944D01*
X018619Y002944D01*
X018838Y002853D01*
X018993Y002698D01*
X019149Y002853D01*
X019367Y002944D01*
X019604Y002944D01*
X019822Y002853D01*
X019989Y002686D01*
X020080Y002468D01*
X020080Y002231D01*
X020080Y002319D02*
X054058Y002319D01*
X054034Y002478D02*
X020076Y002478D01*
X020010Y002636D02*
X021357Y002636D01*
X021479Y002514D02*
X021163Y002831D01*
X021163Y003278D01*
X021479Y003594D01*
X021927Y003594D01*
X022243Y003278D01*
X022243Y002831D01*
X021927Y002514D01*
X021479Y002514D01*
X021199Y002795D02*
X019881Y002795D01*
X019090Y002795D02*
X018896Y002795D01*
X018106Y002795D02*
X017912Y002795D01*
X017122Y002795D02*
X016172Y002795D01*
X016205Y002762D02*
X016104Y002863D01*
X015972Y002918D01*
X015830Y002918D01*
X015698Y002863D01*
X015598Y002762D01*
X015543Y002631D01*
X015543Y002488D01*
X015598Y002357D01*
X015698Y002256D01*
X015830Y002201D01*
X015972Y002201D01*
X016104Y002256D01*
X016205Y002357D01*
X016259Y002488D01*
X016259Y002631D01*
X016205Y002762D01*
X016257Y002636D02*
X016992Y002636D01*
X016927Y002478D02*
X016255Y002478D01*
X016167Y002319D02*
X016923Y002319D01*
X016952Y002161D02*
X016456Y002161D01*
X016454Y002163D02*
X016322Y002218D01*
X016180Y002218D01*
X016048Y002163D01*
X015948Y002062D01*
X015893Y001931D01*
X015893Y001788D01*
X015948Y001657D01*
X016048Y001556D01*
X016180Y001501D01*
X016322Y001501D01*
X016454Y001556D01*
X016555Y001657D01*
X016609Y001788D01*
X016609Y001931D01*
X016555Y002062D01*
X016454Y002163D01*
X016580Y002002D02*
X017024Y002002D01*
X017185Y001844D02*
X016609Y001844D01*
X016566Y001685D02*
X023536Y001685D01*
X023493Y001527D02*
X016383Y001527D01*
X016119Y001527D02*
X002941Y001527D01*
X002941Y001685D02*
X015936Y001685D01*
X015893Y001844D02*
X002941Y001844D01*
X002941Y002002D02*
X015923Y002002D01*
X016046Y002161D02*
X002941Y002161D01*
X002941Y002319D02*
X015635Y002319D01*
X015547Y002478D02*
X002941Y002478D01*
X002941Y002636D02*
X015545Y002636D01*
X015630Y002795D02*
X002941Y002795D01*
X002941Y002953D02*
X021163Y002953D01*
X021163Y003112D02*
X002941Y003112D01*
X002941Y003271D02*
X006000Y003271D01*
X006002Y003268D02*
X006155Y003205D01*
X006321Y003205D01*
X006474Y003268D01*
X006592Y003386D01*
X006655Y003539D01*
X006655Y003705D01*
X006592Y003858D01*
X006474Y003976D01*
X006321Y004039D01*
X006155Y004039D01*
X006002Y003976D01*
X005884Y003858D01*
X005821Y003705D01*
X005821Y003539D01*
X005884Y003386D01*
X006002Y003268D01*
X005866Y003429D02*
X002941Y003429D01*
X002941Y003588D02*
X005821Y003588D01*
X005838Y003746D02*
X002941Y003746D01*
X002941Y003905D02*
X005931Y003905D01*
X006545Y003905D02*
X007663Y003905D01*
X007617Y003858D02*
X007553Y003705D01*
X007553Y003539D01*
X007617Y003386D01*
X007734Y003268D01*
X007887Y003205D01*
X008053Y003205D01*
X008207Y003268D01*
X008324Y003386D01*
X008388Y003539D01*
X008388Y003705D01*
X008324Y003858D01*
X008207Y003976D01*
X008053Y004039D01*
X007887Y004039D01*
X007734Y003976D01*
X007617Y003858D01*
X007570Y003746D02*
X006638Y003746D01*
X006655Y003588D02*
X007553Y003588D01*
X007599Y003429D02*
X006610Y003429D01*
X006477Y003271D02*
X007732Y003271D01*
X008209Y003271D02*
X021163Y003271D01*
X021314Y003429D02*
X008342Y003429D01*
X008388Y003588D02*
X012016Y003588D01*
X011998Y003607D02*
X012098Y003506D01*
X012230Y003451D01*
X012372Y003451D01*
X012504Y003506D01*
X012605Y003607D01*
X012659Y003738D01*
X012659Y003881D01*
X012605Y004012D01*
X012504Y004113D01*
X012372Y004168D01*
X012230Y004168D01*
X012098Y004113D01*
X011998Y004012D01*
X011943Y003881D01*
X011943Y003738D01*
X011998Y003607D01*
X011943Y003746D02*
X008371Y003746D01*
X008278Y003905D02*
X011953Y003905D01*
X012048Y004063D02*
X002941Y004063D01*
X002941Y004222D02*
X043767Y004222D01*
X043774Y004380D02*
X002941Y004380D01*
X012554Y004063D02*
X024267Y004063D01*
X024245Y004054D02*
X024170Y004011D01*
X024101Y003958D01*
X024040Y003897D01*
X023988Y003829D01*
X023944Y003754D01*
X023911Y003674D01*
X023889Y003591D01*
X023878Y003510D01*
X024488Y003510D01*
X024488Y003414D01*
X023878Y003414D01*
X023889Y003333D01*
X023911Y003250D01*
X023944Y003170D01*
X023988Y003095D01*
X024040Y003027D01*
X024101Y002965D01*
X024170Y002913D01*
X024245Y002870D01*
X024324Y002837D01*
X024408Y002814D01*
X024489Y002804D01*
X024489Y003414D01*
X024584Y003414D01*
X024584Y002804D01*
X024665Y002814D01*
X024749Y002837D01*
X024829Y002870D01*
X024903Y002913D01*
X024972Y002965D01*
X025033Y003027D01*
X025085Y003095D01*
X025129Y003170D01*
X025162Y003250D01*
X025184Y003333D01*
X025195Y003414D01*
X024585Y003414D01*
X024585Y003510D01*
X025195Y003510D01*
X025184Y003591D01*
X025162Y003674D01*
X025129Y003754D01*
X025085Y003829D01*
X025033Y003897D01*
X024972Y003958D01*
X024903Y004011D01*
X024829Y004054D01*
X024749Y004087D01*
X024665Y004109D01*
X024584Y004120D01*
X024584Y003510D01*
X024489Y003510D01*
X024489Y004120D01*
X024408Y004109D01*
X024324Y004087D01*
X024245Y004054D01*
X024489Y004063D02*
X024584Y004063D01*
X024584Y003905D02*
X024489Y003905D01*
X024489Y003746D02*
X024584Y003746D01*
X024584Y003588D02*
X024489Y003588D01*
X024488Y003429D02*
X022092Y003429D01*
X022243Y003271D02*
X023906Y003271D01*
X023978Y003112D02*
X022243Y003112D01*
X022243Y002953D02*
X024117Y002953D01*
X024489Y002953D02*
X024584Y002953D01*
X024584Y003112D02*
X024489Y003112D01*
X024489Y003271D02*
X024584Y003271D01*
X024585Y003429D02*
X027547Y003429D01*
X027547Y003315D02*
X027659Y003043D01*
X027867Y002834D01*
X028139Y002722D01*
X028434Y002722D01*
X028706Y002834D01*
X028914Y003043D01*
X029026Y003315D01*
X029026Y003609D01*
X028914Y003881D01*
X028706Y004089D01*
X028434Y004202D01*
X028139Y004202D01*
X027867Y004089D01*
X027659Y003881D01*
X027547Y003609D01*
X027547Y003315D01*
X027565Y003271D02*
X025167Y003271D01*
X025095Y003112D02*
X027630Y003112D01*
X027748Y002953D02*
X024956Y002953D01*
X025184Y003588D02*
X027547Y003588D01*
X027603Y003746D02*
X025132Y003746D01*
X025025Y003905D02*
X027683Y003905D01*
X027841Y004063D02*
X024806Y004063D01*
X024048Y003905D02*
X012649Y003905D01*
X012659Y003746D02*
X023941Y003746D01*
X023889Y003588D02*
X021933Y003588D01*
X021473Y003588D02*
X012586Y003588D01*
X017848Y001844D02*
X018170Y001844D01*
X018833Y001844D02*
X019154Y001844D01*
X019817Y001844D02*
X023722Y001844D01*
X023980Y001844D02*
X059548Y001844D01*
X059548Y002002D02*
X019978Y002002D01*
X022049Y002636D02*
X054073Y002636D01*
X054197Y002795D02*
X042360Y002795D01*
X041713Y002795D02*
X041110Y002795D01*
X041325Y002953D02*
X041498Y002953D01*
X040463Y002795D02*
X034860Y002795D01*
X034956Y002834D02*
X035164Y003043D01*
X035276Y003315D01*
X035276Y003609D01*
X035164Y003881D01*
X034956Y004089D01*
X034684Y004202D01*
X034389Y004202D01*
X034117Y004089D01*
X033909Y003881D01*
X033797Y003609D01*
X033797Y003315D01*
X033909Y003043D01*
X034117Y002834D01*
X034389Y002722D01*
X034684Y002722D01*
X034956Y002834D01*
X035075Y002953D02*
X036617Y002953D01*
X036601Y002965D02*
X036670Y002913D01*
X036745Y002870D01*
X036824Y002837D01*
X036908Y002814D01*
X036989Y002804D01*
X036989Y003414D01*
X037084Y003414D01*
X037084Y002804D01*
X037165Y002814D01*
X037249Y002837D01*
X037329Y002870D01*
X037403Y002913D01*
X037472Y002965D01*
X037533Y003027D01*
X037585Y003095D01*
X037629Y003170D01*
X037662Y003250D01*
X037684Y003333D01*
X037695Y003414D01*
X037085Y003414D01*
X037085Y003510D01*
X037695Y003510D01*
X037684Y003591D01*
X037662Y003674D01*
X037629Y003754D01*
X037585Y003829D01*
X037533Y003897D01*
X037472Y003958D01*
X037403Y004011D01*
X037329Y004054D01*
X037249Y004087D01*
X037165Y004109D01*
X037084Y004120D01*
X037084Y003510D01*
X036989Y003510D01*
X036989Y004120D01*
X036908Y004109D01*
X036824Y004087D01*
X036745Y004054D01*
X036670Y004011D01*
X036601Y003958D01*
X036540Y003897D01*
X036488Y003829D01*
X036444Y003754D01*
X036411Y003674D01*
X036389Y003591D01*
X036378Y003510D01*
X036988Y003510D01*
X036988Y003414D01*
X036378Y003414D01*
X036389Y003333D01*
X036411Y003250D01*
X036444Y003170D01*
X036488Y003095D01*
X036540Y003027D01*
X036601Y002965D01*
X036478Y003112D02*
X035193Y003112D01*
X035258Y003271D02*
X036406Y003271D01*
X036389Y003588D02*
X035276Y003588D01*
X035276Y003429D02*
X036988Y003429D01*
X037085Y003429D02*
X040047Y003429D01*
X040047Y003588D02*
X037684Y003588D01*
X037632Y003746D02*
X040103Y003746D01*
X040183Y003905D02*
X037525Y003905D01*
X037306Y004063D02*
X040341Y004063D01*
X041232Y004063D02*
X041591Y004063D01*
X041433Y003905D02*
X041390Y003905D01*
X042482Y004063D02*
X043767Y004063D01*
X043820Y003905D02*
X042640Y003905D01*
X042720Y003746D02*
X043886Y003746D01*
X044033Y003588D02*
X042776Y003588D01*
X040248Y002953D02*
X037456Y002953D01*
X037595Y003112D02*
X040130Y003112D01*
X040065Y003271D02*
X037667Y003271D01*
X037084Y003271D02*
X036989Y003271D01*
X036989Y003112D02*
X037084Y003112D01*
X037084Y002953D02*
X036989Y002953D01*
X036989Y003588D02*
X037084Y003588D01*
X037084Y003746D02*
X036989Y003746D01*
X036989Y003905D02*
X037084Y003905D01*
X037084Y004063D02*
X036989Y004063D01*
X036767Y004063D02*
X034982Y004063D01*
X035140Y003905D02*
X036548Y003905D01*
X036441Y003746D02*
X035220Y003746D01*
X034091Y004063D02*
X031056Y004063D01*
X031079Y004054D02*
X030999Y004087D01*
X030915Y004109D01*
X030834Y004120D01*
X030834Y003510D01*
X030739Y003510D01*
X030739Y004120D01*
X030658Y004109D01*
X030574Y004087D01*
X030495Y004054D01*
X030420Y004011D01*
X030351Y003958D01*
X030290Y003897D01*
X030238Y003829D01*
X030194Y003754D01*
X030161Y003674D01*
X030139Y003591D01*
X030128Y003510D01*
X030738Y003510D01*
X030738Y003414D01*
X030128Y003414D01*
X030139Y003333D01*
X030161Y003250D01*
X030194Y003170D01*
X030238Y003095D01*
X030290Y003027D01*
X030351Y002965D01*
X030420Y002913D01*
X030495Y002870D01*
X030574Y002837D01*
X030658Y002814D01*
X030739Y002804D01*
X030739Y003414D01*
X030834Y003414D01*
X030834Y002804D01*
X030915Y002814D01*
X030999Y002837D01*
X031079Y002870D01*
X031153Y002913D01*
X031222Y002965D01*
X031283Y003027D01*
X031335Y003095D01*
X031379Y003170D01*
X031412Y003250D01*
X031434Y003333D01*
X031445Y003414D01*
X030835Y003414D01*
X030835Y003510D01*
X031445Y003510D01*
X031434Y003591D01*
X031412Y003674D01*
X031379Y003754D01*
X031335Y003829D01*
X031283Y003897D01*
X031222Y003958D01*
X031153Y004011D01*
X031079Y004054D01*
X030834Y004063D02*
X030739Y004063D01*
X030739Y003905D02*
X030834Y003905D01*
X030834Y003746D02*
X030739Y003746D01*
X030739Y003588D02*
X030834Y003588D01*
X030835Y003429D02*
X033797Y003429D01*
X033797Y003588D02*
X031434Y003588D01*
X031382Y003746D02*
X033853Y003746D01*
X033933Y003905D02*
X031275Y003905D01*
X031417Y003271D02*
X033815Y003271D01*
X033880Y003112D02*
X031345Y003112D01*
X031206Y002953D02*
X033998Y002953D01*
X034213Y002795D02*
X028610Y002795D01*
X028825Y002953D02*
X030367Y002953D01*
X030228Y003112D02*
X028943Y003112D01*
X029008Y003271D02*
X030156Y003271D01*
X030139Y003588D02*
X029026Y003588D01*
X029026Y003429D02*
X030738Y003429D01*
X030739Y003271D02*
X030834Y003271D01*
X030834Y003112D02*
X030739Y003112D01*
X030739Y002953D02*
X030834Y002953D01*
X030191Y003746D02*
X028970Y003746D01*
X028890Y003905D02*
X030298Y003905D01*
X030517Y004063D02*
X028732Y004063D01*
X027963Y002795D02*
X022207Y002795D01*
X024166Y001685D02*
X059548Y001685D01*
X059548Y001527D02*
X024209Y001527D01*
X022007Y007710D02*
X044005Y007710D01*
X044248Y007868D02*
X022162Y007868D01*
X022162Y008027D02*
X044230Y008027D01*
X044022Y008185D02*
X022162Y008185D01*
X022062Y008344D02*
X022858Y008344D01*
X022699Y008502D02*
X021904Y008502D01*
X023715Y008344D02*
X043907Y008344D01*
X043841Y008502D02*
X023874Y008502D01*
X023963Y008661D02*
X044517Y008661D01*
X043815Y008820D02*
X024026Y008820D01*
X024026Y008978D02*
X043849Y008978D01*
X043924Y009137D02*
X024015Y009137D01*
X023949Y009295D02*
X044052Y009295D01*
X046331Y008661D02*
X047824Y008661D01*
X048653Y008978D02*
X059548Y008978D01*
X059548Y008820D02*
X048688Y008820D01*
X048578Y009137D02*
X059548Y009137D01*
X059548Y009295D02*
X048450Y009295D01*
X048207Y009454D02*
X059548Y009454D01*
X059548Y011515D02*
X045498Y011515D01*
X045715Y011673D02*
X059548Y011673D01*
X059548Y011832D02*
X045778Y011832D01*
X045778Y011990D02*
X059548Y011990D01*
X054185Y016747D02*
X047511Y016747D01*
X047633Y016905D02*
X054062Y016905D01*
X054033Y017064D02*
X047663Y017064D01*
X047620Y017222D02*
X054076Y017222D01*
X051828Y018126D02*
X051765Y017973D01*
X051647Y017856D01*
X051494Y017792D01*
X051328Y017792D01*
X051175Y017856D01*
X051057Y017973D01*
X050994Y018126D01*
X050994Y018292D01*
X051024Y018365D01*
X050890Y018365D01*
X050758Y018419D01*
X050657Y018520D01*
X050638Y018567D01*
X050632Y018565D01*
X050490Y018565D01*
X050358Y018619D01*
X050257Y018720D01*
X050203Y018852D01*
X050203Y018994D01*
X050257Y019126D01*
X050358Y019226D01*
X050490Y019281D01*
X050632Y019281D01*
X050764Y019226D01*
X050864Y019126D01*
X050884Y019079D01*
X050890Y019081D01*
X051032Y019081D01*
X051164Y019026D01*
X051264Y018926D01*
X051319Y018794D01*
X051319Y018652D01*
X051305Y018617D01*
X051328Y018627D01*
X051494Y018627D01*
X051647Y018563D01*
X051765Y018446D01*
X051828Y018292D01*
X051828Y018126D01*
X051828Y018174D02*
X059548Y018174D01*
X059548Y018332D02*
X051812Y018332D01*
X051720Y018491D02*
X054133Y018491D01*
X054104Y018520D02*
X054205Y018419D01*
X054336Y018365D01*
X054479Y018365D01*
X054610Y018419D01*
X054711Y018520D01*
X054730Y018567D01*
X054736Y018565D01*
X054879Y018565D01*
X055010Y018619D01*
X055111Y018720D01*
X055165Y018852D01*
X055165Y018994D01*
X055111Y019126D01*
X055010Y019226D01*
X054879Y019281D01*
X054736Y019281D01*
X054605Y019226D01*
X054504Y019126D01*
X054484Y019079D01*
X054479Y019081D01*
X054336Y019081D01*
X054205Y019026D01*
X054104Y018926D01*
X054049Y018794D01*
X054049Y018652D01*
X054104Y018520D01*
X054050Y018649D02*
X051318Y018649D01*
X051313Y018808D02*
X054055Y018808D01*
X054144Y018966D02*
X051224Y018966D01*
X050865Y019125D02*
X054504Y019125D01*
X054365Y019283D02*
X059548Y019283D01*
X059548Y019125D02*
X055111Y019125D01*
X055165Y018966D02*
X059548Y018966D01*
X059548Y018808D02*
X055147Y018808D01*
X055040Y018649D02*
X059548Y018649D01*
X059548Y018491D02*
X054682Y018491D01*
X054337Y019256D02*
X054455Y019373D01*
X054518Y019526D01*
X054518Y019692D01*
X054455Y019846D01*
X054337Y019963D01*
X054184Y020027D01*
X054018Y020027D01*
X053865Y019963D01*
X053747Y019846D01*
X053684Y019692D01*
X053684Y019526D01*
X053747Y019373D01*
X053865Y019256D01*
X054018Y019192D01*
X054184Y019192D01*
X054337Y019256D01*
X054483Y019442D02*
X058338Y019442D01*
X058381Y019399D02*
X058534Y019336D01*
X058700Y019336D01*
X058854Y019399D01*
X058971Y019516D01*
X059035Y019670D01*
X059035Y019836D01*
X058971Y019989D01*
X058854Y020106D01*
X058700Y020170D01*
X058534Y020170D01*
X058381Y020106D01*
X058264Y019989D01*
X058200Y019836D01*
X058200Y019670D01*
X058264Y019516D01*
X058381Y019399D01*
X058229Y019600D02*
X054518Y019600D01*
X054491Y019759D02*
X058200Y019759D01*
X058234Y019918D02*
X054383Y019918D01*
X054531Y020149D02*
X054684Y020086D01*
X054850Y020086D01*
X055004Y020149D01*
X055121Y020266D01*
X055185Y020420D01*
X055185Y020586D01*
X055121Y020739D01*
X055004Y020856D01*
X054850Y020920D01*
X054684Y020920D01*
X054531Y020856D01*
X054414Y020739D01*
X054350Y020586D01*
X054350Y020420D01*
X054414Y020266D01*
X054531Y020149D01*
X054446Y020235D02*
X048003Y020235D01*
X048034Y020266D02*
X048098Y020420D01*
X048098Y020586D01*
X048034Y020739D01*
X047917Y020856D01*
X047764Y020920D01*
X047598Y020920D01*
X047444Y020856D01*
X047327Y020739D01*
X047264Y020586D01*
X047264Y020420D01*
X047327Y020266D01*
X047444Y020149D01*
X047598Y020086D01*
X047764Y020086D01*
X047917Y020149D01*
X048034Y020266D01*
X048087Y020393D02*
X054361Y020393D01*
X054350Y020552D02*
X048098Y020552D01*
X048046Y020710D02*
X054402Y020710D01*
X054561Y020869D02*
X053602Y020869D01*
X053465Y020812D02*
X053784Y020944D01*
X054029Y021189D01*
X054162Y021509D01*
X054162Y021855D01*
X054029Y022175D01*
X053784Y022419D01*
X053465Y022552D01*
X053119Y022552D01*
X052799Y022419D01*
X052554Y022175D01*
X052422Y021855D01*
X052422Y021509D01*
X052554Y021189D01*
X052799Y020944D01*
X053119Y020812D01*
X053465Y020812D01*
X053867Y021027D02*
X054433Y021027D01*
X054465Y020996D02*
X054618Y020932D01*
X054784Y020932D01*
X054937Y020996D01*
X055055Y021113D01*
X055118Y021266D01*
X055118Y021432D01*
X055055Y021586D01*
X054937Y021703D01*
X054784Y021767D01*
X054618Y021767D01*
X054465Y021703D01*
X054347Y021586D01*
X054284Y021432D01*
X054284Y021266D01*
X054347Y021113D01*
X054465Y020996D01*
X054317Y021186D02*
X054026Y021186D01*
X054093Y021344D02*
X054284Y021344D01*
X054313Y021503D02*
X054159Y021503D01*
X054162Y021662D02*
X054423Y021662D01*
X054162Y021820D02*
X059548Y021820D01*
X059548Y021662D02*
X054979Y021662D01*
X055089Y021503D02*
X057005Y021503D01*
X057025Y021523D02*
X056907Y021406D01*
X056844Y021252D01*
X056844Y021086D01*
X056907Y020933D01*
X057025Y020816D01*
X057178Y020752D01*
X057344Y020752D01*
X057497Y020816D01*
X057615Y020933D01*
X057678Y021086D01*
X057678Y021252D01*
X057615Y021406D01*
X057497Y021523D01*
X057344Y021587D01*
X057178Y021587D01*
X057025Y021523D01*
X056882Y021344D02*
X055118Y021344D01*
X055085Y021186D02*
X056844Y021186D01*
X056868Y021027D02*
X054969Y021027D01*
X054974Y020869D02*
X056479Y020869D01*
X056465Y020863D02*
X056347Y020746D01*
X056284Y020592D01*
X056284Y020426D01*
X056347Y020273D01*
X056465Y020156D01*
X056618Y020092D01*
X056784Y020092D01*
X056937Y020156D01*
X057055Y020273D01*
X057118Y020426D01*
X057118Y020592D01*
X057055Y020746D01*
X056937Y020863D01*
X056784Y020927D01*
X056618Y020927D01*
X056465Y020863D01*
X056333Y020710D02*
X055133Y020710D01*
X055185Y020552D02*
X056284Y020552D01*
X056298Y020393D02*
X055173Y020393D01*
X055089Y020235D02*
X056386Y020235D01*
X057016Y020235D02*
X059548Y020235D01*
X059548Y020393D02*
X057104Y020393D01*
X057118Y020552D02*
X059548Y020552D01*
X059548Y020710D02*
X057069Y020710D01*
X056972Y020869D02*
X056924Y020869D01*
X057550Y020869D02*
X059548Y020869D01*
X059548Y021027D02*
X057654Y021027D01*
X057678Y021186D02*
X059548Y021186D01*
X059548Y021344D02*
X057640Y021344D01*
X057517Y021503D02*
X059548Y021503D01*
X059548Y021979D02*
X054110Y021979D01*
X054045Y022137D02*
X059548Y022137D01*
X059548Y022296D02*
X058924Y022296D01*
X058971Y022343D02*
X059035Y022496D01*
X059035Y022662D01*
X058971Y022816D01*
X058854Y022933D01*
X058700Y022997D01*
X058534Y022997D01*
X058381Y022933D01*
X058264Y022816D01*
X058200Y022662D01*
X058200Y022496D01*
X058264Y022343D01*
X058381Y022226D01*
X058534Y022162D01*
X058700Y022162D01*
X058854Y022226D01*
X058971Y022343D01*
X059017Y022454D02*
X059548Y022454D01*
X059548Y022613D02*
X059035Y022613D01*
X058989Y022771D02*
X059548Y022771D01*
X059548Y022930D02*
X058857Y022930D01*
X058378Y022930D02*
X056250Y022930D01*
X056219Y022961D02*
X056087Y023016D01*
X055945Y023016D01*
X055813Y022961D01*
X055769Y022917D01*
X055650Y022917D01*
X055518Y022863D01*
X055417Y022762D01*
X055363Y022630D01*
X055363Y022488D01*
X055417Y022356D01*
X055518Y022255D01*
X055650Y022201D01*
X055792Y022201D01*
X055924Y022255D01*
X055967Y022299D01*
X056087Y022299D01*
X056219Y022354D01*
X056320Y022455D01*
X056374Y022586D01*
X056374Y022729D01*
X056320Y022860D01*
X056219Y022961D01*
X056356Y022771D02*
X058245Y022771D01*
X058200Y022613D02*
X056374Y022613D01*
X056319Y022454D02*
X058218Y022454D01*
X058311Y022296D02*
X055964Y022296D01*
X055478Y022296D02*
X053908Y022296D01*
X053700Y022454D02*
X055377Y022454D01*
X055363Y022613D02*
X051948Y022613D01*
X051948Y022662D02*
X051884Y022816D01*
X051767Y022933D01*
X051614Y022997D01*
X051448Y022997D01*
X051294Y022933D01*
X051177Y022816D01*
X051114Y022662D01*
X051114Y022496D01*
X051177Y022343D01*
X051294Y022226D01*
X051448Y022162D01*
X051614Y022162D01*
X051767Y022226D01*
X051884Y022343D01*
X051948Y022496D01*
X051948Y022662D01*
X051903Y022771D02*
X055427Y022771D01*
X055782Y022930D02*
X051770Y022930D01*
X051291Y022930D02*
X049163Y022930D01*
X049132Y022961D02*
X049001Y023016D01*
X048858Y023016D01*
X048727Y022961D01*
X048683Y022917D01*
X048563Y022917D01*
X048431Y022863D01*
X048331Y022762D01*
X048276Y022630D01*
X048276Y022488D01*
X048331Y022356D01*
X048431Y022255D01*
X048563Y022201D01*
X048705Y022201D01*
X048837Y022255D01*
X048881Y022299D01*
X049001Y022299D01*
X049132Y022354D01*
X049233Y022455D01*
X049288Y022586D01*
X049288Y022729D01*
X049233Y022860D01*
X049132Y022961D01*
X049270Y022771D02*
X051159Y022771D01*
X051114Y022613D02*
X049288Y022613D01*
X049233Y022454D02*
X051131Y022454D01*
X051225Y022296D02*
X048877Y022296D01*
X048391Y022296D02*
X044750Y022296D01*
X044798Y022343D02*
X044861Y022496D01*
X044861Y022662D01*
X044798Y022816D01*
X044680Y022933D01*
X044527Y022997D01*
X044361Y022997D01*
X044208Y022933D01*
X044091Y022816D01*
X044027Y022662D01*
X044027Y022496D01*
X044091Y022343D01*
X044208Y022226D01*
X044361Y022162D01*
X044527Y022162D01*
X044680Y022226D01*
X044798Y022343D01*
X044844Y022454D02*
X048290Y022454D01*
X048276Y022613D02*
X044861Y022613D01*
X044816Y022771D02*
X048340Y022771D01*
X048695Y022930D02*
X044684Y022930D01*
X044205Y022930D02*
X042077Y022930D01*
X042046Y022961D02*
X042146Y022860D01*
X042201Y022729D01*
X042201Y022586D01*
X042146Y022455D01*
X042046Y022354D01*
X041914Y022299D01*
X041794Y022299D01*
X041750Y022255D01*
X041619Y022201D01*
X041476Y022201D01*
X041345Y022255D01*
X041244Y022356D01*
X041189Y022488D01*
X041189Y022630D01*
X041244Y022762D01*
X041345Y022863D01*
X041476Y022917D01*
X041596Y022917D01*
X041640Y022961D01*
X041772Y023016D01*
X041914Y023016D01*
X042046Y022961D01*
X042183Y022771D02*
X044072Y022771D01*
X044027Y022613D02*
X042201Y022613D01*
X042146Y022454D02*
X044044Y022454D01*
X044138Y022296D02*
X041791Y022296D01*
X041304Y022296D02*
X039735Y022296D01*
X039856Y022175D02*
X039611Y022419D01*
X039291Y022552D01*
X038945Y022552D01*
X038626Y022419D01*
X038381Y022175D01*
X038249Y021855D01*
X038249Y021509D01*
X038381Y021189D01*
X038626Y020944D01*
X038945Y020812D01*
X039291Y020812D01*
X039611Y020944D01*
X039856Y021189D01*
X039988Y021509D01*
X039988Y021855D01*
X039856Y022175D01*
X039871Y022137D02*
X052539Y022137D01*
X052473Y021979D02*
X039937Y021979D01*
X039988Y021820D02*
X052422Y021820D01*
X052422Y021662D02*
X047889Y021662D01*
X047847Y021703D02*
X047694Y021767D01*
X047528Y021767D01*
X047375Y021703D01*
X047257Y021586D01*
X047194Y021432D01*
X047194Y021266D01*
X047257Y021113D01*
X047375Y020996D01*
X047528Y020932D01*
X047694Y020932D01*
X047847Y020996D01*
X047965Y021113D01*
X048028Y021266D01*
X048028Y021432D01*
X047965Y021586D01*
X047847Y021703D01*
X047999Y021503D02*
X049975Y021503D01*
X049985Y021513D02*
X049867Y021396D01*
X049804Y021242D01*
X049804Y021076D01*
X049867Y020923D01*
X049985Y020806D01*
X050138Y020742D01*
X050304Y020742D01*
X050457Y020806D01*
X050575Y020923D01*
X050638Y021076D01*
X050638Y021242D01*
X050575Y021396D01*
X050457Y021513D01*
X050304Y021577D01*
X050138Y021577D01*
X049985Y021513D01*
X049846Y021344D02*
X048028Y021344D01*
X047995Y021186D02*
X049804Y021186D01*
X049824Y021027D02*
X047879Y021027D01*
X047887Y020869D02*
X049922Y020869D01*
X050520Y020869D02*
X052981Y020869D01*
X052716Y021027D02*
X050618Y021027D01*
X050638Y021186D02*
X052557Y021186D01*
X052490Y021344D02*
X050596Y021344D01*
X050467Y021503D02*
X052424Y021503D01*
X052675Y022296D02*
X051837Y022296D01*
X051930Y022454D02*
X052883Y022454D01*
X054138Y023881D02*
X047558Y023881D01*
X047608Y023931D02*
X047663Y024063D01*
X047663Y024205D01*
X047608Y024337D01*
X047507Y024437D01*
X047376Y024492D01*
X047233Y024492D01*
X047102Y024437D01*
X047001Y024337D01*
X046947Y024205D01*
X046947Y024063D01*
X047001Y023931D01*
X047102Y023830D01*
X047233Y023776D01*
X047376Y023776D01*
X047507Y023830D01*
X047608Y023931D01*
X047653Y024040D02*
X054043Y024040D01*
X054033Y024198D02*
X047663Y024198D01*
X047588Y024357D02*
X054108Y024357D01*
X054336Y025451D02*
X054479Y025451D01*
X054610Y025506D01*
X054711Y025607D01*
X054730Y025654D01*
X054736Y025651D01*
X054879Y025651D01*
X055010Y025706D01*
X055111Y025807D01*
X055165Y025938D01*
X055165Y026081D01*
X055111Y026212D01*
X055010Y026313D01*
X054879Y026368D01*
X054736Y026368D01*
X054605Y026313D01*
X054504Y026212D01*
X054484Y026165D01*
X054479Y026168D01*
X054336Y026168D01*
X054205Y026113D01*
X054104Y026012D01*
X054049Y025881D01*
X054049Y025738D01*
X054104Y025607D01*
X054205Y025506D01*
X054336Y025451D01*
X054299Y025467D02*
X051767Y025467D01*
X051755Y025496D02*
X051637Y025613D01*
X051484Y025677D01*
X051318Y025677D01*
X051272Y025658D01*
X051306Y025738D01*
X051306Y025881D01*
X051251Y026012D01*
X051150Y026113D01*
X051019Y026168D01*
X050876Y026168D01*
X050871Y026165D01*
X050851Y026212D01*
X050750Y026313D01*
X050619Y026368D01*
X050476Y026368D01*
X050345Y026313D01*
X050244Y026212D01*
X050189Y026081D01*
X050189Y025938D01*
X050244Y025807D01*
X050345Y025706D01*
X050476Y025651D01*
X050619Y025651D01*
X050624Y025654D01*
X050644Y025607D01*
X050745Y025506D01*
X050876Y025451D01*
X051019Y025451D01*
X051031Y025457D01*
X050984Y025342D01*
X050984Y025176D01*
X051047Y025023D01*
X051165Y024906D01*
X051318Y024842D01*
X051484Y024842D01*
X051637Y024906D01*
X051755Y025023D01*
X051818Y025176D01*
X051818Y025342D01*
X051755Y025496D01*
X051608Y025625D02*
X054096Y025625D01*
X054049Y025784D02*
X051306Y025784D01*
X051280Y025942D02*
X054075Y025942D01*
X054192Y026101D02*
X051163Y026101D01*
X050804Y026259D02*
X054551Y026259D01*
X055064Y026259D02*
X059548Y026259D01*
X059548Y026101D02*
X055157Y026101D01*
X055165Y025942D02*
X059548Y025942D01*
X059548Y025784D02*
X055088Y025784D01*
X054719Y025625D02*
X059548Y025625D01*
X059548Y025467D02*
X054515Y025467D01*
X053687Y026356D02*
X053805Y026473D01*
X053868Y026626D01*
X053868Y026792D01*
X053805Y026946D01*
X053687Y027063D01*
X053534Y027127D01*
X053368Y027127D01*
X053215Y027063D01*
X053097Y026946D01*
X053034Y026792D01*
X053034Y026626D01*
X053097Y026473D01*
X053215Y026356D01*
X053368Y026292D01*
X053534Y026292D01*
X053687Y026356D01*
X053749Y026418D02*
X059548Y026418D01*
X059548Y026576D02*
X058944Y026576D01*
X058971Y026603D02*
X059035Y026756D01*
X059035Y026922D01*
X058971Y027076D01*
X058854Y027193D01*
X058700Y027257D01*
X058534Y027257D01*
X058381Y027193D01*
X058264Y027076D01*
X058200Y026922D01*
X058200Y026756D01*
X058264Y026603D01*
X058381Y026486D01*
X058534Y026422D01*
X058700Y026422D01*
X058854Y026486D01*
X058971Y026603D01*
X059026Y026735D02*
X059548Y026735D01*
X059548Y026893D02*
X059035Y026893D01*
X058981Y027052D02*
X059548Y027052D01*
X059548Y027211D02*
X058811Y027211D01*
X058423Y027211D02*
X054943Y027211D01*
X055004Y027236D02*
X055121Y027353D01*
X055185Y027506D01*
X055185Y027672D01*
X055121Y027826D01*
X055004Y027943D01*
X054850Y028007D01*
X054684Y028007D01*
X054531Y027943D01*
X054414Y027826D01*
X054350Y027672D01*
X054350Y027506D01*
X054414Y027353D01*
X054531Y027236D01*
X054684Y027172D01*
X054850Y027172D01*
X055004Y027236D01*
X055128Y027369D02*
X059548Y027369D01*
X059548Y027528D02*
X055185Y027528D01*
X055179Y027686D02*
X059548Y027686D01*
X059548Y027845D02*
X057576Y027845D01*
X057688Y028003D02*
X059548Y028003D01*
X059548Y028162D02*
X057718Y028162D01*
X057686Y028320D02*
X059548Y028320D01*
X059548Y028479D02*
X057572Y028479D01*
X057031Y028479D02*
X053649Y028479D01*
X053687Y028463D02*
X053534Y028527D01*
X053368Y028527D01*
X053215Y028463D01*
X053097Y028346D01*
X053034Y028192D01*
X053034Y028026D01*
X053097Y027873D01*
X053215Y027756D01*
X053368Y027692D01*
X053534Y027692D01*
X053687Y027756D01*
X053805Y027873D01*
X053868Y028026D01*
X053868Y028192D01*
X053805Y028346D01*
X053687Y028463D01*
X053815Y028320D02*
X056916Y028320D01*
X056884Y028162D02*
X053868Y028162D01*
X053859Y028003D02*
X054676Y028003D01*
X054858Y028003D02*
X056914Y028003D01*
X057026Y027845D02*
X055102Y027845D01*
X054433Y027845D02*
X053776Y027845D01*
X054356Y027686D02*
X048092Y027686D01*
X048098Y027672D02*
X048034Y027826D01*
X047917Y027943D01*
X047764Y028007D01*
X047598Y028007D01*
X047444Y027943D01*
X047327Y027826D01*
X047264Y027672D01*
X047264Y027506D01*
X047327Y027353D01*
X047444Y027236D01*
X047598Y027172D01*
X047764Y027172D01*
X047917Y027236D01*
X048034Y027353D01*
X048098Y027506D01*
X048098Y027672D01*
X048098Y027528D02*
X054350Y027528D01*
X054407Y027369D02*
X048041Y027369D01*
X047856Y027211D02*
X051337Y027211D01*
X051294Y027193D02*
X051177Y027076D01*
X051114Y026922D01*
X051114Y026756D01*
X051177Y026603D01*
X051294Y026486D01*
X051448Y026422D01*
X051614Y026422D01*
X051767Y026486D01*
X051884Y026603D01*
X051948Y026756D01*
X051948Y026922D01*
X051884Y027076D01*
X051767Y027193D01*
X051614Y027257D01*
X051448Y027257D01*
X051294Y027193D01*
X051167Y027052D02*
X046648Y027052D01*
X046637Y027063D02*
X046484Y027127D01*
X046318Y027127D01*
X046165Y027063D01*
X046047Y026946D01*
X045984Y026792D01*
X045984Y026626D01*
X046047Y026473D01*
X046165Y026356D01*
X046318Y026292D01*
X046484Y026292D01*
X046637Y026356D01*
X046755Y026473D01*
X046818Y026626D01*
X046818Y026792D01*
X046755Y026946D01*
X046637Y027063D01*
X046776Y026893D02*
X051114Y026893D01*
X051123Y026735D02*
X046818Y026735D01*
X046797Y026576D02*
X051204Y026576D01*
X051858Y026576D02*
X053055Y026576D01*
X053034Y026735D02*
X051939Y026735D01*
X051948Y026893D02*
X053076Y026893D01*
X053204Y027052D02*
X051894Y027052D01*
X051725Y027211D02*
X054592Y027211D01*
X053826Y026893D02*
X058200Y026893D01*
X058209Y026735D02*
X053868Y026735D01*
X053847Y026576D02*
X058290Y026576D01*
X058254Y027052D02*
X053698Y027052D01*
X053126Y027845D02*
X050476Y027845D01*
X050588Y028003D02*
X053044Y028003D01*
X053034Y028162D02*
X050618Y028162D01*
X050586Y028320D02*
X053087Y028320D01*
X053253Y028479D02*
X050472Y028479D01*
X049931Y028479D02*
X046599Y028479D01*
X046637Y028463D02*
X046484Y028527D01*
X046318Y028527D01*
X046165Y028463D01*
X046047Y028346D01*
X045984Y028192D01*
X045984Y028026D01*
X046047Y027873D01*
X046165Y027756D01*
X046318Y027692D01*
X046484Y027692D01*
X046637Y027756D01*
X046755Y027873D01*
X046818Y028026D01*
X046818Y028192D01*
X046755Y028346D01*
X046637Y028463D01*
X046765Y028320D02*
X049816Y028320D01*
X049784Y028162D02*
X046818Y028162D01*
X046809Y028003D02*
X047590Y028003D01*
X047772Y028003D02*
X049814Y028003D01*
X049926Y027845D02*
X048015Y027845D01*
X047346Y027845D02*
X046726Y027845D01*
X047269Y027686D02*
X041006Y027686D01*
X041011Y027672D02*
X040948Y027826D01*
X040830Y027943D01*
X040677Y028007D01*
X040511Y028007D01*
X040358Y027943D01*
X040241Y027826D01*
X040177Y027672D01*
X040177Y027506D01*
X040241Y027353D01*
X040358Y027236D01*
X040511Y027172D01*
X040677Y027172D01*
X040830Y027236D01*
X040948Y027353D01*
X041011Y027506D01*
X041011Y027672D01*
X041011Y027528D02*
X047264Y027528D01*
X047320Y027369D02*
X040954Y027369D01*
X040770Y027211D02*
X044250Y027211D01*
X044208Y027193D02*
X044091Y027076D01*
X044027Y026922D01*
X044027Y026756D01*
X044091Y026603D01*
X044208Y026486D01*
X044361Y026422D01*
X044527Y026422D01*
X044680Y026486D01*
X044798Y026603D01*
X044861Y026756D01*
X044861Y026922D01*
X044798Y027076D01*
X044680Y027193D01*
X044527Y027257D01*
X044361Y027257D01*
X044208Y027193D01*
X044081Y027052D02*
X039548Y027052D01*
X039537Y027063D02*
X039384Y027127D01*
X039218Y027127D01*
X039065Y027063D01*
X038947Y026946D01*
X038884Y026792D01*
X038884Y026626D01*
X038947Y026473D01*
X039065Y026356D01*
X039218Y026292D01*
X039384Y026292D01*
X039537Y026356D01*
X039655Y026473D01*
X039718Y026626D01*
X039718Y026792D01*
X039655Y026946D01*
X039537Y027063D01*
X039676Y026893D02*
X044027Y026893D01*
X044036Y026735D02*
X039718Y026735D01*
X039697Y026576D02*
X044117Y026576D01*
X043932Y026168D02*
X043790Y026168D01*
X043784Y026165D01*
X043764Y026212D01*
X043664Y026313D01*
X043532Y026368D01*
X043390Y026368D01*
X043258Y026313D01*
X043157Y026212D01*
X043103Y026081D01*
X043103Y025938D01*
X043157Y025807D01*
X043258Y025706D01*
X043390Y025651D01*
X043532Y025651D01*
X043538Y025654D01*
X043557Y025607D01*
X043658Y025506D01*
X043790Y025451D01*
X043929Y025451D01*
X043884Y025342D01*
X043884Y025176D01*
X043947Y025023D01*
X044065Y024906D01*
X044218Y024842D01*
X044384Y024842D01*
X044537Y024906D01*
X044655Y025023D01*
X044718Y025176D01*
X044718Y025342D01*
X044655Y025496D01*
X044537Y025613D01*
X044384Y025677D01*
X044218Y025677D01*
X044188Y025664D01*
X044219Y025738D01*
X044219Y025881D01*
X044164Y026012D01*
X044064Y026113D01*
X043932Y026168D01*
X044076Y026101D02*
X047106Y026101D01*
X047118Y026113D02*
X047017Y026012D01*
X046963Y025881D01*
X046963Y025738D01*
X047017Y025607D01*
X047118Y025506D01*
X047250Y025451D01*
X047392Y025451D01*
X047524Y025506D01*
X047624Y025607D01*
X047644Y025654D01*
X047650Y025651D01*
X047792Y025651D01*
X047924Y025706D01*
X048024Y025807D01*
X048079Y025938D01*
X048079Y026081D01*
X048024Y026212D01*
X047924Y026313D01*
X047792Y026368D01*
X047650Y026368D01*
X047518Y026313D01*
X047417Y026212D01*
X047398Y026165D01*
X047392Y026168D01*
X047250Y026168D01*
X047118Y026113D01*
X046988Y025942D02*
X044194Y025942D01*
X044219Y025784D02*
X046963Y025784D01*
X047009Y025625D02*
X044508Y025625D01*
X044667Y025467D02*
X047213Y025467D01*
X047429Y025467D02*
X050839Y025467D01*
X050984Y025308D02*
X044718Y025308D01*
X044707Y025149D02*
X050995Y025149D01*
X051080Y024991D02*
X044623Y024991D01*
X043980Y024991D02*
X037573Y024991D01*
X037605Y025023D02*
X037487Y024906D01*
X037334Y024842D01*
X037168Y024842D01*
X037015Y024906D01*
X036897Y025023D01*
X036834Y025176D01*
X036834Y025342D01*
X036880Y025455D01*
X036872Y025451D01*
X036730Y025451D01*
X036598Y025506D01*
X036498Y025607D01*
X036478Y025654D01*
X036472Y025651D01*
X036330Y025651D01*
X036198Y025706D01*
X036098Y025807D01*
X036043Y025938D01*
X036043Y026081D01*
X036098Y026212D01*
X036198Y026313D01*
X036330Y026368D01*
X036472Y026368D01*
X036604Y026313D01*
X036705Y026212D01*
X036724Y026165D01*
X036730Y026168D01*
X036872Y026168D01*
X037004Y026113D01*
X037105Y026012D01*
X037159Y025881D01*
X037159Y025738D01*
X037126Y025659D01*
X037168Y025677D01*
X037334Y025677D01*
X037487Y025613D01*
X037605Y025496D01*
X037668Y025342D01*
X037668Y025176D01*
X037605Y025023D01*
X037657Y025149D02*
X043895Y025149D01*
X043884Y025308D02*
X037668Y025308D01*
X037617Y025467D02*
X040126Y025467D01*
X040163Y025451D02*
X040305Y025451D01*
X040437Y025506D01*
X040538Y025607D01*
X040557Y025654D01*
X040563Y025651D01*
X040705Y025651D01*
X040837Y025706D01*
X040938Y025807D01*
X040992Y025938D01*
X040992Y026081D01*
X040938Y026212D01*
X040837Y026313D01*
X040705Y026368D01*
X040563Y026368D01*
X040431Y026313D01*
X040331Y026212D01*
X040311Y026165D01*
X040305Y026168D01*
X040163Y026168D01*
X040031Y026113D01*
X039931Y026012D01*
X039876Y025881D01*
X039876Y025738D01*
X039931Y025607D01*
X040031Y025506D01*
X040163Y025451D01*
X040342Y025467D02*
X043753Y025467D01*
X043550Y025625D02*
X040545Y025625D01*
X040915Y025784D02*
X043180Y025784D01*
X043103Y025942D02*
X040992Y025942D01*
X040984Y026101D02*
X043111Y026101D01*
X043204Y026259D02*
X040891Y026259D01*
X040378Y026259D02*
X036658Y026259D01*
X037016Y026101D02*
X040019Y026101D01*
X039902Y025942D02*
X037134Y025942D01*
X037159Y025784D02*
X039876Y025784D01*
X039923Y025625D02*
X037458Y025625D01*
X036834Y025308D02*
X030568Y025308D01*
X030568Y025342D02*
X030505Y025496D01*
X030387Y025613D01*
X030234Y025677D01*
X030068Y025677D01*
X030026Y025659D01*
X030059Y025738D01*
X030059Y025881D01*
X030005Y026012D01*
X029904Y026113D01*
X029772Y026168D01*
X029630Y026168D01*
X029624Y026165D01*
X029605Y026212D01*
X029504Y026313D01*
X029372Y026368D01*
X029230Y026368D01*
X029098Y026313D01*
X028998Y026212D01*
X028943Y026081D01*
X028943Y025938D01*
X028998Y025807D01*
X029098Y025706D01*
X029230Y025651D01*
X029372Y025651D01*
X029378Y025654D01*
X029398Y025607D01*
X029498Y025506D01*
X029630Y025451D01*
X029772Y025451D01*
X029780Y025455D01*
X029734Y025342D01*
X029734Y025176D01*
X029797Y025023D01*
X029915Y024906D01*
X030068Y024842D01*
X030234Y024842D01*
X030387Y024906D01*
X030505Y025023D01*
X030568Y025176D01*
X030568Y025342D01*
X030517Y025467D02*
X033039Y025467D01*
X033076Y025451D02*
X032945Y025506D01*
X032844Y025607D01*
X032789Y025738D01*
X032789Y025881D01*
X032844Y026012D01*
X032945Y026113D01*
X033076Y026168D01*
X033219Y026168D01*
X033224Y026165D01*
X033244Y026212D01*
X033345Y026313D01*
X033476Y026368D01*
X033619Y026368D01*
X033750Y026313D01*
X033851Y026212D01*
X033906Y026081D01*
X033906Y025938D01*
X033851Y025807D01*
X033750Y025706D01*
X033619Y025651D01*
X033476Y025651D01*
X033471Y025654D01*
X033451Y025607D01*
X033350Y025506D01*
X033219Y025451D01*
X033076Y025451D01*
X033256Y025467D02*
X036693Y025467D01*
X036490Y025625D02*
X033459Y025625D01*
X033828Y025784D02*
X036120Y025784D01*
X036043Y025942D02*
X033906Y025942D01*
X033897Y026101D02*
X036051Y026101D01*
X036145Y026259D02*
X033804Y026259D01*
X033291Y026259D02*
X029558Y026259D01*
X029916Y026101D02*
X032932Y026101D01*
X032815Y025942D02*
X030034Y025942D01*
X030059Y025784D02*
X032789Y025784D01*
X032836Y025625D02*
X030358Y025625D01*
X029734Y025308D02*
X023468Y025308D01*
X023468Y025342D02*
X023405Y025496D01*
X023287Y025613D01*
X023134Y025677D01*
X022968Y025677D01*
X022926Y025659D01*
X022959Y025738D01*
X022959Y025881D01*
X022905Y026012D01*
X022804Y026113D01*
X022672Y026168D01*
X022530Y026168D01*
X022524Y026165D01*
X022505Y026212D01*
X022404Y026313D01*
X022272Y026368D01*
X022130Y026368D01*
X021998Y026313D01*
X021898Y026212D01*
X021843Y026081D01*
X021843Y025938D01*
X021898Y025807D01*
X021998Y025706D01*
X022130Y025651D01*
X022272Y025651D01*
X022278Y025654D01*
X022298Y025607D01*
X022398Y025506D01*
X022530Y025451D01*
X022672Y025451D01*
X022680Y025455D01*
X022634Y025342D01*
X022634Y025176D01*
X022697Y025023D01*
X022815Y024906D01*
X022968Y024842D01*
X023134Y024842D01*
X023287Y024906D01*
X023405Y025023D01*
X023468Y025176D01*
X023468Y025342D01*
X023417Y025467D02*
X025953Y025467D01*
X025990Y025451D02*
X026132Y025451D01*
X026264Y025506D01*
X026364Y025607D01*
X026384Y025654D01*
X026390Y025651D01*
X026532Y025651D01*
X026664Y025706D01*
X026764Y025807D01*
X026819Y025938D01*
X026819Y026081D01*
X026764Y026212D01*
X026664Y026313D01*
X026532Y026368D01*
X026390Y026368D01*
X026258Y026313D01*
X026157Y026212D01*
X026138Y026165D01*
X026132Y026168D01*
X025990Y026168D01*
X025858Y026113D01*
X025757Y026012D01*
X025703Y025881D01*
X025703Y025738D01*
X025757Y025607D01*
X025858Y025506D01*
X025990Y025451D01*
X026169Y025467D02*
X029593Y025467D01*
X029390Y025625D02*
X026372Y025625D01*
X026742Y025784D02*
X029020Y025784D01*
X028943Y025942D02*
X026819Y025942D01*
X026811Y026101D02*
X028951Y026101D01*
X029045Y026259D02*
X026717Y026259D01*
X026204Y026259D02*
X022458Y026259D01*
X022816Y026101D02*
X025846Y026101D01*
X025728Y025942D02*
X022934Y025942D01*
X022959Y025784D02*
X025703Y025784D01*
X025750Y025625D02*
X023258Y025625D01*
X022634Y025308D02*
X016368Y025308D01*
X016357Y025149D02*
X022645Y025149D01*
X022730Y024991D02*
X016273Y024991D01*
X016317Y025467D02*
X018866Y025467D01*
X018903Y025451D02*
X019046Y025451D01*
X019177Y025506D01*
X019278Y025607D01*
X019297Y025654D01*
X019303Y025651D01*
X019446Y025651D01*
X019577Y025706D01*
X019678Y025807D01*
X019732Y025938D01*
X019732Y026081D01*
X019678Y026212D01*
X019577Y026313D01*
X019446Y026368D01*
X019303Y026368D01*
X019171Y026313D01*
X019071Y026212D01*
X019051Y026165D01*
X019046Y026168D01*
X018903Y026168D01*
X018771Y026113D01*
X018671Y026012D01*
X018616Y025881D01*
X018616Y025738D01*
X018671Y025607D01*
X018771Y025506D01*
X018903Y025451D01*
X019082Y025467D02*
X022493Y025467D01*
X022290Y025625D02*
X019286Y025625D01*
X019655Y025784D02*
X021920Y025784D01*
X021843Y025942D02*
X019732Y025942D01*
X019724Y026101D02*
X021851Y026101D01*
X021945Y026259D02*
X019631Y026259D01*
X019118Y026259D02*
X015358Y026259D01*
X015716Y026101D02*
X018759Y026101D01*
X018642Y025942D02*
X015834Y025942D01*
X015859Y025784D02*
X018616Y025784D01*
X018663Y025625D02*
X016158Y025625D01*
X015190Y025625D02*
X012199Y025625D01*
X012568Y025784D02*
X014820Y025784D01*
X014743Y025942D02*
X012646Y025942D01*
X012637Y026101D02*
X014751Y026101D01*
X014845Y026259D02*
X012544Y026259D01*
X012031Y026259D02*
X008258Y026259D01*
X009338Y026576D02*
X010305Y026576D01*
X010284Y026626D02*
X010347Y026473D01*
X010465Y026356D01*
X010618Y026292D01*
X010784Y026292D01*
X010937Y026356D01*
X011055Y026473D01*
X011118Y026626D01*
X011118Y026792D01*
X011055Y026946D01*
X010937Y027063D01*
X010784Y027127D01*
X010618Y027127D01*
X010465Y027063D01*
X010347Y026946D01*
X010284Y026792D01*
X010284Y026626D01*
X010284Y026735D02*
X009419Y026735D01*
X009428Y026893D02*
X010326Y026893D01*
X010454Y027052D02*
X009375Y027052D01*
X009205Y027211D02*
X012072Y027211D01*
X012011Y027236D02*
X012165Y027172D01*
X012331Y027172D01*
X012484Y027236D01*
X012601Y027353D01*
X012665Y027506D01*
X012665Y027672D01*
X012601Y027826D01*
X012484Y027943D01*
X012331Y028007D01*
X012165Y028007D01*
X012011Y027943D01*
X011894Y027826D01*
X011831Y027672D01*
X011831Y027506D01*
X011894Y027353D01*
X012011Y027236D01*
X011887Y027369D02*
X005521Y027369D01*
X005578Y027528D02*
X011831Y027528D01*
X011836Y027686D02*
X005573Y027686D01*
X005496Y027845D02*
X007426Y027845D01*
X007976Y027845D02*
X010376Y027845D01*
X010347Y027873D02*
X010465Y027756D01*
X010618Y027692D01*
X010784Y027692D01*
X010937Y027756D01*
X011055Y027873D01*
X011118Y028026D01*
X011118Y028192D01*
X011055Y028346D01*
X010937Y028463D01*
X010784Y028527D01*
X010618Y028527D01*
X010465Y028463D01*
X010347Y028346D01*
X010284Y028192D01*
X010284Y028026D01*
X010347Y027873D01*
X010294Y028003D02*
X008088Y028003D01*
X008118Y028162D02*
X010284Y028162D01*
X010337Y028320D02*
X008086Y028320D01*
X007972Y028479D02*
X010503Y028479D01*
X010899Y028479D02*
X014481Y028479D01*
X014366Y028320D02*
X011065Y028320D01*
X011118Y028162D02*
X014334Y028162D01*
X014364Y028003D02*
X012339Y028003D01*
X012157Y028003D02*
X011109Y028003D01*
X011026Y027845D02*
X011913Y027845D01*
X012582Y027845D02*
X014476Y027845D01*
X015026Y027845D02*
X017376Y027845D01*
X017347Y027873D02*
X017465Y027756D01*
X017618Y027692D01*
X017784Y027692D01*
X017937Y027756D01*
X018055Y027873D01*
X018118Y028026D01*
X018118Y028192D01*
X018055Y028346D01*
X017937Y028463D01*
X017784Y028527D01*
X017618Y028527D01*
X017465Y028463D01*
X017347Y028346D01*
X017284Y028192D01*
X017284Y028026D01*
X017347Y027873D01*
X017294Y028003D02*
X015138Y028003D01*
X015168Y028162D02*
X017284Y028162D01*
X017337Y028320D02*
X015136Y028320D01*
X015022Y028479D02*
X017503Y028479D01*
X017899Y028479D02*
X021581Y028479D01*
X021466Y028320D02*
X018065Y028320D01*
X018118Y028162D02*
X021434Y028162D01*
X021464Y028003D02*
X019425Y028003D01*
X019417Y028007D02*
X019251Y028007D01*
X019098Y027943D01*
X018981Y027826D01*
X018917Y027672D01*
X018917Y027506D01*
X018981Y027353D01*
X019098Y027236D01*
X019251Y027172D01*
X019417Y027172D01*
X019571Y027236D01*
X019688Y027353D01*
X019751Y027506D01*
X019751Y027672D01*
X019688Y027826D01*
X019571Y027943D01*
X019417Y028007D01*
X019243Y028003D02*
X018109Y028003D01*
X018026Y027845D02*
X019000Y027845D01*
X018923Y027686D02*
X012659Y027686D01*
X012665Y027528D02*
X018917Y027528D01*
X018974Y027369D02*
X012608Y027369D01*
X012423Y027211D02*
X015904Y027211D01*
X015861Y027193D02*
X015744Y027076D01*
X015681Y026922D01*
X015681Y026756D01*
X015744Y026603D01*
X015861Y026486D01*
X016015Y026422D01*
X016181Y026422D01*
X016334Y026486D01*
X016451Y026603D01*
X016515Y026756D01*
X016515Y026922D01*
X016451Y027076D01*
X016334Y027193D01*
X016181Y027257D01*
X016015Y027257D01*
X015861Y027193D01*
X015734Y027052D02*
X010948Y027052D01*
X011076Y026893D02*
X015681Y026893D01*
X015689Y026735D02*
X011118Y026735D01*
X011097Y026576D02*
X015771Y026576D01*
X016425Y026576D02*
X017305Y026576D01*
X017284Y026626D02*
X017347Y026473D01*
X017465Y026356D01*
X017618Y026292D01*
X017784Y026292D01*
X017937Y026356D01*
X018055Y026473D01*
X018118Y026626D01*
X018118Y026792D01*
X018055Y026946D01*
X017937Y027063D01*
X017784Y027127D01*
X017618Y027127D01*
X017465Y027063D01*
X017347Y026946D01*
X017284Y026792D01*
X017284Y026626D01*
X017284Y026735D02*
X016506Y026735D01*
X016515Y026893D02*
X017326Y026893D01*
X017454Y027052D02*
X016461Y027052D01*
X016292Y027211D02*
X019159Y027211D01*
X019510Y027211D02*
X022990Y027211D01*
X022948Y027193D02*
X022831Y027076D01*
X022767Y026922D01*
X022767Y026756D01*
X022831Y026603D01*
X022948Y026486D01*
X023101Y026422D01*
X023267Y026422D01*
X023421Y026486D01*
X023538Y026603D01*
X023601Y026756D01*
X023601Y026922D01*
X023538Y027076D01*
X023421Y027193D01*
X023267Y027257D01*
X023101Y027257D01*
X022948Y027193D01*
X022821Y027052D02*
X017948Y027052D01*
X018076Y026893D02*
X022767Y026893D01*
X022776Y026735D02*
X018118Y026735D01*
X018097Y026576D02*
X022857Y026576D01*
X023511Y026576D02*
X024405Y026576D01*
X024384Y026626D02*
X024447Y026473D01*
X024565Y026356D01*
X024718Y026292D01*
X024884Y026292D01*
X025037Y026356D01*
X025155Y026473D01*
X025218Y026626D01*
X025218Y026792D01*
X025155Y026946D01*
X025037Y027063D01*
X024884Y027127D01*
X024718Y027127D01*
X024565Y027063D01*
X024447Y026946D01*
X024384Y026792D01*
X024384Y026626D01*
X024384Y026735D02*
X023593Y026735D01*
X023601Y026893D02*
X024426Y026893D01*
X024554Y027052D02*
X023548Y027052D01*
X023378Y027211D02*
X026246Y027211D01*
X026185Y027236D02*
X026338Y027172D01*
X026504Y027172D01*
X026657Y027236D01*
X026775Y027353D01*
X026838Y027506D01*
X026838Y027672D01*
X026775Y027826D01*
X026657Y027943D01*
X026504Y028007D01*
X026338Y028007D01*
X026185Y027943D01*
X026067Y027826D01*
X026004Y027672D01*
X026004Y027506D01*
X026067Y027353D01*
X026185Y027236D01*
X026061Y027369D02*
X019695Y027369D01*
X019751Y027528D02*
X026004Y027528D01*
X026009Y027686D02*
X019746Y027686D01*
X019669Y027845D02*
X021576Y027845D01*
X022126Y027845D02*
X024476Y027845D01*
X024447Y027873D02*
X024565Y027756D01*
X024718Y027692D01*
X024884Y027692D01*
X025037Y027756D01*
X025155Y027873D01*
X025218Y028026D01*
X025218Y028192D01*
X025155Y028346D01*
X025037Y028463D01*
X024884Y028527D01*
X024718Y028527D01*
X024565Y028463D01*
X024447Y028346D01*
X024384Y028192D01*
X024384Y028026D01*
X024447Y027873D01*
X024394Y028003D02*
X022238Y028003D01*
X022268Y028162D02*
X024384Y028162D01*
X024437Y028320D02*
X022236Y028320D01*
X022122Y028479D02*
X024603Y028479D01*
X024999Y028479D02*
X028681Y028479D01*
X028566Y028320D02*
X025165Y028320D01*
X025218Y028162D02*
X028534Y028162D01*
X028564Y028003D02*
X026512Y028003D01*
X026330Y028003D02*
X025209Y028003D01*
X025126Y027845D02*
X026086Y027845D01*
X026756Y027845D02*
X028676Y027845D01*
X029226Y027845D02*
X031576Y027845D01*
X031547Y027873D02*
X031665Y027756D01*
X031818Y027692D01*
X031984Y027692D01*
X032137Y027756D01*
X032255Y027873D01*
X032318Y028026D01*
X032318Y028192D01*
X032255Y028346D01*
X032137Y028463D01*
X031984Y028527D01*
X031818Y028527D01*
X031665Y028463D01*
X031547Y028346D01*
X031484Y028192D01*
X031484Y028026D01*
X031547Y027873D01*
X031494Y028003D02*
X029338Y028003D01*
X029368Y028162D02*
X031484Y028162D01*
X031537Y028320D02*
X029336Y028320D01*
X029222Y028479D02*
X031703Y028479D01*
X032099Y028479D02*
X035781Y028479D01*
X035666Y028320D02*
X032265Y028320D01*
X032318Y028162D02*
X035634Y028162D01*
X035664Y028003D02*
X033599Y028003D01*
X033591Y028007D02*
X033425Y028007D01*
X033271Y027943D01*
X033154Y027826D01*
X033090Y027672D01*
X033090Y027506D01*
X033154Y027353D01*
X033271Y027236D01*
X033425Y027172D01*
X033591Y027172D01*
X033744Y027236D01*
X033861Y027353D01*
X033925Y027506D01*
X033925Y027672D01*
X033861Y027826D01*
X033744Y027943D01*
X033591Y028007D01*
X033417Y028003D02*
X032309Y028003D01*
X032226Y027845D02*
X033173Y027845D01*
X033096Y027686D02*
X026832Y027686D01*
X026838Y027528D02*
X033090Y027528D01*
X033147Y027369D02*
X026781Y027369D01*
X026596Y027211D02*
X030077Y027211D01*
X030035Y027193D02*
X030188Y027257D01*
X030354Y027257D01*
X030507Y027193D01*
X030625Y027076D01*
X030688Y026922D01*
X030688Y026756D01*
X030625Y026603D01*
X030507Y026486D01*
X030354Y026422D01*
X030188Y026422D01*
X030035Y026486D01*
X029917Y026603D01*
X029854Y026756D01*
X029854Y026922D01*
X029917Y027076D01*
X030035Y027193D01*
X029907Y027052D02*
X025048Y027052D01*
X025176Y026893D02*
X029854Y026893D01*
X029863Y026735D02*
X025218Y026735D01*
X025197Y026576D02*
X029944Y026576D01*
X030598Y026576D02*
X031505Y026576D01*
X031484Y026626D02*
X031547Y026473D01*
X031665Y026356D01*
X031818Y026292D01*
X031984Y026292D01*
X032137Y026356D01*
X032255Y026473D01*
X032318Y026626D01*
X032318Y026792D01*
X032255Y026946D01*
X032137Y027063D01*
X031984Y027127D01*
X031818Y027127D01*
X031665Y027063D01*
X031547Y026946D01*
X031484Y026792D01*
X031484Y026626D01*
X031484Y026735D02*
X030679Y026735D01*
X030688Y026893D02*
X031526Y026893D01*
X031654Y027052D02*
X030634Y027052D01*
X030465Y027211D02*
X033332Y027211D01*
X033683Y027211D02*
X037163Y027211D01*
X037121Y027193D02*
X037004Y027076D01*
X036940Y026922D01*
X036940Y026756D01*
X037004Y026603D01*
X037121Y026486D01*
X037275Y026422D01*
X037441Y026422D01*
X037594Y026486D01*
X037711Y026603D01*
X037775Y026756D01*
X037775Y026922D01*
X037711Y027076D01*
X037594Y027193D01*
X037441Y027257D01*
X037275Y027257D01*
X037121Y027193D01*
X036994Y027052D02*
X032148Y027052D01*
X032276Y026893D02*
X036940Y026893D01*
X036949Y026735D02*
X032318Y026735D01*
X032297Y026576D02*
X037031Y026576D01*
X037684Y026576D02*
X038905Y026576D01*
X038884Y026735D02*
X037766Y026735D01*
X037775Y026893D02*
X038926Y026893D01*
X039054Y027052D02*
X037721Y027052D01*
X037552Y027211D02*
X040419Y027211D01*
X040234Y027369D02*
X033868Y027369D01*
X033925Y027528D02*
X040177Y027528D01*
X040183Y027686D02*
X033919Y027686D01*
X033842Y027845D02*
X035776Y027845D01*
X036326Y027845D02*
X038976Y027845D01*
X038947Y027873D02*
X039065Y027756D01*
X039218Y027692D01*
X039384Y027692D01*
X039537Y027756D01*
X039655Y027873D01*
X039718Y028026D01*
X039718Y028192D01*
X039655Y028346D01*
X039537Y028463D01*
X039384Y028527D01*
X039218Y028527D01*
X039065Y028463D01*
X038947Y028346D01*
X038884Y028192D01*
X038884Y028026D01*
X038947Y027873D01*
X038894Y028003D02*
X036438Y028003D01*
X036468Y028162D02*
X038884Y028162D01*
X038937Y028320D02*
X036436Y028320D01*
X036322Y028479D02*
X039103Y028479D01*
X039499Y028479D02*
X042881Y028479D01*
X042766Y028320D02*
X039665Y028320D01*
X039718Y028162D02*
X042734Y028162D01*
X042764Y028003D02*
X040685Y028003D01*
X040503Y028003D02*
X039709Y028003D01*
X039626Y027845D02*
X040259Y027845D01*
X040929Y027845D02*
X042876Y027845D01*
X043426Y027845D02*
X046076Y027845D01*
X045994Y028003D02*
X043538Y028003D01*
X043568Y028162D02*
X045984Y028162D01*
X046037Y028320D02*
X043536Y028320D01*
X043422Y028479D02*
X046203Y028479D01*
X046154Y027052D02*
X044808Y027052D01*
X044861Y026893D02*
X046026Y026893D01*
X045984Y026735D02*
X044852Y026735D01*
X044771Y026576D02*
X046005Y026576D01*
X046103Y026418D02*
X039599Y026418D01*
X039003Y026418D02*
X032199Y026418D01*
X031603Y026418D02*
X025099Y026418D01*
X024503Y026418D02*
X017999Y026418D01*
X017403Y026418D02*
X010999Y026418D01*
X010403Y026418D02*
X002941Y026418D01*
X005068Y024357D02*
X011588Y024357D01*
X011568Y024337D02*
X011513Y024205D01*
X011513Y024063D01*
X011568Y023931D01*
X011669Y023830D01*
X011800Y023776D01*
X011943Y023776D01*
X012074Y023830D01*
X012175Y023931D01*
X012230Y024063D01*
X012230Y024205D01*
X012175Y024337D01*
X012074Y024437D01*
X011943Y024492D01*
X011800Y024492D01*
X011669Y024437D01*
X011568Y024337D01*
X011513Y024198D02*
X005143Y024198D01*
X005134Y024040D02*
X011523Y024040D01*
X011618Y023881D02*
X005039Y023881D01*
X004254Y023247D02*
X059548Y023247D01*
X059548Y023088D02*
X004332Y023088D01*
X002941Y022454D02*
X005770Y022454D01*
X005871Y022296D02*
X002941Y022296D01*
X005369Y021662D02*
X009902Y021662D01*
X009904Y021503D02*
X007937Y021503D01*
X007927Y021513D02*
X008045Y021396D01*
X008108Y021242D01*
X008108Y021076D01*
X008045Y020923D01*
X007927Y020806D01*
X007774Y020742D01*
X007608Y020742D01*
X007455Y020806D01*
X007337Y020923D01*
X007274Y021076D01*
X007274Y021242D01*
X007337Y021396D01*
X007455Y021513D01*
X007608Y021577D01*
X007774Y021577D01*
X007927Y021513D01*
X008066Y021344D02*
X009970Y021344D01*
X010038Y021186D02*
X008108Y021186D01*
X008088Y021027D02*
X010196Y021027D01*
X010462Y020869D02*
X007990Y020869D01*
X007392Y020869D02*
X005368Y020869D01*
X005319Y021027D02*
X007294Y021027D01*
X007274Y021186D02*
X005447Y021186D01*
X005488Y021344D02*
X007316Y021344D01*
X007445Y021503D02*
X005467Y021503D01*
X005527Y020710D02*
X011882Y020710D01*
X011894Y020739D02*
X011831Y020586D01*
X011831Y020420D01*
X011894Y020266D01*
X012011Y020149D01*
X012165Y020086D01*
X012331Y020086D01*
X012484Y020149D01*
X012601Y020266D01*
X012665Y020420D01*
X012665Y020586D01*
X012601Y020739D01*
X012484Y020856D01*
X012451Y020870D01*
X012555Y020973D01*
X012618Y021126D01*
X012618Y021292D01*
X012555Y021446D01*
X012437Y021563D01*
X012284Y021627D01*
X012118Y021627D01*
X011965Y021563D01*
X011847Y021446D01*
X011784Y021292D01*
X011784Y021126D01*
X011847Y020973D01*
X011965Y020856D01*
X011997Y020842D01*
X011894Y020739D01*
X011952Y020869D02*
X011082Y020869D01*
X011348Y021027D02*
X011825Y021027D01*
X011784Y021186D02*
X011506Y021186D01*
X011574Y021344D02*
X011806Y021344D01*
X011905Y021503D02*
X011639Y021503D01*
X011642Y021662D02*
X024075Y021662D01*
X024075Y021509D02*
X024208Y021189D01*
X024452Y020944D01*
X024772Y020812D01*
X025118Y020812D01*
X025438Y020944D01*
X025683Y021189D01*
X025815Y021509D01*
X025815Y021855D01*
X025683Y022175D01*
X025438Y022419D01*
X025118Y022552D01*
X024772Y022552D01*
X024452Y022419D01*
X024208Y022175D01*
X024075Y021855D01*
X024075Y021509D01*
X024078Y021503D02*
X022117Y021503D01*
X022107Y021513D02*
X022225Y021396D01*
X022288Y021242D01*
X022288Y021076D01*
X022225Y020923D01*
X022107Y020806D01*
X021954Y020742D01*
X021788Y020742D01*
X021635Y020806D01*
X021517Y020923D01*
X021454Y021076D01*
X021454Y021242D01*
X021517Y021396D01*
X021635Y021513D01*
X021788Y021577D01*
X021954Y021577D01*
X022107Y021513D01*
X022246Y021344D02*
X024143Y021344D01*
X024211Y021186D02*
X022288Y021186D01*
X022268Y021027D02*
X024369Y021027D01*
X024635Y020869D02*
X022170Y020869D01*
X021572Y020869D02*
X019550Y020869D01*
X019548Y020866D02*
X019655Y020973D01*
X019718Y021126D01*
X019718Y021292D01*
X019655Y021446D01*
X019537Y021563D01*
X019384Y021627D01*
X019218Y021627D01*
X019065Y021563D01*
X018947Y021446D01*
X018884Y021292D01*
X018884Y021126D01*
X018947Y020973D01*
X019065Y020856D01*
X019088Y020846D01*
X018981Y020739D01*
X018917Y020586D01*
X018917Y020420D01*
X018981Y020266D01*
X019098Y020149D01*
X019251Y020086D01*
X019417Y020086D01*
X019571Y020149D01*
X019688Y020266D01*
X019751Y020420D01*
X019751Y020586D01*
X019688Y020739D01*
X019571Y020856D01*
X019548Y020866D01*
X019677Y021027D02*
X021474Y021027D01*
X021454Y021186D02*
X019718Y021186D01*
X019697Y021344D02*
X021496Y021344D01*
X021625Y021503D02*
X019597Y021503D01*
X019005Y021503D02*
X015027Y021503D01*
X015017Y021513D02*
X015135Y021396D01*
X015198Y021242D01*
X015198Y021076D01*
X015135Y020923D01*
X015017Y020806D01*
X014864Y020742D01*
X014698Y020742D01*
X014545Y020806D01*
X014427Y020923D01*
X014364Y021076D01*
X014364Y021242D01*
X014427Y021396D01*
X014545Y021513D01*
X014698Y021577D01*
X014864Y021577D01*
X015017Y021513D01*
X015156Y021344D02*
X018906Y021344D01*
X018884Y021186D02*
X015198Y021186D01*
X015178Y021027D02*
X018925Y021027D01*
X019052Y020869D02*
X015080Y020869D01*
X014482Y020869D02*
X012454Y020869D01*
X012577Y021027D02*
X014384Y021027D01*
X014364Y021186D02*
X012618Y021186D01*
X012597Y021344D02*
X014406Y021344D01*
X014535Y021503D02*
X012497Y021503D01*
X012613Y020710D02*
X018969Y020710D01*
X018917Y020552D02*
X012665Y020552D01*
X012654Y020393D02*
X018928Y020393D01*
X019013Y020235D02*
X012569Y020235D01*
X011926Y020235D02*
X005483Y020235D01*
X005567Y020393D02*
X011842Y020393D01*
X011831Y020552D02*
X005578Y020552D01*
X005272Y019281D02*
X005130Y019281D01*
X004998Y019226D01*
X004898Y019126D01*
X004878Y019079D01*
X004872Y019081D01*
X004730Y019081D01*
X004598Y019026D01*
X004498Y018926D01*
X004443Y018794D01*
X004443Y018652D01*
X004498Y018520D01*
X004598Y018419D01*
X004730Y018365D01*
X004872Y018365D01*
X005004Y018419D01*
X005105Y018520D01*
X005124Y018567D01*
X005130Y018565D01*
X005272Y018565D01*
X005404Y018619D01*
X005505Y018720D01*
X005559Y018852D01*
X005559Y018994D01*
X005505Y019126D01*
X005404Y019226D01*
X005272Y019281D01*
X005505Y019125D02*
X007697Y019125D01*
X007643Y018966D02*
X005559Y018966D01*
X005541Y018808D02*
X007661Y018808D01*
X007768Y018649D02*
X005434Y018649D01*
X005075Y018491D02*
X008127Y018491D01*
X008490Y018332D02*
X003927Y018332D01*
X003915Y018303D02*
X003978Y018456D01*
X003978Y018622D01*
X003915Y018776D01*
X003797Y018893D01*
X003644Y018957D01*
X003478Y018957D01*
X003325Y018893D01*
X003207Y018776D01*
X003144Y018622D01*
X003144Y018456D01*
X003207Y018303D01*
X003325Y018186D01*
X003478Y018122D01*
X003644Y018122D01*
X003797Y018186D01*
X003915Y018303D01*
X003768Y018174D02*
X008474Y018174D01*
X008520Y018015D02*
X002941Y018015D01*
X002941Y018174D02*
X003354Y018174D01*
X003195Y018332D02*
X002941Y018332D01*
X002941Y018491D02*
X003144Y018491D01*
X003155Y018649D02*
X002941Y018649D01*
X002941Y018808D02*
X003239Y018808D01*
X002941Y018966D02*
X004538Y018966D01*
X004449Y018808D02*
X003883Y018808D01*
X003967Y018649D02*
X004444Y018649D01*
X004527Y018491D02*
X003978Y018491D01*
X004897Y019125D02*
X002941Y019125D01*
X002941Y019283D02*
X039969Y019283D01*
X039915Y019306D02*
X040068Y019242D01*
X040234Y019242D01*
X040387Y019306D01*
X040505Y019423D01*
X040568Y019576D01*
X040568Y019742D01*
X040505Y019896D01*
X040387Y020013D01*
X040234Y020077D01*
X040068Y020077D01*
X039915Y020013D01*
X039797Y019896D01*
X039734Y019742D01*
X039734Y019576D01*
X039797Y019423D01*
X039915Y019306D01*
X039790Y019442D02*
X037637Y019442D01*
X037594Y019399D02*
X037711Y019516D01*
X037775Y019670D01*
X037775Y019836D01*
X037711Y019989D01*
X037594Y020106D01*
X037441Y020170D01*
X037275Y020170D01*
X037121Y020106D01*
X037004Y019989D01*
X036940Y019836D01*
X036940Y019670D01*
X037004Y019516D01*
X037121Y019399D01*
X037275Y019336D01*
X037441Y019336D01*
X037594Y019399D01*
X037746Y019600D02*
X039734Y019600D01*
X039741Y019759D02*
X037775Y019759D01*
X037741Y019918D02*
X039819Y019918D01*
X040067Y020076D02*
X037624Y020076D01*
X037091Y020076D02*
X032909Y020076D01*
X032909Y020038D02*
X032909Y020181D01*
X032855Y020312D01*
X032754Y020413D01*
X032622Y020468D01*
X032480Y020468D01*
X032348Y020413D01*
X032248Y020312D01*
X032193Y020181D01*
X032193Y020057D01*
X032137Y020113D01*
X031984Y020177D01*
X031818Y020177D01*
X031665Y020113D01*
X031547Y019996D01*
X031484Y019842D01*
X031484Y019676D01*
X031547Y019523D01*
X031665Y019406D01*
X031818Y019342D01*
X031984Y019342D01*
X032137Y019406D01*
X032255Y019523D01*
X032318Y019676D01*
X032318Y019836D01*
X032348Y019806D01*
X032480Y019751D01*
X032622Y019751D01*
X032754Y019806D01*
X032855Y019907D01*
X032909Y020038D01*
X032859Y019918D02*
X036974Y019918D01*
X036940Y019759D02*
X032641Y019759D01*
X032461Y019759D02*
X032318Y019759D01*
X032287Y019600D02*
X036969Y019600D01*
X037078Y019442D02*
X032174Y019442D01*
X031629Y019442D02*
X030550Y019442D01*
X030507Y019399D02*
X030625Y019516D01*
X030688Y019670D01*
X030688Y019836D01*
X030625Y019989D01*
X030507Y020106D01*
X030354Y020170D01*
X030188Y020170D01*
X030035Y020106D01*
X029917Y019989D01*
X029854Y019836D01*
X029854Y019670D01*
X029917Y019516D01*
X030035Y019399D01*
X030188Y019336D01*
X030354Y019336D01*
X030507Y019399D01*
X030659Y019600D02*
X031515Y019600D01*
X031484Y019759D02*
X030688Y019759D01*
X030654Y019918D02*
X031515Y019918D01*
X031628Y020076D02*
X030538Y020076D01*
X030004Y020076D02*
X025124Y020076D01*
X025087Y020113D02*
X024934Y020177D01*
X024768Y020177D01*
X024615Y020113D01*
X024497Y019996D01*
X024434Y019842D01*
X024434Y019676D01*
X024497Y019523D01*
X024615Y019406D01*
X024768Y019342D01*
X024934Y019342D01*
X025087Y019406D01*
X025205Y019523D01*
X025268Y019676D01*
X025268Y019842D01*
X025205Y019996D01*
X025087Y020113D01*
X025237Y019918D02*
X029888Y019918D01*
X029854Y019759D02*
X025268Y019759D01*
X025237Y019600D02*
X029882Y019600D01*
X029992Y019442D02*
X025124Y019442D01*
X024579Y019442D02*
X023463Y019442D01*
X023421Y019399D02*
X023538Y019516D01*
X023601Y019670D01*
X023601Y019836D01*
X023538Y019989D01*
X023421Y020106D01*
X023267Y020170D01*
X023101Y020170D01*
X022948Y020106D01*
X022831Y019989D01*
X022767Y019836D01*
X022767Y019670D01*
X022831Y019516D01*
X022948Y019399D01*
X023101Y019336D01*
X023267Y019336D01*
X023421Y019399D01*
X023573Y019600D02*
X024465Y019600D01*
X024434Y019759D02*
X023601Y019759D01*
X023568Y019918D02*
X024465Y019918D01*
X024578Y020076D02*
X023451Y020076D01*
X022918Y020076D02*
X018891Y020076D01*
X018905Y020062D02*
X018804Y020163D01*
X018672Y020218D01*
X018530Y020218D01*
X018398Y020163D01*
X018298Y020062D01*
X018243Y019931D01*
X018243Y019788D01*
X018298Y019657D01*
X018398Y019556D01*
X018530Y019501D01*
X018672Y019501D01*
X018804Y019556D01*
X018905Y019657D01*
X018959Y019788D01*
X018959Y019931D01*
X018905Y020062D01*
X018959Y019918D02*
X022801Y019918D01*
X022767Y019759D02*
X018947Y019759D01*
X018849Y019600D02*
X022796Y019600D01*
X022905Y019442D02*
X017824Y019442D01*
X017787Y019406D02*
X017905Y019523D01*
X017968Y019676D01*
X017968Y019842D01*
X017905Y019996D01*
X017787Y020113D01*
X017634Y020177D01*
X017468Y020177D01*
X017315Y020113D01*
X017197Y019996D01*
X017134Y019842D01*
X017134Y019676D01*
X017197Y019523D01*
X017315Y019406D01*
X017468Y019342D01*
X017634Y019342D01*
X017787Y019406D01*
X017937Y019600D02*
X018354Y019600D01*
X018255Y019759D02*
X017968Y019759D01*
X017937Y019918D02*
X018243Y019918D01*
X018311Y020076D02*
X017824Y020076D01*
X017278Y020076D02*
X016364Y020076D01*
X016334Y020106D02*
X016181Y020170D01*
X016015Y020170D01*
X015861Y020106D01*
X015744Y019989D01*
X015681Y019836D01*
X015681Y019670D01*
X015744Y019516D01*
X015861Y019399D01*
X016015Y019336D01*
X016181Y019336D01*
X016334Y019399D01*
X016451Y019516D01*
X016515Y019670D01*
X016515Y019836D01*
X016451Y019989D01*
X016334Y020106D01*
X016481Y019918D02*
X017165Y019918D01*
X017134Y019759D02*
X016515Y019759D01*
X016486Y019600D02*
X017165Y019600D01*
X017279Y019442D02*
X016377Y019442D01*
X015819Y019442D02*
X010924Y019442D01*
X010887Y019406D02*
X011005Y019523D01*
X011068Y019676D01*
X011068Y019842D01*
X011005Y019996D01*
X010887Y020113D01*
X010734Y020177D01*
X010568Y020177D01*
X010415Y020113D01*
X010297Y019996D01*
X010234Y019842D01*
X010234Y019676D01*
X010297Y019523D01*
X010415Y019406D01*
X010568Y019342D01*
X010734Y019342D01*
X010887Y019406D01*
X011037Y019600D02*
X015709Y019600D01*
X015681Y019759D02*
X011068Y019759D01*
X011037Y019918D02*
X015714Y019918D01*
X015831Y020076D02*
X010924Y020076D01*
X010378Y020076D02*
X009278Y020076D01*
X009394Y019918D02*
X010265Y019918D01*
X010234Y019759D02*
X009428Y019759D01*
X009399Y019600D02*
X010265Y019600D01*
X010379Y019442D02*
X009290Y019442D01*
X008305Y019125D02*
X011984Y019125D01*
X012592Y019125D02*
X014797Y019125D01*
X014743Y018966D02*
X012646Y018966D01*
X012628Y018808D02*
X014761Y018808D01*
X014868Y018649D02*
X012521Y018649D01*
X012162Y018491D02*
X015227Y018491D01*
X015858Y018649D02*
X018617Y018649D01*
X018616Y018652D02*
X018671Y018520D01*
X018771Y018419D01*
X018903Y018365D01*
X019046Y018365D01*
X019177Y018419D01*
X019278Y018520D01*
X019297Y018567D01*
X019303Y018565D01*
X019446Y018565D01*
X019577Y018619D01*
X019678Y018720D01*
X019732Y018852D01*
X019732Y018994D01*
X019678Y019126D01*
X019577Y019226D01*
X019446Y019281D01*
X019303Y019281D01*
X019171Y019226D01*
X019071Y019126D01*
X019051Y019079D01*
X019046Y019081D01*
X018903Y019081D01*
X018771Y019026D01*
X018671Y018926D01*
X018616Y018794D01*
X018616Y018652D01*
X018622Y018808D02*
X015854Y018808D01*
X015764Y018966D02*
X018711Y018966D01*
X019070Y019125D02*
X015405Y019125D01*
X016290Y018491D02*
X018700Y018491D01*
X019249Y018491D02*
X022327Y018491D01*
X022298Y018520D02*
X022398Y018419D01*
X022530Y018365D01*
X022672Y018365D01*
X022674Y018366D01*
X022644Y018292D01*
X022644Y018126D01*
X022707Y017973D01*
X022825Y017856D01*
X022978Y017792D01*
X023144Y017792D01*
X023297Y017856D01*
X023415Y017973D01*
X023478Y018126D01*
X023478Y018292D01*
X023415Y018446D01*
X023297Y018563D01*
X023144Y018627D01*
X022978Y018627D01*
X022943Y018612D01*
X022959Y018652D01*
X022959Y018794D01*
X022905Y018926D01*
X022804Y019026D01*
X022672Y019081D01*
X022530Y019081D01*
X022524Y019079D01*
X022505Y019126D01*
X022404Y019226D01*
X022272Y019281D01*
X022130Y019281D01*
X021998Y019226D01*
X021898Y019126D01*
X021843Y018994D01*
X021843Y018852D01*
X021898Y018720D01*
X021998Y018619D01*
X022130Y018565D01*
X022272Y018565D01*
X022278Y018567D01*
X022298Y018520D01*
X021968Y018649D02*
X019607Y018649D01*
X019714Y018808D02*
X021861Y018808D01*
X021843Y018966D02*
X019732Y018966D01*
X019678Y019125D02*
X021897Y019125D01*
X022505Y019125D02*
X026157Y019125D01*
X026157Y019126D02*
X026138Y019079D01*
X026132Y019081D01*
X025990Y019081D01*
X025858Y019026D01*
X025757Y018926D01*
X025703Y018794D01*
X025703Y018652D01*
X025757Y018520D01*
X025858Y018419D01*
X025990Y018365D01*
X026132Y018365D01*
X026264Y018419D01*
X026364Y018520D01*
X026384Y018567D01*
X026390Y018565D01*
X026532Y018565D01*
X026664Y018619D01*
X026764Y018720D01*
X026819Y018852D01*
X026819Y018994D01*
X026764Y019126D01*
X026664Y019226D01*
X026532Y019281D01*
X026390Y019281D01*
X026258Y019226D01*
X026157Y019126D01*
X025798Y018966D02*
X022864Y018966D01*
X022954Y018808D02*
X025709Y018808D01*
X025704Y018649D02*
X022958Y018649D01*
X022660Y018332D02*
X016382Y018332D01*
X016398Y018174D02*
X022644Y018174D01*
X022690Y018015D02*
X016352Y018015D01*
X016218Y017856D02*
X022824Y017856D01*
X023298Y017856D02*
X029914Y017856D01*
X029915Y017856D02*
X030068Y017792D01*
X030234Y017792D01*
X030387Y017856D01*
X030505Y017973D01*
X030568Y018126D01*
X030568Y018292D01*
X030505Y018446D01*
X030387Y018563D01*
X030234Y018627D01*
X030068Y018627D01*
X030045Y018617D01*
X030059Y018652D01*
X030059Y018794D01*
X030005Y018926D01*
X029904Y019026D01*
X029772Y019081D01*
X029630Y019081D01*
X029624Y019079D01*
X029605Y019126D01*
X029504Y019226D01*
X029372Y019281D01*
X029230Y019281D01*
X029098Y019226D01*
X028998Y019126D01*
X028943Y018994D01*
X028943Y018852D01*
X028998Y018720D01*
X029098Y018619D01*
X029230Y018565D01*
X029372Y018565D01*
X029378Y018567D01*
X029398Y018520D01*
X029498Y018419D01*
X029630Y018365D01*
X029764Y018365D01*
X029734Y018292D01*
X029734Y018126D01*
X029797Y017973D01*
X029915Y017856D01*
X029780Y018015D02*
X023432Y018015D01*
X023478Y018174D02*
X029734Y018174D01*
X029750Y018332D02*
X023462Y018332D01*
X023370Y018491D02*
X025787Y018491D01*
X026335Y018491D02*
X029427Y018491D01*
X029068Y018649D02*
X026694Y018649D01*
X026801Y018808D02*
X028961Y018808D01*
X028943Y018966D02*
X026819Y018966D01*
X026765Y019125D02*
X028997Y019125D01*
X029605Y019125D02*
X033244Y019125D01*
X033244Y019126D02*
X033224Y019079D01*
X033219Y019081D01*
X033076Y019081D01*
X032945Y019026D01*
X032844Y018926D01*
X032789Y018794D01*
X032789Y018652D01*
X032844Y018520D01*
X032945Y018419D01*
X033076Y018365D01*
X033219Y018365D01*
X033350Y018419D01*
X033451Y018520D01*
X033471Y018567D01*
X033476Y018565D01*
X033619Y018565D01*
X033750Y018619D01*
X033851Y018720D01*
X033906Y018852D01*
X033906Y018994D01*
X033851Y019126D01*
X033750Y019226D01*
X033619Y019281D01*
X033476Y019281D01*
X033345Y019226D01*
X033244Y019126D01*
X032885Y018966D02*
X029964Y018966D01*
X030054Y018808D02*
X032795Y018808D01*
X032790Y018649D02*
X030058Y018649D01*
X030460Y018491D02*
X032873Y018491D01*
X033422Y018491D02*
X036473Y018491D01*
X036448Y018517D02*
X036548Y018416D01*
X036680Y018361D01*
X036822Y018361D01*
X036954Y018416D01*
X037055Y018517D01*
X037109Y018648D01*
X037109Y018791D01*
X037055Y018922D01*
X036954Y019023D01*
X036822Y019078D01*
X036723Y019078D01*
X036705Y019122D01*
X036604Y019223D01*
X036472Y019278D01*
X036330Y019278D01*
X036198Y019223D01*
X036098Y019122D01*
X036043Y018991D01*
X036043Y018848D01*
X036098Y018717D01*
X036198Y018616D01*
X036330Y018561D01*
X036429Y018561D01*
X036448Y018517D01*
X036165Y018649D02*
X033780Y018649D01*
X033887Y018808D02*
X036060Y018808D01*
X036043Y018966D02*
X033906Y018966D01*
X033851Y019125D02*
X036100Y019125D01*
X036702Y019125D02*
X040330Y019125D01*
X040331Y019126D02*
X040311Y019079D01*
X040305Y019081D01*
X040163Y019081D01*
X040031Y019026D01*
X039931Y018926D01*
X039876Y018794D01*
X039876Y018652D01*
X039931Y018520D01*
X040031Y018419D01*
X040163Y018365D01*
X040305Y018365D01*
X040437Y018419D01*
X040538Y018520D01*
X040557Y018567D01*
X040563Y018565D01*
X040705Y018565D01*
X040837Y018619D01*
X040938Y018720D01*
X040992Y018852D01*
X040992Y018994D01*
X040938Y019126D01*
X040837Y019226D01*
X040705Y019281D01*
X040563Y019281D01*
X040431Y019226D01*
X040331Y019126D01*
X040333Y019283D02*
X046769Y019283D01*
X046715Y019306D02*
X046868Y019242D01*
X047034Y019242D01*
X047187Y019306D01*
X047305Y019423D01*
X047368Y019576D01*
X047368Y019742D01*
X047305Y019896D01*
X047187Y020013D01*
X047034Y020077D01*
X046868Y020077D01*
X046715Y020013D01*
X046597Y019896D01*
X046534Y019742D01*
X046534Y019576D01*
X046597Y019423D01*
X046715Y019306D01*
X046590Y019442D02*
X044723Y019442D01*
X044680Y019399D02*
X044798Y019516D01*
X044861Y019670D01*
X044861Y019836D01*
X044798Y019989D01*
X044680Y020106D01*
X044527Y020170D01*
X044361Y020170D01*
X044208Y020106D01*
X044091Y019989D01*
X044027Y019836D01*
X044027Y019670D01*
X044091Y019516D01*
X044208Y019399D01*
X044361Y019336D01*
X044527Y019336D01*
X044680Y019399D01*
X044833Y019600D02*
X046534Y019600D01*
X046541Y019759D02*
X044861Y019759D01*
X044827Y019918D02*
X046619Y019918D01*
X046867Y020076D02*
X044711Y020076D01*
X044177Y020076D02*
X040235Y020076D01*
X040358Y020149D02*
X040241Y020266D01*
X040177Y020420D01*
X040177Y020586D01*
X040241Y020739D01*
X040358Y020856D01*
X040511Y020920D01*
X040677Y020920D01*
X040830Y020856D01*
X040948Y020739D01*
X041011Y020586D01*
X041011Y020420D01*
X040948Y020266D01*
X040830Y020149D01*
X040677Y020086D01*
X040511Y020086D01*
X040358Y020149D01*
X040272Y020235D02*
X033829Y020235D01*
X033861Y020266D02*
X033925Y020420D01*
X033925Y020586D01*
X033861Y020739D01*
X033744Y020856D01*
X033669Y020887D01*
X033755Y020973D01*
X033818Y021126D01*
X033818Y021292D01*
X033755Y021446D01*
X033637Y021563D01*
X033484Y021627D01*
X033318Y021627D01*
X033165Y021563D01*
X033047Y021446D01*
X032984Y021292D01*
X032984Y021126D01*
X033047Y020973D01*
X033165Y020856D01*
X033240Y020825D01*
X033154Y020739D01*
X033090Y020586D01*
X033090Y020420D01*
X033154Y020266D01*
X033271Y020149D01*
X033425Y020086D01*
X033591Y020086D01*
X033744Y020149D01*
X033861Y020266D01*
X033914Y020393D02*
X040188Y020393D01*
X040177Y020552D02*
X033925Y020552D01*
X033873Y020710D02*
X040229Y020710D01*
X040388Y020869D02*
X039429Y020869D01*
X039694Y021027D02*
X040243Y021027D01*
X040285Y020986D02*
X040167Y021103D01*
X040104Y021256D01*
X040104Y021422D01*
X040167Y021576D01*
X040285Y021693D01*
X040438Y021757D01*
X040604Y021757D01*
X040757Y021693D01*
X040875Y021576D01*
X040938Y021422D01*
X040938Y021256D01*
X040875Y021103D01*
X040757Y020986D01*
X040604Y020922D01*
X040438Y020922D01*
X040285Y020986D01*
X040133Y021186D02*
X039853Y021186D01*
X039920Y021344D02*
X040104Y021344D01*
X040137Y021503D02*
X039986Y021503D01*
X039988Y021662D02*
X040253Y021662D01*
X040789Y021662D02*
X047333Y021662D01*
X047223Y021503D02*
X043377Y021503D01*
X043357Y021523D02*
X043475Y021406D01*
X043538Y021252D01*
X043538Y021086D01*
X043475Y020933D01*
X043357Y020816D01*
X043204Y020752D01*
X043038Y020752D01*
X042885Y020816D01*
X042767Y020933D01*
X042704Y021086D01*
X042704Y021252D01*
X042767Y021406D01*
X042885Y021523D01*
X043038Y021587D01*
X043204Y021587D01*
X043357Y021523D01*
X043500Y021344D02*
X047194Y021344D01*
X047227Y021186D02*
X043538Y021186D01*
X043514Y021027D02*
X047343Y021027D01*
X047474Y020869D02*
X043410Y020869D01*
X042832Y020869D02*
X040801Y020869D01*
X040799Y021027D02*
X042728Y021027D01*
X042704Y021186D02*
X040909Y021186D01*
X040938Y021344D02*
X042742Y021344D01*
X042865Y021503D02*
X040905Y021503D01*
X040960Y020710D02*
X047315Y020710D01*
X047264Y020552D02*
X041011Y020552D01*
X041000Y020393D02*
X047275Y020393D01*
X047359Y020235D02*
X040916Y020235D01*
X040483Y019918D02*
X044061Y019918D01*
X044027Y019759D02*
X040561Y019759D01*
X040568Y019600D02*
X044056Y019600D01*
X044165Y019442D02*
X040512Y019442D01*
X040938Y019125D02*
X043170Y019125D01*
X043171Y019126D02*
X043116Y018994D01*
X043116Y018852D01*
X043171Y018720D01*
X043271Y018619D01*
X043403Y018565D01*
X043546Y018565D01*
X043551Y018567D01*
X043571Y018520D01*
X043671Y018419D01*
X043803Y018365D01*
X043937Y018365D01*
X043907Y018292D01*
X043907Y018126D01*
X043971Y017973D01*
X044088Y017856D01*
X044241Y017792D01*
X044407Y017792D01*
X044561Y017856D01*
X044678Y017973D01*
X044741Y018126D01*
X044741Y018292D01*
X044678Y018446D01*
X044561Y018563D01*
X044407Y018627D01*
X044241Y018627D01*
X044218Y018617D01*
X044232Y018652D01*
X044232Y018794D01*
X044178Y018926D01*
X044077Y019026D01*
X043946Y019081D01*
X043803Y019081D01*
X043797Y019079D01*
X043778Y019126D01*
X043677Y019226D01*
X043546Y019281D01*
X043403Y019281D01*
X043271Y019226D01*
X043171Y019126D01*
X043116Y018966D02*
X040992Y018966D01*
X040974Y018808D02*
X043134Y018808D01*
X043241Y018649D02*
X040867Y018649D01*
X040508Y018491D02*
X043600Y018491D01*
X043924Y018332D02*
X037918Y018332D01*
X037918Y018392D02*
X037855Y018546D01*
X037737Y018663D01*
X037584Y018727D01*
X037418Y018727D01*
X037265Y018663D01*
X037147Y018546D01*
X037084Y018392D01*
X037084Y018226D01*
X037147Y018073D01*
X037265Y017956D01*
X037418Y017892D01*
X037584Y017892D01*
X037737Y017956D01*
X037855Y018073D01*
X037918Y018226D01*
X037918Y018392D01*
X037878Y018491D02*
X039960Y018491D01*
X039877Y018649D02*
X037751Y018649D01*
X037251Y018649D02*
X037109Y018649D01*
X037102Y018808D02*
X039882Y018808D01*
X039971Y018966D02*
X037011Y018966D01*
X037029Y018491D02*
X037125Y018491D01*
X037084Y018332D02*
X030552Y018332D01*
X030568Y018174D02*
X037106Y018174D01*
X037206Y018015D02*
X030522Y018015D01*
X030388Y017856D02*
X044087Y017856D01*
X043953Y018015D02*
X037797Y018015D01*
X037896Y018174D02*
X043907Y018174D01*
X044561Y017856D02*
X051174Y017856D01*
X051040Y018015D02*
X044695Y018015D01*
X044741Y018174D02*
X050994Y018174D01*
X051010Y018332D02*
X044725Y018332D01*
X044633Y018491D02*
X047046Y018491D01*
X047017Y018520D02*
X047118Y018419D01*
X047250Y018365D01*
X047392Y018365D01*
X047524Y018419D01*
X047624Y018520D01*
X047644Y018567D01*
X047650Y018565D01*
X047792Y018565D01*
X047924Y018619D01*
X048024Y018720D01*
X048079Y018852D01*
X048079Y018994D01*
X048024Y019126D01*
X047924Y019226D01*
X047792Y019281D01*
X047650Y019281D01*
X047518Y019226D01*
X047417Y019126D01*
X047398Y019079D01*
X047392Y019081D01*
X047250Y019081D01*
X047118Y019026D01*
X047017Y018926D01*
X046963Y018794D01*
X046963Y018652D01*
X047017Y018520D01*
X046964Y018649D02*
X044231Y018649D01*
X044227Y018808D02*
X046968Y018808D01*
X047058Y018966D02*
X044137Y018966D01*
X043778Y019125D02*
X047417Y019125D01*
X047133Y019283D02*
X053837Y019283D01*
X053719Y019442D02*
X051810Y019442D01*
X051767Y019399D02*
X051884Y019516D01*
X051948Y019670D01*
X051948Y019836D01*
X051884Y019989D01*
X051767Y020106D01*
X051614Y020170D01*
X051448Y020170D01*
X051294Y020106D01*
X051177Y019989D01*
X051114Y019836D01*
X051114Y019670D01*
X051177Y019516D01*
X051294Y019399D01*
X051448Y019336D01*
X051614Y019336D01*
X051767Y019399D01*
X051919Y019600D02*
X053684Y019600D01*
X053712Y019759D02*
X051948Y019759D01*
X051914Y019918D02*
X053819Y019918D01*
X051797Y020076D02*
X058351Y020076D01*
X058884Y020076D02*
X059548Y020076D01*
X059548Y019918D02*
X059001Y019918D01*
X059035Y019759D02*
X059548Y019759D01*
X059548Y019600D02*
X059006Y019600D01*
X058896Y019442D02*
X059548Y019442D01*
X059548Y018015D02*
X059314Y018015D01*
X059141Y018015D02*
X051782Y018015D01*
X051648Y017856D02*
X058895Y017856D01*
X051252Y019442D02*
X047312Y019442D01*
X047368Y019600D02*
X051142Y019600D01*
X051114Y019759D02*
X047361Y019759D01*
X047283Y019918D02*
X051148Y019918D01*
X051264Y020076D02*
X047035Y020076D01*
X048025Y019125D02*
X050257Y019125D01*
X050203Y018966D02*
X048079Y018966D01*
X048061Y018808D02*
X050221Y018808D01*
X050328Y018649D02*
X047954Y018649D01*
X047595Y018491D02*
X050687Y018491D01*
X046990Y017222D02*
X040533Y017222D01*
X040576Y017064D02*
X046947Y017064D01*
X046976Y016905D02*
X040547Y016905D01*
X040424Y016747D02*
X047099Y016747D01*
X040556Y013417D02*
X036017Y013417D01*
X035934Y013452D02*
X035639Y013452D01*
X035367Y013339D01*
X035161Y013133D01*
X034956Y013339D01*
X034684Y013452D01*
X034389Y013452D01*
X034117Y013339D01*
X033909Y013131D01*
X033797Y012859D01*
X033797Y012565D01*
X033909Y012293D01*
X034117Y012084D01*
X034389Y011972D01*
X034684Y011972D01*
X034956Y012084D01*
X035161Y012290D01*
X035367Y012084D01*
X035639Y011972D01*
X035934Y011972D01*
X036206Y012084D01*
X036414Y012293D01*
X036457Y012398D01*
X036488Y012345D01*
X036540Y012277D01*
X036601Y012215D01*
X036670Y012163D01*
X036745Y012120D01*
X036824Y012087D01*
X036908Y012064D01*
X036989Y012054D01*
X036989Y012664D01*
X037084Y012664D01*
X037084Y012054D01*
X037165Y012064D01*
X037249Y012087D01*
X037329Y012120D01*
X037403Y012163D01*
X037472Y012215D01*
X037533Y012277D01*
X037585Y012345D01*
X037629Y012420D01*
X037662Y012500D01*
X037684Y012583D01*
X037695Y012664D01*
X037085Y012664D01*
X037085Y012760D01*
X037695Y012760D01*
X037684Y012841D01*
X037662Y012924D01*
X037629Y013004D01*
X037585Y013079D01*
X037533Y013147D01*
X037472Y013208D01*
X037403Y013261D01*
X037329Y013304D01*
X037249Y013337D01*
X037165Y013359D01*
X037084Y013370D01*
X037084Y012760D01*
X036989Y012760D01*
X036989Y013370D01*
X036908Y013359D01*
X036824Y013337D01*
X036745Y013304D01*
X036670Y013261D01*
X036601Y013208D01*
X036540Y013147D01*
X036488Y013079D01*
X036457Y013026D01*
X036414Y013131D01*
X036206Y013339D01*
X035934Y013452D01*
X035556Y013417D02*
X034767Y013417D01*
X035036Y013259D02*
X035287Y013259D01*
X034306Y013417D02*
X028517Y013417D01*
X028434Y013452D02*
X028139Y013452D01*
X027867Y013339D01*
X027659Y013131D01*
X027547Y012859D01*
X027547Y012565D01*
X027659Y012293D01*
X027867Y012084D01*
X028139Y011972D01*
X028434Y011972D01*
X028706Y012084D01*
X028914Y012293D01*
X028957Y012398D01*
X028988Y012345D01*
X029040Y012277D01*
X029101Y012215D01*
X029170Y012163D01*
X029245Y012120D01*
X029324Y012087D01*
X029408Y012064D01*
X029489Y012054D01*
X029489Y012664D01*
X029584Y012664D01*
X029584Y012054D01*
X029665Y012064D01*
X029749Y012087D01*
X029829Y012120D01*
X029903Y012163D01*
X029972Y012215D01*
X030033Y012277D01*
X030085Y012345D01*
X030129Y012420D01*
X030161Y012499D01*
X030194Y012420D01*
X030238Y012345D01*
X030290Y012277D01*
X030351Y012215D01*
X030420Y012163D01*
X030495Y012120D01*
X030574Y012087D01*
X030658Y012064D01*
X030739Y012054D01*
X030739Y012664D01*
X030834Y012664D01*
X030834Y012054D01*
X030915Y012064D01*
X030999Y012087D01*
X031079Y012120D01*
X031153Y012163D01*
X031222Y012215D01*
X031283Y012277D01*
X031335Y012345D01*
X031379Y012420D01*
X031412Y012500D01*
X031434Y012583D01*
X031445Y012664D01*
X030835Y012664D01*
X030835Y012760D01*
X031445Y012760D01*
X031434Y012841D01*
X031412Y012924D01*
X031379Y013004D01*
X031335Y013079D01*
X031283Y013147D01*
X031222Y013208D01*
X031153Y013261D01*
X031079Y013304D01*
X030999Y013337D01*
X030915Y013359D01*
X030834Y013370D01*
X030834Y012760D01*
X030739Y012760D01*
X030739Y013370D01*
X030658Y013359D01*
X030574Y013337D01*
X030495Y013304D01*
X030420Y013261D01*
X030351Y013208D01*
X030290Y013147D01*
X030238Y013079D01*
X030194Y013004D01*
X030161Y012924D01*
X030129Y013004D01*
X030085Y013079D01*
X030033Y013147D01*
X029972Y013208D01*
X029903Y013261D01*
X029829Y013304D01*
X029749Y013337D01*
X029665Y013359D01*
X029584Y013370D01*
X029584Y012760D01*
X029489Y012760D01*
X029489Y013370D01*
X029408Y013359D01*
X029324Y013337D01*
X029245Y013304D01*
X029170Y013261D01*
X029101Y013208D01*
X029040Y013147D01*
X028988Y013079D01*
X028957Y013026D01*
X028914Y013131D01*
X028706Y013339D01*
X028434Y013452D01*
X028056Y013417D02*
X023517Y013417D01*
X023786Y013259D02*
X024167Y013259D01*
X024004Y013100D02*
X023927Y013100D01*
X024489Y013100D02*
X024584Y013100D01*
X024584Y012942D02*
X024489Y012942D01*
X024489Y012783D02*
X024584Y012783D01*
X024584Y012625D02*
X024489Y012625D01*
X024489Y012466D02*
X024584Y012466D01*
X024584Y012307D02*
X024489Y012307D01*
X024489Y012149D02*
X024584Y012149D01*
X024879Y012149D02*
X027803Y012149D01*
X027653Y012307D02*
X025057Y012307D01*
X025148Y012466D02*
X027587Y012466D01*
X027547Y012625D02*
X025189Y012625D01*
X025192Y012783D02*
X027547Y012783D01*
X027581Y012942D02*
X025154Y012942D01*
X025069Y013100D02*
X027646Y013100D01*
X027787Y013259D02*
X024906Y013259D01*
X024584Y013259D02*
X024489Y013259D01*
X023056Y013417D02*
X018611Y013417D01*
X018572Y013401D02*
X018704Y013456D01*
X018805Y013557D01*
X018859Y013688D01*
X018859Y013831D01*
X018805Y013962D01*
X018704Y014063D01*
X018572Y014118D01*
X018430Y014118D01*
X018298Y014063D01*
X018198Y013962D01*
X018143Y013831D01*
X018143Y013688D01*
X018198Y013557D01*
X018298Y013456D01*
X018430Y013401D01*
X018572Y013401D01*
X018391Y013417D02*
X011515Y013417D01*
X011504Y013406D02*
X011605Y013507D01*
X011659Y013638D01*
X011659Y013781D01*
X011605Y013912D01*
X011504Y014013D01*
X011372Y014068D01*
X011230Y014068D01*
X011098Y014013D01*
X010998Y013912D01*
X010943Y013781D01*
X010943Y013638D01*
X010998Y013507D01*
X011098Y013406D01*
X011230Y013351D01*
X011372Y013351D01*
X011504Y013406D01*
X011633Y013576D02*
X018190Y013576D01*
X018143Y013734D02*
X011659Y013734D01*
X011613Y013893D02*
X018169Y013893D01*
X018287Y014051D02*
X011411Y014051D01*
X011191Y014051D02*
X004668Y014051D01*
X004634Y013893D02*
X010990Y013893D01*
X010943Y013734D02*
X004516Y013734D01*
X004261Y013576D02*
X002941Y013576D01*
X002941Y013734D02*
X003986Y013734D01*
X003869Y013893D02*
X002941Y013893D01*
X002941Y014051D02*
X003834Y014051D01*
X003862Y014210D02*
X002941Y014210D01*
X002941Y014369D02*
X003970Y014369D01*
X004193Y013417D02*
X002941Y013417D01*
X002941Y013259D02*
X004205Y013259D01*
X004304Y013100D02*
X002941Y013100D01*
X002941Y012942D02*
X022581Y012942D01*
X022547Y012783D02*
X002941Y012783D01*
X002941Y012625D02*
X022547Y012625D01*
X022587Y012466D02*
X013151Y012466D01*
X013248Y012307D02*
X022653Y012307D01*
X022803Y012149D02*
X013259Y012149D01*
X013188Y011990D02*
X022769Y011990D01*
X022639Y011832D02*
X013238Y011832D01*
X013259Y011673D02*
X022573Y011673D01*
X022547Y011515D02*
X013208Y011515D01*
X013228Y011356D02*
X022547Y011356D01*
X022595Y011198D02*
X013259Y011198D01*
X013218Y011039D02*
X022663Y011039D01*
X022821Y010881D02*
X013043Y010881D01*
X012651Y012466D02*
X002941Y012466D01*
X004798Y013100D02*
X022646Y013100D01*
X022787Y013259D02*
X004897Y013259D01*
X004909Y013417D02*
X011087Y013417D01*
X010969Y013576D02*
X004841Y013576D01*
X004991Y016747D02*
X011666Y016747D01*
X011543Y016905D02*
X005114Y016905D01*
X005143Y017064D02*
X011513Y017064D01*
X011556Y017222D02*
X005100Y017222D01*
X004470Y017222D02*
X002941Y017222D01*
X002941Y017064D02*
X004427Y017064D01*
X004456Y016905D02*
X002941Y016905D01*
X002941Y016747D02*
X004579Y016747D01*
X012077Y016747D02*
X018752Y016747D01*
X018629Y016905D02*
X012200Y016905D01*
X012230Y017064D02*
X018600Y017064D01*
X018643Y017222D02*
X012187Y017222D01*
X019164Y016747D02*
X025839Y016747D01*
X025716Y016905D02*
X019287Y016905D01*
X019316Y017064D02*
X025687Y017064D01*
X025730Y017222D02*
X019273Y017222D01*
X019656Y020235D02*
X026099Y020235D01*
X026067Y020266D02*
X026185Y020149D01*
X026338Y020086D01*
X026504Y020086D01*
X026657Y020149D01*
X026775Y020266D01*
X026838Y020420D01*
X026838Y020586D01*
X026775Y020739D01*
X026657Y020856D01*
X026573Y020891D01*
X026655Y020973D01*
X026718Y021126D01*
X026718Y021292D01*
X026655Y021446D01*
X026537Y021563D01*
X026384Y021627D01*
X026218Y021627D01*
X026065Y021563D01*
X025947Y021446D01*
X025884Y021292D01*
X025884Y021126D01*
X025947Y020973D01*
X026065Y020856D01*
X026149Y020821D01*
X026067Y020739D01*
X026004Y020586D01*
X026004Y020420D01*
X026067Y020266D01*
X026015Y020393D02*
X019740Y020393D01*
X019751Y020552D02*
X026004Y020552D01*
X026055Y020710D02*
X019700Y020710D01*
X020216Y022201D02*
X020359Y022201D01*
X020491Y022255D01*
X020534Y022299D01*
X020654Y022299D01*
X020786Y022354D01*
X020887Y022455D01*
X020941Y022586D01*
X020941Y022729D01*
X020887Y022860D01*
X020786Y022961D01*
X020654Y023016D01*
X020512Y023016D01*
X020380Y022961D01*
X020336Y022917D01*
X020216Y022917D01*
X020085Y022863D01*
X019984Y022762D01*
X019930Y022630D01*
X019930Y022488D01*
X019984Y022356D01*
X020085Y022255D01*
X020216Y022201D01*
X020045Y022296D02*
X018894Y022296D01*
X018905Y022307D02*
X018959Y022438D01*
X018959Y022581D01*
X018905Y022712D01*
X018804Y022813D01*
X018672Y022868D01*
X018530Y022868D01*
X018398Y022813D01*
X018298Y022712D01*
X018243Y022581D01*
X018243Y022438D01*
X018298Y022307D01*
X018398Y022206D01*
X018530Y022151D01*
X018672Y022151D01*
X018804Y022206D01*
X018905Y022307D01*
X018959Y022454D02*
X019943Y022454D01*
X019930Y022613D02*
X018946Y022613D01*
X018846Y022771D02*
X019994Y022771D01*
X020349Y022930D02*
X016337Y022930D01*
X016334Y022933D02*
X016181Y022997D01*
X016015Y022997D01*
X015861Y022933D01*
X015744Y022816D01*
X015681Y022662D01*
X015681Y022496D01*
X015744Y022343D01*
X015861Y022226D01*
X016015Y022162D01*
X016181Y022162D01*
X016334Y022226D01*
X016451Y022343D01*
X016515Y022496D01*
X016515Y022662D01*
X016451Y022816D01*
X016334Y022933D01*
X016470Y022771D02*
X018357Y022771D01*
X018256Y022613D02*
X016515Y022613D01*
X016497Y022454D02*
X018243Y022454D01*
X018308Y022296D02*
X016404Y022296D01*
X015791Y022296D02*
X013444Y022296D01*
X013448Y022299D02*
X013568Y022299D01*
X013699Y022354D01*
X013800Y022455D01*
X013854Y022586D01*
X013854Y022729D01*
X013800Y022860D01*
X013699Y022961D01*
X013568Y023016D01*
X013425Y023016D01*
X013294Y022961D01*
X013250Y022917D01*
X013130Y022917D01*
X012998Y022863D01*
X012898Y022762D01*
X012843Y022630D01*
X012843Y022488D01*
X012898Y022356D01*
X012998Y022255D01*
X013130Y022201D01*
X013272Y022201D01*
X013404Y022255D01*
X013448Y022299D01*
X013800Y022454D02*
X015698Y022454D01*
X015681Y022613D02*
X013854Y022613D01*
X013837Y022771D02*
X015726Y022771D01*
X015858Y022930D02*
X013730Y022930D01*
X013262Y022930D02*
X009251Y022930D01*
X009383Y022771D02*
X012907Y022771D01*
X012843Y022613D02*
X009428Y022613D01*
X009411Y022454D02*
X010364Y022454D01*
X011180Y022454D02*
X012857Y022454D01*
X012958Y022296D02*
X011388Y022296D01*
X011525Y022137D02*
X024192Y022137D01*
X024127Y021979D02*
X011591Y021979D01*
X011642Y021820D02*
X024075Y021820D01*
X024329Y022296D02*
X023491Y022296D01*
X023538Y022343D02*
X023601Y022496D01*
X023601Y022662D01*
X023538Y022816D01*
X023421Y022933D01*
X023267Y022997D01*
X023101Y022997D01*
X022948Y022933D01*
X022831Y022816D01*
X022767Y022662D01*
X022767Y022496D01*
X022831Y022343D01*
X022948Y022226D01*
X023101Y022162D01*
X023267Y022162D01*
X023421Y022226D01*
X023538Y022343D01*
X023584Y022454D02*
X024537Y022454D01*
X023601Y022613D02*
X027016Y022613D01*
X027016Y022630D02*
X027016Y022488D01*
X027071Y022356D01*
X027171Y022255D01*
X027303Y022201D01*
X027446Y022201D01*
X027577Y022255D01*
X027621Y022299D01*
X027741Y022299D01*
X027872Y022354D01*
X027973Y022455D01*
X028028Y022586D01*
X028028Y022729D01*
X027973Y022860D01*
X027872Y022961D01*
X027741Y023016D01*
X027598Y023016D01*
X027467Y022961D01*
X027423Y022917D01*
X027303Y022917D01*
X027171Y022863D01*
X027071Y022762D01*
X027016Y022630D01*
X027080Y022771D02*
X023556Y022771D01*
X023424Y022930D02*
X027436Y022930D01*
X027904Y022930D02*
X030031Y022930D01*
X030035Y022933D02*
X029917Y022816D01*
X029854Y022662D01*
X029854Y022496D01*
X029917Y022343D01*
X030035Y022226D01*
X030188Y022162D01*
X030354Y022162D01*
X030507Y022226D01*
X030625Y022343D01*
X030688Y022496D01*
X030688Y022662D01*
X030625Y022816D01*
X030507Y022933D01*
X030354Y022997D01*
X030188Y022997D01*
X030035Y022933D01*
X029899Y022771D02*
X028010Y022771D01*
X028028Y022613D02*
X029854Y022613D01*
X029871Y022454D02*
X027973Y022454D01*
X027617Y022296D02*
X029965Y022296D01*
X030577Y022296D02*
X034218Y022296D01*
X034258Y022255D02*
X034157Y022356D01*
X034103Y022488D01*
X034103Y022630D01*
X034157Y022762D01*
X034258Y022863D01*
X034390Y022917D01*
X034509Y022917D01*
X034553Y022961D01*
X034685Y023016D01*
X034827Y023016D01*
X034959Y022961D01*
X035060Y022860D01*
X035114Y022729D01*
X035114Y022586D01*
X035060Y022455D01*
X034959Y022354D01*
X034827Y022299D01*
X034708Y022299D01*
X034664Y022255D01*
X034532Y022201D01*
X034390Y022201D01*
X034258Y022255D01*
X034117Y022454D02*
X030671Y022454D01*
X030688Y022613D02*
X034103Y022613D01*
X034167Y022771D02*
X030643Y022771D01*
X030510Y022930D02*
X034522Y022930D01*
X034990Y022930D02*
X037118Y022930D01*
X037121Y022933D02*
X037004Y022816D01*
X036940Y022662D01*
X036940Y022496D01*
X037004Y022343D01*
X037121Y022226D01*
X037275Y022162D01*
X037441Y022162D01*
X037594Y022226D01*
X037711Y022343D01*
X037775Y022496D01*
X037775Y022662D01*
X037711Y022816D01*
X037594Y022933D01*
X037441Y022997D01*
X037275Y022997D01*
X037121Y022933D01*
X036986Y022771D02*
X035097Y022771D01*
X035114Y022613D02*
X036940Y022613D01*
X036958Y022454D02*
X035059Y022454D01*
X034704Y022296D02*
X037051Y022296D01*
X037664Y022296D02*
X038502Y022296D01*
X038365Y022137D02*
X025698Y022137D01*
X025764Y021979D02*
X038300Y021979D01*
X038249Y021820D02*
X025815Y021820D01*
X025815Y021662D02*
X038249Y021662D01*
X038251Y021503D02*
X036287Y021503D01*
X036277Y021513D02*
X036395Y021396D01*
X036458Y021242D01*
X036458Y021076D01*
X036395Y020923D01*
X036277Y020806D01*
X036124Y020742D01*
X035958Y020742D01*
X035805Y020806D01*
X035687Y020923D01*
X035624Y021076D01*
X035624Y021242D01*
X035687Y021396D01*
X035805Y021513D01*
X035958Y021577D01*
X036124Y021577D01*
X036277Y021513D01*
X036416Y021344D02*
X038317Y021344D01*
X038384Y021186D02*
X036458Y021186D01*
X036438Y021027D02*
X038543Y021027D01*
X038808Y020869D02*
X036340Y020869D01*
X035742Y020869D02*
X033714Y020869D01*
X033777Y021027D02*
X035644Y021027D01*
X035624Y021186D02*
X033818Y021186D01*
X033797Y021344D02*
X035666Y021344D01*
X035795Y021503D02*
X033697Y021503D01*
X033105Y021503D02*
X029197Y021503D01*
X029187Y021513D02*
X029305Y021396D01*
X029368Y021242D01*
X029368Y021076D01*
X029305Y020923D01*
X029187Y020806D01*
X029034Y020742D01*
X028868Y020742D01*
X028715Y020806D01*
X028597Y020923D01*
X028534Y021076D01*
X028534Y021242D01*
X028597Y021396D01*
X028715Y021513D01*
X028868Y021577D01*
X029034Y021577D01*
X029187Y021513D01*
X029326Y021344D02*
X033006Y021344D01*
X032984Y021186D02*
X029368Y021186D01*
X029348Y021027D02*
X033025Y021027D01*
X033152Y020869D02*
X029250Y020869D01*
X028652Y020869D02*
X026627Y020869D01*
X026677Y021027D02*
X028554Y021027D01*
X028534Y021186D02*
X026718Y021186D01*
X026697Y021344D02*
X028576Y021344D01*
X028705Y021503D02*
X026597Y021503D01*
X026005Y021503D02*
X025813Y021503D01*
X025747Y021344D02*
X025906Y021344D01*
X025884Y021186D02*
X025679Y021186D01*
X025521Y021027D02*
X025925Y021027D01*
X026052Y020869D02*
X025255Y020869D01*
X026787Y020710D02*
X033142Y020710D01*
X033090Y020552D02*
X026838Y020552D01*
X026827Y020393D02*
X032328Y020393D01*
X032215Y020235D02*
X026743Y020235D01*
X027131Y022296D02*
X025562Y022296D01*
X025354Y022454D02*
X027030Y022454D01*
X026248Y023830D02*
X026348Y023931D01*
X026403Y024063D01*
X026403Y024205D01*
X026348Y024337D01*
X026248Y024437D01*
X026116Y024492D01*
X025974Y024492D01*
X025842Y024437D01*
X025741Y024337D01*
X025687Y024205D01*
X025687Y024063D01*
X025741Y023931D01*
X025842Y023830D01*
X025974Y023776D01*
X026116Y023776D01*
X026248Y023830D01*
X026299Y023881D02*
X032878Y023881D01*
X032828Y023931D02*
X032929Y023830D01*
X033060Y023776D01*
X033203Y023776D01*
X033334Y023830D01*
X033435Y023931D01*
X033489Y024063D01*
X033489Y024205D01*
X033435Y024337D01*
X033334Y024437D01*
X033203Y024492D01*
X033060Y024492D01*
X032929Y024437D01*
X032828Y024337D01*
X032773Y024205D01*
X032773Y024063D01*
X032828Y023931D01*
X032783Y024040D02*
X026393Y024040D01*
X026403Y024198D02*
X032773Y024198D01*
X032848Y024357D02*
X026328Y024357D01*
X025761Y024357D02*
X019242Y024357D01*
X019262Y024337D02*
X019161Y024437D01*
X019029Y024492D01*
X018887Y024492D01*
X018755Y024437D01*
X018655Y024337D01*
X018600Y024205D01*
X018600Y024063D01*
X018655Y023931D01*
X018755Y023830D01*
X018887Y023776D01*
X019029Y023776D01*
X019161Y023830D01*
X019262Y023931D01*
X019316Y024063D01*
X019316Y024205D01*
X019262Y024337D01*
X019316Y024198D02*
X025687Y024198D01*
X025696Y024040D02*
X019307Y024040D01*
X019212Y023881D02*
X025791Y023881D01*
X023457Y025149D02*
X029745Y025149D01*
X029830Y024991D02*
X023373Y024991D01*
X022945Y022930D02*
X020817Y022930D01*
X020923Y022771D02*
X022812Y022771D01*
X022767Y022613D02*
X020941Y022613D01*
X020886Y022454D02*
X022785Y022454D01*
X022878Y022296D02*
X020531Y022296D01*
X018704Y023881D02*
X012125Y023881D01*
X012220Y024040D02*
X018610Y024040D01*
X018600Y024198D02*
X012230Y024198D01*
X012155Y024357D02*
X018675Y024357D01*
X030473Y024991D02*
X036930Y024991D01*
X036845Y025149D02*
X030557Y025149D01*
X033415Y024357D02*
X039935Y024357D01*
X039914Y024337D02*
X039860Y024205D01*
X039860Y024063D01*
X039914Y023931D01*
X040015Y023830D01*
X040147Y023776D01*
X040289Y023776D01*
X040421Y023830D01*
X040522Y023931D01*
X040576Y024063D01*
X040576Y024205D01*
X040522Y024337D01*
X040421Y024437D01*
X040289Y024492D01*
X040147Y024492D01*
X040015Y024437D01*
X039914Y024337D01*
X039860Y024198D02*
X033489Y024198D01*
X033480Y024040D02*
X039869Y024040D01*
X039964Y023881D02*
X033385Y023881D01*
X037597Y022930D02*
X041609Y022930D01*
X041253Y022771D02*
X037730Y022771D01*
X037775Y022613D02*
X041189Y022613D01*
X041203Y022454D02*
X039527Y022454D01*
X038710Y022454D02*
X037757Y022454D01*
X040472Y023881D02*
X047051Y023881D01*
X046956Y024040D02*
X040567Y024040D01*
X040576Y024198D02*
X046947Y024198D01*
X047021Y024357D02*
X040501Y024357D01*
X043717Y026259D02*
X047464Y026259D01*
X047977Y026259D02*
X050291Y026259D01*
X050198Y026101D02*
X048071Y026101D01*
X048079Y025942D02*
X050189Y025942D01*
X050267Y025784D02*
X048001Y025784D01*
X047632Y025625D02*
X050636Y025625D01*
X051818Y025308D02*
X059548Y025308D01*
X059548Y025149D02*
X051807Y025149D01*
X051723Y024991D02*
X059548Y024991D01*
X053153Y026418D02*
X046699Y026418D01*
X047505Y027211D02*
X044638Y027211D01*
X033101Y020393D02*
X032774Y020393D01*
X032887Y020235D02*
X033186Y020235D01*
X032193Y020076D02*
X032174Y020076D01*
X032816Y017222D02*
X026360Y017222D01*
X026403Y017064D02*
X032773Y017064D01*
X032803Y016905D02*
X026374Y016905D01*
X026251Y016747D02*
X032926Y016747D01*
X033337Y016747D02*
X040012Y016747D01*
X039889Y016905D02*
X033460Y016905D01*
X033489Y017064D02*
X039860Y017064D01*
X039903Y017222D02*
X033446Y017222D01*
X032255Y015320D02*
X030651Y015320D01*
X030529Y015161D02*
X032193Y015161D01*
X031156Y013259D02*
X034037Y013259D01*
X033896Y013100D02*
X031319Y013100D01*
X031404Y012942D02*
X033831Y012942D01*
X033797Y012783D02*
X031442Y012783D01*
X031439Y012625D02*
X033797Y012625D01*
X033837Y012466D02*
X031398Y012466D01*
X031307Y012307D02*
X033903Y012307D01*
X034053Y012149D02*
X031129Y012149D01*
X030834Y012149D02*
X030739Y012149D01*
X030739Y012307D02*
X030834Y012307D01*
X030834Y012466D02*
X030739Y012466D01*
X030739Y012625D02*
X030834Y012625D01*
X030738Y012664D02*
X030128Y012664D01*
X029585Y012664D01*
X029585Y012760D01*
X030128Y012760D01*
X030738Y012760D01*
X030738Y012664D01*
X030739Y012783D02*
X030834Y012783D01*
X030834Y012942D02*
X030739Y012942D01*
X030739Y013100D02*
X030834Y013100D01*
X030834Y013259D02*
X030739Y013259D01*
X030417Y013259D02*
X029906Y013259D01*
X030069Y013100D02*
X030254Y013100D01*
X030169Y012942D02*
X030154Y012942D01*
X029584Y012942D02*
X029489Y012942D01*
X029489Y013100D02*
X029584Y013100D01*
X029584Y013259D02*
X029489Y013259D01*
X029167Y013259D02*
X028786Y013259D01*
X028927Y013100D02*
X029004Y013100D01*
X029489Y012783D02*
X029584Y012783D01*
X029584Y012625D02*
X029489Y012625D01*
X029489Y012466D02*
X029584Y012466D01*
X029584Y012307D02*
X029489Y012307D01*
X029489Y012149D02*
X029584Y012149D01*
X029879Y012149D02*
X030444Y012149D01*
X030266Y012307D02*
X030057Y012307D01*
X030148Y012466D02*
X030175Y012466D01*
X029194Y012149D02*
X028770Y012149D01*
X028920Y012307D02*
X029016Y012307D01*
X028479Y011990D02*
X034344Y011990D01*
X034729Y011990D02*
X035594Y011990D01*
X035303Y012149D02*
X035020Y012149D01*
X035979Y011990D02*
X040594Y011990D01*
X040303Y012149D02*
X037379Y012149D01*
X037557Y012307D02*
X040153Y012307D01*
X040087Y012466D02*
X037648Y012466D01*
X037689Y012625D02*
X040047Y012625D01*
X040047Y012783D02*
X037692Y012783D01*
X037654Y012942D02*
X040081Y012942D01*
X040146Y013100D02*
X037569Y013100D01*
X037406Y013259D02*
X040287Y013259D01*
X040979Y011990D02*
X041844Y011990D01*
X041553Y012149D02*
X041270Y012149D01*
X042229Y011990D02*
X042764Y011990D01*
X042764Y011832D02*
X023934Y011832D01*
X023804Y011990D02*
X028094Y011990D01*
X024194Y012149D02*
X023770Y012149D01*
X023920Y012307D02*
X024016Y012307D01*
X024026Y011356D02*
X043860Y011356D01*
X043854Y011198D02*
X023978Y011198D01*
X023910Y011039D02*
X043911Y011039D01*
X043936Y011515D02*
X043318Y011515D01*
X043098Y011492D02*
X042945Y011556D01*
X042827Y011673D01*
X042831Y012149D02*
X042520Y012149D01*
X042670Y012307D02*
X043052Y012307D01*
X043310Y012307D02*
X043923Y012307D01*
X043916Y012783D02*
X042776Y012783D01*
X037084Y012783D02*
X036989Y012783D01*
X036989Y012625D02*
X037084Y012625D01*
X037084Y012466D02*
X036989Y012466D01*
X036989Y012307D02*
X037084Y012307D01*
X037084Y012149D02*
X036989Y012149D01*
X036694Y012149D02*
X036270Y012149D01*
X036420Y012307D02*
X036516Y012307D01*
X036989Y012942D02*
X037084Y012942D01*
X037084Y013100D02*
X036989Y013100D01*
X036989Y013259D02*
X037084Y013259D01*
X036667Y013259D02*
X036286Y013259D01*
X036427Y013100D02*
X036504Y013100D01*
X020878Y013576D02*
X020824Y013576D01*
X020378Y013576D02*
X020324Y013576D01*
X019878Y013576D02*
X018813Y013576D01*
X018859Y013734D02*
X019765Y013734D01*
X019743Y013893D02*
X018833Y013893D01*
X018715Y014051D02*
X019793Y014051D01*
M02*
