G75*
G70*
%OFA0B0*%
%FSLAX24Y24*%
%IPPOS*%
%LPD*%
%AMOC8*
5,1,8,0,0,1.08239X$1,22.5*
%
%ADD10C,0.0000*%
D10*
X002701Y001209D02*
X002701Y028769D01*
X059788Y028769D01*
X059788Y001209D01*
X002701Y001209D01*
X006061Y003622D02*
X006063Y003648D01*
X006069Y003674D01*
X006079Y003699D01*
X006092Y003722D01*
X006108Y003742D01*
X006128Y003760D01*
X006150Y003775D01*
X006173Y003787D01*
X006199Y003795D01*
X006225Y003799D01*
X006251Y003799D01*
X006277Y003795D01*
X006303Y003787D01*
X006327Y003775D01*
X006348Y003760D01*
X006368Y003742D01*
X006384Y003722D01*
X006397Y003699D01*
X006407Y003674D01*
X006413Y003648D01*
X006415Y003622D01*
X006413Y003596D01*
X006407Y003570D01*
X006397Y003545D01*
X006384Y003522D01*
X006368Y003502D01*
X006348Y003484D01*
X006326Y003469D01*
X006303Y003457D01*
X006277Y003449D01*
X006251Y003445D01*
X006225Y003445D01*
X006199Y003449D01*
X006173Y003457D01*
X006149Y003469D01*
X006128Y003484D01*
X006108Y003502D01*
X006092Y003522D01*
X006079Y003545D01*
X006069Y003570D01*
X006063Y003596D01*
X006061Y003622D01*
X007793Y003622D02*
X007795Y003648D01*
X007801Y003674D01*
X007811Y003699D01*
X007824Y003722D01*
X007840Y003742D01*
X007860Y003760D01*
X007882Y003775D01*
X007905Y003787D01*
X007931Y003795D01*
X007957Y003799D01*
X007983Y003799D01*
X008009Y003795D01*
X008035Y003787D01*
X008059Y003775D01*
X008080Y003760D01*
X008100Y003742D01*
X008116Y003722D01*
X008129Y003699D01*
X008139Y003674D01*
X008145Y003648D01*
X008147Y003622D01*
X008145Y003596D01*
X008139Y003570D01*
X008129Y003545D01*
X008116Y003522D01*
X008100Y003502D01*
X008080Y003484D01*
X008058Y003469D01*
X008035Y003457D01*
X008009Y003449D01*
X007983Y003445D01*
X007957Y003445D01*
X007931Y003449D01*
X007905Y003457D01*
X007881Y003469D01*
X007860Y003484D01*
X007840Y003502D01*
X007824Y003522D01*
X007811Y003545D01*
X007801Y003570D01*
X007795Y003596D01*
X007793Y003622D01*
X010142Y021682D02*
X010144Y021732D01*
X010150Y021782D01*
X010160Y021831D01*
X010174Y021879D01*
X010191Y021926D01*
X010212Y021971D01*
X010237Y022015D01*
X010265Y022056D01*
X010297Y022095D01*
X010331Y022132D01*
X010368Y022166D01*
X010408Y022196D01*
X010450Y022223D01*
X010494Y022247D01*
X010540Y022268D01*
X010587Y022284D01*
X010635Y022297D01*
X010685Y022306D01*
X010734Y022311D01*
X010785Y022312D01*
X010835Y022309D01*
X010884Y022302D01*
X010933Y022291D01*
X010981Y022276D01*
X011027Y022258D01*
X011072Y022236D01*
X011115Y022210D01*
X011156Y022181D01*
X011195Y022149D01*
X011231Y022114D01*
X011263Y022076D01*
X011293Y022036D01*
X011320Y021993D01*
X011343Y021949D01*
X011362Y021903D01*
X011378Y021855D01*
X011390Y021806D01*
X011398Y021757D01*
X011402Y021707D01*
X011402Y021657D01*
X011398Y021607D01*
X011390Y021558D01*
X011378Y021509D01*
X011362Y021461D01*
X011343Y021415D01*
X011320Y021371D01*
X011293Y021328D01*
X011263Y021288D01*
X011231Y021250D01*
X011195Y021215D01*
X011156Y021183D01*
X011115Y021154D01*
X011072Y021128D01*
X011027Y021106D01*
X010981Y021088D01*
X010933Y021073D01*
X010884Y021062D01*
X010835Y021055D01*
X010785Y021052D01*
X010734Y021053D01*
X010685Y021058D01*
X010635Y021067D01*
X010587Y021080D01*
X010540Y021096D01*
X010494Y021117D01*
X010450Y021141D01*
X010408Y021168D01*
X010368Y021198D01*
X010331Y021232D01*
X010297Y021269D01*
X010265Y021308D01*
X010237Y021349D01*
X010212Y021393D01*
X010191Y021438D01*
X010174Y021485D01*
X010160Y021533D01*
X010150Y021582D01*
X010144Y021632D01*
X010142Y021682D01*
X024315Y021682D02*
X024317Y021732D01*
X024323Y021782D01*
X024333Y021831D01*
X024347Y021879D01*
X024364Y021926D01*
X024385Y021971D01*
X024410Y022015D01*
X024438Y022056D01*
X024470Y022095D01*
X024504Y022132D01*
X024541Y022166D01*
X024581Y022196D01*
X024623Y022223D01*
X024667Y022247D01*
X024713Y022268D01*
X024760Y022284D01*
X024808Y022297D01*
X024858Y022306D01*
X024907Y022311D01*
X024958Y022312D01*
X025008Y022309D01*
X025057Y022302D01*
X025106Y022291D01*
X025154Y022276D01*
X025200Y022258D01*
X025245Y022236D01*
X025288Y022210D01*
X025329Y022181D01*
X025368Y022149D01*
X025404Y022114D01*
X025436Y022076D01*
X025466Y022036D01*
X025493Y021993D01*
X025516Y021949D01*
X025535Y021903D01*
X025551Y021855D01*
X025563Y021806D01*
X025571Y021757D01*
X025575Y021707D01*
X025575Y021657D01*
X025571Y021607D01*
X025563Y021558D01*
X025551Y021509D01*
X025535Y021461D01*
X025516Y021415D01*
X025493Y021371D01*
X025466Y021328D01*
X025436Y021288D01*
X025404Y021250D01*
X025368Y021215D01*
X025329Y021183D01*
X025288Y021154D01*
X025245Y021128D01*
X025200Y021106D01*
X025154Y021088D01*
X025106Y021073D01*
X025057Y021062D01*
X025008Y021055D01*
X024958Y021052D01*
X024907Y021053D01*
X024858Y021058D01*
X024808Y021067D01*
X024760Y021080D01*
X024713Y021096D01*
X024667Y021117D01*
X024623Y021141D01*
X024581Y021168D01*
X024541Y021198D01*
X024504Y021232D01*
X024470Y021269D01*
X024438Y021308D01*
X024410Y021349D01*
X024385Y021393D01*
X024364Y021438D01*
X024347Y021485D01*
X024333Y021533D01*
X024323Y021582D01*
X024317Y021632D01*
X024315Y021682D01*
X038488Y021682D02*
X038490Y021732D01*
X038496Y021782D01*
X038506Y021831D01*
X038520Y021879D01*
X038537Y021926D01*
X038558Y021971D01*
X038583Y022015D01*
X038611Y022056D01*
X038643Y022095D01*
X038677Y022132D01*
X038714Y022166D01*
X038754Y022196D01*
X038796Y022223D01*
X038840Y022247D01*
X038886Y022268D01*
X038933Y022284D01*
X038981Y022297D01*
X039031Y022306D01*
X039080Y022311D01*
X039131Y022312D01*
X039181Y022309D01*
X039230Y022302D01*
X039279Y022291D01*
X039327Y022276D01*
X039373Y022258D01*
X039418Y022236D01*
X039461Y022210D01*
X039502Y022181D01*
X039541Y022149D01*
X039577Y022114D01*
X039609Y022076D01*
X039639Y022036D01*
X039666Y021993D01*
X039689Y021949D01*
X039708Y021903D01*
X039724Y021855D01*
X039736Y021806D01*
X039744Y021757D01*
X039748Y021707D01*
X039748Y021657D01*
X039744Y021607D01*
X039736Y021558D01*
X039724Y021509D01*
X039708Y021461D01*
X039689Y021415D01*
X039666Y021371D01*
X039639Y021328D01*
X039609Y021288D01*
X039577Y021250D01*
X039541Y021215D01*
X039502Y021183D01*
X039461Y021154D01*
X039418Y021128D01*
X039373Y021106D01*
X039327Y021088D01*
X039279Y021073D01*
X039230Y021062D01*
X039181Y021055D01*
X039131Y021052D01*
X039080Y021053D01*
X039031Y021058D01*
X038981Y021067D01*
X038933Y021080D01*
X038886Y021096D01*
X038840Y021117D01*
X038796Y021141D01*
X038754Y021168D01*
X038714Y021198D01*
X038677Y021232D01*
X038643Y021269D01*
X038611Y021308D01*
X038583Y021349D01*
X038558Y021393D01*
X038537Y021438D01*
X038520Y021485D01*
X038506Y021533D01*
X038496Y021582D01*
X038490Y021632D01*
X038488Y021682D01*
X052662Y021682D02*
X052664Y021732D01*
X052670Y021782D01*
X052680Y021831D01*
X052694Y021879D01*
X052711Y021926D01*
X052732Y021971D01*
X052757Y022015D01*
X052785Y022056D01*
X052817Y022095D01*
X052851Y022132D01*
X052888Y022166D01*
X052928Y022196D01*
X052970Y022223D01*
X053014Y022247D01*
X053060Y022268D01*
X053107Y022284D01*
X053155Y022297D01*
X053205Y022306D01*
X053254Y022311D01*
X053305Y022312D01*
X053355Y022309D01*
X053404Y022302D01*
X053453Y022291D01*
X053501Y022276D01*
X053547Y022258D01*
X053592Y022236D01*
X053635Y022210D01*
X053676Y022181D01*
X053715Y022149D01*
X053751Y022114D01*
X053783Y022076D01*
X053813Y022036D01*
X053840Y021993D01*
X053863Y021949D01*
X053882Y021903D01*
X053898Y021855D01*
X053910Y021806D01*
X053918Y021757D01*
X053922Y021707D01*
X053922Y021657D01*
X053918Y021607D01*
X053910Y021558D01*
X053898Y021509D01*
X053882Y021461D01*
X053863Y021415D01*
X053840Y021371D01*
X053813Y021328D01*
X053783Y021288D01*
X053751Y021250D01*
X053715Y021215D01*
X053676Y021183D01*
X053635Y021154D01*
X053592Y021128D01*
X053547Y021106D01*
X053501Y021088D01*
X053453Y021073D01*
X053404Y021062D01*
X053355Y021055D01*
X053305Y021052D01*
X053254Y021053D01*
X053205Y021058D01*
X053155Y021067D01*
X053107Y021080D01*
X053060Y021096D01*
X053014Y021117D01*
X052970Y021141D01*
X052928Y021168D01*
X052888Y021198D01*
X052851Y021232D01*
X052817Y021269D01*
X052785Y021308D01*
X052757Y021349D01*
X052732Y021393D01*
X052711Y021438D01*
X052694Y021485D01*
X052680Y021533D01*
X052670Y021582D01*
X052664Y021632D01*
X052662Y021682D01*
X047314Y004198D02*
X047316Y004246D01*
X047322Y004294D01*
X047332Y004341D01*
X047345Y004387D01*
X047363Y004432D01*
X047383Y004476D01*
X047408Y004518D01*
X047436Y004557D01*
X047466Y004594D01*
X047500Y004628D01*
X047537Y004660D01*
X047575Y004689D01*
X047616Y004714D01*
X047659Y004736D01*
X047704Y004754D01*
X047750Y004768D01*
X047797Y004779D01*
X047845Y004786D01*
X047893Y004789D01*
X047941Y004788D01*
X047989Y004783D01*
X048037Y004774D01*
X048083Y004762D01*
X048128Y004745D01*
X048172Y004725D01*
X048214Y004702D01*
X048254Y004675D01*
X048292Y004645D01*
X048327Y004612D01*
X048359Y004576D01*
X048389Y004538D01*
X048415Y004497D01*
X048437Y004454D01*
X048457Y004410D01*
X048472Y004365D01*
X048484Y004318D01*
X048492Y004270D01*
X048496Y004222D01*
X048496Y004174D01*
X048492Y004126D01*
X048484Y004078D01*
X048472Y004031D01*
X048457Y003986D01*
X048437Y003942D01*
X048415Y003899D01*
X048389Y003858D01*
X048359Y003820D01*
X048327Y003784D01*
X048292Y003751D01*
X048254Y003721D01*
X048214Y003694D01*
X048172Y003671D01*
X048128Y003651D01*
X048083Y003634D01*
X048037Y003622D01*
X047989Y003613D01*
X047941Y003608D01*
X047893Y003607D01*
X047845Y003610D01*
X047797Y003617D01*
X047750Y003628D01*
X047704Y003642D01*
X047659Y003660D01*
X047616Y003682D01*
X047575Y003707D01*
X047537Y003736D01*
X047500Y003768D01*
X047466Y003802D01*
X047436Y003839D01*
X047408Y003878D01*
X047383Y003920D01*
X047363Y003964D01*
X047345Y004009D01*
X047332Y004055D01*
X047322Y004102D01*
X047316Y004150D01*
X047314Y004198D01*
X044007Y004198D02*
X044009Y004246D01*
X044015Y004294D01*
X044025Y004341D01*
X044038Y004387D01*
X044056Y004432D01*
X044076Y004476D01*
X044101Y004518D01*
X044129Y004557D01*
X044159Y004594D01*
X044193Y004628D01*
X044230Y004660D01*
X044268Y004689D01*
X044309Y004714D01*
X044352Y004736D01*
X044397Y004754D01*
X044443Y004768D01*
X044490Y004779D01*
X044538Y004786D01*
X044586Y004789D01*
X044634Y004788D01*
X044682Y004783D01*
X044730Y004774D01*
X044776Y004762D01*
X044821Y004745D01*
X044865Y004725D01*
X044907Y004702D01*
X044947Y004675D01*
X044985Y004645D01*
X045020Y004612D01*
X045052Y004576D01*
X045082Y004538D01*
X045108Y004497D01*
X045130Y004454D01*
X045150Y004410D01*
X045165Y004365D01*
X045177Y004318D01*
X045185Y004270D01*
X045189Y004222D01*
X045189Y004174D01*
X045185Y004126D01*
X045177Y004078D01*
X045165Y004031D01*
X045150Y003986D01*
X045130Y003942D01*
X045108Y003899D01*
X045082Y003858D01*
X045052Y003820D01*
X045020Y003784D01*
X044985Y003751D01*
X044947Y003721D01*
X044907Y003694D01*
X044865Y003671D01*
X044821Y003651D01*
X044776Y003634D01*
X044730Y003622D01*
X044682Y003613D01*
X044634Y003608D01*
X044586Y003607D01*
X044538Y003610D01*
X044490Y003617D01*
X044443Y003628D01*
X044397Y003642D01*
X044352Y003660D01*
X044309Y003682D01*
X044268Y003707D01*
X044230Y003736D01*
X044193Y003768D01*
X044159Y003802D01*
X044129Y003839D01*
X044101Y003878D01*
X044076Y003920D01*
X044056Y003964D01*
X044038Y004009D01*
X044025Y004055D01*
X044015Y004102D01*
X044009Y004150D01*
X044007Y004198D01*
M02*
