%
M48
M72
T01C0.0118
T02C0.0157
T03C0.0236
T04C0.0320
T05C0.0354
T06C0.0400
T07C0.0512
T08C0.0551
T09C0.0748
T10C0.1181
T11C0.1260
%
T01
X12301Y3809
X14501Y5809
X14501Y6309
X14501Y6809
X14501Y7309
X14501Y7809
X12301Y7309
X10701Y7959
X13601Y9759
X12901Y11209
X12901Y11709
X12901Y12209
X11301Y13709
X9601Y14959
X6410Y15571
X6114Y15472
X6101Y15059
X4551Y13359
X4785Y17047
X3101Y17223
X4801Y18723
X5201Y18923
X8001Y18923
X8401Y18723
X11888Y18723
X12288Y18923
X15101Y18923
X15501Y18723
X18601Y19859
X19374Y18923
X18974Y18723
X22201Y18923
X22601Y18723
X26061Y18723
X26461Y18923
X29301Y18923
X29701Y18723
X31151Y19909
X32551Y20109
X33548Y18923
X33148Y18723
X36401Y18919
X36751Y18719
X40234Y18723
X40634Y18923
X43474Y18923
X43874Y18723
X47321Y18723
X47721Y18923
X50561Y18923
X50961Y18723
X54407Y18723
X54807Y18923
X54391Y17047
X55721Y15472
X56016Y15571
X48929Y15571
X48634Y15472
X47305Y17047
X41843Y15571
X41548Y15472
X40218Y17047
X34756Y15571
X34461Y15472
X32551Y15109
X33131Y17047
X27670Y15571
X27374Y15472
X26045Y17047
X20583Y15571
X20288Y15472
X18958Y17047
X13496Y15571
X13201Y15472
X11872Y17047
X18501Y13759
X20101Y13859
X20601Y13859
X21101Y13859
X35781Y6209
X23851Y1509
X19651Y4459
X15651Y2559
X16001Y1859
X31201Y22109
X27670Y22657
X27374Y22559
X26045Y24134
X26061Y25809
X26461Y26009
X29301Y26009
X29701Y25809
X33148Y25809
X33548Y26009
X36401Y26009
X36801Y25809
X40234Y25809
X40634Y26009
X43461Y26009
X43861Y25809
X47321Y25809
X47721Y26009
X50548Y26009
X50948Y25809
X54407Y25809
X54807Y26009
X54391Y24134
X55721Y22559
X56016Y22657
X48929Y22657
X48634Y22559
X47305Y24134
X41843Y22657
X41548Y22559
X40218Y24134
X34756Y22657
X34461Y22559
X33131Y24134
X22601Y25809
X22201Y26009
X19374Y26009
X18974Y25809
X18958Y24134
X18601Y22509
X20288Y22559
X20583Y22657
X15501Y25809
X15101Y26009
X12288Y26009
X11888Y25809
X11872Y24134
X13201Y22559
X13496Y22657
X8401Y25809
X8001Y26009
X5201Y26009
X4801Y25809
X4785Y24134
X3111Y24309
X6114Y22559
X6410Y22657
T02
X6607Y23937
X6951Y24281
X7296Y23937
X7296Y24626
X6951Y24970
X6607Y24626
X6262Y24281
X5918Y23937
X5918Y24626
X6262Y24970
X5918Y25315
X6607Y25315
X7296Y25315
X13004Y25315
X13693Y25315
X14382Y25315
X14038Y24970
X14382Y24626
X14038Y24281
X14382Y23937
X13693Y23937
X13349Y24281
X13004Y23937
X13004Y24626
X13349Y24970
X13693Y24626
X20091Y24626
X20435Y24281
X20091Y23937
X20780Y23937
X21124Y24281
X21469Y23937
X21469Y24626
X21124Y24970
X20780Y24626
X20435Y24970
X20091Y25315
X20780Y25315
X21469Y25315
X27177Y25315
X27866Y25315
X28555Y25315
X28211Y24970
X28555Y24626
X28211Y24281
X28555Y23937
X27866Y23937
X27522Y24281
X27177Y23937
X27177Y24626
X27522Y24970
X27866Y24626
X34264Y24626
X34609Y24281
X34953Y23937
X35298Y24281
X35642Y23937
X35642Y24626
X35298Y24970
X34953Y24626
X34609Y24970
X34953Y25315
X34264Y25315
X35642Y25315
X34264Y23937
X41351Y23937
X41695Y24281
X42040Y23937
X42384Y24281
X42729Y23937
X42729Y24626
X42384Y24970
X42040Y24626
X41695Y24970
X41351Y24626
X41351Y25315
X42040Y25315
X42729Y25315
X48437Y25315
X49126Y25315
X49815Y25315
X49471Y24970
X49815Y24626
X49471Y24281
X49815Y23937
X49126Y23937
X48782Y24281
X48437Y23937
X48437Y24626
X48782Y24970
X49126Y24626
X55524Y24626
X55868Y24281
X55524Y23937
X56213Y23937
X56557Y24281
X56902Y23937
X56902Y24626
X56557Y24970
X56213Y24626
X55868Y24970
X55524Y25315
X56213Y25315
X56902Y25315
X56902Y18228
X56557Y17884
X56213Y18228
X55868Y17884
X55524Y18228
X55524Y17539
X55868Y17195
X56213Y17539
X56557Y17195
X56902Y17539
X56902Y16850
X56213Y16850
X55524Y16850
X49815Y16850
X49126Y16850
X48437Y16850
X48782Y17195
X49126Y17539
X49471Y17195
X49815Y17539
X49471Y17884
X49815Y18228
X49126Y18228
X48782Y17884
X48437Y18228
X48437Y17539
X42729Y17539
X42384Y17195
X42040Y17539
X41695Y17195
X41351Y17539
X41695Y17884
X41351Y18228
X42040Y18228
X42384Y17884
X42729Y18228
X42729Y16850
X42040Y16850
X41351Y16850
X35642Y16850
X34953Y16850
X34264Y16850
X34609Y17195
X34953Y17539
X35298Y17195
X35642Y17539
X35298Y17884
X35642Y18228
X34953Y18228
X34609Y17884
X34264Y18228
X34264Y17539
X28555Y17539
X28211Y17195
X27866Y17539
X27522Y17195
X27177Y17539
X27522Y17884
X27866Y18228
X28211Y17884
X28555Y18228
X27177Y18228
X27177Y16850
X27866Y16850
X28555Y16850
X21469Y16850
X20780Y16850
X20091Y16850
X20435Y17195
X20091Y17539
X20435Y17884
X20091Y18228
X20780Y18228
X21124Y17884
X20780Y17539
X21124Y17195
X21469Y17539
X21469Y18228
X14382Y18228
X14038Y17884
X14382Y17539
X14038Y17195
X13693Y17539
X13349Y17195
X13004Y17539
X13349Y17884
X13693Y18228
X13004Y18228
X13004Y16850
X13693Y16850
X14382Y16850
X7296Y16850
X6951Y17195
X6607Y17539
X6951Y17884
X6607Y18228
X6262Y17884
X5918Y18228
X5918Y17539
X6262Y17195
X5918Y16850
X6607Y16850
X7296Y17539
X7296Y18228
T03
X7101Y2459
X10801Y2659
X13901Y2559
X16801Y5009
X13451Y6859
X8601Y9409
X7001Y9409
X7781Y8229
X12101Y10109
X16251Y10159
X19955Y9673
X21851Y11759
X24551Y11659
X25601Y12759
X22574Y14193
X23184Y15493
X24311Y17223
X23061Y18209
X23184Y19753
X23184Y20493
X21871Y21159
X20674Y21023
X19301Y21209
X19334Y20503
X17551Y19759
X16098Y19753
X16098Y20493
X14781Y21159
X13588Y21023
X12201Y21209
X12248Y20503
X10651Y19759
X9011Y19753
X9011Y20493
X7691Y21159
X6501Y21023
X5161Y20503
X5071Y21369
X3921Y22989
X9011Y22579
X9011Y21839
X10138Y24309
X8851Y25259
X10701Y26709
X9011Y26839
X9011Y27579
X7701Y28159
X6501Y28109
X5161Y27589
X3551Y25609
X10701Y28109
X12248Y27589
X13588Y28109
X14751Y28159
X16098Y27579
X16098Y26839
X17701Y26709
X19334Y27589
X20674Y28109
X21851Y28159
X23184Y27579
X23184Y26839
X24801Y26709
X26421Y27589
X24801Y28109
X27761Y28109
X28951Y28159
X30271Y27579
X30271Y26839
X31901Y26709
X33508Y27589
X34848Y28109
X36051Y28159
X37358Y27579
X37358Y26839
X39301Y26709
X40594Y27589
X39301Y28109
X41934Y28109
X43151Y28159
X44444Y27579
X44444Y26839
X46401Y26709
X47681Y27589
X46401Y28109
X49021Y28109
X50201Y28159
X51531Y27579
X51531Y26839
X53451Y26709
X54767Y27589
X56107Y28109
X57301Y28159
X58617Y27579
X58617Y26839
X53451Y28109
X51401Y25259
X52657Y24309
X51531Y22579
X51531Y21839
X50221Y21159
X49021Y21023
X47681Y20503
X47611Y21349
X46951Y19659
X44444Y19753
X44444Y20493
X43121Y21169
X41934Y21023
X40594Y20503
X40521Y21339
X37351Y21839
X37358Y22579
X36041Y21159
X34848Y21023
X33508Y20503
X33401Y21209
X31901Y19759
X30271Y19753
X30271Y20493
X28951Y21159
X27761Y21023
X26421Y20503
X26301Y21209
X24851Y19759
X23184Y21839
X23184Y22579
X24311Y24309
X23051Y25259
X17224Y24309
X15951Y25259
X16098Y22579
X16098Y21839
X15981Y18209
X17224Y17223
X16098Y15493
X15488Y14213
X16451Y13759
X19065Y13313
X12401Y14109
X9011Y14753
X9011Y15493
X10138Y17223
X8891Y18209
X3561Y18539
X4251Y14059
X8551Y12759
X23451Y6209
X25451Y6209
X27451Y6209
X29451Y6209
X31451Y6209
X33451Y6209
X37451Y6209
X39451Y6209
X41451Y6209
X41451Y9209
X39451Y9209
X37451Y9209
X33451Y9209
X31451Y9209
X29451Y9209
X27451Y9209
X25451Y9209
X29501Y11659
X30801Y11659
X31951Y12709
X33151Y14009
X36051Y14109
X37358Y14753
X37358Y15493
X39351Y14009
X38201Y12709
X37051Y11659
X43181Y11909
X44271Y11259
X45361Y11909
X46501Y11919
X47631Y12639
X49381Y12629
X50481Y11929
X49381Y11189
X47631Y11189
X44271Y12549
X45701Y14109
X44444Y14753
X44444Y15493
X45571Y17223
X44324Y18209
X40151Y19659
X37358Y19753
X37358Y20493
X37501Y18309
X38484Y17223
X31398Y17223
X30151Y18209
X30271Y15493
X30271Y14753
X30271Y21839
X30271Y22579
X31398Y24309
X30151Y25259
X31901Y28109
X37251Y25259
X38484Y24309
X44301Y25259
X45571Y24309
X44444Y22579
X44444Y21839
X51531Y20493
X51531Y19753
X51411Y18209
X52657Y17223
X51531Y15493
X51531Y14753
X53801Y13259
X53801Y11609
X53801Y9909
X54901Y8859
X56251Y8859
X57601Y8859
X58191Y8039
X58191Y7299
X57601Y7299
X56251Y7289
X56201Y6209
X57171Y6229
X58081Y5129
X58201Y3909
X57801Y3909
X57401Y3909
X55251Y3909
X54851Y3909
X54451Y3909
X53451Y4209
X52451Y4209
X51451Y4209
X50451Y4209
X49451Y4209
X49451Y3309
X50451Y3309
X51451Y3309
X52451Y3309
X54451Y2459
X54851Y2459
X55251Y2459
X53781Y2219
X57401Y2459
X57801Y2459
X58201Y2459
X53451Y5109
X52451Y5109
X51451Y5109
X50451Y5109
X49451Y5109
X49451Y6109
X53451Y7209
X51451Y9209
X49451Y9209
X58701Y9909
X58701Y11609
X58701Y13259
X58617Y14753
X58617Y15493
X59128Y17599
X58617Y19753
X58617Y20493
X57261Y21169
X56701Y20509
X56107Y21023
X54767Y20503
X54701Y21349
X54101Y19609
X58617Y21839
X58617Y22579
X17701Y28109
X26821Y2199
X33101Y2199
X39351Y2199
X42451Y2209
X44451Y2209
X46451Y2209
X48451Y2209
T04
X21703Y3054
X20703Y5054
X21703Y8054
T05
X7970Y3622
X6238Y3622
T06
X4514Y6816
X4514Y7816
X4514Y8816
X4514Y9816
X4514Y10816
X4514Y11816
T07
X23287Y11462
X23287Y12712
X24537Y12712
X28287Y12712
X29537Y12712
X30787Y12712
X34537Y12712
X35787Y12712
X37037Y12712
X40787Y12712
X42037Y12712
X23287Y10212
X23287Y8962
X24537Y3462
X28287Y3462
X30787Y3462
X34537Y3462
X37037Y3462
X40787Y3462
X42037Y3462
T08
X18635Y2300
X17651Y2300
X16667Y2300
T09
X44598Y7072
X46251Y7072
X47905Y7072
X47905Y8725
X46251Y8725
X44598Y8725
T10
X44598Y4198
X47905Y4198
T11
X53292Y21682
X39118Y21682
X24945Y21682
X10772Y21682
M30
