G75*
G70*
%OFA0B0*%
%FSLAX24Y24*%
%IPPOS*%
%LPD*%
%AMOC8*
5,1,8,0,0,1.08239X$1,22.5*
%
%ADD10C,0.0669*%
%ADD11C,0.0477*%
%ADD12C,0.0906*%
%ADD13C,0.0709*%
%ADD14C,0.0557*%
%ADD15C,0.0354*%
%ADD16C,0.0240*%
%ADD17C,0.0236*%
%ADD18C,0.0276*%
%ADD19C,0.0120*%
%ADD20C,0.0160*%
D10*
X023287Y008962D03*
X023287Y010212D03*
X023287Y011462D03*
X023287Y012712D03*
X024537Y012712D03*
X028287Y012712D03*
X029537Y012712D03*
X030787Y012712D03*
X034537Y012712D03*
X035787Y012712D03*
X037037Y012712D03*
X040787Y012712D03*
X042037Y012712D03*
X042037Y003462D03*
X040787Y003462D03*
X037037Y003462D03*
X034537Y003462D03*
X030787Y003462D03*
X028287Y003462D03*
X024537Y003462D03*
D11*
X021703Y003054D03*
X020703Y005054D03*
X021703Y008054D03*
D12*
X044598Y008725D03*
X046251Y008725D03*
X047905Y008725D03*
X047905Y007072D03*
X046251Y007072D03*
X044598Y007072D03*
D13*
X018635Y002300D03*
X017651Y002300D03*
X016667Y002300D03*
D14*
X004514Y006816D03*
X004514Y007816D03*
X004514Y008816D03*
X004514Y009816D03*
X004514Y010816D03*
X004514Y011816D03*
D15*
X008551Y012759D03*
X012401Y014109D03*
X015488Y014213D03*
X016451Y013759D03*
X019065Y013313D03*
X021851Y011759D03*
X024551Y011659D03*
X025601Y012759D03*
X022574Y014193D03*
X023184Y015493D03*
X024311Y017223D03*
X023061Y018209D03*
X023184Y019753D03*
X023184Y020493D03*
X021871Y021159D03*
X020674Y021023D03*
X019301Y021209D03*
X019334Y020503D03*
X017551Y019759D03*
X016098Y019753D03*
X016098Y020493D03*
X014781Y021159D03*
X013588Y021023D03*
X012201Y021209D03*
X012248Y020503D03*
X010651Y019759D03*
X009011Y019753D03*
X009011Y020493D03*
X007691Y021159D03*
X006501Y021023D03*
X005161Y020503D03*
X005071Y021369D03*
X003921Y022989D03*
X009011Y022579D03*
X009011Y021839D03*
X010138Y024309D03*
X008851Y025259D03*
X010701Y026709D03*
X009011Y026839D03*
X009011Y027579D03*
X007701Y028159D03*
X006501Y028109D03*
X005161Y027589D03*
X003551Y025609D03*
X010701Y028109D03*
X012248Y027589D03*
X013588Y028109D03*
X014751Y028159D03*
X016098Y027579D03*
X016098Y026839D03*
X017701Y026709D03*
X019334Y027589D03*
X020674Y028109D03*
X021851Y028159D03*
X023184Y027579D03*
X023184Y026839D03*
X024801Y026709D03*
X026421Y027589D03*
X024801Y028109D03*
X027761Y028109D03*
X028951Y028159D03*
X030271Y027579D03*
X030271Y026839D03*
X031901Y026709D03*
X033508Y027589D03*
X034848Y028109D03*
X036051Y028159D03*
X037358Y027579D03*
X037358Y026839D03*
X039301Y026709D03*
X040594Y027589D03*
X039301Y028109D03*
X041934Y028109D03*
X043151Y028159D03*
X044444Y027579D03*
X044444Y026839D03*
X046401Y026709D03*
X047681Y027589D03*
X046401Y028109D03*
X049021Y028109D03*
X050201Y028159D03*
X051531Y027579D03*
X051531Y026839D03*
X053451Y026709D03*
X054767Y027589D03*
X056107Y028109D03*
X057301Y028159D03*
X058617Y027579D03*
X058617Y026839D03*
X053451Y028109D03*
X051401Y025259D03*
X052657Y024309D03*
X051531Y022579D03*
X051531Y021839D03*
X050221Y021159D03*
X049021Y021023D03*
X047681Y020503D03*
X047611Y021349D03*
X046951Y019659D03*
X044444Y019753D03*
X044444Y020493D03*
X043121Y021169D03*
X041934Y021023D03*
X040594Y020503D03*
X040521Y021339D03*
X037351Y021839D03*
X037358Y022579D03*
X036041Y021159D03*
X034848Y021023D03*
X033508Y020503D03*
X033401Y021209D03*
X031901Y019759D03*
X030271Y019753D03*
X030271Y020493D03*
X028951Y021159D03*
X027761Y021023D03*
X026421Y020503D03*
X026301Y021209D03*
X024851Y019759D03*
X023184Y021839D03*
X023184Y022579D03*
X024311Y024309D03*
X023051Y025259D03*
X017224Y024309D03*
X015951Y025259D03*
X016098Y022579D03*
X016098Y021839D03*
X015981Y018209D03*
X017224Y017223D03*
X016098Y015493D03*
X010138Y017223D03*
X008891Y018209D03*
X009011Y015493D03*
X009011Y014753D03*
X004251Y014059D03*
X012101Y010109D03*
X008601Y009409D03*
X007001Y009409D03*
X007781Y008229D03*
X013451Y006859D03*
X016801Y005009D03*
X013901Y002559D03*
X010801Y002659D03*
X007101Y002459D03*
X019955Y009673D03*
X016251Y010159D03*
X023451Y006209D03*
X025451Y006209D03*
X027451Y006209D03*
X029451Y006209D03*
X031451Y006209D03*
X033451Y006209D03*
X037451Y006209D03*
X039451Y006209D03*
X041451Y006209D03*
X041451Y009209D03*
X039451Y009209D03*
X037451Y009209D03*
X033451Y009209D03*
X031451Y009209D03*
X029451Y009209D03*
X027451Y009209D03*
X025451Y009209D03*
X029501Y011659D03*
X030801Y011659D03*
X031951Y012709D03*
X033151Y014009D03*
X036051Y014109D03*
X037358Y014753D03*
X037358Y015493D03*
X039351Y014009D03*
X038201Y012709D03*
X037051Y011659D03*
X043181Y011909D03*
X044271Y011259D03*
X045361Y011909D03*
X046501Y011919D03*
X047631Y012639D03*
X049381Y012629D03*
X050481Y011929D03*
X049381Y011189D03*
X047631Y011189D03*
X044271Y012549D03*
X045701Y014109D03*
X044444Y014753D03*
X044444Y015493D03*
X045571Y017223D03*
X044324Y018209D03*
X040151Y019659D03*
X037358Y019753D03*
X037358Y020493D03*
X037501Y018309D03*
X038484Y017223D03*
X031398Y017223D03*
X030151Y018209D03*
X030271Y015493D03*
X030271Y014753D03*
X030271Y021839D03*
X030271Y022579D03*
X031398Y024309D03*
X030151Y025259D03*
X031901Y028109D03*
X037251Y025259D03*
X038484Y024309D03*
X044301Y025259D03*
X045571Y024309D03*
X044444Y022579D03*
X044444Y021839D03*
X051531Y020493D03*
X051531Y019753D03*
X051411Y018209D03*
X052657Y017223D03*
X051531Y015493D03*
X051531Y014753D03*
X053801Y013259D03*
X053801Y011609D03*
X053801Y009909D03*
X054901Y008859D03*
X056251Y008859D03*
X057601Y008859D03*
X058191Y008039D03*
X058191Y007299D03*
X057601Y007299D03*
X056251Y007289D03*
X056201Y006209D03*
X057171Y006229D03*
X058081Y005129D03*
X058201Y003909D03*
X057801Y003909D03*
X057401Y003909D03*
X055251Y003909D03*
X054851Y003909D03*
X054451Y003909D03*
X053451Y004209D03*
X052451Y004209D03*
X051451Y004209D03*
X050451Y004209D03*
X049451Y004209D03*
X049451Y003309D03*
X050451Y003309D03*
X051451Y003309D03*
X052451Y003309D03*
X054451Y002459D03*
X054851Y002459D03*
X055251Y002459D03*
X053781Y002219D03*
X057401Y002459D03*
X057801Y002459D03*
X058201Y002459D03*
X053451Y005109D03*
X052451Y005109D03*
X051451Y005109D03*
X050451Y005109D03*
X049451Y005109D03*
X049451Y006109D03*
X053451Y007209D03*
X051451Y009209D03*
X049451Y009209D03*
X058701Y009909D03*
X058701Y011609D03*
X058701Y013259D03*
X058617Y014753D03*
X058617Y015493D03*
X059128Y017599D03*
X058617Y019753D03*
X058617Y020493D03*
X057261Y021169D03*
X056701Y020509D03*
X056107Y021023D03*
X054767Y020503D03*
X054701Y021349D03*
X054101Y019609D03*
X058617Y021839D03*
X058617Y022579D03*
X017701Y028109D03*
X003561Y018539D03*
X026821Y002199D03*
X033101Y002199D03*
X039351Y002199D03*
X042451Y002209D03*
X044451Y002209D03*
X046451Y002209D03*
X048451Y002209D03*
D16*
X048601Y014959D02*
X049301Y014959D01*
X049834Y015493D01*
X051531Y015493D01*
X055068Y015493D01*
X055501Y015059D01*
X056201Y015059D01*
X056634Y015493D01*
X058617Y015493D01*
X048601Y014959D02*
X048068Y015493D01*
X044444Y015493D01*
X042734Y015493D01*
X042201Y014959D01*
X041501Y014959D01*
X040968Y015493D01*
X037358Y015493D01*
X035634Y015493D01*
X035101Y014959D01*
X034401Y014959D01*
X033868Y015493D01*
X030271Y015493D01*
X028534Y015493D01*
X028001Y014959D01*
X027351Y014959D01*
X026818Y015493D01*
X023184Y015493D01*
X021434Y015493D01*
X020901Y014959D01*
X020301Y014959D01*
X019768Y015493D01*
X016098Y015493D01*
X014384Y015493D01*
X013801Y014909D01*
X013251Y014909D01*
X012668Y015493D01*
X009011Y015493D01*
D17*
X009601Y014959D03*
X011301Y013709D03*
X012901Y012209D03*
X012901Y011709D03*
X012901Y011209D03*
X013601Y009759D03*
X010701Y007959D03*
X012301Y007309D03*
X014501Y007309D03*
X014501Y007809D03*
X014501Y006809D03*
X014501Y006309D03*
X014501Y005809D03*
X012301Y003809D03*
X015651Y002559D03*
X016001Y001859D03*
X019651Y004459D03*
X023851Y001509D03*
X035781Y006209D03*
X021101Y013859D03*
X020601Y013859D03*
X020101Y013859D03*
X018501Y013759D03*
X020288Y015472D03*
X020583Y015571D03*
X018958Y017047D03*
X018974Y018723D03*
X019374Y018923D03*
X018601Y019859D03*
X015501Y018723D03*
X015101Y018923D03*
X012288Y018923D03*
X011888Y018723D03*
X011872Y017047D03*
X013201Y015472D03*
X013496Y015571D03*
X008401Y018723D03*
X008001Y018923D03*
X005201Y018923D03*
X004801Y018723D03*
X003101Y017223D03*
X004785Y017047D03*
X006114Y015472D03*
X006410Y015571D03*
X006101Y015059D03*
X004551Y013359D03*
X022201Y018923D03*
X022601Y018723D03*
X026061Y018723D03*
X026461Y018923D03*
X029301Y018923D03*
X029701Y018723D03*
X031151Y019909D03*
X032551Y020109D03*
X033548Y018923D03*
X033148Y018723D03*
X036401Y018919D03*
X036751Y018719D03*
X040234Y018723D03*
X040634Y018923D03*
X043474Y018923D03*
X043874Y018723D03*
X047321Y018723D03*
X047721Y018923D03*
X050561Y018923D03*
X050961Y018723D03*
X054407Y018723D03*
X054807Y018923D03*
X054391Y017047D03*
X055721Y015472D03*
X056016Y015571D03*
X048929Y015571D03*
X048634Y015472D03*
X047305Y017047D03*
X041843Y015571D03*
X041548Y015472D03*
X040218Y017047D03*
X034756Y015571D03*
X034461Y015472D03*
X032551Y015109D03*
X033131Y017047D03*
X027670Y015571D03*
X027374Y015472D03*
X026045Y017047D03*
X031201Y022109D03*
X027670Y022657D03*
X027374Y022559D03*
X026045Y024134D03*
X026061Y025809D03*
X026461Y026009D03*
X029301Y026009D03*
X029701Y025809D03*
X033148Y025809D03*
X033548Y026009D03*
X036401Y026009D03*
X036801Y025809D03*
X040234Y025809D03*
X040634Y026009D03*
X043461Y026009D03*
X043861Y025809D03*
X047321Y025809D03*
X047721Y026009D03*
X050548Y026009D03*
X050948Y025809D03*
X054407Y025809D03*
X054807Y026009D03*
X054391Y024134D03*
X055721Y022559D03*
X056016Y022657D03*
X048929Y022657D03*
X048634Y022559D03*
X047305Y024134D03*
X041843Y022657D03*
X041548Y022559D03*
X040218Y024134D03*
X034756Y022657D03*
X034461Y022559D03*
X033131Y024134D03*
X022601Y025809D03*
X022201Y026009D03*
X019374Y026009D03*
X018974Y025809D03*
X018958Y024134D03*
X018601Y022509D03*
X020288Y022559D03*
X020583Y022657D03*
X015501Y025809D03*
X015101Y026009D03*
X012288Y026009D03*
X011888Y025809D03*
X011872Y024134D03*
X013201Y022559D03*
X013496Y022657D03*
X008401Y025809D03*
X008001Y026009D03*
X005201Y026009D03*
X004801Y025809D03*
X004785Y024134D03*
X003111Y024309D03*
X006114Y022559D03*
X006410Y022657D03*
D18*
X006607Y023937D03*
X006951Y024281D03*
X007296Y023937D03*
X007296Y024626D03*
X006951Y024970D03*
X006607Y024626D03*
X006262Y024281D03*
X005918Y023937D03*
X005918Y024626D03*
X006262Y024970D03*
X005918Y025315D03*
X006607Y025315D03*
X007296Y025315D03*
X013004Y025315D03*
X013693Y025315D03*
X014382Y025315D03*
X014038Y024970D03*
X014382Y024626D03*
X014038Y024281D03*
X014382Y023937D03*
X013693Y023937D03*
X013349Y024281D03*
X013004Y023937D03*
X013004Y024626D03*
X013349Y024970D03*
X013693Y024626D03*
X020091Y024626D03*
X020435Y024281D03*
X020091Y023937D03*
X020780Y023937D03*
X021124Y024281D03*
X021469Y023937D03*
X021469Y024626D03*
X021124Y024970D03*
X020780Y024626D03*
X020435Y024970D03*
X020091Y025315D03*
X020780Y025315D03*
X021469Y025315D03*
X027177Y025315D03*
X027866Y025315D03*
X028555Y025315D03*
X028211Y024970D03*
X028555Y024626D03*
X028211Y024281D03*
X028555Y023937D03*
X027866Y023937D03*
X027522Y024281D03*
X027177Y023937D03*
X027177Y024626D03*
X027522Y024970D03*
X027866Y024626D03*
X034264Y024626D03*
X034609Y024281D03*
X034953Y023937D03*
X035298Y024281D03*
X035642Y023937D03*
X035642Y024626D03*
X035298Y024970D03*
X034953Y024626D03*
X034609Y024970D03*
X034953Y025315D03*
X034264Y025315D03*
X035642Y025315D03*
X034264Y023937D03*
X041351Y023937D03*
X041695Y024281D03*
X042040Y023937D03*
X042384Y024281D03*
X042729Y023937D03*
X042729Y024626D03*
X042384Y024970D03*
X042040Y024626D03*
X041695Y024970D03*
X041351Y024626D03*
X041351Y025315D03*
X042040Y025315D03*
X042729Y025315D03*
X048437Y025315D03*
X049126Y025315D03*
X049815Y025315D03*
X049471Y024970D03*
X049815Y024626D03*
X049471Y024281D03*
X049815Y023937D03*
X049126Y023937D03*
X048782Y024281D03*
X048437Y023937D03*
X048437Y024626D03*
X048782Y024970D03*
X049126Y024626D03*
X055524Y024626D03*
X055868Y024281D03*
X055524Y023937D03*
X056213Y023937D03*
X056557Y024281D03*
X056902Y023937D03*
X056902Y024626D03*
X056557Y024970D03*
X056213Y024626D03*
X055868Y024970D03*
X055524Y025315D03*
X056213Y025315D03*
X056902Y025315D03*
X056902Y018228D03*
X056557Y017884D03*
X056213Y018228D03*
X055868Y017884D03*
X055524Y018228D03*
X055524Y017539D03*
X055868Y017195D03*
X056213Y017539D03*
X056557Y017195D03*
X056902Y017539D03*
X056902Y016850D03*
X056213Y016850D03*
X055524Y016850D03*
X049815Y016850D03*
X049126Y016850D03*
X048437Y016850D03*
X048782Y017195D03*
X049126Y017539D03*
X049471Y017195D03*
X049815Y017539D03*
X049471Y017884D03*
X049815Y018228D03*
X049126Y018228D03*
X048782Y017884D03*
X048437Y018228D03*
X048437Y017539D03*
X042729Y017539D03*
X042384Y017195D03*
X042040Y017539D03*
X041695Y017195D03*
X041351Y017539D03*
X041695Y017884D03*
X041351Y018228D03*
X042040Y018228D03*
X042384Y017884D03*
X042729Y018228D03*
X042729Y016850D03*
X042040Y016850D03*
X041351Y016850D03*
X035642Y016850D03*
X034953Y016850D03*
X034264Y016850D03*
X034609Y017195D03*
X034953Y017539D03*
X035298Y017195D03*
X035642Y017539D03*
X035298Y017884D03*
X035642Y018228D03*
X034953Y018228D03*
X034609Y017884D03*
X034264Y018228D03*
X034264Y017539D03*
X028555Y017539D03*
X028211Y017195D03*
X027866Y017539D03*
X027522Y017195D03*
X027177Y017539D03*
X027522Y017884D03*
X027866Y018228D03*
X028211Y017884D03*
X028555Y018228D03*
X027177Y018228D03*
X027177Y016850D03*
X027866Y016850D03*
X028555Y016850D03*
X021469Y016850D03*
X020780Y016850D03*
X020091Y016850D03*
X020435Y017195D03*
X020091Y017539D03*
X020435Y017884D03*
X020091Y018228D03*
X020780Y018228D03*
X021124Y017884D03*
X020780Y017539D03*
X021124Y017195D03*
X021469Y017539D03*
X021469Y018228D03*
X014382Y018228D03*
X014038Y017884D03*
X014382Y017539D03*
X014038Y017195D03*
X013693Y017539D03*
X013349Y017195D03*
X013004Y017539D03*
X013349Y017884D03*
X013693Y018228D03*
X013004Y018228D03*
X013004Y016850D03*
X013693Y016850D03*
X014382Y016850D03*
X007296Y016850D03*
X006951Y017195D03*
X006607Y017539D03*
X006951Y017884D03*
X006607Y018228D03*
X006262Y017884D03*
X005918Y018228D03*
X005918Y017539D03*
X006262Y017195D03*
X005918Y016850D03*
X006607Y016850D03*
X007296Y017539D03*
X007296Y018228D03*
D19*
X002921Y028549D02*
X002921Y001429D01*
X023518Y001429D01*
X023513Y001442D01*
X023513Y001577D01*
X023564Y001701D01*
X023660Y001796D01*
X023784Y001848D01*
X023918Y001848D01*
X024043Y001796D01*
X024138Y001701D01*
X024189Y001577D01*
X024189Y001442D01*
X024184Y001429D01*
X059568Y001429D01*
X059568Y028549D01*
X057399Y028549D01*
X057526Y028496D01*
X057638Y028384D01*
X057698Y028238D01*
X057698Y028080D01*
X057638Y027934D01*
X057526Y027823D01*
X057380Y027762D01*
X057222Y027762D01*
X057076Y027823D01*
X056964Y027934D01*
X056904Y028080D01*
X056904Y028238D01*
X056964Y028384D01*
X057076Y028496D01*
X057203Y028549D01*
X050299Y028549D01*
X050426Y028496D01*
X050538Y028384D01*
X050598Y028238D01*
X050598Y028080D01*
X050538Y027934D01*
X050426Y027823D01*
X050280Y027762D01*
X050122Y027762D01*
X049976Y027823D01*
X049864Y027934D01*
X049804Y028080D01*
X049804Y028238D01*
X049864Y028384D01*
X049976Y028496D01*
X050103Y028549D01*
X043249Y028549D01*
X043376Y028496D01*
X043488Y028384D01*
X043548Y028238D01*
X043548Y028080D01*
X043488Y027934D01*
X043376Y027823D01*
X043230Y027762D01*
X043072Y027762D01*
X042926Y027823D01*
X042814Y027934D01*
X042754Y028080D01*
X042754Y028238D01*
X042814Y028384D01*
X042926Y028496D01*
X043053Y028549D01*
X036149Y028549D01*
X036276Y028496D01*
X036388Y028384D01*
X036448Y028238D01*
X036448Y028080D01*
X036388Y027934D01*
X036276Y027823D01*
X036130Y027762D01*
X035972Y027762D01*
X035826Y027823D01*
X035714Y027934D01*
X035654Y028080D01*
X035654Y028238D01*
X035714Y028384D01*
X035826Y028496D01*
X035953Y028549D01*
X029049Y028549D01*
X029176Y028496D01*
X029288Y028384D01*
X029348Y028238D01*
X029348Y028080D01*
X029288Y027934D01*
X029176Y027823D01*
X029030Y027762D01*
X028872Y027762D01*
X028726Y027823D01*
X028614Y027934D01*
X028554Y028080D01*
X028554Y028238D01*
X028614Y028384D01*
X028726Y028496D01*
X028853Y028549D01*
X021949Y028549D01*
X022076Y028496D01*
X022188Y028384D01*
X022248Y028238D01*
X022248Y028080D01*
X022188Y027934D01*
X022076Y027823D01*
X021930Y027762D01*
X021772Y027762D01*
X021626Y027823D01*
X021514Y027934D01*
X021454Y028080D01*
X021454Y028238D01*
X021514Y028384D01*
X021626Y028496D01*
X021753Y028549D01*
X014849Y028549D01*
X014976Y028496D01*
X015088Y028384D01*
X015148Y028238D01*
X015148Y028080D01*
X015088Y027934D01*
X014976Y027823D01*
X014830Y027762D01*
X014672Y027762D01*
X014526Y027823D01*
X014414Y027934D01*
X014354Y028080D01*
X014354Y028238D01*
X014414Y028384D01*
X014526Y028496D01*
X014653Y028549D01*
X007799Y028549D01*
X007926Y028496D01*
X008038Y028384D01*
X008098Y028238D01*
X008098Y028080D01*
X008038Y027934D01*
X007926Y027823D01*
X007780Y027762D01*
X007622Y027762D01*
X007476Y027823D01*
X007364Y027934D01*
X007304Y028080D01*
X007304Y028238D01*
X007364Y028384D01*
X007476Y028496D01*
X007603Y028549D01*
X002921Y028549D01*
X002921Y028474D02*
X007454Y028474D01*
X007353Y028356D02*
X002921Y028356D01*
X002921Y028237D02*
X007304Y028237D01*
X007304Y028119D02*
X002921Y028119D01*
X002921Y028000D02*
X007337Y028000D01*
X007417Y027882D02*
X005430Y027882D01*
X005386Y027926D02*
X005498Y027814D01*
X005558Y027668D01*
X005558Y027510D01*
X005498Y027364D01*
X005386Y027253D01*
X005240Y027192D01*
X005082Y027192D01*
X004936Y027253D01*
X004824Y027364D01*
X004764Y027510D01*
X004764Y027668D01*
X004824Y027814D01*
X004936Y027926D01*
X005082Y027987D01*
X005240Y027987D01*
X005386Y027926D01*
X005519Y027763D02*
X007620Y027763D01*
X007782Y027763D02*
X010499Y027763D01*
X010476Y027773D02*
X010622Y027712D01*
X010780Y027712D01*
X010926Y027773D01*
X011038Y027884D01*
X011098Y028030D01*
X011098Y028188D01*
X011038Y028334D01*
X010926Y028446D01*
X010780Y028507D01*
X010622Y028507D01*
X010476Y028446D01*
X010364Y028334D01*
X010304Y028188D01*
X010304Y028030D01*
X010364Y027884D01*
X010476Y027773D01*
X010367Y027882D02*
X007985Y027882D01*
X008065Y028000D02*
X010316Y028000D01*
X010304Y028119D02*
X008098Y028119D01*
X008098Y028237D02*
X010324Y028237D01*
X010386Y028356D02*
X008050Y028356D01*
X007948Y028474D02*
X010544Y028474D01*
X010858Y028474D02*
X014504Y028474D01*
X014403Y028356D02*
X011016Y028356D01*
X011078Y028237D02*
X014354Y028237D01*
X014354Y028119D02*
X011098Y028119D01*
X011086Y028000D02*
X014387Y028000D01*
X014467Y027882D02*
X012517Y027882D01*
X012473Y027926D02*
X012584Y027814D01*
X012645Y027668D01*
X012645Y027510D01*
X012584Y027364D01*
X012473Y027253D01*
X012327Y027192D01*
X012169Y027192D01*
X012023Y027253D01*
X011911Y027364D01*
X011851Y027510D01*
X011851Y027668D01*
X011911Y027814D01*
X012023Y027926D01*
X012169Y027987D01*
X012327Y027987D01*
X012473Y027926D01*
X012606Y027763D02*
X014670Y027763D01*
X014832Y027763D02*
X017499Y027763D01*
X017476Y027773D02*
X017622Y027712D01*
X017780Y027712D01*
X017926Y027773D01*
X018038Y027884D01*
X018098Y028030D01*
X018098Y028188D01*
X018038Y028334D01*
X017926Y028446D01*
X017780Y028507D01*
X017622Y028507D01*
X017476Y028446D01*
X017364Y028334D01*
X017304Y028188D01*
X017304Y028030D01*
X017364Y027884D01*
X017476Y027773D01*
X017367Y027882D02*
X015035Y027882D01*
X015115Y028000D02*
X017316Y028000D01*
X017304Y028119D02*
X015148Y028119D01*
X015148Y028237D02*
X017324Y028237D01*
X017386Y028356D02*
X015100Y028356D01*
X014998Y028474D02*
X017544Y028474D01*
X017858Y028474D02*
X021604Y028474D01*
X021503Y028356D02*
X018016Y028356D01*
X018078Y028237D02*
X021454Y028237D01*
X021454Y028119D02*
X018098Y028119D01*
X018086Y028000D02*
X021487Y028000D01*
X021567Y027882D02*
X019604Y027882D01*
X019559Y027926D02*
X019671Y027814D01*
X019731Y027668D01*
X019731Y027510D01*
X019671Y027364D01*
X019559Y027253D01*
X019413Y027192D01*
X019255Y027192D01*
X019109Y027253D01*
X018998Y027364D01*
X018937Y027510D01*
X018937Y027668D01*
X018998Y027814D01*
X019109Y027926D01*
X019255Y027987D01*
X019413Y027987D01*
X019559Y027926D01*
X019692Y027763D02*
X021770Y027763D01*
X021932Y027763D02*
X024599Y027763D01*
X024576Y027773D02*
X024722Y027712D01*
X024880Y027712D01*
X025026Y027773D01*
X025138Y027884D01*
X025198Y028030D01*
X025198Y028188D01*
X025138Y028334D01*
X025026Y028446D01*
X024880Y028507D01*
X024722Y028507D01*
X024576Y028446D01*
X024464Y028334D01*
X024404Y028188D01*
X024404Y028030D01*
X024464Y027884D01*
X024576Y027773D01*
X024467Y027882D02*
X022135Y027882D01*
X022215Y028000D02*
X024416Y028000D01*
X024404Y028119D02*
X022248Y028119D01*
X022248Y028237D02*
X024424Y028237D01*
X024486Y028356D02*
X022200Y028356D01*
X022098Y028474D02*
X024644Y028474D01*
X024958Y028474D02*
X028704Y028474D01*
X028603Y028356D02*
X025116Y028356D01*
X025178Y028237D02*
X028554Y028237D01*
X028554Y028119D02*
X025198Y028119D01*
X025186Y028000D02*
X028587Y028000D01*
X028667Y027882D02*
X026690Y027882D01*
X026646Y027926D02*
X026758Y027814D01*
X026818Y027668D01*
X026818Y027510D01*
X026758Y027364D01*
X026646Y027253D01*
X026500Y027192D01*
X026342Y027192D01*
X026196Y027253D01*
X026084Y027364D01*
X026024Y027510D01*
X026024Y027668D01*
X026084Y027814D01*
X026196Y027926D01*
X026342Y027987D01*
X026500Y027987D01*
X026646Y027926D01*
X026779Y027763D02*
X028870Y027763D01*
X029032Y027763D02*
X031699Y027763D01*
X031676Y027773D02*
X031822Y027712D01*
X031980Y027712D01*
X032126Y027773D01*
X032238Y027884D01*
X032298Y028030D01*
X032298Y028188D01*
X032238Y028334D01*
X032126Y028446D01*
X031980Y028507D01*
X031822Y028507D01*
X031676Y028446D01*
X031564Y028334D01*
X031504Y028188D01*
X031504Y028030D01*
X031564Y027884D01*
X031676Y027773D01*
X031567Y027882D02*
X029235Y027882D01*
X029315Y028000D02*
X031516Y028000D01*
X031504Y028119D02*
X029348Y028119D01*
X029348Y028237D02*
X031524Y028237D01*
X031586Y028356D02*
X029300Y028356D01*
X029198Y028474D02*
X031744Y028474D01*
X032058Y028474D02*
X035804Y028474D01*
X035703Y028356D02*
X032216Y028356D01*
X032278Y028237D02*
X035654Y028237D01*
X035654Y028119D02*
X032298Y028119D01*
X032286Y028000D02*
X035687Y028000D01*
X035767Y027882D02*
X033777Y027882D01*
X033733Y027926D02*
X033844Y027814D01*
X033905Y027668D01*
X033905Y027510D01*
X033844Y027364D01*
X033733Y027253D01*
X033587Y027192D01*
X033429Y027192D01*
X033283Y027253D01*
X033171Y027364D01*
X033110Y027510D01*
X033110Y027668D01*
X033171Y027814D01*
X033283Y027926D01*
X033429Y027987D01*
X033587Y027987D01*
X033733Y027926D01*
X033865Y027763D02*
X035970Y027763D01*
X036132Y027763D02*
X039099Y027763D01*
X039076Y027773D02*
X039222Y027712D01*
X039380Y027712D01*
X039526Y027773D01*
X039638Y027884D01*
X039698Y028030D01*
X039698Y028188D01*
X039638Y028334D01*
X039526Y028446D01*
X039380Y028507D01*
X039222Y028507D01*
X039076Y028446D01*
X038964Y028334D01*
X038904Y028188D01*
X038904Y028030D01*
X038964Y027884D01*
X039076Y027773D01*
X038967Y027882D02*
X036335Y027882D01*
X036415Y028000D02*
X038916Y028000D01*
X038904Y028119D02*
X036448Y028119D01*
X036448Y028237D02*
X038924Y028237D01*
X038986Y028356D02*
X036400Y028356D01*
X036298Y028474D02*
X039144Y028474D01*
X039458Y028474D02*
X042904Y028474D01*
X042803Y028356D02*
X039616Y028356D01*
X039678Y028237D02*
X042754Y028237D01*
X042754Y028119D02*
X039698Y028119D01*
X039686Y028000D02*
X042787Y028000D01*
X042867Y027882D02*
X040864Y027882D01*
X040819Y027926D02*
X040931Y027814D01*
X040991Y027668D01*
X040991Y027510D01*
X040931Y027364D01*
X040819Y027253D01*
X040673Y027192D01*
X040515Y027192D01*
X040369Y027253D01*
X040257Y027364D01*
X040197Y027510D01*
X040197Y027668D01*
X040257Y027814D01*
X040369Y027926D01*
X040515Y027987D01*
X040673Y027987D01*
X040819Y027926D01*
X040952Y027763D02*
X043070Y027763D01*
X043232Y027763D02*
X046199Y027763D01*
X046176Y027773D02*
X046322Y027712D01*
X046480Y027712D01*
X046626Y027773D01*
X046738Y027884D01*
X046798Y028030D01*
X046798Y028188D01*
X046738Y028334D01*
X046626Y028446D01*
X046480Y028507D01*
X046322Y028507D01*
X046176Y028446D01*
X046064Y028334D01*
X046004Y028188D01*
X046004Y028030D01*
X046064Y027884D01*
X046176Y027773D01*
X046067Y027882D02*
X043435Y027882D01*
X043515Y028000D02*
X046016Y028000D01*
X046004Y028119D02*
X043548Y028119D01*
X043548Y028237D02*
X046024Y028237D01*
X046086Y028356D02*
X043500Y028356D01*
X043398Y028474D02*
X046244Y028474D01*
X046558Y028474D02*
X049954Y028474D01*
X049853Y028356D02*
X046716Y028356D01*
X046778Y028237D02*
X049804Y028237D01*
X049804Y028119D02*
X046798Y028119D01*
X046786Y028000D02*
X049837Y028000D01*
X049917Y027882D02*
X047950Y027882D01*
X047906Y027926D02*
X048017Y027814D01*
X048078Y027668D01*
X048078Y027510D01*
X048017Y027364D01*
X047906Y027253D01*
X047760Y027192D01*
X047602Y027192D01*
X047456Y027253D01*
X047344Y027364D01*
X047284Y027510D01*
X047284Y027668D01*
X047344Y027814D01*
X047456Y027926D01*
X047602Y027987D01*
X047760Y027987D01*
X047906Y027926D01*
X048039Y027763D02*
X050120Y027763D01*
X050282Y027763D02*
X053249Y027763D01*
X053226Y027773D02*
X053372Y027712D01*
X053530Y027712D01*
X053676Y027773D01*
X053788Y027884D01*
X053848Y028030D01*
X053848Y028188D01*
X053788Y028334D01*
X053676Y028446D01*
X053530Y028507D01*
X053372Y028507D01*
X053226Y028446D01*
X053114Y028334D01*
X053054Y028188D01*
X053054Y028030D01*
X053114Y027884D01*
X053226Y027773D01*
X053117Y027882D02*
X050485Y027882D01*
X050565Y028000D02*
X053066Y028000D01*
X053054Y028119D02*
X050598Y028119D01*
X050598Y028237D02*
X053074Y028237D01*
X053136Y028356D02*
X050550Y028356D01*
X050448Y028474D02*
X053294Y028474D01*
X053608Y028474D02*
X057054Y028474D01*
X056953Y028356D02*
X053766Y028356D01*
X053828Y028237D02*
X056904Y028237D01*
X056904Y028119D02*
X053848Y028119D01*
X053836Y028000D02*
X056937Y028000D01*
X057017Y027882D02*
X055037Y027882D01*
X054992Y027926D02*
X055104Y027814D01*
X055165Y027668D01*
X055165Y027510D01*
X055104Y027364D01*
X054992Y027253D01*
X054846Y027192D01*
X054688Y027192D01*
X054542Y027253D01*
X054431Y027364D01*
X054370Y027510D01*
X054370Y027668D01*
X054431Y027814D01*
X054542Y027926D01*
X054688Y027987D01*
X054846Y027987D01*
X054992Y027926D01*
X055125Y027763D02*
X057220Y027763D01*
X057382Y027763D02*
X059568Y027763D01*
X059568Y027645D02*
X055165Y027645D01*
X055165Y027526D02*
X059568Y027526D01*
X059568Y027408D02*
X055122Y027408D01*
X055029Y027289D02*
X059568Y027289D01*
X059568Y027170D02*
X058848Y027170D01*
X058842Y027176D02*
X058696Y027237D01*
X058538Y027237D01*
X058392Y027176D01*
X058281Y027064D01*
X058220Y026918D01*
X058220Y026760D01*
X058281Y026614D01*
X058392Y026503D01*
X058538Y026442D01*
X058696Y026442D01*
X058842Y026503D01*
X058954Y026614D01*
X059015Y026760D01*
X059015Y026918D01*
X058954Y027064D01*
X058842Y027176D01*
X058959Y027052D02*
X059568Y027052D01*
X059568Y026933D02*
X059008Y026933D01*
X059015Y026815D02*
X059568Y026815D01*
X059568Y026696D02*
X058988Y026696D01*
X058917Y026578D02*
X059568Y026578D01*
X059568Y026459D02*
X058737Y026459D01*
X058498Y026459D02*
X053762Y026459D01*
X053743Y026439D02*
X053788Y026484D01*
X053848Y026630D01*
X053848Y026788D01*
X053788Y026934D01*
X053676Y027046D01*
X053530Y027107D01*
X053372Y027107D01*
X053226Y027046D01*
X053114Y026934D01*
X053054Y026788D01*
X053054Y026630D01*
X053114Y026484D01*
X053159Y026439D01*
X050642Y026439D01*
X050539Y026397D01*
X050490Y026348D01*
X050480Y026348D01*
X050356Y026296D01*
X050261Y026201D01*
X050209Y026077D01*
X050209Y025942D01*
X050261Y025818D01*
X050356Y025723D01*
X050480Y025671D01*
X050615Y025671D01*
X050635Y025680D01*
X050661Y025618D01*
X050756Y025523D01*
X050880Y025471D01*
X051015Y025471D01*
X051077Y025497D01*
X051064Y025484D01*
X051004Y025338D01*
X051004Y025180D01*
X051064Y025034D01*
X051176Y024923D01*
X051322Y024862D01*
X051480Y024862D01*
X051626Y024923D01*
X051738Y025034D01*
X051798Y025180D01*
X051798Y025338D01*
X051738Y025484D01*
X051693Y025529D01*
X054209Y025529D01*
X054216Y025523D01*
X054340Y025471D01*
X054475Y025471D01*
X054599Y025523D01*
X054694Y025618D01*
X054720Y025680D01*
X054740Y025671D01*
X054875Y025671D01*
X054999Y025723D01*
X055094Y025818D01*
X055145Y025942D01*
X055145Y026077D01*
X055094Y026201D01*
X054999Y026296D01*
X054875Y026348D01*
X054865Y026348D01*
X054816Y026397D01*
X054713Y026439D01*
X053743Y026439D01*
X053826Y026578D02*
X058317Y026578D01*
X058247Y026696D02*
X053848Y026696D01*
X053837Y026815D02*
X058220Y026815D01*
X058226Y026933D02*
X053788Y026933D01*
X053662Y027052D02*
X058276Y027052D01*
X058387Y027170D02*
X051761Y027170D01*
X051756Y027176D02*
X051610Y027237D01*
X051452Y027237D01*
X051306Y027176D01*
X051194Y027064D01*
X051134Y026918D01*
X051134Y026760D01*
X051194Y026614D01*
X051306Y026503D01*
X051452Y026442D01*
X051610Y026442D01*
X051756Y026503D01*
X051867Y026614D01*
X051928Y026760D01*
X051928Y026918D01*
X051867Y027064D01*
X051756Y027176D01*
X051873Y027052D02*
X053240Y027052D01*
X053114Y026933D02*
X051922Y026933D01*
X051928Y026815D02*
X053065Y026815D01*
X053054Y026696D02*
X051901Y026696D01*
X051831Y026578D02*
X053076Y026578D01*
X053140Y026459D02*
X051651Y026459D01*
X051411Y026459D02*
X046712Y026459D01*
X046693Y026439D02*
X046738Y026484D01*
X046798Y026630D01*
X046798Y026788D01*
X046738Y026934D01*
X046626Y027046D01*
X046480Y027107D01*
X046322Y027107D01*
X046176Y027046D01*
X046064Y026934D01*
X046004Y026788D01*
X046004Y026630D01*
X046064Y026484D01*
X046109Y026439D01*
X043555Y026439D01*
X043452Y026397D01*
X043403Y026348D01*
X043394Y026348D01*
X043269Y026296D01*
X043174Y026201D01*
X043123Y026077D01*
X043123Y025942D01*
X043174Y025818D01*
X043269Y025723D01*
X043394Y025671D01*
X043528Y025671D01*
X043549Y025680D01*
X043574Y025618D01*
X043669Y025523D01*
X043794Y025471D01*
X043928Y025471D01*
X043968Y025488D01*
X043964Y025484D01*
X043904Y025338D01*
X043904Y025180D01*
X043964Y025034D01*
X044076Y024923D01*
X044222Y024862D01*
X044380Y024862D01*
X044526Y024923D01*
X044638Y025034D01*
X044698Y025180D01*
X044698Y025338D01*
X044638Y025484D01*
X044593Y025529D01*
X047123Y025529D01*
X047129Y025523D01*
X047254Y025471D01*
X047388Y025471D01*
X047512Y025523D01*
X047607Y025618D01*
X047633Y025680D01*
X047654Y025671D01*
X047788Y025671D01*
X047912Y025723D01*
X048007Y025818D01*
X048059Y025942D01*
X048059Y026077D01*
X048007Y026201D01*
X047912Y026296D01*
X047788Y026348D01*
X047779Y026348D01*
X047729Y026397D01*
X047626Y026439D01*
X046693Y026439D01*
X046776Y026578D02*
X051231Y026578D01*
X051160Y026696D02*
X046798Y026696D01*
X046787Y026815D02*
X051134Y026815D01*
X051140Y026933D02*
X046738Y026933D01*
X046612Y027052D02*
X051189Y027052D01*
X051300Y027170D02*
X044675Y027170D01*
X044669Y027176D02*
X044523Y027237D01*
X044365Y027237D01*
X044219Y027176D01*
X044107Y027064D01*
X044047Y026918D01*
X044047Y026760D01*
X044107Y026614D01*
X044219Y026503D01*
X044365Y026442D01*
X044523Y026442D01*
X044669Y026503D01*
X044781Y026614D01*
X044841Y026760D01*
X044841Y026918D01*
X044781Y027064D01*
X044669Y027176D01*
X044786Y027052D02*
X046190Y027052D01*
X046064Y026933D02*
X044835Y026933D01*
X044841Y026815D02*
X046015Y026815D01*
X046004Y026696D02*
X044815Y026696D01*
X044744Y026578D02*
X046026Y026578D01*
X046090Y026459D02*
X044564Y026459D01*
X044324Y026459D02*
X040563Y026459D01*
X040593Y026447D02*
X040490Y026489D01*
X039640Y026489D01*
X039698Y026630D01*
X039698Y026788D01*
X039638Y026934D01*
X039526Y027046D01*
X039380Y027107D01*
X039222Y027107D01*
X039076Y027046D01*
X038964Y026934D01*
X038904Y026788D01*
X038904Y026630D01*
X038962Y026489D01*
X037550Y026489D01*
X037583Y026503D01*
X037694Y026614D01*
X037755Y026760D01*
X037755Y026918D01*
X037694Y027064D01*
X037583Y027176D01*
X037437Y027237D01*
X037279Y027237D01*
X037133Y027176D01*
X037021Y027064D01*
X036960Y026918D01*
X036960Y026760D01*
X037021Y026614D01*
X037133Y026503D01*
X037165Y026489D01*
X036545Y026489D01*
X036442Y026447D01*
X036364Y026368D01*
X036343Y026348D01*
X036334Y026348D01*
X036210Y026296D01*
X036114Y026201D01*
X036063Y026077D01*
X036063Y025942D01*
X036114Y025818D01*
X036210Y025723D01*
X036334Y025671D01*
X036468Y025671D01*
X036489Y025680D01*
X036514Y025618D01*
X036610Y025523D01*
X036734Y025471D01*
X036868Y025471D01*
X036925Y025495D01*
X036914Y025484D01*
X036854Y025338D01*
X036854Y025180D01*
X036914Y025034D01*
X037026Y024923D01*
X037172Y024862D01*
X037330Y024862D01*
X037476Y024923D01*
X037588Y025034D01*
X037648Y025180D01*
X037648Y025338D01*
X037588Y025484D01*
X037543Y025529D01*
X040036Y025529D01*
X040043Y025523D01*
X040167Y025471D01*
X040301Y025471D01*
X040426Y025523D01*
X040521Y025618D01*
X040546Y025680D01*
X040567Y025671D01*
X040701Y025671D01*
X040826Y025723D01*
X040921Y025818D01*
X040972Y025942D01*
X040972Y026077D01*
X040921Y026201D01*
X040826Y026296D01*
X040701Y026348D01*
X040692Y026348D01*
X040671Y026368D01*
X040593Y026447D01*
X040718Y026341D02*
X043377Y026341D01*
X043195Y026222D02*
X040900Y026222D01*
X040961Y026104D02*
X043134Y026104D01*
X043123Y025985D02*
X040972Y025985D01*
X040941Y025866D02*
X043154Y025866D01*
X043244Y025748D02*
X040851Y025748D01*
X040634Y026009D02*
X040434Y026209D01*
X036601Y026209D01*
X036401Y026009D01*
X036094Y025866D02*
X033854Y025866D01*
X033834Y025818D02*
X033886Y025942D01*
X033886Y026077D01*
X033834Y026201D01*
X033739Y026296D01*
X033615Y026348D01*
X033605Y026348D01*
X033585Y026368D01*
X033506Y026447D01*
X033403Y026489D01*
X032240Y026489D01*
X032298Y026630D01*
X032298Y026788D01*
X032238Y026934D01*
X032126Y027046D01*
X031980Y027107D01*
X031822Y027107D01*
X031676Y027046D01*
X031564Y026934D01*
X031504Y026788D01*
X031504Y026630D01*
X031562Y026489D01*
X030464Y026489D01*
X030496Y026503D01*
X030608Y026614D01*
X030668Y026760D01*
X030668Y026918D01*
X030608Y027064D01*
X030496Y027176D01*
X030350Y027237D01*
X030192Y027237D01*
X030046Y027176D01*
X029934Y027064D01*
X029874Y026918D01*
X029874Y026760D01*
X029934Y026614D01*
X030046Y026503D01*
X030078Y026489D01*
X029445Y026489D01*
X029342Y026447D01*
X029264Y026368D01*
X029243Y026348D01*
X029234Y026348D01*
X029110Y026296D01*
X029014Y026201D01*
X028963Y026077D01*
X028963Y025942D01*
X029014Y025818D01*
X029110Y025723D01*
X029234Y025671D01*
X029368Y025671D01*
X029389Y025680D01*
X029414Y025618D01*
X029510Y025523D01*
X029634Y025471D01*
X029768Y025471D01*
X029825Y025495D01*
X029814Y025484D01*
X029754Y025338D01*
X029754Y025180D01*
X029814Y025034D01*
X029926Y024923D01*
X030072Y024862D01*
X030230Y024862D01*
X030376Y024923D01*
X030488Y025034D01*
X030548Y025180D01*
X030548Y025338D01*
X030488Y025484D01*
X030443Y025529D01*
X032949Y025529D01*
X032956Y025523D01*
X033080Y025471D01*
X033215Y025471D01*
X033339Y025523D01*
X033434Y025618D01*
X033460Y025680D01*
X033480Y025671D01*
X033615Y025671D01*
X033739Y025723D01*
X033834Y025818D01*
X033764Y025748D02*
X036184Y025748D01*
X036063Y025985D02*
X033886Y025985D01*
X033875Y026104D02*
X036074Y026104D01*
X036136Y026222D02*
X033813Y026222D01*
X033631Y026341D02*
X036317Y026341D01*
X036472Y026459D02*
X033476Y026459D01*
X033348Y026209D02*
X029501Y026209D01*
X029301Y026009D01*
X028994Y025866D02*
X026768Y025866D01*
X026748Y025818D02*
X026799Y025942D01*
X026799Y026077D01*
X026748Y026201D01*
X026652Y026296D01*
X026528Y026348D01*
X026519Y026348D01*
X026498Y026368D01*
X026420Y026447D01*
X026317Y026489D01*
X025140Y026489D01*
X025198Y026630D01*
X025198Y026788D01*
X025138Y026934D01*
X025026Y027046D01*
X024880Y027107D01*
X024722Y027107D01*
X024576Y027046D01*
X024464Y026934D01*
X024404Y026788D01*
X024404Y026630D01*
X024462Y026489D01*
X023377Y026489D01*
X023409Y026503D01*
X023521Y026614D01*
X023581Y026760D01*
X023581Y026918D01*
X023521Y027064D01*
X023409Y027176D01*
X023263Y027237D01*
X023105Y027237D01*
X022959Y027176D01*
X022848Y027064D01*
X022787Y026918D01*
X022787Y026760D01*
X022848Y026614D01*
X022959Y026503D01*
X022992Y026489D01*
X022345Y026489D01*
X022242Y026447D01*
X022164Y026368D01*
X022143Y026348D01*
X022134Y026348D01*
X022010Y026296D01*
X021914Y026201D01*
X021863Y026077D01*
X021863Y025942D01*
X021914Y025818D01*
X022010Y025723D01*
X022134Y025671D01*
X022268Y025671D01*
X022289Y025680D01*
X022314Y025618D01*
X022410Y025523D01*
X022534Y025471D01*
X022668Y025471D01*
X022725Y025495D01*
X022714Y025484D01*
X022654Y025338D01*
X022654Y025180D01*
X022714Y025034D01*
X022826Y024923D01*
X022972Y024862D01*
X023130Y024862D01*
X023276Y024923D01*
X023388Y025034D01*
X023448Y025180D01*
X023448Y025338D01*
X023388Y025484D01*
X023343Y025529D01*
X025863Y025529D01*
X025869Y025523D01*
X025994Y025471D01*
X026128Y025471D01*
X026252Y025523D01*
X026348Y025618D01*
X026373Y025680D01*
X026394Y025671D01*
X026528Y025671D01*
X026652Y025723D01*
X026748Y025818D01*
X026678Y025748D02*
X029084Y025748D01*
X028963Y025985D02*
X026799Y025985D01*
X026788Y026104D02*
X028974Y026104D01*
X029036Y026222D02*
X026726Y026222D01*
X026545Y026341D02*
X029217Y026341D01*
X029372Y026459D02*
X026390Y026459D01*
X026261Y026209D02*
X022401Y026209D01*
X022201Y026009D01*
X021894Y025866D02*
X019681Y025866D01*
X019661Y025818D02*
X019712Y025942D01*
X019712Y026077D01*
X019661Y026201D01*
X019566Y026296D01*
X019471Y026335D01*
X019360Y026447D01*
X019257Y026489D01*
X019145Y026489D01*
X018040Y026489D01*
X018098Y026630D01*
X018098Y026788D01*
X018038Y026934D01*
X017926Y027046D01*
X017780Y027107D01*
X017622Y027107D01*
X017476Y027046D01*
X017364Y026934D01*
X017304Y026788D01*
X017304Y026630D01*
X017362Y026489D01*
X016290Y026489D01*
X016323Y026503D01*
X016434Y026614D01*
X016495Y026760D01*
X016495Y026918D01*
X016434Y027064D01*
X016323Y027176D01*
X016177Y027237D01*
X016019Y027237D01*
X015873Y027176D01*
X015761Y027064D01*
X015701Y026918D01*
X015701Y026760D01*
X015761Y026614D01*
X015873Y026503D01*
X015905Y026489D01*
X015245Y026489D01*
X015142Y026447D01*
X015064Y026368D01*
X015043Y026348D01*
X015034Y026348D01*
X014910Y026296D01*
X014814Y026201D01*
X014763Y026077D01*
X014763Y025942D01*
X014814Y025818D01*
X014910Y025723D01*
X015034Y025671D01*
X015168Y025671D01*
X015189Y025680D01*
X015214Y025618D01*
X015310Y025523D01*
X015434Y025471D01*
X015568Y025471D01*
X015625Y025495D01*
X015614Y025484D01*
X015554Y025338D01*
X015554Y025180D01*
X015614Y025034D01*
X015726Y024923D01*
X015872Y024862D01*
X016030Y024862D01*
X016176Y024923D01*
X016288Y025034D01*
X016348Y025180D01*
X016348Y025338D01*
X016288Y025484D01*
X016243Y025529D01*
X018776Y025529D01*
X018783Y025523D01*
X018907Y025471D01*
X019042Y025471D01*
X019166Y025523D01*
X019261Y025618D01*
X019287Y025680D01*
X019307Y025671D01*
X019442Y025671D01*
X019566Y025723D01*
X019661Y025818D01*
X019591Y025748D02*
X021984Y025748D01*
X021863Y025985D02*
X019712Y025985D01*
X019701Y026104D02*
X021874Y026104D01*
X021936Y026222D02*
X019640Y026222D01*
X019466Y026341D02*
X022117Y026341D01*
X022272Y026459D02*
X019330Y026459D01*
X019201Y026209D02*
X019374Y026036D01*
X019374Y026009D01*
X019201Y026209D02*
X015301Y026209D01*
X015101Y026009D01*
X014794Y025866D02*
X012594Y025866D01*
X012574Y025818D02*
X012626Y025942D01*
X012626Y026077D01*
X012574Y026201D01*
X012479Y026296D01*
X012362Y026345D01*
X012260Y026447D01*
X012157Y026489D01*
X012045Y026489D01*
X011040Y026489D01*
X011098Y026630D01*
X011098Y026788D01*
X011038Y026934D01*
X010926Y027046D01*
X010780Y027107D01*
X010622Y027107D01*
X010476Y027046D01*
X010364Y026934D01*
X010304Y026788D01*
X010304Y026630D01*
X010362Y026489D01*
X009204Y026489D01*
X009236Y026503D01*
X009348Y026614D01*
X009408Y026760D01*
X009408Y026918D01*
X009348Y027064D01*
X009236Y027176D01*
X009090Y027237D01*
X008932Y027237D01*
X008786Y027176D01*
X008674Y027064D01*
X008614Y026918D01*
X008614Y026760D01*
X008674Y026614D01*
X008786Y026503D01*
X008818Y026489D01*
X008145Y026489D01*
X008042Y026447D01*
X007964Y026368D01*
X007943Y026348D01*
X007934Y026348D01*
X007810Y026296D01*
X007714Y026201D01*
X007663Y026077D01*
X007663Y025942D01*
X007714Y025818D01*
X007810Y025723D01*
X007934Y025671D01*
X008068Y025671D01*
X008089Y025680D01*
X008114Y025618D01*
X008210Y025523D01*
X008334Y025471D01*
X008468Y025471D01*
X008525Y025495D01*
X008514Y025484D01*
X008454Y025338D01*
X008454Y025180D01*
X008514Y025034D01*
X008626Y024923D01*
X008772Y024862D01*
X008930Y024862D01*
X009076Y024923D01*
X009188Y025034D01*
X009248Y025180D01*
X009248Y025338D01*
X009188Y025484D01*
X009143Y025529D01*
X011690Y025529D01*
X011696Y025523D01*
X011820Y025471D01*
X011955Y025471D01*
X012079Y025523D01*
X012174Y025618D01*
X012200Y025680D01*
X012220Y025671D01*
X012355Y025671D01*
X012479Y025723D01*
X012574Y025818D01*
X012504Y025748D02*
X014884Y025748D01*
X014763Y025985D02*
X012626Y025985D01*
X012615Y026104D02*
X014774Y026104D01*
X014836Y026222D02*
X012553Y026222D01*
X012372Y026341D02*
X015017Y026341D01*
X015172Y026459D02*
X012230Y026459D01*
X012101Y026209D02*
X012288Y026023D01*
X012288Y026009D01*
X012101Y026209D02*
X008201Y026209D01*
X008001Y026009D01*
X007694Y025866D02*
X005508Y025866D01*
X005488Y025818D02*
X005539Y025942D01*
X005539Y026077D01*
X005488Y026201D01*
X005393Y026296D01*
X005268Y026348D01*
X005134Y026348D01*
X005010Y026296D01*
X004914Y026201D01*
X004889Y026139D01*
X004868Y026148D01*
X004734Y026148D01*
X004610Y026096D01*
X004514Y026001D01*
X004463Y025877D01*
X004463Y025742D01*
X004514Y025618D01*
X004610Y025523D01*
X004734Y025471D01*
X004868Y025471D01*
X004993Y025523D01*
X005088Y025618D01*
X005113Y025680D01*
X005134Y025671D01*
X005268Y025671D01*
X005393Y025723D01*
X005488Y025818D01*
X005418Y025748D02*
X007784Y025748D01*
X007663Y025985D02*
X005539Y025985D01*
X005528Y026104D02*
X007674Y026104D01*
X007736Y026222D02*
X005467Y026222D01*
X005285Y026341D02*
X007917Y026341D01*
X008072Y026459D02*
X002921Y026459D01*
X002921Y026341D02*
X005117Y026341D01*
X004936Y026222D02*
X002921Y026222D01*
X002921Y026104D02*
X004628Y026104D01*
X004508Y025985D02*
X003682Y025985D01*
X003630Y026007D02*
X003472Y026007D01*
X003326Y025946D01*
X003214Y025834D01*
X003154Y025688D01*
X003154Y025530D01*
X003214Y025384D01*
X003326Y025273D01*
X003472Y025212D01*
X003630Y025212D01*
X003776Y025273D01*
X003888Y025384D01*
X003948Y025530D01*
X003948Y025688D01*
X003888Y025834D01*
X003776Y025946D01*
X003630Y026007D01*
X003420Y025985D02*
X002921Y025985D01*
X002921Y025866D02*
X003246Y025866D01*
X003179Y025748D02*
X002921Y025748D01*
X002921Y025629D02*
X003154Y025629D01*
X003162Y025511D02*
X002921Y025511D01*
X002921Y025392D02*
X003211Y025392D01*
X003325Y025274D02*
X002921Y025274D01*
X002921Y025155D02*
X008464Y025155D01*
X008454Y025274D02*
X003777Y025274D01*
X003891Y025392D02*
X008476Y025392D01*
X008238Y025511D02*
X004964Y025511D01*
X005092Y025629D02*
X008110Y025629D01*
X008401Y025809D02*
X011888Y025809D01*
X012050Y025511D02*
X015338Y025511D01*
X015210Y025629D02*
X012179Y025629D01*
X011725Y025511D02*
X009161Y025511D01*
X009226Y025392D02*
X015576Y025392D01*
X015554Y025274D02*
X009248Y025274D01*
X009238Y025155D02*
X015564Y025155D01*
X015613Y025037D02*
X009189Y025037D01*
X009065Y024918D02*
X015737Y024918D01*
X016165Y024918D02*
X022837Y024918D01*
X022713Y025037D02*
X016289Y025037D01*
X016338Y025155D02*
X022664Y025155D01*
X022654Y025274D02*
X016348Y025274D01*
X016326Y025392D02*
X022676Y025392D01*
X022438Y025511D02*
X019137Y025511D01*
X019266Y025629D02*
X022310Y025629D01*
X022601Y025809D02*
X026061Y025809D01*
X026224Y025511D02*
X029538Y025511D01*
X029410Y025629D02*
X026352Y025629D01*
X026461Y026009D02*
X026261Y026209D01*
X025176Y026578D02*
X029971Y026578D01*
X029900Y026696D02*
X025198Y026696D01*
X025187Y026815D02*
X029874Y026815D01*
X029880Y026933D02*
X025138Y026933D01*
X025012Y027052D02*
X029929Y027052D01*
X030040Y027170D02*
X023415Y027170D01*
X023526Y027052D02*
X024590Y027052D01*
X024464Y026933D02*
X023575Y026933D01*
X023581Y026815D02*
X024415Y026815D01*
X024404Y026696D02*
X023555Y026696D01*
X023484Y026578D02*
X024426Y026578D01*
X022884Y026578D02*
X018076Y026578D01*
X018098Y026696D02*
X022814Y026696D01*
X022787Y026815D02*
X018087Y026815D01*
X018038Y026933D02*
X022793Y026933D01*
X022842Y027052D02*
X017912Y027052D01*
X017490Y027052D02*
X016440Y027052D01*
X016489Y026933D02*
X017364Y026933D01*
X017315Y026815D02*
X016495Y026815D01*
X016468Y026696D02*
X017304Y026696D01*
X017326Y026578D02*
X016398Y026578D01*
X015798Y026578D02*
X011076Y026578D01*
X011098Y026696D02*
X015727Y026696D01*
X015701Y026815D02*
X011087Y026815D01*
X011038Y026933D02*
X015707Y026933D01*
X015756Y027052D02*
X010912Y027052D01*
X010490Y027052D02*
X009353Y027052D01*
X009402Y026933D02*
X010364Y026933D01*
X010315Y026815D02*
X009408Y026815D01*
X009382Y026696D02*
X010304Y026696D01*
X010326Y026578D02*
X009311Y026578D01*
X008711Y026578D02*
X002921Y026578D01*
X002921Y026696D02*
X008641Y026696D01*
X008614Y026815D02*
X002921Y026815D01*
X002921Y026933D02*
X008620Y026933D01*
X008669Y027052D02*
X002921Y027052D01*
X002921Y027170D02*
X008780Y027170D01*
X009242Y027170D02*
X015867Y027170D01*
X016328Y027170D02*
X022954Y027170D01*
X025003Y027763D02*
X026063Y027763D01*
X026024Y027645D02*
X019731Y027645D01*
X019731Y027526D02*
X026024Y027526D01*
X026066Y027408D02*
X019689Y027408D01*
X019596Y027289D02*
X026160Y027289D01*
X026682Y027289D02*
X033246Y027289D01*
X033153Y027408D02*
X026775Y027408D01*
X026818Y027526D02*
X033110Y027526D01*
X033110Y027645D02*
X026818Y027645D01*
X026152Y027882D02*
X025135Y027882D01*
X025898Y025511D02*
X023361Y025511D01*
X023426Y025392D02*
X029776Y025392D01*
X029754Y025274D02*
X023448Y025274D01*
X023438Y025155D02*
X029764Y025155D01*
X029813Y025037D02*
X023389Y025037D01*
X023265Y024918D02*
X029937Y024918D01*
X030365Y024918D02*
X037037Y024918D01*
X036913Y025037D02*
X030489Y025037D01*
X030538Y025155D02*
X036864Y025155D01*
X036854Y025274D02*
X030548Y025274D01*
X030526Y025392D02*
X036876Y025392D01*
X036638Y025511D02*
X033310Y025511D01*
X033439Y025629D02*
X036510Y025629D01*
X036801Y025809D02*
X040234Y025809D01*
X040072Y025511D02*
X037561Y025511D01*
X037626Y025392D02*
X043926Y025392D01*
X043904Y025274D02*
X037648Y025274D01*
X037638Y025155D02*
X043914Y025155D01*
X043963Y025037D02*
X037589Y025037D01*
X037465Y024918D02*
X044087Y024918D01*
X044515Y024918D02*
X051187Y024918D01*
X051063Y025037D02*
X044639Y025037D01*
X044688Y025155D02*
X051014Y025155D01*
X051004Y025274D02*
X044698Y025274D01*
X044676Y025392D02*
X051026Y025392D01*
X050785Y025511D02*
X047483Y025511D01*
X047612Y025629D02*
X050656Y025629D01*
X050948Y025809D02*
X054407Y025809D01*
X054245Y025511D02*
X051711Y025511D01*
X051776Y025392D02*
X059568Y025392D01*
X059568Y025274D02*
X051798Y025274D01*
X051788Y025155D02*
X059568Y025155D01*
X059568Y025037D02*
X051739Y025037D01*
X051615Y024918D02*
X059568Y024918D01*
X059568Y024800D02*
X002921Y024800D01*
X002921Y024918D02*
X008637Y024918D01*
X008513Y025037D02*
X002921Y025037D01*
X002921Y024681D02*
X059568Y024681D01*
X059568Y024562D02*
X002921Y024562D01*
X002921Y024444D02*
X004650Y024444D01*
X004593Y024420D02*
X004498Y024325D01*
X004447Y024201D01*
X004447Y024067D01*
X004498Y023942D01*
X004593Y023847D01*
X004718Y023796D01*
X004727Y023796D01*
X005251Y023272D01*
X005354Y023229D01*
X005465Y023229D01*
X006586Y023229D01*
X006410Y023053D01*
X006366Y023097D01*
X006263Y023139D01*
X006057Y023139D01*
X005945Y023139D01*
X005842Y023097D01*
X004214Y021468D01*
X004171Y021365D01*
X004171Y021254D01*
X004171Y020775D01*
X003864Y020468D01*
X003821Y020365D01*
X003821Y020254D01*
X003821Y018841D01*
X003786Y018876D01*
X003640Y018937D01*
X003482Y018937D01*
X003336Y018876D01*
X003224Y018764D01*
X003164Y018618D01*
X003164Y018460D01*
X003224Y018314D01*
X003336Y018203D01*
X003482Y018142D01*
X003640Y018142D01*
X003786Y018203D01*
X003821Y018238D01*
X003821Y016254D01*
X003864Y016151D01*
X003942Y016072D01*
X003943Y016072D01*
X005114Y014901D01*
X005192Y014822D01*
X005295Y014779D01*
X005903Y014779D01*
X005910Y014773D01*
X006034Y014721D01*
X006168Y014721D01*
X006293Y014773D01*
X006388Y014868D01*
X006413Y014929D01*
X006445Y014929D01*
X006557Y014929D01*
X006660Y014972D01*
X007267Y015579D01*
X008617Y015579D01*
X008614Y015572D01*
X008614Y015414D01*
X008674Y015268D01*
X008786Y015156D01*
X008932Y015096D01*
X009090Y015096D01*
X009228Y015153D01*
X009316Y015153D01*
X009314Y015151D01*
X009263Y015027D01*
X009263Y014892D01*
X009314Y014768D01*
X009410Y014673D01*
X009534Y014621D01*
X009668Y014621D01*
X009793Y014673D01*
X009799Y014679D01*
X012585Y014679D01*
X012864Y014401D01*
X012942Y014322D01*
X013045Y014279D01*
X014007Y014279D01*
X014110Y014322D01*
X014188Y014401D01*
X014617Y014829D01*
X019535Y014829D01*
X019992Y014372D01*
X020095Y014329D01*
X020207Y014329D01*
X021107Y014329D01*
X021210Y014372D01*
X021288Y014451D01*
X021667Y014829D01*
X026635Y014829D01*
X027092Y014372D01*
X027195Y014329D01*
X027307Y014329D01*
X028207Y014329D01*
X028310Y014372D01*
X028388Y014451D01*
X028767Y014829D01*
X032353Y014829D01*
X032360Y014823D01*
X032484Y014771D01*
X032618Y014771D01*
X032743Y014823D01*
X032838Y014918D01*
X032889Y015042D01*
X032889Y015153D01*
X033727Y015153D01*
X034209Y014671D01*
X034333Y014619D01*
X034469Y014619D01*
X035169Y014619D01*
X035294Y014671D01*
X035389Y014767D01*
X035775Y015153D01*
X037141Y015153D01*
X037279Y015096D01*
X037437Y015096D01*
X037575Y015153D01*
X040827Y015153D01*
X041213Y014767D01*
X041309Y014671D01*
X041433Y014619D01*
X042269Y014619D01*
X042394Y014671D01*
X042489Y014767D01*
X042875Y015153D01*
X044227Y015153D01*
X044365Y015096D01*
X044523Y015096D01*
X044661Y015153D01*
X047927Y015153D01*
X048409Y014671D01*
X048533Y014619D01*
X048669Y014619D01*
X049369Y014619D01*
X049494Y014671D01*
X049589Y014767D01*
X049975Y015153D01*
X051314Y015153D01*
X051452Y015096D01*
X051610Y015096D01*
X051748Y015153D01*
X054927Y015153D01*
X055213Y014867D01*
X055213Y014867D01*
X055309Y014771D01*
X055433Y014719D01*
X056269Y014719D01*
X056394Y014771D01*
X056489Y014867D01*
X056775Y015153D01*
X058400Y015153D01*
X058538Y015096D01*
X058696Y015096D01*
X058842Y015156D01*
X058954Y015268D01*
X059015Y015414D01*
X059015Y015572D01*
X058954Y015718D01*
X058842Y015829D01*
X058696Y015890D01*
X058538Y015890D01*
X058400Y015833D01*
X056702Y015833D01*
X056567Y015833D01*
X056442Y015781D01*
X056338Y015677D01*
X056303Y015762D01*
X056296Y015769D01*
X056296Y015881D01*
X057259Y015881D01*
X057362Y015924D01*
X057440Y016003D01*
X057760Y016322D01*
X057838Y016401D01*
X057881Y016504D01*
X057881Y021404D01*
X057881Y021515D01*
X057838Y021618D01*
X056562Y022895D01*
X056459Y022937D01*
X056347Y022937D01*
X056214Y022937D01*
X056208Y022944D01*
X056083Y022996D01*
X056074Y022996D01*
X055623Y023447D01*
X055520Y023489D01*
X055408Y023489D01*
X054143Y023489D01*
X054449Y023796D01*
X054459Y023796D01*
X054583Y023847D01*
X054678Y023942D01*
X054729Y024067D01*
X054729Y024201D01*
X054678Y024325D01*
X054583Y024420D01*
X054459Y024472D01*
X054324Y024472D01*
X054200Y024420D01*
X054105Y024325D01*
X047591Y024325D01*
X047496Y024420D01*
X047372Y024472D01*
X047237Y024472D01*
X047113Y024420D01*
X047018Y024325D01*
X046967Y024201D01*
X046967Y024067D01*
X047018Y023942D01*
X047021Y023939D01*
X047021Y023789D01*
X040498Y023789D01*
X040498Y023936D01*
X040505Y023942D01*
X040556Y024067D01*
X040556Y024201D01*
X040505Y024325D01*
X040410Y024420D01*
X040285Y024472D01*
X040151Y024472D01*
X040026Y024420D01*
X039931Y024325D01*
X039880Y024201D01*
X039880Y024067D01*
X039931Y023942D01*
X039938Y023936D01*
X039938Y023789D01*
X033411Y023789D01*
X033411Y023936D01*
X033418Y023942D01*
X033469Y024067D01*
X033469Y024201D01*
X033418Y024325D01*
X033323Y024420D01*
X033199Y024472D01*
X033064Y024472D01*
X032940Y024420D01*
X032845Y024325D01*
X032793Y024201D01*
X032793Y024067D01*
X032845Y023942D01*
X032851Y023936D01*
X032851Y023789D01*
X026325Y023789D01*
X026325Y023936D01*
X026331Y023942D01*
X026383Y024067D01*
X026383Y024201D01*
X026331Y024325D01*
X032845Y024325D01*
X032796Y024207D02*
X026381Y024207D01*
X026383Y024088D02*
X032793Y024088D01*
X032833Y023970D02*
X026343Y023970D01*
X026325Y023851D02*
X032851Y023851D01*
X033131Y024134D02*
X033131Y023510D01*
X033131Y023509D01*
X040201Y023509D01*
X040218Y023526D01*
X040218Y024134D01*
X040083Y024444D02*
X033266Y024444D01*
X033418Y024325D02*
X039931Y024325D01*
X039882Y024207D02*
X033467Y024207D01*
X033469Y024088D02*
X039880Y024088D01*
X039920Y023970D02*
X033429Y023970D01*
X033411Y023851D02*
X039938Y023851D01*
X040498Y023851D02*
X047021Y023851D01*
X047007Y023970D02*
X040516Y023970D01*
X040556Y024088D02*
X046967Y024088D01*
X046969Y024207D02*
X040554Y024207D01*
X040505Y024325D02*
X047018Y024325D01*
X047170Y024444D02*
X040353Y024444D01*
X040397Y025511D02*
X043698Y025511D01*
X043570Y025629D02*
X040526Y025629D01*
X039676Y026578D02*
X044144Y026578D01*
X044074Y026696D02*
X039698Y026696D01*
X039687Y026815D02*
X044047Y026815D01*
X044053Y026933D02*
X039638Y026933D01*
X039512Y027052D02*
X044102Y027052D01*
X044214Y027170D02*
X037588Y027170D01*
X037699Y027052D02*
X039090Y027052D01*
X038964Y026933D02*
X037749Y026933D01*
X037755Y026815D02*
X038915Y026815D01*
X038904Y026696D02*
X037728Y026696D01*
X037657Y026578D02*
X038926Y026578D01*
X040240Y027408D02*
X033862Y027408D01*
X033905Y027526D02*
X040197Y027526D01*
X040197Y027645D02*
X033905Y027645D01*
X033238Y027882D02*
X032235Y027882D01*
X032103Y027763D02*
X033150Y027763D01*
X033769Y027289D02*
X040333Y027289D01*
X040855Y027289D02*
X047420Y027289D01*
X047326Y027408D02*
X040949Y027408D01*
X040991Y027526D02*
X047284Y027526D01*
X047284Y027645D02*
X040991Y027645D01*
X040325Y027882D02*
X039635Y027882D01*
X039503Y027763D02*
X040236Y027763D01*
X037127Y027170D02*
X030502Y027170D01*
X030613Y027052D02*
X031690Y027052D01*
X031564Y026933D02*
X030662Y026933D01*
X030668Y026815D02*
X031515Y026815D01*
X031504Y026696D02*
X030641Y026696D01*
X030571Y026578D02*
X031526Y026578D01*
X032276Y026578D02*
X037058Y026578D01*
X036987Y026696D02*
X032298Y026696D01*
X032287Y026815D02*
X036960Y026815D01*
X036967Y026933D02*
X032238Y026933D01*
X032112Y027052D02*
X037016Y027052D01*
X033548Y026009D02*
X033348Y026209D01*
X033148Y025809D02*
X029701Y025809D01*
X030461Y025511D02*
X032985Y025511D01*
X032997Y024444D02*
X026180Y024444D01*
X026236Y024420D02*
X026112Y024472D01*
X025978Y024472D01*
X025853Y024420D01*
X025758Y024325D01*
X025707Y024201D01*
X025707Y024067D01*
X025758Y023942D01*
X025765Y023936D01*
X025765Y023789D01*
X019238Y023789D01*
X019238Y023936D01*
X019245Y023942D01*
X019296Y024067D01*
X019296Y024201D01*
X019245Y024325D01*
X019150Y024420D01*
X019025Y024472D01*
X018891Y024472D01*
X018767Y024420D01*
X018672Y024325D01*
X012158Y024325D01*
X012063Y024420D01*
X011939Y024472D01*
X011804Y024472D01*
X011680Y024420D01*
X011585Y024325D01*
X011533Y024201D01*
X011533Y024067D01*
X011585Y023942D01*
X011592Y023936D01*
X011592Y023789D01*
X005525Y023789D01*
X005123Y024192D01*
X005123Y024201D01*
X005072Y024325D01*
X004976Y024420D01*
X004852Y024472D01*
X004718Y024472D01*
X004593Y024420D01*
X004498Y024325D02*
X002921Y024325D01*
X002921Y024207D02*
X004449Y024207D01*
X004447Y024088D02*
X002921Y024088D01*
X002921Y023970D02*
X004487Y023970D01*
X004589Y023851D02*
X002921Y023851D01*
X002921Y023733D02*
X004790Y023733D01*
X004909Y023614D02*
X002921Y023614D01*
X002921Y023496D02*
X005027Y023496D01*
X005146Y023377D02*
X004023Y023377D01*
X004000Y023387D02*
X003842Y023387D01*
X003696Y023326D01*
X003584Y023214D01*
X003524Y023068D01*
X003524Y022910D01*
X003584Y022764D01*
X003696Y022653D01*
X003842Y022592D01*
X004000Y022592D01*
X004146Y022653D01*
X004258Y022764D01*
X004318Y022910D01*
X004318Y023068D01*
X004258Y023214D01*
X004146Y023326D01*
X004000Y023387D01*
X003819Y023377D02*
X002921Y023377D01*
X002921Y023259D02*
X003629Y023259D01*
X003554Y023140D02*
X002921Y023140D01*
X002921Y023021D02*
X003524Y023021D01*
X003527Y022903D02*
X002921Y022903D01*
X002921Y022784D02*
X003576Y022784D01*
X003683Y022666D02*
X002921Y022666D01*
X002921Y022547D02*
X005293Y022547D01*
X005174Y022429D02*
X002921Y022429D01*
X002921Y022310D02*
X005056Y022310D01*
X004937Y022192D02*
X002921Y022192D01*
X002921Y022073D02*
X004819Y022073D01*
X004700Y021955D02*
X002921Y021955D01*
X002921Y021836D02*
X004582Y021836D01*
X004463Y021717D02*
X002921Y021717D01*
X002921Y021599D02*
X004345Y021599D01*
X004226Y021480D02*
X002921Y021480D01*
X002921Y021362D02*
X004171Y021362D01*
X004171Y021243D02*
X002921Y021243D01*
X002921Y021125D02*
X004171Y021125D01*
X004171Y021006D02*
X002921Y021006D01*
X002921Y020888D02*
X004171Y020888D01*
X004165Y020769D02*
X002921Y020769D01*
X002921Y020651D02*
X004046Y020651D01*
X003928Y020532D02*
X002921Y020532D01*
X002921Y020413D02*
X003841Y020413D01*
X003821Y020295D02*
X002921Y020295D01*
X002921Y020176D02*
X003821Y020176D01*
X003821Y020058D02*
X002921Y020058D01*
X002921Y019939D02*
X003821Y019939D01*
X003821Y019821D02*
X002921Y019821D01*
X002921Y019702D02*
X003821Y019702D01*
X003821Y019584D02*
X002921Y019584D01*
X002921Y019465D02*
X003821Y019465D01*
X003821Y019347D02*
X002921Y019347D01*
X002921Y019228D02*
X003821Y019228D01*
X003821Y019109D02*
X002921Y019109D01*
X002921Y018991D02*
X003821Y018991D01*
X003821Y018872D02*
X003790Y018872D01*
X003332Y018872D02*
X002921Y018872D01*
X002921Y018754D02*
X003220Y018754D01*
X003171Y018635D02*
X002921Y018635D01*
X002921Y018517D02*
X003164Y018517D01*
X003190Y018398D02*
X002921Y018398D01*
X002921Y018280D02*
X003259Y018280D01*
X003437Y018161D02*
X002921Y018161D01*
X002921Y018043D02*
X003821Y018043D01*
X003821Y018161D02*
X003686Y018161D01*
X003821Y017924D02*
X002921Y017924D01*
X002921Y017806D02*
X003821Y017806D01*
X003821Y017687D02*
X002921Y017687D01*
X002921Y017568D02*
X003821Y017568D01*
X003821Y017450D02*
X002921Y017450D01*
X002921Y017331D02*
X003821Y017331D01*
X003821Y017213D02*
X002921Y017213D01*
X002921Y017094D02*
X003821Y017094D01*
X003821Y016976D02*
X002921Y016976D01*
X002921Y016857D02*
X003821Y016857D01*
X003821Y016739D02*
X002921Y016739D01*
X002921Y016620D02*
X003821Y016620D01*
X003821Y016502D02*
X002921Y016502D01*
X002921Y016383D02*
X003821Y016383D01*
X003821Y016264D02*
X002921Y016264D01*
X002921Y016146D02*
X003869Y016146D01*
X003987Y016027D02*
X002921Y016027D01*
X002921Y015909D02*
X004106Y015909D01*
X004224Y015790D02*
X002921Y015790D01*
X002921Y015672D02*
X004343Y015672D01*
X004461Y015553D02*
X002921Y015553D01*
X002921Y015435D02*
X004580Y015435D01*
X004698Y015316D02*
X002921Y015316D01*
X002921Y015198D02*
X004817Y015198D01*
X004936Y015079D02*
X002921Y015079D01*
X002921Y014960D02*
X005054Y014960D01*
X005173Y014842D02*
X002921Y014842D01*
X002921Y014723D02*
X006029Y014723D01*
X006173Y014723D02*
X009359Y014723D01*
X009284Y014842D02*
X006362Y014842D01*
X006632Y014960D02*
X009263Y014960D01*
X009285Y015079D02*
X006767Y015079D01*
X006885Y015198D02*
X008745Y015198D01*
X008654Y015316D02*
X007004Y015316D01*
X007122Y015435D02*
X008614Y015435D01*
X008614Y015553D02*
X007241Y015553D01*
X007151Y015859D02*
X012814Y015859D01*
X013201Y015472D01*
X013414Y015259D01*
X013651Y015259D01*
X014251Y015859D01*
X019901Y015859D01*
X020288Y015472D01*
X020288Y015472D01*
X020501Y015259D01*
X020751Y015259D01*
X021351Y015859D01*
X026987Y015859D01*
X027374Y015472D01*
X027388Y015472D01*
X027601Y015259D01*
X027801Y015259D01*
X028401Y015859D01*
X034074Y015859D01*
X034074Y015837D01*
X034461Y015450D01*
X034651Y015259D01*
X034901Y015259D01*
X035501Y015859D01*
X041151Y015859D01*
X041548Y015463D01*
X041751Y015259D01*
X042001Y015259D01*
X042601Y015859D01*
X048251Y015859D01*
X048638Y015472D01*
X048851Y015259D01*
X049051Y015259D01*
X049651Y015859D01*
X055334Y015859D01*
X055721Y015472D01*
X056016Y015571D02*
X056016Y016161D01*
X057203Y016161D01*
X057601Y016559D01*
X057601Y021459D01*
X056403Y022657D01*
X056016Y022657D01*
X055464Y023209D01*
X048929Y023209D01*
X041843Y023209D01*
X034756Y023209D01*
X034756Y022657D01*
X034461Y022559D02*
X034451Y022559D01*
X034111Y022900D01*
X034111Y022909D01*
X028401Y022909D01*
X027801Y022309D01*
X027624Y022309D01*
X027374Y022559D01*
X027024Y022909D01*
X021301Y022909D01*
X020701Y022309D01*
X020537Y022309D01*
X020288Y022559D01*
X019937Y022909D01*
X014301Y022909D01*
X013701Y022309D01*
X013451Y022309D01*
X013201Y022559D01*
X012851Y022909D01*
X007101Y022909D01*
X006431Y022239D01*
X006431Y022242D01*
X006114Y022559D01*
X006410Y022657D02*
X006962Y023209D01*
X013501Y023209D01*
X013501Y022662D01*
X013496Y022657D01*
X013143Y022221D02*
X013213Y022151D01*
X013292Y022072D01*
X013395Y022029D01*
X013645Y022029D01*
X013757Y022029D01*
X013860Y022072D01*
X014417Y022629D01*
X015701Y022629D01*
X015701Y022500D01*
X015761Y022354D01*
X015873Y022243D01*
X016019Y022182D01*
X016177Y022182D01*
X016323Y022243D01*
X016434Y022354D01*
X016495Y022500D01*
X016495Y022629D01*
X018285Y022629D01*
X018263Y022577D01*
X018263Y022442D01*
X018314Y022318D01*
X018321Y022311D01*
X018321Y020058D01*
X017814Y020058D01*
X017776Y020096D02*
X017630Y020157D01*
X017472Y020157D01*
X017326Y020096D01*
X017214Y019984D01*
X017154Y019838D01*
X017154Y019680D01*
X017214Y019534D01*
X017326Y019423D01*
X017407Y019389D01*
X016258Y019389D01*
X016323Y019416D01*
X016434Y019528D01*
X016495Y019674D01*
X016495Y019832D01*
X016434Y019978D01*
X016323Y020089D01*
X016177Y020150D01*
X016019Y020150D01*
X015873Y020089D01*
X015761Y019978D01*
X015701Y019832D01*
X015701Y019674D01*
X015761Y019528D01*
X015873Y019416D01*
X015937Y019389D01*
X015232Y019389D01*
X015129Y019347D01*
X015050Y019268D01*
X015043Y019261D01*
X015034Y019261D01*
X014910Y019209D01*
X014814Y019114D01*
X014763Y018990D01*
X014763Y018856D01*
X014814Y018731D01*
X014910Y018636D01*
X015034Y018585D01*
X015168Y018585D01*
X015189Y018593D01*
X015214Y018531D01*
X015310Y018436D01*
X015434Y018385D01*
X015568Y018385D01*
X015635Y018412D01*
X015584Y018288D01*
X015584Y018130D01*
X015644Y017984D01*
X015756Y017873D01*
X015902Y017812D01*
X016060Y017812D01*
X016206Y017873D01*
X016318Y017984D01*
X016378Y018130D01*
X016378Y018288D01*
X016318Y018434D01*
X016309Y018443D01*
X018776Y018443D01*
X018783Y018436D01*
X018907Y018385D01*
X019042Y018385D01*
X019166Y018436D01*
X019261Y018531D01*
X019287Y018593D01*
X019307Y018585D01*
X019442Y018585D01*
X019566Y018636D01*
X019661Y018731D01*
X019712Y018856D01*
X019712Y018990D01*
X019661Y019114D01*
X019566Y019209D01*
X019442Y019261D01*
X019432Y019261D01*
X019425Y019268D01*
X019346Y019347D01*
X019243Y019389D01*
X017695Y019389D01*
X017776Y019423D01*
X017888Y019534D01*
X017948Y019680D01*
X017948Y019838D01*
X017888Y019984D01*
X017776Y020096D01*
X017906Y019939D02*
X018268Y019939D01*
X018263Y019927D02*
X018263Y019792D01*
X018314Y019668D01*
X018410Y019573D01*
X018534Y019521D01*
X018668Y019521D01*
X018793Y019573D01*
X018888Y019668D01*
X018939Y019792D01*
X018939Y019927D01*
X018888Y020051D01*
X018881Y020058D01*
X022928Y020058D01*
X022959Y020089D02*
X022848Y019978D01*
X022787Y019832D01*
X022787Y019674D01*
X022848Y019528D01*
X022959Y019416D01*
X023024Y019389D01*
X022332Y019389D01*
X022229Y019347D01*
X022150Y019268D01*
X022143Y019261D01*
X022134Y019261D01*
X022010Y019209D01*
X021914Y019114D01*
X021863Y018990D01*
X021863Y018856D01*
X021914Y018731D01*
X022010Y018636D01*
X022134Y018585D01*
X022268Y018585D01*
X022289Y018593D01*
X022314Y018531D01*
X022410Y018436D01*
X022534Y018385D01*
X022668Y018385D01*
X022711Y018402D01*
X022664Y018288D01*
X022664Y018130D01*
X022724Y017984D01*
X022836Y017873D01*
X022982Y017812D01*
X023140Y017812D01*
X023286Y017873D01*
X023398Y017984D01*
X023458Y018130D01*
X023458Y018288D01*
X023398Y018434D01*
X023389Y018443D01*
X025863Y018443D01*
X025869Y018436D01*
X025994Y018385D01*
X026128Y018385D01*
X026252Y018436D01*
X026348Y018531D01*
X026373Y018593D01*
X026394Y018585D01*
X026528Y018585D01*
X026652Y018636D01*
X026748Y018731D01*
X026799Y018856D01*
X026799Y018990D01*
X026748Y019114D01*
X026652Y019209D01*
X026528Y019261D01*
X026519Y019261D01*
X026512Y019268D01*
X026433Y019347D01*
X026330Y019389D01*
X024995Y019389D01*
X025076Y019423D01*
X025188Y019534D01*
X025248Y019680D01*
X025248Y019838D01*
X025188Y019984D01*
X025076Y020096D01*
X024930Y020157D01*
X024772Y020157D01*
X024626Y020096D01*
X024514Y019984D01*
X024454Y019838D01*
X024454Y019680D01*
X024514Y019534D01*
X024626Y019423D01*
X024707Y019389D01*
X023345Y019389D01*
X023409Y019416D01*
X023521Y019528D01*
X023581Y019674D01*
X023581Y019832D01*
X023521Y019978D01*
X023409Y020089D01*
X023263Y020150D01*
X023105Y020150D01*
X022959Y020089D01*
X022832Y019939D02*
X018934Y019939D01*
X018939Y019821D02*
X022787Y019821D01*
X022787Y019702D02*
X018902Y019702D01*
X018803Y019584D02*
X022824Y019584D01*
X022910Y019465D02*
X017818Y019465D01*
X017908Y019584D02*
X018399Y019584D01*
X018300Y019702D02*
X017948Y019702D01*
X017948Y019821D02*
X018263Y019821D01*
X018263Y019927D02*
X018314Y020051D01*
X018321Y020058D01*
X018321Y020176D02*
X012483Y020176D01*
X012473Y020166D02*
X012584Y020278D01*
X012645Y020424D01*
X012645Y020582D01*
X012584Y020728D01*
X012473Y020839D01*
X012409Y020866D01*
X012426Y020873D01*
X012538Y020984D01*
X012598Y021130D01*
X012598Y021288D01*
X012538Y021434D01*
X012426Y021546D01*
X012280Y021607D01*
X012122Y021607D01*
X011976Y021546D01*
X011864Y021434D01*
X011804Y021288D01*
X011804Y021130D01*
X011864Y020984D01*
X011976Y020873D01*
X012040Y020846D01*
X012023Y020839D01*
X011911Y020728D01*
X011851Y020582D01*
X011851Y020424D01*
X011911Y020278D01*
X012023Y020166D01*
X012169Y020106D01*
X012327Y020106D01*
X012473Y020166D01*
X012591Y020295D02*
X018321Y020295D01*
X018321Y020413D02*
X012641Y020413D01*
X012645Y020532D02*
X018321Y020532D01*
X018321Y020651D02*
X012616Y020651D01*
X012543Y020769D02*
X014686Y020769D01*
X014702Y020762D02*
X014860Y020762D01*
X015006Y020823D01*
X015118Y020934D01*
X015178Y021080D01*
X015178Y021238D01*
X015118Y021384D01*
X015006Y021496D01*
X014860Y021557D01*
X014702Y021557D01*
X014556Y021496D01*
X014444Y021384D01*
X014384Y021238D01*
X014384Y021080D01*
X014444Y020934D01*
X014556Y020823D01*
X014702Y020762D01*
X014876Y020769D02*
X018321Y020769D01*
X018321Y020888D02*
X015071Y020888D01*
X015147Y021006D02*
X018321Y021006D01*
X018321Y021125D02*
X015178Y021125D01*
X015176Y021243D02*
X018321Y021243D01*
X018321Y021362D02*
X015127Y021362D01*
X015022Y021480D02*
X018321Y021480D01*
X018321Y021599D02*
X012299Y021599D01*
X012104Y021599D02*
X011622Y021599D01*
X011622Y021513D02*
X011492Y021200D01*
X011253Y020961D01*
X010941Y020832D01*
X010603Y020832D01*
X010291Y020961D01*
X010051Y021200D01*
X009922Y021513D01*
X009922Y021851D01*
X010051Y022163D01*
X010291Y022402D01*
X010603Y022532D01*
X010941Y022532D01*
X011253Y022402D01*
X011492Y022163D01*
X011622Y021851D01*
X011622Y021513D01*
X011608Y021480D02*
X011910Y021480D01*
X011834Y021362D02*
X011559Y021362D01*
X011510Y021243D02*
X011804Y021243D01*
X011806Y021125D02*
X011417Y021125D01*
X011298Y021006D02*
X011855Y021006D01*
X011961Y020888D02*
X011075Y020888D01*
X010468Y020888D02*
X007981Y020888D01*
X008028Y020934D02*
X007916Y020823D01*
X007770Y020762D01*
X007612Y020762D01*
X007466Y020823D01*
X007354Y020934D01*
X007294Y021080D01*
X007294Y021238D01*
X007354Y021384D01*
X007466Y021496D01*
X007612Y021557D01*
X007770Y021557D01*
X007916Y021496D01*
X008028Y021384D01*
X008088Y021238D01*
X008088Y021080D01*
X008028Y020934D01*
X008057Y021006D02*
X010246Y021006D01*
X010127Y021125D02*
X008088Y021125D01*
X008086Y021243D02*
X010034Y021243D01*
X009985Y021362D02*
X008037Y021362D01*
X007932Y021480D02*
X009935Y021480D01*
X009922Y021599D02*
X006186Y021599D01*
X006068Y021480D02*
X007450Y021480D01*
X007345Y021362D02*
X005949Y021362D01*
X005831Y021243D02*
X007296Y021243D01*
X007294Y021125D02*
X005712Y021125D01*
X005594Y021006D02*
X007325Y021006D01*
X007401Y020888D02*
X005475Y020888D01*
X005407Y020819D02*
X005498Y020728D01*
X005558Y020582D01*
X005558Y020424D01*
X005498Y020278D01*
X005386Y020166D01*
X005240Y020106D01*
X005082Y020106D01*
X004936Y020166D01*
X004845Y020257D01*
X004631Y020043D01*
X004631Y019018D01*
X004734Y019061D01*
X004868Y019061D01*
X004889Y019052D01*
X004914Y019114D01*
X005010Y019209D01*
X005134Y019261D01*
X005268Y019261D01*
X005393Y019209D01*
X005488Y019114D01*
X005539Y018990D01*
X005539Y018856D01*
X005488Y018731D01*
X005393Y018636D01*
X005268Y018585D01*
X005134Y018585D01*
X005113Y018593D01*
X005088Y018531D01*
X004993Y018436D01*
X004868Y018385D01*
X004734Y018385D01*
X004631Y018427D01*
X004631Y017349D01*
X004718Y017385D01*
X004852Y017385D01*
X004976Y017334D01*
X005072Y017239D01*
X005123Y017114D01*
X005123Y017105D01*
X005489Y016739D01*
X011592Y016739D01*
X011592Y016849D01*
X011585Y016856D01*
X011533Y016980D01*
X011533Y017114D01*
X011585Y017239D01*
X011680Y017334D01*
X011804Y017385D01*
X011939Y017385D01*
X012063Y017334D01*
X012158Y017239D01*
X012210Y017114D01*
X012210Y016980D01*
X012158Y016856D01*
X012152Y016849D01*
X012152Y016739D01*
X018678Y016739D01*
X018678Y016849D01*
X018672Y016856D01*
X018620Y016980D01*
X018620Y017114D01*
X018672Y017239D01*
X018767Y017334D01*
X018891Y017385D01*
X019025Y017385D01*
X019150Y017334D01*
X019245Y017239D01*
X019296Y017114D01*
X019296Y016980D01*
X019245Y016856D01*
X019238Y016849D01*
X019238Y016739D01*
X025765Y016739D01*
X025765Y016849D01*
X025758Y016856D01*
X025707Y016980D01*
X025707Y017114D01*
X025758Y017239D01*
X025853Y017334D01*
X025978Y017385D01*
X026112Y017385D01*
X026236Y017334D01*
X026331Y017239D01*
X026383Y017114D01*
X026383Y016980D01*
X026331Y016856D01*
X026325Y016849D01*
X026325Y016739D01*
X032851Y016739D01*
X032851Y016849D01*
X032845Y016856D01*
X032793Y016980D01*
X032793Y017114D01*
X032845Y017239D01*
X032940Y017334D01*
X033064Y017385D01*
X033199Y017385D01*
X033323Y017334D01*
X033418Y017239D01*
X033469Y017114D01*
X033469Y016980D01*
X033418Y016856D01*
X033411Y016849D01*
X033411Y016739D01*
X039921Y016739D01*
X039921Y016881D01*
X039880Y016980D01*
X039880Y017114D01*
X039931Y017239D01*
X040026Y017334D01*
X040151Y017385D01*
X040285Y017385D01*
X040410Y017334D01*
X040505Y017239D01*
X040556Y017114D01*
X040556Y016980D01*
X040505Y016856D01*
X040481Y016832D01*
X040481Y016739D01*
X047021Y016739D01*
X047021Y016853D01*
X047018Y016856D01*
X046967Y016980D01*
X046967Y017114D01*
X047018Y017239D01*
X047113Y017334D01*
X047237Y017385D01*
X047372Y017385D01*
X047496Y017334D01*
X047591Y017239D01*
X047643Y017114D01*
X047643Y016980D01*
X047591Y016856D01*
X047581Y016846D01*
X047581Y016739D01*
X053687Y016739D01*
X054053Y017105D01*
X054053Y017114D01*
X054105Y017239D01*
X054200Y017334D01*
X054324Y017385D01*
X054459Y017385D01*
X054583Y017334D01*
X054678Y017239D01*
X054729Y017114D01*
X054729Y016980D01*
X054678Y016856D01*
X054583Y016761D01*
X054459Y016709D01*
X054449Y016709D01*
X054181Y016441D01*
X055960Y016441D01*
X057087Y016441D01*
X057321Y016675D01*
X057321Y020772D01*
X057182Y020772D01*
X057036Y020833D01*
X056924Y020944D01*
X056864Y021090D01*
X056864Y021248D01*
X056924Y021394D01*
X057036Y021506D01*
X057123Y021542D01*
X056287Y022377D01*
X056214Y022377D01*
X056208Y022371D01*
X056083Y022319D01*
X055959Y022319D01*
X055912Y022272D01*
X055788Y022221D01*
X055654Y022221D01*
X055529Y022272D01*
X055434Y022368D01*
X055383Y022492D01*
X055383Y022501D01*
X055254Y022629D01*
X051928Y022629D01*
X051928Y022500D01*
X051867Y022354D01*
X051756Y022243D01*
X051610Y022182D01*
X051452Y022182D01*
X051306Y022243D01*
X051194Y022354D01*
X051134Y022500D01*
X051134Y022629D01*
X049817Y022629D01*
X049270Y022082D01*
X049167Y022039D01*
X049055Y022039D01*
X048825Y022039D01*
X048722Y022082D01*
X048644Y022161D01*
X048644Y022161D01*
X048584Y022221D01*
X048567Y022221D01*
X048443Y022272D01*
X048348Y022368D01*
X048296Y022492D01*
X048296Y022509D01*
X048175Y022629D01*
X044841Y022629D01*
X044841Y022500D01*
X044781Y022354D01*
X044669Y022243D01*
X044523Y022182D01*
X044365Y022182D01*
X044219Y022243D01*
X044107Y022354D01*
X044047Y022500D01*
X044047Y022629D01*
X042667Y022629D01*
X042160Y022122D01*
X042057Y022079D01*
X041945Y022079D01*
X041695Y022079D01*
X041592Y022122D01*
X041514Y022201D01*
X041494Y022221D01*
X041480Y022221D01*
X041356Y022272D01*
X041261Y022368D01*
X041209Y022492D01*
X041209Y022505D01*
X041085Y022629D01*
X037755Y022629D01*
X037755Y022500D01*
X037694Y022354D01*
X037583Y022243D01*
X037437Y022182D01*
X037279Y022182D01*
X037133Y022243D01*
X037021Y022354D01*
X036960Y022500D01*
X036960Y022629D01*
X035667Y022629D01*
X035160Y022122D01*
X035057Y022079D01*
X034945Y022079D01*
X034595Y022079D01*
X034492Y022122D01*
X034414Y022201D01*
X034394Y022221D01*
X034269Y022272D01*
X034174Y022368D01*
X034123Y022492D01*
X033985Y022629D01*
X030668Y022629D01*
X030668Y022500D01*
X030608Y022354D01*
X030496Y022243D01*
X030350Y022182D01*
X030192Y022182D01*
X030046Y022243D01*
X029934Y022354D01*
X029874Y022500D01*
X029874Y022629D01*
X028517Y022629D01*
X027960Y022072D01*
X027857Y022029D01*
X027745Y022029D01*
X027568Y022029D01*
X027465Y022072D01*
X027387Y022151D01*
X027387Y022151D01*
X027316Y022221D01*
X027307Y022221D01*
X027183Y022272D01*
X027088Y022368D01*
X027036Y022492D01*
X027036Y022501D01*
X026908Y022629D01*
X023581Y022629D01*
X023581Y022500D01*
X023521Y022354D01*
X023409Y022243D01*
X023263Y022182D01*
X023105Y022182D01*
X022959Y022243D01*
X022848Y022354D01*
X022787Y022500D01*
X022787Y022629D01*
X021417Y022629D01*
X020860Y022072D01*
X020757Y022029D01*
X020645Y022029D01*
X020482Y022029D01*
X020379Y022072D01*
X020300Y022151D01*
X020230Y022221D01*
X020220Y022221D01*
X020096Y022272D01*
X020001Y022368D01*
X019950Y022492D01*
X019950Y022501D01*
X019821Y022629D01*
X018917Y022629D01*
X018939Y022577D01*
X018939Y022442D01*
X018888Y022318D01*
X018881Y022311D01*
X018881Y020058D01*
X018881Y020176D02*
X019099Y020176D01*
X019109Y020166D02*
X019255Y020106D01*
X019413Y020106D01*
X019559Y020166D01*
X019671Y020278D01*
X019731Y020424D01*
X019731Y020582D01*
X019671Y020728D01*
X019559Y020839D01*
X019502Y020863D01*
X019526Y020873D01*
X019638Y020984D01*
X019698Y021130D01*
X019698Y021288D01*
X019638Y021434D01*
X019526Y021546D01*
X019380Y021607D01*
X019222Y021607D01*
X019076Y021546D01*
X018964Y021434D01*
X018904Y021288D01*
X018904Y021130D01*
X018964Y020984D01*
X019076Y020873D01*
X019133Y020849D01*
X019109Y020839D01*
X018998Y020728D01*
X018937Y020582D01*
X018937Y020424D01*
X018998Y020278D01*
X019109Y020166D01*
X018991Y020295D02*
X018881Y020295D01*
X018881Y020413D02*
X018941Y020413D01*
X018937Y020532D02*
X018881Y020532D01*
X018881Y020651D02*
X018966Y020651D01*
X019039Y020769D02*
X018881Y020769D01*
X018881Y020888D02*
X019061Y020888D01*
X018955Y021006D02*
X018881Y021006D01*
X018881Y021125D02*
X018906Y021125D01*
X018904Y021243D02*
X018881Y021243D01*
X018881Y021362D02*
X018934Y021362D01*
X018881Y021480D02*
X019010Y021480D01*
X018881Y021599D02*
X019204Y021599D01*
X019399Y021599D02*
X024095Y021599D01*
X024095Y021513D02*
X024225Y021200D01*
X024464Y020961D01*
X024776Y020832D01*
X025114Y020832D01*
X025427Y020961D01*
X025666Y021200D01*
X025795Y021513D01*
X025795Y021851D01*
X025666Y022163D01*
X025427Y022402D01*
X025114Y022532D01*
X024776Y022532D01*
X024464Y022402D01*
X024225Y022163D01*
X024095Y021851D01*
X024095Y021513D01*
X024109Y021480D02*
X022112Y021480D01*
X022096Y021496D02*
X021950Y021557D01*
X021792Y021557D01*
X021646Y021496D01*
X021534Y021384D01*
X021474Y021238D01*
X021474Y021080D01*
X021534Y020934D01*
X021646Y020823D01*
X021792Y020762D01*
X021950Y020762D01*
X022096Y020823D01*
X022208Y020934D01*
X022268Y021080D01*
X022268Y021238D01*
X022208Y021384D01*
X022096Y021496D01*
X022217Y021362D02*
X024158Y021362D01*
X024207Y021243D02*
X022266Y021243D01*
X022268Y021125D02*
X024300Y021125D01*
X024419Y021006D02*
X022237Y021006D01*
X022161Y020888D02*
X024642Y020888D01*
X025249Y020888D02*
X026061Y020888D01*
X026076Y020873D02*
X026184Y020828D01*
X026084Y020728D01*
X026024Y020582D01*
X026024Y020424D01*
X026084Y020278D01*
X026196Y020166D01*
X026342Y020106D01*
X026500Y020106D01*
X026646Y020166D01*
X026758Y020278D01*
X026818Y020424D01*
X026818Y020582D01*
X026758Y020728D01*
X026646Y020839D01*
X026538Y020884D01*
X026638Y020984D01*
X026698Y021130D01*
X026698Y021288D01*
X026638Y021434D01*
X026526Y021546D01*
X026380Y021607D01*
X026222Y021607D01*
X026076Y021546D01*
X025964Y021434D01*
X025904Y021288D01*
X025904Y021130D01*
X025964Y020984D01*
X026076Y020873D01*
X026126Y020769D02*
X021966Y020769D01*
X021776Y020769D02*
X019630Y020769D01*
X019703Y020651D02*
X026052Y020651D01*
X026024Y020532D02*
X019731Y020532D01*
X019727Y020413D02*
X026028Y020413D01*
X026077Y020295D02*
X019678Y020295D01*
X019570Y020176D02*
X026186Y020176D01*
X026656Y020176D02*
X032213Y020176D01*
X032213Y020177D02*
X032213Y020042D01*
X032236Y019986D01*
X032126Y020096D01*
X031980Y020157D01*
X031822Y020157D01*
X031676Y020096D01*
X031564Y019984D01*
X031504Y019838D01*
X031504Y019680D01*
X031564Y019534D01*
X031676Y019423D01*
X031757Y019389D01*
X030431Y019389D01*
X030496Y019416D01*
X030608Y019528D01*
X030668Y019674D01*
X030668Y019832D01*
X030608Y019978D01*
X030496Y020089D01*
X030350Y020150D01*
X030192Y020150D01*
X030046Y020089D01*
X029934Y019978D01*
X029874Y019832D01*
X029874Y019674D01*
X029934Y019528D01*
X030046Y019416D01*
X030111Y019389D01*
X029432Y019389D01*
X029329Y019347D01*
X029250Y019268D01*
X029243Y019261D01*
X029234Y019261D01*
X029110Y019209D01*
X029014Y019114D01*
X028963Y018990D01*
X028963Y018856D01*
X029014Y018731D01*
X029110Y018636D01*
X029234Y018585D01*
X029368Y018585D01*
X029389Y018593D01*
X029414Y018531D01*
X029510Y018436D01*
X029634Y018385D01*
X029768Y018385D01*
X029799Y018397D01*
X029754Y018288D01*
X029754Y018130D01*
X029814Y017984D01*
X029926Y017873D01*
X030072Y017812D01*
X030230Y017812D01*
X030376Y017873D01*
X030488Y017984D01*
X030548Y018130D01*
X030548Y018288D01*
X030488Y018434D01*
X030479Y018443D01*
X032949Y018443D01*
X032956Y018436D01*
X033080Y018385D01*
X033215Y018385D01*
X033339Y018436D01*
X033434Y018531D01*
X033460Y018593D01*
X033480Y018585D01*
X033615Y018585D01*
X033739Y018636D01*
X033834Y018731D01*
X033886Y018856D01*
X033886Y018990D01*
X033834Y019114D01*
X033739Y019209D01*
X033615Y019261D01*
X033605Y019261D01*
X033598Y019268D01*
X033520Y019347D01*
X039902Y019347D01*
X039909Y019339D02*
X036485Y019339D01*
X036382Y019297D01*
X036343Y019258D01*
X036334Y019258D01*
X036210Y019206D01*
X036114Y019111D01*
X036063Y018987D01*
X036063Y018852D01*
X036114Y018728D01*
X036210Y018633D01*
X036334Y018581D01*
X036442Y018581D01*
X036464Y018528D01*
X036560Y018433D01*
X036684Y018381D01*
X036818Y018381D01*
X036943Y018433D01*
X036949Y018439D01*
X037125Y018439D01*
X037104Y018388D01*
X037104Y018230D01*
X037164Y018084D01*
X037276Y017973D01*
X037422Y017912D01*
X037580Y017912D01*
X037726Y017973D01*
X037838Y018084D01*
X037898Y018230D01*
X037898Y018388D01*
X037877Y018439D01*
X040039Y018439D01*
X040043Y018436D01*
X040167Y018385D01*
X040301Y018385D01*
X040426Y018436D01*
X040521Y018531D01*
X040546Y018593D01*
X040567Y018585D01*
X040701Y018585D01*
X040826Y018636D01*
X040921Y018731D01*
X040972Y018856D01*
X040972Y018990D01*
X040921Y019114D01*
X040826Y019209D01*
X040701Y019261D01*
X040692Y019261D01*
X040656Y019297D01*
X040553Y019339D01*
X040393Y019339D01*
X040488Y019434D01*
X040548Y019580D01*
X040548Y019738D01*
X040488Y019884D01*
X040376Y019996D01*
X040230Y020057D01*
X040072Y020057D01*
X039926Y019996D01*
X039814Y019884D01*
X039754Y019738D01*
X039754Y019580D01*
X039814Y019434D01*
X039909Y019339D01*
X039802Y019465D02*
X037631Y019465D01*
X037583Y019416D02*
X037694Y019528D01*
X037755Y019674D01*
X037755Y019832D01*
X037694Y019978D01*
X037583Y020089D01*
X037437Y020150D01*
X037279Y020150D01*
X037133Y020089D01*
X037021Y019978D01*
X036960Y019832D01*
X036960Y019674D01*
X037021Y019528D01*
X037133Y019416D01*
X037279Y019356D01*
X037437Y019356D01*
X037583Y019416D01*
X037717Y019584D02*
X039754Y019584D01*
X039754Y019702D02*
X037755Y019702D01*
X037755Y019821D02*
X039788Y019821D01*
X039869Y019939D02*
X037710Y019939D01*
X037614Y020058D02*
X044188Y020058D01*
X044219Y020089D02*
X044107Y019978D01*
X044047Y019832D01*
X044047Y019674D01*
X044107Y019528D01*
X044219Y019416D01*
X044284Y019389D01*
X043605Y019389D01*
X043502Y019347D01*
X043424Y019268D01*
X043416Y019261D01*
X043407Y019261D01*
X043283Y019209D01*
X043188Y019114D01*
X043136Y018990D01*
X043136Y018856D01*
X043188Y018731D01*
X043283Y018636D01*
X043407Y018585D01*
X043542Y018585D01*
X043562Y018593D01*
X043588Y018531D01*
X043683Y018436D01*
X043807Y018385D01*
X043942Y018385D01*
X043972Y018397D01*
X043927Y018288D01*
X043927Y018130D01*
X043988Y017984D01*
X044099Y017873D01*
X044245Y017812D01*
X044403Y017812D01*
X044549Y017873D01*
X044661Y017984D01*
X044721Y018130D01*
X044721Y018288D01*
X044661Y018434D01*
X044653Y018443D01*
X047123Y018443D01*
X047129Y018436D01*
X047254Y018385D01*
X047388Y018385D01*
X047512Y018436D01*
X047607Y018531D01*
X047633Y018593D01*
X047654Y018585D01*
X047788Y018585D01*
X047912Y018636D01*
X048007Y018731D01*
X048059Y018856D01*
X048059Y018990D01*
X048007Y019114D01*
X047912Y019209D01*
X047788Y019261D01*
X047779Y019261D01*
X047771Y019268D01*
X047693Y019347D01*
X047590Y019389D01*
X047243Y019389D01*
X047288Y019434D01*
X047348Y019580D01*
X047348Y019738D01*
X047288Y019884D01*
X047176Y019996D01*
X047030Y020057D01*
X046872Y020057D01*
X046726Y019996D01*
X046614Y019884D01*
X046554Y019738D01*
X046554Y019580D01*
X046614Y019434D01*
X046659Y019389D01*
X044605Y019389D01*
X044669Y019416D01*
X044781Y019528D01*
X044841Y019674D01*
X044841Y019832D01*
X044781Y019978D01*
X044669Y020089D01*
X044523Y020150D01*
X044365Y020150D01*
X044219Y020089D01*
X044092Y019939D02*
X040433Y019939D01*
X040514Y019821D02*
X044047Y019821D01*
X044047Y019702D02*
X040548Y019702D01*
X040548Y019584D02*
X044084Y019584D01*
X044170Y019465D02*
X040500Y019465D01*
X040400Y019347D02*
X043502Y019347D01*
X043328Y019228D02*
X040781Y019228D01*
X040923Y019109D02*
X043186Y019109D01*
X043137Y018991D02*
X040972Y018991D01*
X040972Y018872D02*
X043136Y018872D01*
X043178Y018754D02*
X040930Y018754D01*
X040824Y018635D02*
X043285Y018635D01*
X043602Y018517D02*
X040506Y018517D01*
X040334Y018398D02*
X043774Y018398D01*
X043927Y018280D02*
X037898Y018280D01*
X037894Y018398D02*
X040134Y018398D01*
X040231Y018719D02*
X040234Y018723D01*
X040231Y018719D02*
X036751Y018719D01*
X036643Y018398D02*
X033247Y018398D01*
X033048Y018398D02*
X030503Y018398D01*
X030548Y018280D02*
X037104Y018280D01*
X037108Y018398D02*
X036859Y018398D01*
X037133Y018161D02*
X030548Y018161D01*
X030512Y018043D02*
X037206Y018043D01*
X037394Y017924D02*
X030427Y017924D01*
X029875Y017924D02*
X023337Y017924D01*
X023422Y018043D02*
X029790Y018043D01*
X029754Y018161D02*
X023458Y018161D01*
X023458Y018280D02*
X029754Y018280D01*
X029601Y018398D02*
X026161Y018398D01*
X025961Y018398D02*
X023413Y018398D01*
X022709Y018398D02*
X022701Y018398D01*
X022664Y018280D02*
X016378Y018280D01*
X016378Y018161D02*
X022664Y018161D01*
X022700Y018043D02*
X016342Y018043D01*
X016257Y017924D02*
X022785Y017924D01*
X022501Y018398D02*
X019074Y018398D01*
X018874Y018398D02*
X016333Y018398D01*
X015629Y018398D02*
X015601Y018398D01*
X015584Y018280D02*
X009288Y018280D01*
X009288Y018288D02*
X009228Y018434D01*
X009219Y018443D01*
X011690Y018443D01*
X011696Y018436D01*
X011820Y018385D01*
X011955Y018385D01*
X012079Y018436D01*
X012174Y018531D01*
X012200Y018593D01*
X012220Y018585D01*
X012355Y018585D01*
X012479Y018636D01*
X012574Y018731D01*
X012626Y018856D01*
X012626Y018990D01*
X012574Y019114D01*
X012479Y019209D01*
X012355Y019261D01*
X012346Y019261D01*
X012338Y019268D01*
X012260Y019347D01*
X012157Y019389D01*
X010795Y019389D01*
X010876Y019423D01*
X010988Y019534D01*
X011048Y019680D01*
X011048Y019838D01*
X010988Y019984D01*
X010876Y020096D01*
X010730Y020157D01*
X010572Y020157D01*
X010426Y020096D01*
X010314Y019984D01*
X010254Y019838D01*
X010254Y019680D01*
X010314Y019534D01*
X010426Y019423D01*
X010507Y019389D01*
X009171Y019389D01*
X009236Y019416D01*
X009348Y019528D01*
X009408Y019674D01*
X009408Y019832D01*
X009348Y019978D01*
X009236Y020089D01*
X009090Y020150D01*
X008932Y020150D01*
X008786Y020089D01*
X008674Y019978D01*
X008614Y019832D01*
X008614Y019674D01*
X008674Y019528D01*
X008786Y019416D01*
X008851Y019389D01*
X008132Y019389D01*
X008029Y019347D01*
X007950Y019268D01*
X007943Y019261D01*
X007934Y019261D01*
X007810Y019209D01*
X007714Y019114D01*
X007663Y018990D01*
X007663Y018856D01*
X007714Y018731D01*
X007810Y018636D01*
X007934Y018585D01*
X008068Y018585D01*
X008089Y018593D01*
X008114Y018531D01*
X008210Y018436D01*
X008334Y018385D01*
X008468Y018385D01*
X008547Y018417D01*
X008494Y018288D01*
X008494Y018130D01*
X008554Y017984D01*
X008666Y017873D01*
X008812Y017812D01*
X008970Y017812D01*
X009116Y017873D01*
X009228Y017984D01*
X009288Y018130D01*
X009288Y018288D01*
X009243Y018398D02*
X011788Y018398D01*
X011988Y018398D02*
X015401Y018398D01*
X015229Y018517D02*
X012160Y018517D01*
X012477Y018635D02*
X014912Y018635D01*
X014805Y018754D02*
X012584Y018754D01*
X012626Y018872D02*
X014763Y018872D01*
X014763Y018991D02*
X012625Y018991D01*
X012576Y019109D02*
X014812Y019109D01*
X014954Y019228D02*
X012434Y019228D01*
X012260Y019347D02*
X015129Y019347D01*
X015288Y019109D02*
X019188Y019109D01*
X019374Y018923D01*
X019521Y019228D02*
X022054Y019228D01*
X021912Y019109D02*
X019663Y019109D01*
X019712Y018991D02*
X021863Y018991D01*
X021863Y018872D02*
X019712Y018872D01*
X019670Y018754D02*
X021905Y018754D01*
X022012Y018635D02*
X019564Y018635D01*
X019246Y018517D02*
X022329Y018517D01*
X022601Y018723D02*
X026061Y018723D01*
X026333Y018517D02*
X029429Y018517D01*
X029112Y018635D02*
X026650Y018635D01*
X026757Y018754D02*
X029005Y018754D01*
X028963Y018872D02*
X026799Y018872D01*
X026799Y018991D02*
X028963Y018991D01*
X029012Y019109D02*
X026750Y019109D01*
X026608Y019228D02*
X029154Y019228D01*
X029329Y019347D02*
X026433Y019347D01*
X026274Y019109D02*
X022388Y019109D01*
X022201Y018923D01*
X022229Y019347D02*
X019346Y019347D01*
X018974Y018723D02*
X015501Y018723D01*
X015288Y019109D02*
X015101Y018923D01*
X015824Y019465D02*
X010918Y019465D01*
X011008Y019584D02*
X015738Y019584D01*
X015701Y019702D02*
X011048Y019702D01*
X011048Y019821D02*
X015701Y019821D01*
X015745Y019939D02*
X011006Y019939D01*
X010914Y020058D02*
X015841Y020058D01*
X016354Y020058D02*
X017288Y020058D01*
X017196Y019939D02*
X016450Y019939D01*
X016495Y019821D02*
X017154Y019821D01*
X017154Y019702D02*
X016495Y019702D01*
X016457Y019584D02*
X017194Y019584D01*
X017284Y019465D02*
X016372Y019465D01*
X018601Y019859D02*
X018601Y022509D01*
X018263Y022547D02*
X016495Y022547D01*
X016465Y022429D02*
X018269Y022429D01*
X018321Y022310D02*
X016390Y022310D01*
X016199Y022192D02*
X018321Y022192D01*
X018321Y022073D02*
X013861Y022073D01*
X013979Y022192D02*
X015996Y022192D01*
X015805Y022310D02*
X014098Y022310D01*
X014216Y022429D02*
X015730Y022429D01*
X015701Y022547D02*
X014335Y022547D01*
X013501Y023209D02*
X020591Y023209D01*
X020583Y023201D01*
X020583Y022657D01*
X020259Y022192D02*
X018881Y022192D01*
X018881Y022310D02*
X020058Y022310D01*
X019976Y022429D02*
X018934Y022429D01*
X018939Y022547D02*
X019904Y022547D01*
X020979Y022192D02*
X023083Y022192D01*
X023286Y022192D02*
X024253Y022192D01*
X024187Y022073D02*
X020861Y022073D01*
X021098Y022310D02*
X022892Y022310D01*
X022817Y022429D02*
X021216Y022429D01*
X021335Y022547D02*
X022787Y022547D01*
X023477Y022310D02*
X024371Y022310D01*
X024527Y022429D02*
X023552Y022429D01*
X023581Y022547D02*
X026990Y022547D01*
X027062Y022429D02*
X025363Y022429D01*
X025519Y022310D02*
X027145Y022310D01*
X027346Y022192D02*
X025637Y022192D01*
X025703Y022073D02*
X027464Y022073D01*
X027961Y022073D02*
X030863Y022073D01*
X030863Y022042D02*
X030914Y021918D01*
X031010Y021823D01*
X031134Y021771D01*
X031268Y021771D01*
X031393Y021823D01*
X031488Y021918D01*
X031539Y022042D01*
X031539Y022177D01*
X031488Y022301D01*
X031393Y022396D01*
X031268Y022448D01*
X031134Y022448D01*
X031010Y022396D01*
X030914Y022301D01*
X030863Y022177D01*
X030863Y022042D01*
X030899Y021955D02*
X025752Y021955D01*
X025795Y021836D02*
X030996Y021836D01*
X030869Y022192D02*
X030372Y022192D01*
X030169Y022192D02*
X028079Y022192D01*
X028198Y022310D02*
X029979Y022310D01*
X029903Y022429D02*
X028316Y022429D01*
X028435Y022547D02*
X029874Y022547D01*
X030563Y022310D02*
X030924Y022310D01*
X031088Y022429D02*
X030638Y022429D01*
X030668Y022547D02*
X034067Y022547D01*
X034149Y022429D02*
X031314Y022429D01*
X031479Y022310D02*
X034232Y022310D01*
X034423Y022192D02*
X031533Y022192D01*
X031539Y022073D02*
X038361Y022073D01*
X038398Y022163D02*
X038269Y021851D01*
X038269Y021513D01*
X038398Y021200D01*
X038637Y020961D01*
X038949Y020832D01*
X039287Y020832D01*
X039600Y020961D01*
X039839Y021200D01*
X039968Y021513D01*
X039968Y021851D01*
X039839Y022163D01*
X039600Y022402D01*
X039287Y022532D01*
X038949Y022532D01*
X038637Y022402D01*
X038398Y022163D01*
X038426Y022192D02*
X037459Y022192D01*
X037256Y022192D02*
X035229Y022192D01*
X035348Y022310D02*
X037065Y022310D01*
X036990Y022429D02*
X035466Y022429D01*
X035585Y022547D02*
X036960Y022547D01*
X037650Y022310D02*
X038545Y022310D01*
X038700Y022429D02*
X037725Y022429D01*
X037755Y022547D02*
X041167Y022547D01*
X041236Y022429D02*
X039536Y022429D01*
X039692Y022310D02*
X041318Y022310D01*
X041523Y022192D02*
X039811Y022192D01*
X039876Y022073D02*
X048744Y022073D01*
X048613Y022192D02*
X044546Y022192D01*
X044343Y022192D02*
X042229Y022192D01*
X042348Y022310D02*
X044152Y022310D01*
X044077Y022429D02*
X042466Y022429D01*
X042585Y022547D02*
X044047Y022547D01*
X044737Y022310D02*
X048405Y022310D01*
X048322Y022429D02*
X044812Y022429D01*
X044841Y022547D02*
X048257Y022547D01*
X048291Y022909D02*
X048641Y022559D01*
X048881Y022319D01*
X049111Y022319D01*
X049701Y022909D01*
X055370Y022909D01*
X055721Y022559D01*
X055950Y022310D02*
X056354Y022310D01*
X056473Y022192D02*
X053984Y022192D01*
X054012Y022163D02*
X053773Y022402D01*
X053461Y022532D01*
X053123Y022532D01*
X052810Y022402D01*
X052571Y022163D01*
X052442Y021851D01*
X052442Y021513D01*
X052571Y021200D01*
X052810Y020961D01*
X053123Y020832D01*
X053461Y020832D01*
X053773Y020961D01*
X054012Y021200D01*
X054142Y021513D01*
X054142Y021851D01*
X054012Y022163D01*
X054050Y022073D02*
X056591Y022073D01*
X056710Y021955D02*
X054099Y021955D01*
X054142Y021836D02*
X056829Y021836D01*
X056947Y021717D02*
X054850Y021717D01*
X054780Y021747D02*
X054622Y021747D01*
X054476Y021686D01*
X054364Y021574D01*
X054304Y021428D01*
X054304Y021270D01*
X054364Y021124D01*
X054476Y021013D01*
X054622Y020952D01*
X054780Y020952D01*
X054926Y021013D01*
X055038Y021124D01*
X055098Y021270D01*
X055098Y021428D01*
X055038Y021574D01*
X054926Y021686D01*
X054780Y021747D01*
X054552Y021717D02*
X054142Y021717D01*
X054142Y021599D02*
X054389Y021599D01*
X054325Y021480D02*
X054128Y021480D01*
X054079Y021362D02*
X054304Y021362D01*
X054315Y021243D02*
X054030Y021243D01*
X053936Y021125D02*
X054364Y021125D01*
X054492Y021006D02*
X053818Y021006D01*
X053595Y020888D02*
X054659Y020888D01*
X054688Y020900D02*
X054542Y020839D01*
X054431Y020728D01*
X054370Y020582D01*
X054370Y020424D01*
X054431Y020278D01*
X054542Y020166D01*
X054688Y020106D01*
X054846Y020106D01*
X054992Y020166D01*
X055104Y020278D01*
X055165Y020424D01*
X055165Y020582D01*
X055104Y020728D01*
X054992Y020839D01*
X054846Y020900D01*
X054688Y020900D01*
X054876Y020888D02*
X056576Y020888D01*
X056622Y020907D02*
X056476Y020846D01*
X056364Y020734D01*
X056304Y020588D01*
X056304Y020430D01*
X056364Y020284D01*
X056476Y020173D01*
X056622Y020112D01*
X056780Y020112D01*
X056926Y020173D01*
X057038Y020284D01*
X057098Y020430D01*
X057098Y020588D01*
X057038Y020734D01*
X056926Y020846D01*
X056780Y020907D01*
X056622Y020907D01*
X056826Y020888D02*
X056981Y020888D01*
X057003Y020769D02*
X057321Y020769D01*
X057321Y020651D02*
X057073Y020651D01*
X057098Y020532D02*
X057321Y020532D01*
X057321Y020413D02*
X057091Y020413D01*
X057042Y020295D02*
X057321Y020295D01*
X057321Y020176D02*
X056930Y020176D01*
X057321Y020058D02*
X051787Y020058D01*
X051756Y020089D02*
X051610Y020150D01*
X051452Y020150D01*
X051306Y020089D01*
X051194Y019978D01*
X051134Y019832D01*
X051134Y019674D01*
X051194Y019528D01*
X051306Y019416D01*
X051370Y019389D01*
X050692Y019389D01*
X050589Y019347D01*
X050510Y019268D01*
X050503Y019261D01*
X050494Y019261D01*
X050369Y019209D01*
X050274Y019114D01*
X050223Y018990D01*
X050223Y018856D01*
X050274Y018731D01*
X050369Y018636D01*
X050494Y018585D01*
X050628Y018585D01*
X050649Y018593D01*
X050674Y018531D01*
X050769Y018436D01*
X050894Y018385D01*
X051028Y018385D01*
X051059Y018397D01*
X051014Y018288D01*
X051014Y018130D01*
X051074Y017984D01*
X051186Y017873D01*
X051332Y017812D01*
X051490Y017812D01*
X051636Y017873D01*
X051748Y017984D01*
X051808Y018130D01*
X051808Y018288D01*
X051748Y018434D01*
X051739Y018443D01*
X054209Y018443D01*
X054216Y018436D01*
X054340Y018385D01*
X054475Y018385D01*
X054599Y018436D01*
X054694Y018531D01*
X054720Y018593D01*
X054740Y018585D01*
X054875Y018585D01*
X054999Y018636D01*
X055094Y018731D01*
X055145Y018856D01*
X055145Y018990D01*
X055094Y019114D01*
X054999Y019209D01*
X054875Y019261D01*
X054865Y019261D01*
X054858Y019268D01*
X054779Y019347D01*
X054676Y019389D01*
X054440Y019389D01*
X054498Y019530D01*
X054498Y019688D01*
X054438Y019834D01*
X054326Y019946D01*
X054180Y020007D01*
X054022Y020007D01*
X053876Y019946D01*
X053764Y019834D01*
X053704Y019688D01*
X053704Y019530D01*
X053762Y019389D01*
X051691Y019389D01*
X051756Y019416D01*
X051867Y019528D01*
X051928Y019674D01*
X051928Y019832D01*
X051867Y019978D01*
X051756Y020089D01*
X051883Y019939D02*
X053869Y019939D01*
X053759Y019821D02*
X051928Y019821D01*
X051928Y019702D02*
X053710Y019702D01*
X053704Y019584D02*
X051891Y019584D01*
X051805Y019465D02*
X053731Y019465D01*
X054471Y019465D02*
X057321Y019465D01*
X057321Y019347D02*
X054780Y019347D01*
X054954Y019228D02*
X057321Y019228D01*
X057321Y019109D02*
X055096Y019109D01*
X055145Y018991D02*
X057321Y018991D01*
X057321Y018872D02*
X055145Y018872D01*
X055103Y018754D02*
X057321Y018754D01*
X057321Y018635D02*
X054997Y018635D01*
X054679Y018517D02*
X057321Y018517D01*
X057321Y018398D02*
X054507Y018398D01*
X054307Y018398D02*
X051763Y018398D01*
X051808Y018280D02*
X057321Y018280D01*
X057321Y018161D02*
X051808Y018161D01*
X051772Y018043D02*
X057321Y018043D01*
X057321Y017924D02*
X051687Y017924D01*
X051135Y017924D02*
X044601Y017924D01*
X044685Y018043D02*
X051050Y018043D01*
X051014Y018161D02*
X044721Y018161D01*
X044721Y018280D02*
X051014Y018280D01*
X050861Y018398D02*
X047421Y018398D01*
X047221Y018398D02*
X044676Y018398D01*
X043927Y018161D02*
X037869Y018161D01*
X037796Y018043D02*
X043964Y018043D01*
X044048Y017924D02*
X037608Y017924D01*
X036476Y018517D02*
X033420Y018517D01*
X033737Y018635D02*
X036207Y018635D01*
X036104Y018754D02*
X033844Y018754D01*
X033886Y018872D02*
X036063Y018872D01*
X036065Y018991D02*
X033885Y018991D01*
X033836Y019109D02*
X036114Y019109D01*
X036263Y019228D02*
X033694Y019228D01*
X033520Y019347D02*
X033417Y019389D01*
X032045Y019389D01*
X032126Y019423D01*
X032238Y019534D01*
X032298Y019680D01*
X032298Y019838D01*
X032266Y019917D01*
X032360Y019823D01*
X032484Y019771D01*
X032618Y019771D01*
X032743Y019823D01*
X032838Y019918D01*
X032889Y020042D01*
X032889Y020177D01*
X032838Y020301D01*
X032743Y020396D01*
X032618Y020448D01*
X032484Y020448D01*
X032360Y020396D01*
X032264Y020301D01*
X032213Y020177D01*
X032213Y020058D02*
X032164Y020058D01*
X032262Y020295D02*
X026765Y020295D01*
X026814Y020413D02*
X032402Y020413D01*
X032701Y020413D02*
X033115Y020413D01*
X033110Y020424D02*
X033171Y020278D01*
X033283Y020166D01*
X033429Y020106D01*
X033587Y020106D01*
X033733Y020166D01*
X033844Y020278D01*
X033905Y020424D01*
X033905Y020582D01*
X033844Y020728D01*
X033733Y020839D01*
X033634Y020880D01*
X033738Y020984D01*
X033798Y021130D01*
X033798Y021288D01*
X033738Y021434D01*
X033626Y021546D01*
X033480Y021607D01*
X033322Y021607D01*
X033176Y021546D01*
X033064Y021434D01*
X033004Y021288D01*
X033004Y021130D01*
X033064Y020984D01*
X033176Y020873D01*
X033275Y020832D01*
X033171Y020728D01*
X033110Y020582D01*
X033110Y020424D01*
X033110Y020532D02*
X026818Y020532D01*
X026790Y020651D02*
X033139Y020651D01*
X033212Y020769D02*
X029046Y020769D01*
X029030Y020762D02*
X029176Y020823D01*
X029288Y020934D01*
X029348Y021080D01*
X029348Y021238D01*
X029288Y021384D01*
X029176Y021496D01*
X029030Y021557D01*
X028872Y021557D01*
X028726Y021496D01*
X028614Y021384D01*
X028554Y021238D01*
X028554Y021080D01*
X028614Y020934D01*
X028726Y020823D01*
X028872Y020762D01*
X029030Y020762D01*
X028856Y020769D02*
X026716Y020769D01*
X026541Y020888D02*
X028661Y020888D01*
X028585Y021006D02*
X026647Y021006D01*
X026696Y021125D02*
X028554Y021125D01*
X028556Y021243D02*
X026698Y021243D01*
X026668Y021362D02*
X028605Y021362D01*
X028710Y021480D02*
X026592Y021480D01*
X026399Y021599D02*
X033304Y021599D01*
X033499Y021599D02*
X038269Y021599D01*
X038269Y021717D02*
X025795Y021717D01*
X025795Y021599D02*
X026204Y021599D01*
X026010Y021480D02*
X025782Y021480D01*
X025733Y021362D02*
X025934Y021362D01*
X025904Y021243D02*
X025683Y021243D01*
X025590Y021125D02*
X025906Y021125D01*
X025955Y021006D02*
X025471Y021006D01*
X024095Y021717D02*
X018881Y021717D01*
X018881Y021836D02*
X024095Y021836D01*
X024138Y021955D02*
X018881Y021955D01*
X018881Y022073D02*
X020378Y022073D01*
X019592Y021480D02*
X021630Y021480D01*
X021525Y021362D02*
X019668Y021362D01*
X019698Y021243D02*
X021476Y021243D01*
X021474Y021125D02*
X019696Y021125D01*
X019647Y021006D02*
X021505Y021006D01*
X021581Y020888D02*
X019541Y020888D01*
X018321Y021717D02*
X011622Y021717D01*
X011622Y021836D02*
X018321Y021836D01*
X018321Y021955D02*
X011579Y021955D01*
X011530Y022073D02*
X013291Y022073D01*
X013173Y022192D02*
X011464Y022192D01*
X011346Y022310D02*
X012972Y022310D01*
X013010Y022272D02*
X013134Y022221D01*
X013143Y022221D01*
X013010Y022272D02*
X012914Y022368D01*
X012863Y022492D01*
X012863Y022501D01*
X012735Y022629D01*
X009408Y022629D01*
X009408Y022500D01*
X009348Y022354D01*
X009236Y022243D01*
X009090Y022182D01*
X008932Y022182D01*
X008786Y022243D01*
X008674Y022354D01*
X008614Y022500D01*
X008614Y022629D01*
X007217Y022629D01*
X006668Y022081D01*
X006590Y022002D01*
X005407Y020819D01*
X005456Y020769D02*
X007596Y020769D01*
X007786Y020769D02*
X011952Y020769D01*
X011879Y020651D02*
X005530Y020651D01*
X005558Y020532D02*
X011851Y020532D01*
X011855Y020413D02*
X005554Y020413D01*
X005505Y020295D02*
X011904Y020295D01*
X012012Y020176D02*
X005396Y020176D01*
X004926Y020176D02*
X004764Y020176D01*
X004645Y020058D02*
X008754Y020058D01*
X008658Y019939D02*
X004631Y019939D01*
X004631Y019821D02*
X008614Y019821D01*
X008614Y019702D02*
X004631Y019702D01*
X004631Y019584D02*
X008651Y019584D01*
X008737Y019465D02*
X004631Y019465D01*
X004631Y019347D02*
X008029Y019347D01*
X007950Y019268D02*
X007950Y019268D01*
X007854Y019228D02*
X005348Y019228D01*
X005490Y019109D02*
X007712Y019109D01*
X007663Y018991D02*
X005539Y018991D01*
X005539Y018872D02*
X007663Y018872D01*
X007705Y018754D02*
X005497Y018754D01*
X005390Y018635D02*
X007812Y018635D01*
X008129Y018517D02*
X005073Y018517D01*
X004901Y018398D02*
X008301Y018398D01*
X008501Y018398D02*
X008539Y018398D01*
X008494Y018280D02*
X004631Y018280D01*
X004631Y018398D02*
X004701Y018398D01*
X004631Y018161D02*
X008494Y018161D01*
X008530Y018043D02*
X004631Y018043D01*
X004631Y017924D02*
X008615Y017924D01*
X009167Y017924D02*
X015705Y017924D01*
X015620Y018043D02*
X009252Y018043D01*
X009288Y018161D02*
X015584Y018161D01*
X018620Y017094D02*
X012210Y017094D01*
X012208Y016976D02*
X018622Y016976D01*
X018671Y016857D02*
X012159Y016857D01*
X011872Y017047D02*
X011872Y016460D01*
X011871Y016459D01*
X005373Y016459D01*
X004785Y017047D01*
X005082Y017213D02*
X011574Y017213D01*
X011533Y017094D02*
X005134Y017094D01*
X005252Y016976D02*
X011535Y016976D01*
X011584Y016857D02*
X005371Y016857D01*
X004351Y016409D02*
X004351Y020159D01*
X006431Y022239D01*
X006661Y022073D02*
X010014Y022073D01*
X009965Y021955D02*
X006542Y021955D01*
X006424Y021836D02*
X009922Y021836D01*
X009922Y021717D02*
X006305Y021717D01*
X006779Y022192D02*
X008910Y022192D01*
X009113Y022192D02*
X010080Y022192D01*
X010198Y022310D02*
X009303Y022310D01*
X009379Y022429D02*
X010354Y022429D01*
X011190Y022429D02*
X012889Y022429D01*
X012817Y022547D02*
X009408Y022547D01*
X008719Y022310D02*
X006898Y022310D01*
X007016Y022429D02*
X008644Y022429D01*
X008614Y022547D02*
X007135Y022547D01*
X006410Y022657D02*
X006208Y022859D01*
X006001Y022859D01*
X004451Y021309D01*
X004451Y020659D01*
X004101Y020309D01*
X004101Y016309D01*
X005351Y015059D01*
X006101Y015059D01*
X006377Y015209D02*
X006501Y015209D01*
X007151Y015859D01*
X006998Y016159D02*
X006410Y015571D01*
X006114Y015472D02*
X005288Y015472D01*
X004351Y016409D01*
X004979Y017331D02*
X011678Y017331D01*
X012066Y017331D02*
X018764Y017331D01*
X018661Y017213D02*
X012169Y017213D01*
X011871Y016459D02*
X018961Y016459D01*
X018958Y016462D01*
X018958Y017047D01*
X019256Y017213D02*
X025747Y017213D01*
X025707Y017094D02*
X019296Y017094D01*
X019294Y016976D02*
X025708Y016976D01*
X025758Y016857D02*
X019245Y016857D01*
X018961Y016459D02*
X026061Y016459D01*
X026045Y016476D01*
X026045Y017047D01*
X026342Y017213D02*
X032834Y017213D01*
X032793Y017094D02*
X026383Y017094D01*
X026381Y016976D02*
X032795Y016976D01*
X032844Y016857D02*
X026332Y016857D01*
X026061Y016459D02*
X033141Y016459D01*
X040201Y016459D01*
X040201Y017030D01*
X040218Y017047D01*
X039921Y017213D02*
X033429Y017213D01*
X033469Y017094D02*
X039880Y017094D01*
X039882Y016976D02*
X033468Y016976D01*
X033419Y016857D02*
X039921Y016857D01*
X040201Y016459D02*
X047301Y016459D01*
X047301Y017044D01*
X047305Y017047D01*
X047602Y017213D02*
X054094Y017213D01*
X054042Y017094D02*
X047643Y017094D01*
X047641Y016976D02*
X053924Y016976D01*
X053805Y016857D02*
X047592Y016857D01*
X047301Y016459D02*
X053803Y016459D01*
X054391Y017047D01*
X054530Y016739D02*
X057321Y016739D01*
X057321Y016857D02*
X054678Y016857D01*
X054728Y016976D02*
X057321Y016976D01*
X057321Y017094D02*
X054729Y017094D01*
X054689Y017213D02*
X057321Y017213D01*
X057321Y017331D02*
X054585Y017331D01*
X054197Y017331D02*
X047499Y017331D01*
X047111Y017331D02*
X040412Y017331D01*
X040515Y017213D02*
X047007Y017213D01*
X046967Y017094D02*
X040556Y017094D01*
X040554Y016976D02*
X046968Y016976D01*
X047017Y016857D02*
X040505Y016857D01*
X040024Y017331D02*
X033325Y017331D01*
X033131Y017047D02*
X033131Y016469D01*
X033141Y016459D01*
X034756Y016161D02*
X027853Y016161D01*
X027851Y016159D01*
X027671Y016159D01*
X027670Y016158D01*
X027670Y015571D01*
X027671Y016159D02*
X020581Y016159D01*
X020583Y016158D01*
X020583Y015571D01*
X020581Y016159D02*
X013501Y016159D01*
X006998Y016159D01*
X006114Y015472D02*
X006377Y015209D01*
X004588Y014284D02*
X004476Y014396D01*
X004330Y014457D01*
X004172Y014457D01*
X004026Y014396D01*
X003914Y014284D01*
X003854Y014138D01*
X003854Y013980D01*
X003914Y013834D01*
X004026Y013723D01*
X004172Y013662D01*
X004330Y013662D01*
X004476Y013723D01*
X004588Y013834D01*
X004648Y013980D01*
X004648Y014138D01*
X004588Y014284D01*
X004602Y014249D02*
X035679Y014249D01*
X035654Y014188D02*
X035714Y014334D01*
X035826Y014446D01*
X035972Y014507D01*
X036130Y014507D01*
X036276Y014446D01*
X036388Y014334D01*
X036448Y014188D01*
X036448Y014030D01*
X036388Y013884D01*
X036276Y013773D01*
X036130Y013712D01*
X035972Y013712D01*
X035826Y013773D01*
X035714Y013884D01*
X035654Y014030D01*
X035654Y014188D01*
X035654Y014131D02*
X021308Y014131D01*
X021293Y014146D02*
X021168Y014198D01*
X021034Y014198D01*
X020910Y014146D01*
X020851Y014088D01*
X020793Y014146D01*
X020668Y014198D01*
X020534Y014198D01*
X020410Y014146D01*
X020351Y014088D01*
X020293Y014146D01*
X020168Y014198D01*
X020034Y014198D01*
X019910Y014146D01*
X019814Y014051D01*
X019763Y013927D01*
X019763Y013792D01*
X019814Y013668D01*
X019910Y013573D01*
X020034Y013521D01*
X020168Y013521D01*
X020293Y013573D01*
X020351Y013631D01*
X020410Y013573D01*
X020534Y013521D01*
X020668Y013521D01*
X020793Y013573D01*
X020851Y013631D01*
X020910Y013573D01*
X021034Y013521D01*
X021168Y013521D01*
X021293Y013573D01*
X021388Y013668D01*
X021439Y013792D01*
X021439Y013927D01*
X021388Y014051D01*
X021293Y014146D01*
X021404Y014012D02*
X035661Y014012D01*
X035711Y013894D02*
X021439Y013894D01*
X021432Y013775D02*
X035824Y013775D01*
X036278Y013775D02*
X045474Y013775D01*
X045476Y013773D02*
X045622Y013712D01*
X045780Y013712D01*
X045926Y013773D01*
X046038Y013884D01*
X046098Y014030D01*
X046098Y014188D01*
X046038Y014334D01*
X045926Y014446D01*
X045780Y014507D01*
X045622Y014507D01*
X045476Y014446D01*
X045364Y014334D01*
X045304Y014188D01*
X045304Y014030D01*
X045364Y013884D01*
X045476Y013773D01*
X045361Y013894D02*
X036392Y013894D01*
X036441Y014012D02*
X045311Y014012D01*
X045304Y014131D02*
X036448Y014131D01*
X036423Y014249D02*
X045329Y014249D01*
X045398Y014368D02*
X036354Y014368D01*
X036179Y014486D02*
X045573Y014486D01*
X045829Y014486D02*
X059568Y014486D01*
X059568Y014368D02*
X046004Y014368D01*
X046073Y014249D02*
X059568Y014249D01*
X059568Y014131D02*
X046098Y014131D01*
X046091Y014012D02*
X059568Y014012D01*
X059568Y013894D02*
X046042Y013894D01*
X045928Y013775D02*
X059568Y013775D01*
X059568Y013656D02*
X021376Y013656D01*
X021208Y013538D02*
X059568Y013538D01*
X059568Y013419D02*
X013865Y013419D01*
X013984Y013301D02*
X059568Y013301D01*
X059568Y013182D02*
X042350Y013182D01*
X042351Y013182D02*
X042147Y013266D01*
X041926Y013266D01*
X041722Y013182D01*
X041566Y013026D01*
X041482Y012822D01*
X041482Y012601D01*
X041566Y012398D01*
X041722Y012242D01*
X041926Y012157D01*
X042147Y012157D01*
X042351Y012242D01*
X042507Y012398D01*
X042591Y012601D01*
X042591Y012822D01*
X042507Y013026D01*
X042351Y013182D01*
X042469Y013064D02*
X059568Y013064D01*
X059568Y012945D02*
X044353Y012945D01*
X044350Y012947D02*
X044192Y012947D01*
X044046Y012886D01*
X043934Y012774D01*
X043874Y012628D01*
X043874Y012470D01*
X043934Y012324D01*
X044046Y012213D01*
X044192Y012152D01*
X044350Y012152D01*
X044496Y012213D01*
X044608Y012324D01*
X044668Y012470D01*
X044668Y012628D01*
X044608Y012774D01*
X044496Y012886D01*
X044350Y012947D01*
X044189Y012945D02*
X042540Y012945D01*
X042589Y012827D02*
X043987Y012827D01*
X043907Y012708D02*
X042591Y012708D01*
X042586Y012590D02*
X043874Y012590D01*
X043874Y012471D02*
X042537Y012471D01*
X042462Y012353D02*
X043923Y012353D01*
X044025Y012234D02*
X043418Y012234D01*
X043406Y012246D02*
X043260Y012307D01*
X043102Y012307D01*
X042956Y012246D01*
X042844Y012134D01*
X042784Y011988D01*
X042784Y011830D01*
X042844Y011684D01*
X042956Y011573D01*
X043102Y011512D01*
X043260Y011512D01*
X043406Y011573D01*
X043518Y011684D01*
X043578Y011830D01*
X043578Y011988D01*
X043518Y012134D01*
X043406Y012246D01*
X043526Y012115D02*
X045017Y012115D01*
X045024Y012134D02*
X044964Y011988D01*
X044964Y011830D01*
X045024Y011684D01*
X045136Y011573D01*
X045282Y011512D01*
X045440Y011512D01*
X045586Y011573D01*
X045698Y011684D01*
X045758Y011830D01*
X045758Y011988D01*
X045698Y012134D01*
X045586Y012246D01*
X045440Y012307D01*
X045282Y012307D01*
X045136Y012246D01*
X045024Y012134D01*
X045124Y012234D02*
X044517Y012234D01*
X044619Y012353D02*
X059568Y012353D01*
X059568Y012471D02*
X044668Y012471D01*
X044668Y012590D02*
X059568Y012590D01*
X059568Y012708D02*
X044635Y012708D01*
X044555Y012827D02*
X059568Y012827D01*
X059568Y012234D02*
X045598Y012234D01*
X045706Y012115D02*
X059568Y012115D01*
X059568Y011997D02*
X045755Y011997D01*
X045758Y011878D02*
X059568Y011878D01*
X059568Y011760D02*
X045729Y011760D01*
X045655Y011641D02*
X059568Y011641D01*
X059568Y011523D02*
X045465Y011523D01*
X045257Y011523D02*
X044569Y011523D01*
X044608Y011484D02*
X044496Y011596D01*
X044350Y011657D01*
X044192Y011657D01*
X044046Y011596D01*
X043934Y011484D01*
X043874Y011338D01*
X043874Y011180D01*
X043934Y011034D01*
X044046Y010923D01*
X044192Y010862D01*
X044350Y010862D01*
X044496Y010923D01*
X044608Y011034D01*
X044668Y011180D01*
X044668Y011338D01*
X044608Y011484D01*
X044641Y011404D02*
X059568Y011404D01*
X059568Y011286D02*
X044668Y011286D01*
X044663Y011167D02*
X059568Y011167D01*
X059568Y011049D02*
X044614Y011049D01*
X044503Y010930D02*
X059568Y010930D01*
X059568Y010811D02*
X036081Y010811D01*
X036081Y010693D02*
X059568Y010693D01*
X059568Y010574D02*
X036081Y010574D01*
X036081Y010456D02*
X059568Y010456D01*
X059568Y010337D02*
X036081Y010337D01*
X036081Y010219D02*
X059568Y010219D01*
X059568Y010100D02*
X036081Y010100D01*
X036081Y009982D02*
X059568Y009982D01*
X059568Y009863D02*
X036081Y009863D01*
X036081Y009745D02*
X059568Y009745D01*
X059568Y009626D02*
X036081Y009626D01*
X036081Y009507D02*
X059568Y009507D01*
X059568Y009389D02*
X036081Y009389D01*
X036081Y009270D02*
X044365Y009270D01*
X044370Y009273D02*
X044288Y009231D01*
X044212Y009176D01*
X044146Y009111D01*
X044092Y009035D01*
X044049Y008952D01*
X044021Y008864D01*
X044008Y008785D01*
X044537Y008785D01*
X044537Y008665D01*
X044008Y008665D01*
X044021Y008587D01*
X044049Y008498D01*
X044092Y008415D01*
X044146Y008340D01*
X044212Y008274D01*
X044288Y008219D01*
X044370Y008177D01*
X044459Y008148D01*
X044538Y008136D01*
X044538Y008665D01*
X044657Y008665D01*
X044657Y008136D01*
X044736Y008148D01*
X044825Y008177D01*
X044908Y008219D01*
X044983Y008274D01*
X045049Y008340D01*
X045103Y008415D01*
X045146Y008498D01*
X045174Y008587D01*
X045187Y008665D01*
X044658Y008665D01*
X044658Y008785D01*
X045187Y008785D01*
X045174Y008864D01*
X045146Y008952D01*
X045103Y009035D01*
X045049Y009111D01*
X044983Y009176D01*
X044908Y009231D01*
X044825Y009273D01*
X044736Y009302D01*
X044657Y009314D01*
X044657Y008785D01*
X044538Y008785D01*
X044538Y009314D01*
X044459Y009302D01*
X044370Y009273D01*
X044538Y009270D02*
X044657Y009270D01*
X044657Y009152D02*
X044538Y009152D01*
X044538Y009033D02*
X044657Y009033D01*
X044657Y008915D02*
X044538Y008915D01*
X044538Y008796D02*
X044657Y008796D01*
X044658Y008678D02*
X046191Y008678D01*
X046191Y008665D02*
X045662Y008665D01*
X045674Y008587D01*
X045703Y008498D01*
X045745Y008415D01*
X045800Y008340D01*
X045866Y008274D01*
X045941Y008219D01*
X046024Y008177D01*
X046113Y008148D01*
X046191Y008136D01*
X046191Y008665D01*
X046311Y008665D01*
X046311Y008136D01*
X046390Y008148D01*
X046478Y008177D01*
X046561Y008219D01*
X046636Y008274D01*
X046702Y008340D01*
X046757Y008415D01*
X046799Y008498D01*
X046828Y008587D01*
X046840Y008665D01*
X046311Y008665D01*
X046311Y008785D01*
X046840Y008785D01*
X046828Y008864D01*
X046799Y008952D01*
X046757Y009035D01*
X046702Y009111D01*
X046636Y009176D01*
X046561Y009231D01*
X046478Y009273D01*
X046390Y009302D01*
X046311Y009314D01*
X046311Y008785D01*
X046191Y008785D01*
X046191Y008665D01*
X046191Y008559D02*
X046311Y008559D01*
X046311Y008441D02*
X046191Y008441D01*
X046191Y008322D02*
X046311Y008322D01*
X046311Y008204D02*
X046191Y008204D01*
X045972Y008204D02*
X044877Y008204D01*
X045031Y008322D02*
X045818Y008322D01*
X045732Y008441D02*
X045116Y008441D01*
X045165Y008559D02*
X045683Y008559D01*
X045662Y008785D02*
X046191Y008785D01*
X046191Y009314D01*
X046113Y009302D01*
X046024Y009273D01*
X045941Y009231D01*
X045866Y009176D01*
X045800Y009111D01*
X045745Y009035D01*
X045703Y008952D01*
X045674Y008864D01*
X045662Y008785D01*
X045664Y008796D02*
X045185Y008796D01*
X045158Y008915D02*
X045691Y008915D01*
X045744Y009033D02*
X045104Y009033D01*
X045007Y009152D02*
X045841Y009152D01*
X046018Y009270D02*
X044830Y009270D01*
X044188Y009152D02*
X036081Y009152D01*
X036081Y009033D02*
X044091Y009033D01*
X044037Y008915D02*
X036081Y008915D01*
X036081Y008796D02*
X044010Y008796D01*
X044030Y008559D02*
X036081Y008559D01*
X036081Y008441D02*
X044079Y008441D01*
X044164Y008322D02*
X036081Y008322D01*
X036081Y008204D02*
X044319Y008204D01*
X044538Y008204D02*
X044657Y008204D01*
X044657Y008322D02*
X044538Y008322D01*
X044538Y008441D02*
X044657Y008441D01*
X044657Y008559D02*
X044538Y008559D01*
X044537Y008678D02*
X036081Y008678D01*
X035481Y008678D02*
X023769Y008678D01*
X023757Y008648D02*
X023841Y008851D01*
X023841Y009072D01*
X023757Y009276D01*
X023601Y009432D01*
X023397Y009516D01*
X023176Y009516D01*
X022972Y009432D01*
X022816Y009276D01*
X022732Y009072D01*
X022732Y008851D01*
X022816Y008648D01*
X022972Y008492D01*
X023176Y008407D01*
X023397Y008407D01*
X023601Y008492D01*
X023757Y008648D01*
X023668Y008559D02*
X035481Y008559D01*
X035481Y008441D02*
X023478Y008441D01*
X023095Y008441D02*
X014801Y008441D01*
X014801Y008559D02*
X022905Y008559D01*
X022804Y008678D02*
X014801Y008678D01*
X014801Y008796D02*
X022755Y008796D01*
X022732Y008915D02*
X014801Y008915D01*
X014801Y009033D02*
X022732Y009033D01*
X022765Y009152D02*
X014801Y009152D01*
X014801Y009270D02*
X022814Y009270D01*
X022929Y009389D02*
X014801Y009389D01*
X014801Y009507D02*
X023155Y009507D01*
X023176Y009657D02*
X023397Y009657D01*
X023601Y009742D01*
X023757Y009898D01*
X023841Y010101D01*
X023841Y010322D01*
X023757Y010526D01*
X023601Y010682D01*
X023397Y010766D01*
X023176Y010766D01*
X022972Y010682D01*
X022816Y010526D01*
X022732Y010322D01*
X022732Y010101D01*
X022816Y009898D01*
X022972Y009742D01*
X023176Y009657D01*
X022969Y009745D02*
X014801Y009745D01*
X014801Y009863D02*
X022851Y009863D01*
X022781Y009982D02*
X014801Y009982D01*
X014801Y010100D02*
X022732Y010100D01*
X022732Y010219D02*
X014801Y010219D01*
X014801Y010337D02*
X022738Y010337D01*
X022787Y010456D02*
X014801Y010456D01*
X014801Y010574D02*
X022865Y010574D01*
X022999Y010693D02*
X014801Y010693D01*
X014801Y010811D02*
X035481Y010811D01*
X035481Y010693D02*
X023574Y010693D01*
X023708Y010574D02*
X035481Y010574D01*
X035481Y010456D02*
X023786Y010456D01*
X023835Y010337D02*
X035481Y010337D01*
X035481Y010219D02*
X023841Y010219D01*
X023841Y010100D02*
X035481Y010100D01*
X035481Y009982D02*
X023791Y009982D01*
X023722Y009863D02*
X035481Y009863D01*
X035481Y009745D02*
X023604Y009745D01*
X023418Y009507D02*
X035481Y009507D01*
X035481Y009389D02*
X023644Y009389D01*
X023759Y009270D02*
X035481Y009270D01*
X035481Y009152D02*
X023808Y009152D01*
X023841Y009033D02*
X035481Y009033D01*
X035481Y008915D02*
X023841Y008915D01*
X023818Y008796D02*
X035481Y008796D01*
X035481Y008322D02*
X021969Y008322D01*
X021944Y008348D02*
X021882Y008389D01*
X021813Y008417D01*
X021740Y008432D01*
X021723Y008432D01*
X021723Y008075D01*
X021683Y008075D01*
X021683Y008432D01*
X021666Y008432D01*
X021593Y008417D01*
X021524Y008389D01*
X021462Y008348D01*
X021410Y008295D01*
X021369Y008233D01*
X021340Y008164D01*
X021326Y008091D01*
X021326Y008074D01*
X021683Y008074D01*
X021683Y008034D01*
X021723Y008034D01*
X021723Y007677D01*
X021740Y007677D01*
X021813Y007691D01*
X021882Y007720D01*
X021944Y007761D01*
X021996Y007814D01*
X022038Y007876D01*
X022066Y007944D01*
X022081Y008017D01*
X022081Y008034D01*
X021723Y008034D01*
X021723Y008074D01*
X022081Y008074D01*
X022081Y008091D01*
X022066Y008164D01*
X022038Y008233D01*
X021996Y008295D01*
X021944Y008348D01*
X022050Y008204D02*
X035481Y008204D01*
X035481Y008085D02*
X022081Y008085D01*
X022070Y007966D02*
X035481Y007966D01*
X035481Y007848D02*
X022019Y007848D01*
X021896Y007729D02*
X035481Y007729D01*
X035481Y007611D02*
X014781Y007611D01*
X014788Y007618D02*
X014839Y007742D01*
X014839Y007877D01*
X014801Y007969D01*
X014801Y012300D01*
X014801Y012419D01*
X014755Y012529D01*
X013321Y013964D01*
X013211Y014009D01*
X013091Y014009D01*
X011460Y014009D01*
X011368Y014048D01*
X011234Y014048D01*
X011110Y013996D01*
X011014Y013901D01*
X010963Y013777D01*
X010963Y013642D01*
X011014Y013518D01*
X011110Y013423D01*
X011234Y013371D01*
X011368Y013371D01*
X011460Y013409D01*
X013027Y013409D01*
X014201Y012235D01*
X014201Y007969D01*
X014163Y007877D01*
X014163Y007742D01*
X014214Y007618D01*
X014273Y007559D01*
X014214Y007501D01*
X014163Y007377D01*
X014163Y007242D01*
X014214Y007118D01*
X014273Y007059D01*
X014214Y007001D01*
X014163Y006877D01*
X014163Y006742D01*
X014214Y006618D01*
X014273Y006559D01*
X014214Y006501D01*
X014163Y006377D01*
X014163Y006242D01*
X014214Y006118D01*
X014273Y006059D01*
X014214Y006001D01*
X014163Y005877D01*
X014163Y005742D01*
X014214Y005618D01*
X014310Y005523D01*
X014434Y005471D01*
X014568Y005471D01*
X014693Y005523D01*
X014788Y005618D01*
X014839Y005742D01*
X014839Y005877D01*
X014788Y006001D01*
X014729Y006059D01*
X014788Y006118D01*
X014839Y006242D01*
X014839Y006377D01*
X014788Y006501D01*
X014729Y006559D01*
X014788Y006618D01*
X014839Y006742D01*
X014839Y006877D01*
X014788Y007001D01*
X014729Y007059D01*
X014788Y007118D01*
X014839Y007242D01*
X014839Y007377D01*
X014788Y007501D01*
X014729Y007559D01*
X014788Y007618D01*
X014834Y007729D02*
X021510Y007729D01*
X021524Y007720D02*
X021593Y007691D01*
X021666Y007677D01*
X021683Y007677D01*
X021683Y008034D01*
X021326Y008034D01*
X021326Y008017D01*
X021340Y007944D01*
X021369Y007876D01*
X021410Y007814D01*
X021462Y007761D01*
X021524Y007720D01*
X021683Y007729D02*
X021723Y007729D01*
X021723Y007848D02*
X021683Y007848D01*
X021683Y007966D02*
X021723Y007966D01*
X021723Y008085D02*
X021683Y008085D01*
X021683Y008204D02*
X021723Y008204D01*
X021723Y008322D02*
X021683Y008322D01*
X021437Y008322D02*
X014801Y008322D01*
X014801Y008204D02*
X021356Y008204D01*
X021326Y008085D02*
X014801Y008085D01*
X014802Y007966D02*
X021336Y007966D01*
X021387Y007848D02*
X014839Y007848D01*
X014791Y007492D02*
X035481Y007492D01*
X035481Y007374D02*
X014839Y007374D01*
X014839Y007255D02*
X035481Y007255D01*
X035481Y007137D02*
X014795Y007137D01*
X014771Y007018D02*
X035481Y007018D01*
X035481Y006900D02*
X014830Y006900D01*
X014839Y006781D02*
X035481Y006781D01*
X035481Y006662D02*
X014806Y006662D01*
X014745Y006544D02*
X035481Y006544D01*
X035481Y006425D02*
X014819Y006425D01*
X014839Y006307D02*
X035455Y006307D01*
X035443Y006277D02*
X035481Y006369D01*
X035481Y012238D01*
X035472Y012242D01*
X035316Y012398D01*
X035232Y012601D01*
X035232Y012822D01*
X035316Y013026D01*
X035472Y013182D01*
X035676Y013266D01*
X035897Y013266D01*
X036101Y013182D01*
X036257Y013026D01*
X036341Y012822D01*
X036341Y012601D01*
X036257Y012398D01*
X036101Y012242D01*
X036081Y012234D01*
X036081Y006369D01*
X036119Y006277D01*
X036119Y006142D01*
X036068Y006018D01*
X035973Y005923D01*
X035848Y005871D01*
X035714Y005871D01*
X035590Y005923D01*
X035494Y006018D01*
X035443Y006142D01*
X035443Y006277D01*
X035443Y006188D02*
X014817Y006188D01*
X014740Y006070D02*
X035473Y006070D01*
X035561Y005951D02*
X014808Y005951D01*
X014839Y005833D02*
X059568Y005833D01*
X059568Y005951D02*
X036001Y005951D01*
X036089Y006070D02*
X059568Y006070D01*
X059568Y006188D02*
X036119Y006188D01*
X036107Y006307D02*
X059568Y006307D01*
X059568Y006425D02*
X048102Y006425D01*
X048038Y006399D02*
X048286Y006501D01*
X048475Y006691D01*
X048577Y006938D01*
X048577Y007205D01*
X048475Y007453D01*
X048286Y007642D01*
X048038Y007744D01*
X047771Y007744D01*
X047524Y007642D01*
X047334Y007453D01*
X047232Y007205D01*
X047232Y006938D01*
X047334Y006691D01*
X047524Y006501D01*
X047771Y006399D01*
X048038Y006399D01*
X048328Y006544D02*
X059568Y006544D01*
X059568Y006662D02*
X048447Y006662D01*
X048512Y006781D02*
X059568Y006781D01*
X059568Y006900D02*
X048561Y006900D01*
X048577Y007018D02*
X059568Y007018D01*
X059568Y007137D02*
X048577Y007137D01*
X048557Y007255D02*
X059568Y007255D01*
X059568Y007374D02*
X048508Y007374D01*
X048435Y007492D02*
X059568Y007492D01*
X059568Y007611D02*
X048317Y007611D01*
X048075Y007729D02*
X059568Y007729D01*
X059568Y007848D02*
X036081Y007848D01*
X036081Y007966D02*
X059568Y007966D01*
X059568Y008085D02*
X036081Y008085D01*
X036081Y007729D02*
X044427Y007729D01*
X044464Y007744D02*
X044216Y007642D01*
X044027Y007453D01*
X043925Y007205D01*
X043925Y006938D01*
X044027Y006691D01*
X044216Y006501D01*
X044464Y006399D01*
X044731Y006399D01*
X044979Y006501D01*
X045168Y006691D01*
X045270Y006938D01*
X045270Y007205D01*
X045168Y007453D01*
X044979Y007642D01*
X044731Y007744D01*
X044464Y007744D01*
X044768Y007729D02*
X046081Y007729D01*
X046117Y007744D02*
X045870Y007642D01*
X045681Y007453D01*
X045578Y007205D01*
X045578Y006938D01*
X045681Y006691D01*
X045870Y006501D01*
X046117Y006399D01*
X046385Y006399D01*
X046632Y006501D01*
X046821Y006691D01*
X046924Y006938D01*
X046924Y007205D01*
X046821Y007453D01*
X046632Y007642D01*
X046385Y007744D01*
X046117Y007744D01*
X046421Y007729D02*
X047734Y007729D01*
X047492Y007611D02*
X046663Y007611D01*
X046782Y007492D02*
X047374Y007492D01*
X047302Y007374D02*
X046854Y007374D01*
X046903Y007255D02*
X047252Y007255D01*
X047232Y007137D02*
X046924Y007137D01*
X046924Y007018D02*
X047232Y007018D01*
X047248Y006900D02*
X046908Y006900D01*
X046859Y006781D02*
X047297Y006781D01*
X047362Y006662D02*
X046793Y006662D01*
X046675Y006544D02*
X047481Y006544D01*
X047707Y006425D02*
X046449Y006425D01*
X046053Y006425D02*
X044795Y006425D01*
X045021Y006544D02*
X045827Y006544D01*
X045709Y006662D02*
X045140Y006662D01*
X045205Y006781D02*
X045643Y006781D01*
X045594Y006900D02*
X045254Y006900D01*
X045270Y007018D02*
X045578Y007018D01*
X045578Y007137D02*
X045270Y007137D01*
X045250Y007255D02*
X045599Y007255D01*
X045648Y007374D02*
X045201Y007374D01*
X045128Y007492D02*
X045720Y007492D01*
X045839Y007611D02*
X045010Y007611D01*
X044185Y007611D02*
X036081Y007611D01*
X036081Y007492D02*
X044067Y007492D01*
X043994Y007374D02*
X036081Y007374D01*
X036081Y007255D02*
X043945Y007255D01*
X043925Y007137D02*
X036081Y007137D01*
X036081Y007018D02*
X043925Y007018D01*
X043941Y006900D02*
X036081Y006900D01*
X036081Y006781D02*
X043990Y006781D01*
X044055Y006662D02*
X036081Y006662D01*
X036081Y006544D02*
X044174Y006544D01*
X044400Y006425D02*
X036081Y006425D01*
X036926Y003924D02*
X036855Y003900D01*
X036788Y003867D01*
X036728Y003823D01*
X036675Y003770D01*
X036632Y003710D01*
X036598Y003644D01*
X036575Y003573D01*
X036567Y003522D01*
X036976Y003522D01*
X036976Y003402D01*
X036567Y003402D01*
X036575Y003351D01*
X036598Y003280D01*
X036632Y003214D01*
X036675Y003153D01*
X036728Y003101D01*
X036788Y003057D01*
X036855Y003023D01*
X036926Y003000D01*
X036977Y002992D01*
X036977Y003402D01*
X037096Y003402D01*
X037096Y002992D01*
X037147Y003000D01*
X037218Y003023D01*
X037285Y003057D01*
X037345Y003101D01*
X037398Y003153D01*
X037441Y003214D01*
X037475Y003280D01*
X037498Y003351D01*
X037506Y003402D01*
X037097Y003402D01*
X037097Y003522D01*
X037506Y003522D01*
X037498Y003573D01*
X037475Y003644D01*
X037441Y003710D01*
X037398Y003770D01*
X037345Y003823D01*
X037285Y003867D01*
X037218Y003900D01*
X037147Y003924D01*
X037096Y003932D01*
X037096Y003522D01*
X036977Y003522D01*
X036977Y003932D01*
X036926Y003924D01*
X036977Y003817D02*
X037096Y003817D01*
X037096Y003699D02*
X036977Y003699D01*
X036977Y003580D02*
X037096Y003580D01*
X037097Y003462D02*
X040232Y003462D01*
X040232Y003572D02*
X040232Y003351D01*
X040316Y003148D01*
X040472Y002992D01*
X040676Y002907D01*
X040897Y002907D01*
X041101Y002992D01*
X041257Y003148D01*
X041341Y003351D01*
X041341Y003572D01*
X041257Y003776D01*
X041101Y003932D01*
X040897Y004016D01*
X040676Y004016D01*
X040472Y003932D01*
X040316Y003776D01*
X040232Y003572D01*
X040235Y003580D02*
X037496Y003580D01*
X037447Y003699D02*
X040284Y003699D01*
X040358Y003817D02*
X037350Y003817D01*
X036723Y003817D02*
X034965Y003817D01*
X035007Y003776D02*
X034851Y003932D01*
X034647Y004016D01*
X034426Y004016D01*
X034222Y003932D01*
X034066Y003776D01*
X033982Y003572D01*
X033982Y003351D01*
X034066Y003148D01*
X034222Y002992D01*
X034426Y002907D01*
X034647Y002907D01*
X034851Y002992D01*
X035007Y003148D01*
X035091Y003351D01*
X035091Y003572D01*
X035007Y003776D01*
X035039Y003699D02*
X036626Y003699D01*
X036577Y003580D02*
X035088Y003580D01*
X035091Y003462D02*
X036976Y003462D01*
X036977Y003343D02*
X037096Y003343D01*
X037096Y003225D02*
X036977Y003225D01*
X036977Y003106D02*
X037096Y003106D01*
X037350Y003106D02*
X040358Y003106D01*
X040284Y003225D02*
X037447Y003225D01*
X037496Y003343D02*
X040235Y003343D01*
X040482Y002988D02*
X034841Y002988D01*
X034965Y003106D02*
X036723Y003106D01*
X036626Y003225D02*
X035039Y003225D01*
X035088Y003343D02*
X036577Y003343D01*
X034841Y003936D02*
X040482Y003936D01*
X041091Y003936D02*
X041732Y003936D01*
X041722Y003932D02*
X041566Y003776D01*
X041482Y003572D01*
X041482Y003351D01*
X041566Y003148D01*
X041722Y002992D01*
X041926Y002907D01*
X042147Y002907D01*
X042351Y002992D01*
X042507Y003148D01*
X042591Y003351D01*
X042591Y003572D01*
X042507Y003776D01*
X042351Y003932D01*
X042147Y004016D01*
X041926Y004016D01*
X041722Y003932D01*
X041608Y003817D02*
X041215Y003817D01*
X041289Y003699D02*
X041534Y003699D01*
X041485Y003580D02*
X041338Y003580D01*
X041341Y003462D02*
X041482Y003462D01*
X041485Y003343D02*
X041338Y003343D01*
X041289Y003225D02*
X041534Y003225D01*
X041608Y003106D02*
X041215Y003106D01*
X041091Y002988D02*
X041732Y002988D01*
X042341Y002988D02*
X059568Y002988D01*
X059568Y003106D02*
X042465Y003106D01*
X042539Y003225D02*
X059568Y003225D01*
X059568Y003343D02*
X042588Y003343D01*
X042591Y003462D02*
X044256Y003462D01*
X044138Y003510D02*
X044436Y003387D01*
X044759Y003387D01*
X045057Y003510D01*
X045285Y003738D01*
X045408Y004036D01*
X045408Y004359D01*
X045285Y004657D01*
X045057Y004885D01*
X044759Y005008D01*
X044436Y005008D01*
X044138Y004885D01*
X043910Y004657D01*
X043787Y004359D01*
X043787Y004036D01*
X043910Y003738D01*
X044138Y003510D01*
X044069Y003580D02*
X042588Y003580D01*
X042539Y003699D02*
X043950Y003699D01*
X043878Y003817D02*
X042465Y003817D01*
X042341Y003936D02*
X043829Y003936D01*
X043787Y004054D02*
X012534Y004054D01*
X012493Y004096D02*
X012588Y004001D01*
X012639Y003877D01*
X012639Y003742D01*
X012588Y003618D01*
X012493Y003523D01*
X012368Y003471D01*
X012234Y003471D01*
X012110Y003523D01*
X012014Y003618D01*
X011963Y003742D01*
X011963Y003877D01*
X012014Y004001D01*
X012110Y004096D01*
X012234Y004148D01*
X012368Y004148D01*
X012493Y004096D01*
X012615Y003936D02*
X027982Y003936D01*
X027972Y003932D02*
X027816Y003776D01*
X027732Y003572D01*
X027732Y003351D01*
X027816Y003148D01*
X027972Y002992D01*
X028176Y002907D01*
X028397Y002907D01*
X028601Y002992D01*
X028757Y003148D01*
X028841Y003351D01*
X028841Y003572D01*
X028757Y003776D01*
X028601Y003932D01*
X028397Y004016D01*
X028176Y004016D01*
X027972Y003932D01*
X027858Y003817D02*
X024850Y003817D01*
X024845Y003823D02*
X024785Y003867D01*
X024718Y003900D01*
X024647Y003924D01*
X024596Y003932D01*
X024596Y003522D01*
X024477Y003522D01*
X024477Y003932D01*
X024426Y003924D01*
X024355Y003900D01*
X024288Y003867D01*
X024228Y003823D01*
X024175Y003770D01*
X024132Y003710D01*
X024098Y003644D01*
X024075Y003573D01*
X024067Y003522D01*
X024476Y003522D01*
X024476Y003402D01*
X024067Y003402D01*
X024075Y003351D01*
X024098Y003280D01*
X024132Y003214D01*
X024175Y003153D01*
X024228Y003101D01*
X024288Y003057D01*
X024355Y003023D01*
X024426Y003000D01*
X024477Y002992D01*
X024477Y003402D01*
X024596Y003402D01*
X024596Y002992D01*
X024647Y003000D01*
X024718Y003023D01*
X024785Y003057D01*
X024845Y003101D01*
X024898Y003153D01*
X024941Y003214D01*
X024975Y003280D01*
X024998Y003351D01*
X025006Y003402D01*
X024597Y003402D01*
X024597Y003522D01*
X025006Y003522D01*
X024998Y003573D01*
X024975Y003644D01*
X024941Y003710D01*
X024898Y003770D01*
X024845Y003823D01*
X024947Y003699D02*
X027784Y003699D01*
X027735Y003580D02*
X024996Y003580D01*
X024996Y003343D02*
X027735Y003343D01*
X027732Y003462D02*
X024597Y003462D01*
X024596Y003580D02*
X024477Y003580D01*
X024476Y003462D02*
X021918Y003462D01*
X021963Y003443D02*
X021794Y003513D01*
X021612Y003513D01*
X021443Y003443D01*
X021314Y003314D01*
X021244Y003146D01*
X021244Y002963D01*
X021314Y002794D01*
X021443Y002665D01*
X021612Y002596D01*
X021794Y002596D01*
X021963Y002665D01*
X022092Y002794D01*
X022162Y002963D01*
X022162Y003146D01*
X022092Y003314D01*
X021963Y003443D01*
X022063Y003343D02*
X024077Y003343D01*
X024126Y003225D02*
X022129Y003225D01*
X022162Y003106D02*
X024223Y003106D01*
X024477Y003106D02*
X024596Y003106D01*
X024596Y003225D02*
X024477Y003225D01*
X024477Y003343D02*
X024596Y003343D01*
X024850Y003106D02*
X027858Y003106D01*
X027784Y003225D02*
X024947Y003225D01*
X024596Y003699D02*
X024477Y003699D01*
X024477Y003817D02*
X024596Y003817D01*
X024223Y003817D02*
X012639Y003817D01*
X012621Y003699D02*
X024126Y003699D01*
X024077Y003580D02*
X012550Y003580D01*
X012052Y003580D02*
X008368Y003580D01*
X008368Y003543D02*
X008307Y003397D01*
X008195Y003285D01*
X008049Y003225D01*
X007891Y003225D01*
X007745Y003285D01*
X007634Y003397D01*
X007573Y003543D01*
X007573Y003701D01*
X007634Y003847D01*
X007745Y003959D01*
X007891Y004019D01*
X008049Y004019D01*
X008195Y003959D01*
X008307Y003847D01*
X008368Y003701D01*
X008368Y003543D01*
X008334Y003462D02*
X021488Y003462D01*
X021343Y003343D02*
X008253Y003343D01*
X008368Y003699D02*
X011981Y003699D01*
X011963Y003817D02*
X008319Y003817D01*
X008218Y003936D02*
X011988Y003936D01*
X012068Y004054D02*
X002921Y004054D01*
X002921Y003936D02*
X005990Y003936D01*
X006013Y003959D02*
X005901Y003847D01*
X005841Y003701D01*
X005841Y003543D01*
X005901Y003397D01*
X006013Y003285D01*
X006159Y003225D01*
X006317Y003225D01*
X006463Y003285D01*
X006575Y003397D01*
X006635Y003543D01*
X006635Y003701D01*
X006575Y003847D01*
X006463Y003959D01*
X006317Y004019D01*
X006159Y004019D01*
X006013Y003959D01*
X005889Y003817D02*
X002921Y003817D01*
X002921Y003699D02*
X005841Y003699D01*
X005841Y003580D02*
X002921Y003580D01*
X002921Y003462D02*
X005875Y003462D01*
X005955Y003343D02*
X002921Y003343D01*
X002921Y003225D02*
X021277Y003225D01*
X021244Y003106D02*
X002921Y003106D01*
X002921Y002988D02*
X021244Y002988D01*
X021283Y002869D02*
X018761Y002869D01*
X018750Y002874D02*
X018521Y002874D01*
X018310Y002786D01*
X018148Y002625D01*
X018143Y002612D01*
X018138Y002625D01*
X017976Y002786D01*
X017765Y002874D01*
X017537Y002874D01*
X017326Y002786D01*
X017164Y002625D01*
X017159Y002612D01*
X017154Y002625D01*
X016992Y002786D01*
X016781Y002874D01*
X016553Y002874D01*
X016341Y002786D01*
X016180Y002625D01*
X016093Y002414D01*
X016093Y002187D01*
X016068Y002198D01*
X015934Y002198D01*
X015810Y002146D01*
X015714Y002051D01*
X015663Y001927D01*
X015663Y001792D01*
X015714Y001668D01*
X015810Y001573D01*
X015934Y001521D01*
X016068Y001521D01*
X016193Y001573D01*
X016288Y001668D01*
X016339Y001792D01*
X016339Y001815D01*
X016341Y001813D01*
X016553Y001725D01*
X016781Y001725D01*
X016992Y001813D01*
X017154Y001974D01*
X017159Y001987D01*
X017164Y001974D01*
X017326Y001813D01*
X017537Y001725D01*
X017765Y001725D01*
X017976Y001813D01*
X018138Y001974D01*
X018143Y001987D01*
X018148Y001974D01*
X018310Y001813D01*
X018521Y001725D01*
X018750Y001725D01*
X018961Y001813D01*
X019122Y001974D01*
X019210Y002185D01*
X019210Y002414D01*
X019122Y002625D01*
X018961Y002786D01*
X018750Y002874D01*
X018509Y002869D02*
X017777Y002869D01*
X017525Y002869D02*
X016793Y002869D01*
X016541Y002869D02*
X015787Y002869D01*
X015843Y002846D02*
X015718Y002898D01*
X015584Y002898D01*
X015460Y002846D01*
X015364Y002751D01*
X015313Y002627D01*
X015313Y002492D01*
X015364Y002368D01*
X015460Y002273D01*
X015584Y002221D01*
X015718Y002221D01*
X015843Y002273D01*
X015938Y002368D01*
X015989Y002492D01*
X015989Y002627D01*
X015938Y002751D01*
X015843Y002846D01*
X015938Y002751D02*
X016306Y002751D01*
X016187Y002632D02*
X015987Y002632D01*
X015989Y002513D02*
X016134Y002513D01*
X016093Y002395D02*
X015949Y002395D01*
X015846Y002276D02*
X016093Y002276D01*
X015838Y002158D02*
X002921Y002158D01*
X002921Y002276D02*
X015456Y002276D01*
X015353Y002395D02*
X002921Y002395D01*
X002921Y002513D02*
X015313Y002513D01*
X015315Y002632D02*
X002921Y002632D01*
X002921Y002751D02*
X015364Y002751D01*
X015515Y002869D02*
X002921Y002869D01*
X002921Y002039D02*
X015710Y002039D01*
X015663Y001921D02*
X002921Y001921D01*
X002921Y001802D02*
X015663Y001802D01*
X015708Y001684D02*
X002921Y001684D01*
X002921Y001565D02*
X015828Y001565D01*
X016174Y001565D02*
X023513Y001565D01*
X023513Y001447D02*
X002921Y001447D01*
X006521Y003343D02*
X007688Y003343D01*
X007607Y003462D02*
X006602Y003462D01*
X006635Y003580D02*
X007573Y003580D01*
X007573Y003699D02*
X006635Y003699D01*
X006587Y003817D02*
X007621Y003817D01*
X007723Y003936D02*
X006486Y003936D01*
X002921Y004173D02*
X019459Y004173D01*
X019460Y004173D02*
X019584Y004121D01*
X019718Y004121D01*
X019843Y004173D01*
X043787Y004173D01*
X043787Y004292D02*
X019947Y004292D01*
X019938Y004268D02*
X019989Y004392D01*
X019989Y004527D01*
X019938Y004651D01*
X019843Y004746D01*
X019718Y004798D01*
X019584Y004798D01*
X019460Y004746D01*
X019364Y004651D01*
X019313Y004527D01*
X019313Y004392D01*
X019364Y004268D01*
X019460Y004173D01*
X019355Y004292D02*
X002921Y004292D01*
X002921Y004410D02*
X019313Y004410D01*
X019314Y004529D02*
X002921Y004529D01*
X002921Y004647D02*
X019363Y004647D01*
X019507Y004766D02*
X002921Y004766D01*
X002921Y004884D02*
X020365Y004884D01*
X020369Y004876D02*
X020410Y004814D01*
X020462Y004761D01*
X020524Y004720D01*
X020593Y004691D01*
X020666Y004677D01*
X020683Y004677D01*
X020683Y005034D01*
X020723Y005034D01*
X020723Y004677D01*
X020740Y004677D01*
X020813Y004691D01*
X020882Y004720D01*
X020944Y004761D01*
X020996Y004814D01*
X021038Y004876D01*
X021066Y004944D01*
X021081Y005017D01*
X021081Y005034D01*
X020723Y005034D01*
X020723Y005074D01*
X021081Y005074D01*
X021081Y005091D01*
X021066Y005164D01*
X021038Y005233D01*
X020996Y005295D01*
X020944Y005348D01*
X020882Y005389D01*
X020813Y005417D01*
X020740Y005432D01*
X020723Y005432D01*
X020723Y005075D01*
X020683Y005075D01*
X020683Y005432D01*
X020666Y005432D01*
X020593Y005417D01*
X020524Y005389D01*
X020462Y005348D01*
X020410Y005295D01*
X020369Y005233D01*
X020340Y005164D01*
X020326Y005091D01*
X020326Y005074D01*
X020683Y005074D01*
X020683Y005034D01*
X020326Y005034D01*
X020326Y005017D01*
X020340Y004944D01*
X020369Y004876D01*
X020328Y005003D02*
X002921Y005003D01*
X002921Y005121D02*
X020332Y005121D01*
X020373Y005240D02*
X002921Y005240D01*
X002921Y005358D02*
X020479Y005358D01*
X020683Y005358D02*
X020723Y005358D01*
X020723Y005240D02*
X020683Y005240D01*
X020683Y005121D02*
X020723Y005121D01*
X020723Y005003D02*
X020683Y005003D01*
X020683Y004884D02*
X020723Y004884D01*
X020723Y004766D02*
X020683Y004766D01*
X020458Y004766D02*
X019795Y004766D01*
X019939Y004647D02*
X043906Y004647D01*
X043857Y004529D02*
X019988Y004529D01*
X019989Y004410D02*
X043808Y004410D01*
X044019Y004766D02*
X020948Y004766D01*
X021041Y004884D02*
X044138Y004884D01*
X044424Y005003D02*
X021078Y005003D01*
X021075Y005121D02*
X059568Y005121D01*
X059568Y005003D02*
X048079Y005003D01*
X048066Y005008D02*
X048364Y004885D01*
X048592Y004657D01*
X048715Y004359D01*
X048715Y004036D01*
X048592Y003738D01*
X048364Y003510D01*
X048066Y003387D01*
X047743Y003387D01*
X047445Y003510D01*
X047217Y003738D01*
X047094Y004036D01*
X047094Y004359D01*
X047217Y004657D01*
X047445Y004885D01*
X047743Y005008D01*
X048066Y005008D01*
X048364Y004884D02*
X059568Y004884D01*
X059568Y004766D02*
X048483Y004766D01*
X048596Y004647D02*
X059568Y004647D01*
X059568Y004529D02*
X048645Y004529D01*
X048694Y004410D02*
X059568Y004410D01*
X059568Y004292D02*
X055366Y004292D01*
X055330Y004307D02*
X055172Y004307D01*
X055051Y004256D01*
X054930Y004307D01*
X054772Y004307D01*
X054651Y004256D01*
X054530Y004307D01*
X054372Y004307D01*
X054226Y004246D01*
X054114Y004134D01*
X054054Y003988D01*
X054054Y003830D01*
X054114Y003684D01*
X054226Y003573D01*
X054372Y003512D01*
X054530Y003512D01*
X054651Y003562D01*
X054772Y003512D01*
X054930Y003512D01*
X055051Y003562D01*
X055172Y003512D01*
X055330Y003512D01*
X055476Y003573D01*
X055588Y003684D01*
X055648Y003830D01*
X055648Y003988D01*
X055588Y004134D01*
X055476Y004246D01*
X055330Y004307D01*
X055136Y004292D02*
X054966Y004292D01*
X054736Y004292D02*
X054566Y004292D01*
X054336Y004292D02*
X048715Y004292D01*
X048715Y004173D02*
X054153Y004173D01*
X054081Y004054D02*
X048715Y004054D01*
X048674Y003936D02*
X054054Y003936D01*
X054059Y003817D02*
X048624Y003817D01*
X048552Y003699D02*
X054108Y003699D01*
X054219Y003580D02*
X048434Y003580D01*
X048246Y003462D02*
X059568Y003462D01*
X059568Y003580D02*
X055484Y003580D01*
X055594Y003699D02*
X059568Y003699D01*
X059568Y003817D02*
X055643Y003817D01*
X055648Y003936D02*
X059568Y003936D01*
X059568Y004054D02*
X055621Y004054D01*
X055549Y004173D02*
X059568Y004173D01*
X059568Y005240D02*
X021033Y005240D01*
X020927Y005358D02*
X059568Y005358D01*
X059568Y005477D02*
X014582Y005477D01*
X014420Y005477D02*
X002921Y005477D01*
X002921Y005596D02*
X014237Y005596D01*
X014175Y005714D02*
X002921Y005714D01*
X002921Y005833D02*
X014163Y005833D01*
X014194Y005951D02*
X002921Y005951D01*
X002921Y006070D02*
X014263Y006070D01*
X014185Y006188D02*
X002921Y006188D01*
X002921Y006307D02*
X014163Y006307D01*
X014183Y006425D02*
X004829Y006425D01*
X004796Y006393D02*
X004936Y006533D01*
X005012Y006716D01*
X005012Y006915D01*
X004936Y007098D01*
X004796Y007239D01*
X004613Y007314D01*
X004414Y007314D01*
X004231Y007239D01*
X004091Y007098D01*
X004015Y006915D01*
X004015Y006716D01*
X004091Y006533D01*
X004231Y006393D01*
X004414Y006317D01*
X004613Y006317D01*
X004796Y006393D01*
X004941Y006544D02*
X014257Y006544D01*
X014196Y006662D02*
X004990Y006662D01*
X005012Y006781D02*
X014163Y006781D01*
X014172Y006900D02*
X005012Y006900D01*
X004970Y007018D02*
X012121Y007018D01*
X012110Y007023D02*
X012234Y006971D01*
X012368Y006971D01*
X012493Y007023D01*
X012588Y007118D01*
X012626Y007210D01*
X013155Y007739D01*
X013201Y007850D01*
X013201Y007969D01*
X013201Y011050D01*
X013239Y011142D01*
X013239Y011277D01*
X013188Y011401D01*
X013129Y011459D01*
X013188Y011518D01*
X013239Y011642D01*
X013239Y011777D01*
X013188Y011901D01*
X013129Y011959D01*
X013188Y012018D01*
X013239Y012142D01*
X013239Y012277D01*
X013188Y012401D01*
X013093Y012496D01*
X012968Y012548D01*
X012834Y012548D01*
X012710Y012496D01*
X012614Y012401D01*
X012563Y012277D01*
X012563Y012142D01*
X012614Y012018D01*
X012673Y011959D01*
X012614Y011901D01*
X012563Y011777D01*
X012563Y011642D01*
X012614Y011518D01*
X012673Y011459D01*
X012614Y011401D01*
X012563Y011277D01*
X012563Y011142D01*
X012601Y011050D01*
X012601Y008034D01*
X012202Y007634D01*
X012110Y007596D01*
X012014Y007501D01*
X011963Y007377D01*
X011963Y007242D01*
X012014Y007118D01*
X012110Y007023D01*
X012007Y007137D02*
X004898Y007137D01*
X004756Y007255D02*
X011963Y007255D01*
X011963Y007374D02*
X004750Y007374D01*
X004796Y007393D02*
X004936Y007533D01*
X005012Y007716D01*
X005012Y007915D01*
X004936Y008098D01*
X004796Y008239D01*
X004613Y008314D01*
X004414Y008314D01*
X004231Y008239D01*
X004091Y008098D01*
X004015Y007915D01*
X004015Y007716D01*
X004091Y007533D01*
X004231Y007393D01*
X004414Y007317D01*
X004613Y007317D01*
X004796Y007393D01*
X004896Y007492D02*
X012011Y007492D01*
X012145Y007611D02*
X004969Y007611D01*
X005012Y007729D02*
X010453Y007729D01*
X010414Y007768D02*
X010510Y007673D01*
X010634Y007621D01*
X010768Y007621D01*
X010893Y007673D01*
X010988Y007768D01*
X011039Y007892D01*
X011039Y008027D01*
X010988Y008151D01*
X010893Y008246D01*
X010768Y008298D01*
X010634Y008298D01*
X010510Y008246D01*
X010414Y008151D01*
X010363Y008027D01*
X010363Y007892D01*
X010414Y007768D01*
X010381Y007848D02*
X005012Y007848D01*
X004991Y007966D02*
X010363Y007966D01*
X010387Y008085D02*
X004942Y008085D01*
X004831Y008204D02*
X010467Y008204D01*
X010935Y008204D02*
X012601Y008204D01*
X012601Y008322D02*
X004625Y008322D01*
X004613Y008317D02*
X004796Y008393D01*
X004936Y008533D01*
X005012Y008716D01*
X005012Y008915D01*
X004936Y009098D01*
X004796Y009239D01*
X004613Y009314D01*
X004414Y009314D01*
X004231Y009239D01*
X004091Y009098D01*
X004015Y008915D01*
X004015Y008716D01*
X004091Y008533D01*
X004231Y008393D01*
X004414Y008317D01*
X004613Y008317D01*
X004402Y008322D02*
X002921Y008322D01*
X002921Y008204D02*
X004196Y008204D01*
X004085Y008085D02*
X002921Y008085D01*
X002921Y007966D02*
X004036Y007966D01*
X004015Y007848D02*
X002921Y007848D01*
X002921Y007729D02*
X004015Y007729D01*
X004059Y007611D02*
X002921Y007611D01*
X002921Y007492D02*
X004132Y007492D01*
X004278Y007374D02*
X002921Y007374D01*
X002921Y007255D02*
X004271Y007255D01*
X004129Y007137D02*
X002921Y007137D01*
X002921Y007018D02*
X004058Y007018D01*
X004015Y006900D02*
X002921Y006900D01*
X002921Y006781D02*
X004015Y006781D01*
X004037Y006662D02*
X002921Y006662D01*
X002921Y006544D02*
X004086Y006544D01*
X004199Y006425D02*
X002921Y006425D01*
X002921Y008441D02*
X004184Y008441D01*
X004080Y008559D02*
X002921Y008559D01*
X002921Y008678D02*
X004031Y008678D01*
X004015Y008796D02*
X002921Y008796D01*
X002921Y008915D02*
X004015Y008915D01*
X004064Y009033D02*
X002921Y009033D01*
X002921Y009152D02*
X004144Y009152D01*
X004308Y009270D02*
X002921Y009270D01*
X002921Y009389D02*
X012601Y009389D01*
X012601Y009507D02*
X004796Y009507D01*
X004786Y009497D02*
X004832Y009544D01*
X004871Y009597D01*
X004901Y009655D01*
X004921Y009718D01*
X004930Y009776D01*
X004554Y009776D01*
X004554Y009856D01*
X004930Y009856D01*
X004921Y009914D01*
X004901Y009976D01*
X004871Y010035D01*
X004832Y010088D01*
X004786Y010134D01*
X004732Y010173D01*
X004674Y010203D01*
X004611Y010223D01*
X004554Y010232D01*
X004554Y009856D01*
X004474Y009856D01*
X004474Y010232D01*
X004416Y010223D01*
X004353Y010203D01*
X004295Y010173D01*
X004242Y010134D01*
X004195Y010088D01*
X004157Y010035D01*
X004127Y009976D01*
X004106Y009914D01*
X004097Y009856D01*
X004473Y009856D01*
X004473Y009776D01*
X004097Y009776D01*
X004106Y009718D01*
X004127Y009655D01*
X004157Y009597D01*
X004195Y009544D01*
X004242Y009497D01*
X004295Y009459D01*
X004353Y009429D01*
X004416Y009409D01*
X004474Y009399D01*
X004474Y009775D01*
X004554Y009775D01*
X004554Y009399D01*
X004611Y009409D01*
X004674Y009429D01*
X004732Y009459D01*
X004786Y009497D01*
X004886Y009626D02*
X012601Y009626D01*
X012601Y009745D02*
X004925Y009745D01*
X004929Y009863D02*
X012601Y009863D01*
X012601Y009982D02*
X004898Y009982D01*
X004820Y010100D02*
X012601Y010100D01*
X012601Y010219D02*
X004624Y010219D01*
X004554Y010219D02*
X004474Y010219D01*
X004403Y010219D02*
X002921Y010219D01*
X002921Y010337D02*
X004365Y010337D01*
X004414Y010317D02*
X004613Y010317D01*
X004796Y010393D01*
X004936Y010533D01*
X005012Y010716D01*
X005012Y010915D01*
X004936Y011098D01*
X004796Y011239D01*
X004613Y011314D01*
X004414Y011314D01*
X004231Y011239D01*
X004091Y011098D01*
X004015Y010915D01*
X004015Y010716D01*
X004091Y010533D01*
X004231Y010393D01*
X004414Y010317D01*
X004474Y010100D02*
X004554Y010100D01*
X004554Y009982D02*
X004474Y009982D01*
X004474Y009863D02*
X004554Y009863D01*
X004554Y009745D02*
X004474Y009745D01*
X004474Y009626D02*
X004554Y009626D01*
X004554Y009507D02*
X004474Y009507D01*
X004232Y009507D02*
X002921Y009507D01*
X002921Y009626D02*
X004142Y009626D01*
X004102Y009745D02*
X002921Y009745D01*
X002921Y009863D02*
X004099Y009863D01*
X004130Y009982D02*
X002921Y009982D01*
X002921Y010100D02*
X004208Y010100D01*
X004168Y010456D02*
X002921Y010456D01*
X002921Y010574D02*
X004074Y010574D01*
X004025Y010693D02*
X002921Y010693D01*
X002921Y010811D02*
X004015Y010811D01*
X004021Y010930D02*
X002921Y010930D01*
X002921Y011049D02*
X004070Y011049D01*
X004160Y011167D02*
X002921Y011167D01*
X002921Y011286D02*
X004345Y011286D01*
X004414Y011317D02*
X004613Y011317D01*
X004796Y011393D01*
X004936Y011533D01*
X005012Y011716D01*
X005012Y011915D01*
X004936Y012098D01*
X004796Y012239D01*
X004613Y012314D01*
X004414Y012314D01*
X004231Y012239D01*
X004091Y012098D01*
X004015Y011915D01*
X004015Y011716D01*
X004091Y011533D01*
X004231Y011393D01*
X004414Y011317D01*
X004220Y011404D02*
X002921Y011404D01*
X002921Y011523D02*
X004101Y011523D01*
X004046Y011641D02*
X002921Y011641D01*
X002921Y011760D02*
X004015Y011760D01*
X004015Y011878D02*
X002921Y011878D01*
X002921Y011997D02*
X004049Y011997D01*
X004108Y012115D02*
X002921Y012115D01*
X002921Y012234D02*
X004227Y012234D01*
X004801Y012234D02*
X012563Y012234D01*
X012574Y012115D02*
X004919Y012115D01*
X004979Y011997D02*
X012635Y011997D01*
X012605Y011878D02*
X005012Y011878D01*
X005012Y011760D02*
X012563Y011760D01*
X012563Y011641D02*
X004981Y011641D01*
X004926Y011523D02*
X012612Y011523D01*
X012618Y011404D02*
X004807Y011404D01*
X004683Y011286D02*
X012567Y011286D01*
X012563Y011167D02*
X004868Y011167D01*
X004957Y011049D02*
X012601Y011049D01*
X012601Y010930D02*
X005006Y010930D01*
X005012Y010811D02*
X012601Y010811D01*
X012601Y010693D02*
X005003Y010693D01*
X004954Y010574D02*
X012601Y010574D01*
X012601Y010456D02*
X004859Y010456D01*
X004662Y010337D02*
X012601Y010337D01*
X013201Y010337D02*
X014201Y010337D01*
X014201Y010219D02*
X013201Y010219D01*
X013201Y010100D02*
X014201Y010100D01*
X014201Y009982D02*
X013857Y009982D01*
X013888Y009951D02*
X013793Y010046D01*
X013668Y010098D01*
X013534Y010098D01*
X013410Y010046D01*
X013314Y009951D01*
X013263Y009827D01*
X013263Y009692D01*
X013314Y009568D01*
X013410Y009473D01*
X013534Y009421D01*
X013668Y009421D01*
X013793Y009473D01*
X013888Y009568D01*
X013939Y009692D01*
X013939Y009827D01*
X013888Y009951D01*
X013924Y009863D02*
X014201Y009863D01*
X014201Y009745D02*
X013939Y009745D01*
X013912Y009626D02*
X014201Y009626D01*
X014201Y009507D02*
X013827Y009507D01*
X014201Y009389D02*
X013201Y009389D01*
X013201Y009507D02*
X013375Y009507D01*
X013290Y009626D02*
X013201Y009626D01*
X013201Y009745D02*
X013263Y009745D01*
X013278Y009863D02*
X013201Y009863D01*
X013201Y009982D02*
X013345Y009982D01*
X013201Y010456D02*
X014201Y010456D01*
X014201Y010574D02*
X013201Y010574D01*
X013201Y010693D02*
X014201Y010693D01*
X014201Y010811D02*
X013201Y010811D01*
X013201Y010930D02*
X014201Y010930D01*
X014201Y011049D02*
X013201Y011049D01*
X013239Y011167D02*
X014201Y011167D01*
X014201Y011286D02*
X013235Y011286D01*
X013184Y011404D02*
X014201Y011404D01*
X014201Y011523D02*
X013190Y011523D01*
X013239Y011641D02*
X014201Y011641D01*
X014201Y011760D02*
X013239Y011760D01*
X013197Y011878D02*
X014201Y011878D01*
X014201Y011997D02*
X013167Y011997D01*
X013228Y012115D02*
X014201Y012115D01*
X014201Y012234D02*
X013239Y012234D01*
X013208Y012353D02*
X014084Y012353D01*
X013965Y012471D02*
X013118Y012471D01*
X012685Y012471D02*
X002921Y012471D01*
X002921Y012353D02*
X012594Y012353D01*
X013372Y013064D02*
X004721Y013064D01*
X004743Y013073D02*
X004838Y013168D01*
X004889Y013292D01*
X004889Y013427D01*
X004838Y013551D01*
X004743Y013646D01*
X004618Y013698D01*
X004484Y013698D01*
X004360Y013646D01*
X004264Y013551D01*
X004213Y013427D01*
X004213Y013292D01*
X004264Y013168D01*
X004360Y013073D01*
X004484Y013021D01*
X004618Y013021D01*
X004743Y013073D01*
X004844Y013182D02*
X013254Y013182D01*
X013135Y013301D02*
X004889Y013301D01*
X004889Y013419D02*
X011118Y013419D01*
X011006Y013538D02*
X004843Y013538D01*
X004717Y013656D02*
X010963Y013656D01*
X010963Y013775D02*
X004528Y013775D01*
X004612Y013894D02*
X011011Y013894D01*
X011148Y014012D02*
X004648Y014012D01*
X004648Y014131D02*
X019894Y014131D01*
X019798Y014012D02*
X018727Y014012D01*
X018693Y014046D02*
X018568Y014098D01*
X018434Y014098D01*
X018310Y014046D01*
X018214Y013951D01*
X018163Y013827D01*
X018163Y013692D01*
X018214Y013568D01*
X018310Y013473D01*
X018434Y013421D01*
X018568Y013421D01*
X018693Y013473D01*
X018788Y013568D01*
X018839Y013692D01*
X018839Y013827D01*
X018788Y013951D01*
X018693Y014046D01*
X018811Y013894D02*
X019763Y013894D01*
X019770Y013775D02*
X018839Y013775D01*
X018824Y013656D02*
X019826Y013656D01*
X019994Y013538D02*
X018758Y013538D01*
X018244Y013538D02*
X013747Y013538D01*
X013628Y013656D02*
X018178Y013656D01*
X018163Y013775D02*
X013510Y013775D01*
X013391Y013894D02*
X018191Y013894D01*
X018276Y014012D02*
X011454Y014012D01*
X012660Y014605D02*
X002921Y014605D01*
X002921Y014486D02*
X012778Y014486D01*
X012897Y014368D02*
X004504Y014368D01*
X003998Y014368D02*
X002921Y014368D01*
X002921Y014249D02*
X003900Y014249D01*
X003854Y014131D02*
X002921Y014131D01*
X002921Y014012D02*
X003854Y014012D01*
X003890Y013894D02*
X002921Y013894D01*
X002921Y013775D02*
X003974Y013775D01*
X004259Y013538D02*
X002921Y013538D01*
X002921Y013656D02*
X004385Y013656D01*
X004213Y013419D02*
X002921Y013419D01*
X002921Y013301D02*
X004213Y013301D01*
X004258Y013182D02*
X002921Y013182D01*
X002921Y013064D02*
X004381Y013064D01*
X002921Y012945D02*
X013491Y012945D01*
X013610Y012827D02*
X002921Y012827D01*
X002921Y012708D02*
X013728Y012708D01*
X013847Y012590D02*
X002921Y012590D01*
X009601Y014959D02*
X012701Y014959D01*
X013101Y014559D01*
X013951Y014559D01*
X014501Y015109D01*
X019651Y015109D01*
X020151Y014609D01*
X021051Y014609D01*
X021551Y015109D01*
X026751Y015109D01*
X027251Y014609D01*
X028151Y014609D01*
X028651Y015109D01*
X032551Y015109D01*
X032855Y014960D02*
X033919Y014960D01*
X034038Y014842D02*
X032762Y014842D01*
X032889Y015079D02*
X033801Y015079D01*
X034156Y014723D02*
X028661Y014723D01*
X028542Y014605D02*
X059568Y014605D01*
X059568Y014723D02*
X056278Y014723D01*
X056464Y014842D02*
X059568Y014842D01*
X059568Y014960D02*
X056583Y014960D01*
X056701Y015079D02*
X059568Y015079D01*
X059568Y015198D02*
X058884Y015198D01*
X058974Y015316D02*
X059568Y015316D01*
X059568Y015435D02*
X059015Y015435D01*
X059015Y015553D02*
X059568Y015553D01*
X059568Y015672D02*
X058973Y015672D01*
X058882Y015790D02*
X059568Y015790D01*
X059568Y015909D02*
X057325Y015909D01*
X057440Y016003D02*
X057440Y016003D01*
X057465Y016027D02*
X059568Y016027D01*
X059568Y016146D02*
X057583Y016146D01*
X057702Y016264D02*
X059568Y016264D01*
X059568Y016383D02*
X057821Y016383D01*
X057760Y016322D02*
X057760Y016322D01*
X057880Y016502D02*
X059568Y016502D01*
X059568Y016620D02*
X057881Y016620D01*
X057881Y016739D02*
X059568Y016739D01*
X059568Y016857D02*
X057881Y016857D01*
X057881Y016976D02*
X059568Y016976D01*
X059568Y017094D02*
X057881Y017094D01*
X057881Y017213D02*
X059023Y017213D01*
X059049Y017202D02*
X059207Y017202D01*
X059353Y017263D01*
X059464Y017374D01*
X059525Y017520D01*
X059525Y017678D01*
X059464Y017824D01*
X059353Y017936D01*
X059207Y017997D01*
X059049Y017997D01*
X058903Y017936D01*
X058791Y017824D01*
X058730Y017678D01*
X058730Y017520D01*
X058791Y017374D01*
X058903Y017263D01*
X059049Y017202D01*
X059232Y017213D02*
X059568Y017213D01*
X059568Y017331D02*
X059421Y017331D01*
X059495Y017450D02*
X059568Y017450D01*
X059568Y017568D02*
X059525Y017568D01*
X059521Y017687D02*
X059568Y017687D01*
X059568Y017806D02*
X059472Y017806D01*
X059568Y017924D02*
X059365Y017924D01*
X059568Y018043D02*
X057881Y018043D01*
X057881Y018161D02*
X059568Y018161D01*
X059568Y018280D02*
X057881Y018280D01*
X057881Y018398D02*
X059568Y018398D01*
X059568Y018517D02*
X057881Y018517D01*
X057881Y018635D02*
X059568Y018635D01*
X059568Y018754D02*
X057881Y018754D01*
X057881Y018872D02*
X059568Y018872D01*
X059568Y018991D02*
X057881Y018991D01*
X057881Y019109D02*
X059568Y019109D01*
X059568Y019228D02*
X057881Y019228D01*
X057881Y019347D02*
X059568Y019347D01*
X059568Y019465D02*
X058891Y019465D01*
X058842Y019416D02*
X058954Y019528D01*
X059015Y019674D01*
X059015Y019832D01*
X058954Y019978D01*
X058842Y020089D01*
X058696Y020150D01*
X058538Y020150D01*
X058392Y020089D01*
X058281Y019978D01*
X058220Y019832D01*
X058220Y019674D01*
X058281Y019528D01*
X058392Y019416D01*
X058538Y019356D01*
X058696Y019356D01*
X058842Y019416D01*
X058977Y019584D02*
X059568Y019584D01*
X059568Y019702D02*
X059015Y019702D01*
X059015Y019821D02*
X059568Y019821D01*
X059568Y019939D02*
X058970Y019939D01*
X058874Y020058D02*
X059568Y020058D01*
X059568Y020176D02*
X057881Y020176D01*
X057881Y020058D02*
X058361Y020058D01*
X058265Y019939D02*
X057881Y019939D01*
X057881Y019821D02*
X058220Y019821D01*
X058220Y019702D02*
X057881Y019702D01*
X057881Y019584D02*
X058258Y019584D01*
X058343Y019465D02*
X057881Y019465D01*
X057321Y019584D02*
X054498Y019584D01*
X054493Y019702D02*
X057321Y019702D01*
X057321Y019821D02*
X054443Y019821D01*
X054333Y019939D02*
X057321Y019939D01*
X057881Y020295D02*
X059568Y020295D01*
X059568Y020413D02*
X057881Y020413D01*
X057881Y020532D02*
X059568Y020532D01*
X059568Y020651D02*
X057881Y020651D01*
X057881Y020769D02*
X059568Y020769D01*
X059568Y020888D02*
X057881Y020888D01*
X057881Y021006D02*
X059568Y021006D01*
X059568Y021125D02*
X057881Y021125D01*
X057881Y021243D02*
X059568Y021243D01*
X059568Y021362D02*
X057881Y021362D01*
X057881Y021480D02*
X059568Y021480D01*
X059568Y021599D02*
X057846Y021599D01*
X057739Y021717D02*
X059568Y021717D01*
X059568Y021836D02*
X057620Y021836D01*
X057502Y021955D02*
X059568Y021955D01*
X059568Y022073D02*
X057383Y022073D01*
X057265Y022192D02*
X058516Y022192D01*
X058538Y022182D02*
X058696Y022182D01*
X058842Y022243D01*
X058954Y022354D01*
X059015Y022500D01*
X059015Y022658D01*
X058954Y022804D01*
X058842Y022916D01*
X058696Y022977D01*
X058538Y022977D01*
X058392Y022916D01*
X058281Y022804D01*
X058220Y022658D01*
X058220Y022500D01*
X058281Y022354D01*
X058392Y022243D01*
X058538Y022182D01*
X058719Y022192D02*
X059568Y022192D01*
X059568Y022310D02*
X058910Y022310D01*
X058985Y022429D02*
X059568Y022429D01*
X059568Y022547D02*
X059015Y022547D01*
X059011Y022666D02*
X059568Y022666D01*
X059568Y022784D02*
X058962Y022784D01*
X058856Y022903D02*
X059568Y022903D01*
X059568Y023021D02*
X056048Y023021D01*
X055929Y023140D02*
X059568Y023140D01*
X059568Y023259D02*
X055811Y023259D01*
X055692Y023377D02*
X059568Y023377D01*
X059568Y023496D02*
X054149Y023496D01*
X054267Y023614D02*
X059568Y023614D01*
X059568Y023733D02*
X054386Y023733D01*
X054587Y023851D02*
X059568Y023851D01*
X059568Y023970D02*
X054689Y023970D01*
X054729Y024088D02*
X059568Y024088D01*
X059568Y024207D02*
X054727Y024207D01*
X054678Y024325D02*
X059568Y024325D01*
X059568Y024444D02*
X054526Y024444D01*
X054256Y024444D02*
X047439Y024444D01*
X047591Y024325D02*
X047643Y024201D01*
X047643Y024067D01*
X047591Y023942D01*
X047581Y023932D01*
X047581Y023789D01*
X053651Y023789D01*
X054053Y024192D01*
X054053Y024201D01*
X054105Y024325D01*
X054056Y024207D02*
X047640Y024207D01*
X047643Y024088D02*
X053950Y024088D01*
X053831Y023970D02*
X047603Y023970D01*
X047581Y023851D02*
X053713Y023851D01*
X053767Y023509D02*
X054391Y024134D01*
X053767Y023509D02*
X047301Y023509D01*
X047301Y024130D01*
X047305Y024134D01*
X047301Y023509D02*
X040201Y023509D01*
X041201Y022909D02*
X041551Y022559D01*
X041551Y022559D01*
X041548Y022559D01*
X041551Y022559D02*
X041751Y022359D01*
X042001Y022359D01*
X042551Y022909D01*
X048291Y022909D01*
X048634Y022559D02*
X048641Y022559D01*
X048929Y022657D02*
X048929Y023209D01*
X049616Y022429D02*
X051163Y022429D01*
X051134Y022547D02*
X049735Y022547D01*
X049498Y022310D02*
X051238Y022310D01*
X051429Y022192D02*
X049379Y022192D01*
X049248Y022073D02*
X052534Y022073D01*
X052485Y021955D02*
X039925Y021955D01*
X039968Y021836D02*
X052442Y021836D01*
X052442Y021717D02*
X047760Y021717D01*
X047690Y021747D02*
X047532Y021747D01*
X047386Y021686D01*
X047274Y021574D01*
X047214Y021428D01*
X047214Y021270D01*
X047274Y021124D01*
X047386Y021013D01*
X047532Y020952D01*
X047690Y020952D01*
X047836Y021013D01*
X047948Y021124D01*
X048008Y021270D01*
X048008Y021428D01*
X047948Y021574D01*
X047836Y021686D01*
X047690Y021747D01*
X047462Y021717D02*
X040646Y021717D01*
X040600Y021737D02*
X040442Y021737D01*
X040296Y021676D01*
X040184Y021564D01*
X040124Y021418D01*
X040124Y021260D01*
X040184Y021114D01*
X040296Y021003D01*
X040442Y020942D01*
X040600Y020942D01*
X040746Y021003D01*
X040858Y021114D01*
X040918Y021260D01*
X040918Y021418D01*
X040858Y021564D01*
X040746Y021676D01*
X040600Y021737D01*
X040396Y021717D02*
X039968Y021717D01*
X039968Y021599D02*
X040219Y021599D01*
X040150Y021480D02*
X039955Y021480D01*
X039906Y021362D02*
X040124Y021362D01*
X040131Y021243D02*
X039857Y021243D01*
X039763Y021125D02*
X040180Y021125D01*
X040293Y021006D02*
X039645Y021006D01*
X039422Y020888D02*
X040485Y020888D01*
X040515Y020900D02*
X040369Y020839D01*
X040257Y020728D01*
X040197Y020582D01*
X040197Y020424D01*
X040257Y020278D01*
X040369Y020166D01*
X040515Y020106D01*
X040673Y020106D01*
X040819Y020166D01*
X040931Y020278D01*
X040991Y020424D01*
X040991Y020582D01*
X040931Y020728D01*
X040819Y020839D01*
X040673Y020900D01*
X040515Y020900D01*
X040703Y020888D02*
X042841Y020888D01*
X042896Y020833D02*
X043042Y020772D01*
X043200Y020772D01*
X043346Y020833D01*
X043458Y020944D01*
X043518Y021090D01*
X043518Y021248D01*
X043458Y021394D01*
X043346Y021506D01*
X043200Y021567D01*
X043042Y021567D01*
X042896Y021506D01*
X042784Y021394D01*
X042724Y021248D01*
X042724Y021090D01*
X042784Y020944D01*
X042896Y020833D01*
X042759Y021006D02*
X040749Y021006D01*
X040862Y021125D02*
X042724Y021125D01*
X042724Y021243D02*
X040911Y021243D01*
X040918Y021362D02*
X042771Y021362D01*
X042870Y021480D02*
X040893Y021480D01*
X040823Y021599D02*
X047299Y021599D01*
X047235Y021480D02*
X043372Y021480D01*
X043471Y021362D02*
X047214Y021362D01*
X047225Y021243D02*
X043518Y021243D01*
X043518Y021125D02*
X047274Y021125D01*
X047402Y021006D02*
X043483Y021006D01*
X043401Y020888D02*
X047572Y020888D01*
X047602Y020900D02*
X047456Y020839D01*
X047344Y020728D01*
X047284Y020582D01*
X047284Y020424D01*
X047344Y020278D01*
X047456Y020166D01*
X047602Y020106D01*
X047760Y020106D01*
X047906Y020166D01*
X048017Y020278D01*
X048078Y020424D01*
X048078Y020582D01*
X048017Y020728D01*
X047906Y020839D01*
X047760Y020900D01*
X047602Y020900D01*
X047790Y020888D02*
X049931Y020888D01*
X049884Y020934D02*
X049996Y020823D01*
X050142Y020762D01*
X050300Y020762D01*
X050446Y020823D01*
X050558Y020934D01*
X050618Y021080D01*
X050618Y021238D01*
X050558Y021384D01*
X050446Y021496D01*
X050300Y021557D01*
X050142Y021557D01*
X049996Y021496D01*
X049884Y021384D01*
X049824Y021238D01*
X049824Y021080D01*
X049884Y020934D01*
X049855Y021006D02*
X047820Y021006D01*
X047948Y021125D02*
X049824Y021125D01*
X049826Y021243D02*
X047997Y021243D01*
X048008Y021362D02*
X049875Y021362D01*
X049980Y021480D02*
X047987Y021480D01*
X047923Y021599D02*
X052442Y021599D01*
X052455Y021480D02*
X050462Y021480D01*
X050567Y021362D02*
X052504Y021362D01*
X052553Y021243D02*
X050616Y021243D01*
X050618Y021125D02*
X052647Y021125D01*
X052765Y021006D02*
X050587Y021006D01*
X050511Y020888D02*
X052988Y020888D01*
X054370Y020532D02*
X048078Y020532D01*
X048074Y020413D02*
X054374Y020413D01*
X054424Y020295D02*
X048024Y020295D01*
X047916Y020176D02*
X054532Y020176D01*
X055003Y020176D02*
X056472Y020176D01*
X056360Y020295D02*
X055111Y020295D01*
X055160Y020413D02*
X056311Y020413D01*
X056304Y020532D02*
X055165Y020532D01*
X055136Y020651D02*
X056330Y020651D01*
X056399Y020769D02*
X055063Y020769D01*
X054910Y021006D02*
X056899Y021006D01*
X056864Y021125D02*
X055038Y021125D01*
X055087Y021243D02*
X056864Y021243D01*
X056911Y021362D02*
X055098Y021362D01*
X055077Y021480D02*
X057010Y021480D01*
X057066Y021599D02*
X055013Y021599D01*
X055491Y022310D02*
X053865Y022310D01*
X053710Y022429D02*
X055409Y022429D01*
X055337Y022547D02*
X051928Y022547D01*
X051898Y022429D02*
X052874Y022429D01*
X052718Y022310D02*
X051823Y022310D01*
X051632Y022192D02*
X052599Y022192D01*
X054472Y020769D02*
X050316Y020769D01*
X050126Y020769D02*
X047976Y020769D01*
X048049Y020651D02*
X054399Y020651D01*
X051274Y020058D02*
X044701Y020058D01*
X044797Y019939D02*
X046669Y019939D01*
X046588Y019821D02*
X044841Y019821D01*
X044841Y019702D02*
X046554Y019702D01*
X046554Y019584D02*
X044804Y019584D01*
X044718Y019465D02*
X046602Y019465D01*
X047300Y019465D02*
X051257Y019465D01*
X051171Y019584D02*
X047348Y019584D01*
X047348Y019702D02*
X051134Y019702D01*
X051134Y019821D02*
X047314Y019821D01*
X047233Y019939D02*
X051178Y019939D01*
X050589Y019347D02*
X047693Y019347D01*
X047867Y019228D02*
X050414Y019228D01*
X050272Y019109D02*
X048009Y019109D01*
X048059Y018991D02*
X050223Y018991D01*
X050223Y018872D02*
X048059Y018872D01*
X048017Y018754D02*
X050265Y018754D01*
X050371Y018635D02*
X047910Y018635D01*
X047593Y018517D02*
X050689Y018517D01*
X050961Y018723D02*
X054407Y018723D01*
X054621Y019109D02*
X050748Y019109D01*
X050561Y018923D01*
X047721Y018923D02*
X047534Y019109D01*
X043661Y019109D01*
X043474Y018923D01*
X043874Y018723D02*
X047321Y018723D01*
X047446Y020176D02*
X040829Y020176D01*
X040938Y020295D02*
X047337Y020295D01*
X047288Y020413D02*
X040987Y020413D01*
X040991Y020532D02*
X047284Y020532D01*
X047312Y020651D02*
X040963Y020651D01*
X040890Y020769D02*
X047385Y020769D01*
X041843Y022657D02*
X041843Y023209D01*
X041201Y022909D02*
X035551Y022909D01*
X035001Y022359D01*
X034651Y022359D01*
X034451Y022559D01*
X034756Y023209D02*
X027681Y023209D01*
X027670Y023198D01*
X027670Y022657D01*
X027681Y023209D02*
X020591Y023209D01*
X019238Y023851D02*
X025765Y023851D01*
X025747Y023970D02*
X019256Y023970D01*
X019296Y024088D02*
X025707Y024088D01*
X025709Y024207D02*
X019294Y024207D01*
X019245Y024325D02*
X025758Y024325D01*
X025910Y024444D02*
X019093Y024444D01*
X018823Y024444D02*
X012006Y024444D01*
X012158Y024325D02*
X012210Y024201D01*
X012210Y024067D01*
X012158Y023942D01*
X012152Y023936D01*
X012152Y023789D01*
X018678Y023789D01*
X018678Y023936D01*
X018672Y023942D01*
X018620Y024067D01*
X018620Y024201D01*
X018672Y024325D01*
X018622Y024207D02*
X012207Y024207D01*
X012210Y024088D02*
X018620Y024088D01*
X018660Y023970D02*
X012170Y023970D01*
X012152Y023851D02*
X018678Y023851D01*
X018958Y024134D02*
X018958Y023512D01*
X018961Y023509D01*
X011871Y023509D01*
X011872Y023510D01*
X011872Y024134D01*
X011737Y024444D02*
X004920Y024444D01*
X005072Y024325D02*
X011585Y024325D01*
X011536Y024207D02*
X005121Y024207D01*
X005226Y024088D02*
X011533Y024088D01*
X011574Y023970D02*
X005345Y023970D01*
X005464Y023851D02*
X011592Y023851D01*
X011871Y023509D02*
X005409Y023509D01*
X004785Y024134D01*
X005284Y023259D02*
X004214Y023259D01*
X004289Y023140D02*
X006496Y023140D01*
X005767Y023021D02*
X004318Y023021D01*
X004315Y022903D02*
X005649Y022903D01*
X005530Y022784D02*
X004266Y022784D01*
X004159Y022666D02*
X005411Y022666D01*
X009268Y020058D02*
X010388Y020058D01*
X010296Y019939D02*
X009364Y019939D01*
X009408Y019821D02*
X010254Y019821D01*
X010254Y019702D02*
X009408Y019702D01*
X009371Y019584D02*
X010294Y019584D01*
X010384Y019465D02*
X009285Y019465D01*
X008188Y019109D02*
X012101Y019109D01*
X012288Y018923D01*
X011888Y018723D02*
X008401Y018723D01*
X008188Y019109D02*
X008001Y018923D01*
X005054Y019228D02*
X004631Y019228D01*
X004631Y019109D02*
X004912Y019109D01*
X004631Y017806D02*
X057321Y017806D01*
X057321Y017687D02*
X004631Y017687D01*
X004631Y017568D02*
X057321Y017568D01*
X057321Y017450D02*
X004631Y017450D01*
X012441Y020888D02*
X014491Y020888D01*
X014415Y021006D02*
X012547Y021006D01*
X012596Y021125D02*
X014384Y021125D01*
X014386Y021243D02*
X012598Y021243D01*
X012568Y021362D02*
X014435Y021362D01*
X014540Y021480D02*
X012492Y021480D01*
X018961Y023509D02*
X026051Y023509D01*
X026045Y023516D01*
X026045Y024134D01*
X026331Y024325D02*
X026236Y024420D01*
X026051Y023509D02*
X033131Y023509D01*
X031503Y021955D02*
X038311Y021955D01*
X038269Y021836D02*
X031406Y021836D01*
X033034Y021362D02*
X029297Y021362D01*
X029346Y021243D02*
X033004Y021243D01*
X033006Y021125D02*
X029348Y021125D01*
X029317Y021006D02*
X033055Y021006D01*
X033161Y020888D02*
X029241Y020888D01*
X029192Y021480D02*
X033110Y021480D01*
X033692Y021480D02*
X035800Y021480D01*
X035816Y021496D02*
X035704Y021384D01*
X035644Y021238D01*
X035644Y021080D01*
X035704Y020934D01*
X035816Y020823D01*
X035962Y020762D01*
X036120Y020762D01*
X036266Y020823D01*
X036378Y020934D01*
X036438Y021080D01*
X036438Y021238D01*
X036378Y021384D01*
X036266Y021496D01*
X036120Y021557D01*
X035962Y021557D01*
X035816Y021496D01*
X035695Y021362D02*
X033768Y021362D01*
X033798Y021243D02*
X035646Y021243D01*
X035644Y021125D02*
X033796Y021125D01*
X033747Y021006D02*
X035675Y021006D01*
X035751Y020888D02*
X033641Y020888D01*
X033803Y020769D02*
X035946Y020769D01*
X036136Y020769D02*
X040299Y020769D01*
X040226Y020651D02*
X033876Y020651D01*
X033905Y020532D02*
X040197Y020532D01*
X040201Y020413D02*
X033900Y020413D01*
X033851Y020295D02*
X040250Y020295D01*
X040359Y020176D02*
X033743Y020176D01*
X033272Y020176D02*
X032889Y020176D01*
X032889Y020058D02*
X037101Y020058D01*
X037005Y019939D02*
X032847Y019939D01*
X032738Y019821D02*
X036960Y019821D01*
X036960Y019702D02*
X032298Y019702D01*
X032298Y019821D02*
X032364Y019821D01*
X032258Y019584D02*
X036998Y019584D01*
X037084Y019465D02*
X032168Y019465D01*
X031634Y019465D02*
X030545Y019465D01*
X030631Y019584D02*
X031544Y019584D01*
X031504Y019702D02*
X030668Y019702D01*
X030668Y019821D02*
X031504Y019821D01*
X031546Y019939D02*
X030624Y019939D01*
X030528Y020058D02*
X031638Y020058D01*
X032840Y020295D02*
X033164Y020295D01*
X033361Y019109D02*
X029488Y019109D01*
X029301Y018923D01*
X029701Y018723D02*
X033148Y018723D01*
X033361Y019109D02*
X033548Y018923D01*
X036401Y018919D02*
X036541Y019059D01*
X040498Y019059D01*
X040634Y018923D01*
X038815Y020888D02*
X036331Y020888D01*
X036407Y021006D02*
X038592Y021006D01*
X038474Y021125D02*
X036438Y021125D01*
X036436Y021243D02*
X038380Y021243D01*
X038331Y021362D02*
X036387Y021362D01*
X036282Y021480D02*
X038282Y021480D01*
X032937Y017331D02*
X026239Y017331D01*
X025851Y017331D02*
X019152Y017331D01*
X023458Y019465D02*
X024584Y019465D01*
X024494Y019584D02*
X023544Y019584D01*
X023581Y019702D02*
X024454Y019702D01*
X024454Y019821D02*
X023581Y019821D01*
X023537Y019939D02*
X024496Y019939D01*
X024588Y020058D02*
X023441Y020058D01*
X025114Y020058D02*
X030014Y020058D01*
X029918Y019939D02*
X025206Y019939D01*
X025248Y019821D02*
X029874Y019821D01*
X029874Y019702D02*
X025248Y019702D01*
X025208Y019584D02*
X029911Y019584D01*
X029997Y019465D02*
X025118Y019465D01*
X026274Y019109D02*
X026461Y018923D01*
X034461Y015472D02*
X034461Y015450D01*
X034756Y015571D02*
X034756Y016161D01*
X041744Y016161D01*
X048831Y016161D01*
X048929Y016161D01*
X056016Y016161D01*
X056296Y015790D02*
X056464Y015790D01*
X057147Y016502D02*
X054241Y016502D01*
X054360Y016620D02*
X057266Y016620D01*
X057881Y017331D02*
X058834Y017331D01*
X058760Y017450D02*
X057881Y017450D01*
X057881Y017568D02*
X058730Y017568D01*
X058734Y017687D02*
X057881Y017687D01*
X057881Y017806D02*
X058783Y017806D01*
X058891Y017924D02*
X057881Y017924D01*
X054807Y018923D02*
X054621Y019109D01*
X048929Y016161D02*
X048929Y015571D01*
X048638Y015472D02*
X048634Y015472D01*
X048119Y014960D02*
X042683Y014960D01*
X042564Y014842D02*
X048238Y014842D01*
X048356Y014723D02*
X042446Y014723D01*
X042801Y015079D02*
X048001Y015079D01*
X049546Y014723D02*
X055424Y014723D01*
X055238Y014842D02*
X049664Y014842D01*
X049589Y014767D02*
X049589Y014767D01*
X049783Y014960D02*
X055119Y014960D01*
X055001Y015079D02*
X049901Y015079D01*
X044967Y011997D02*
X043575Y011997D01*
X043578Y011878D02*
X044964Y011878D01*
X044993Y011760D02*
X043549Y011760D01*
X043475Y011641D02*
X044155Y011641D01*
X043973Y011523D02*
X043285Y011523D01*
X043077Y011523D02*
X036081Y011523D01*
X036081Y011641D02*
X042888Y011641D01*
X042813Y011760D02*
X036081Y011760D01*
X036081Y011878D02*
X042784Y011878D01*
X042787Y011997D02*
X036081Y011997D01*
X036081Y012115D02*
X042837Y012115D01*
X042944Y012234D02*
X042332Y012234D01*
X041741Y012234D02*
X041082Y012234D01*
X041101Y012242D02*
X041257Y012398D01*
X041341Y012601D01*
X041341Y012822D01*
X041257Y013026D01*
X041101Y013182D01*
X040897Y013266D01*
X040676Y013266D01*
X040472Y013182D01*
X040316Y013026D01*
X040232Y012822D01*
X040232Y012601D01*
X040316Y012398D01*
X040472Y012242D01*
X040676Y012157D01*
X040897Y012157D01*
X041101Y012242D01*
X041212Y012353D02*
X041611Y012353D01*
X041536Y012471D02*
X041287Y012471D01*
X041336Y012590D02*
X041487Y012590D01*
X041482Y012708D02*
X041341Y012708D01*
X041339Y012827D02*
X041484Y012827D01*
X041533Y012945D02*
X041290Y012945D01*
X041219Y013064D02*
X041604Y013064D01*
X041723Y013182D02*
X041100Y013182D01*
X040473Y013182D02*
X036100Y013182D01*
X036219Y013064D02*
X036719Y013064D01*
X036728Y013073D02*
X036675Y013020D01*
X036632Y012960D01*
X036598Y012894D01*
X036575Y012823D01*
X036567Y012772D01*
X036976Y012772D01*
X036976Y012652D01*
X036567Y012652D01*
X036575Y012601D01*
X036598Y012530D01*
X036632Y012464D01*
X036675Y012403D01*
X036728Y012351D01*
X036788Y012307D01*
X036855Y012273D01*
X036926Y012250D01*
X036977Y012242D01*
X036977Y012652D01*
X037096Y012652D01*
X037096Y012242D01*
X037147Y012250D01*
X037218Y012273D01*
X037285Y012307D01*
X037345Y012351D01*
X037398Y012403D01*
X037441Y012464D01*
X037475Y012530D01*
X037498Y012601D01*
X037506Y012652D01*
X037097Y012652D01*
X037097Y012772D01*
X037506Y012772D01*
X037498Y012823D01*
X037475Y012894D01*
X037441Y012960D01*
X037398Y013020D01*
X037345Y013073D01*
X037285Y013117D01*
X037218Y013150D01*
X037147Y013174D01*
X037096Y013182D01*
X037096Y012772D01*
X036977Y012772D01*
X036977Y013182D01*
X036926Y013174D01*
X036855Y013150D01*
X036788Y013117D01*
X036728Y013073D01*
X036624Y012945D02*
X036290Y012945D01*
X036339Y012827D02*
X036576Y012827D01*
X036578Y012590D02*
X036336Y012590D01*
X036341Y012708D02*
X036976Y012708D01*
X036977Y012590D02*
X037096Y012590D01*
X037097Y012708D02*
X040232Y012708D01*
X040237Y012590D02*
X037495Y012590D01*
X037445Y012471D02*
X040286Y012471D01*
X040361Y012353D02*
X037347Y012353D01*
X037096Y012353D02*
X036977Y012353D01*
X036977Y012471D02*
X037096Y012471D01*
X036726Y012353D02*
X036212Y012353D01*
X036287Y012471D02*
X036628Y012471D01*
X036082Y012234D02*
X040491Y012234D01*
X040234Y012827D02*
X037497Y012827D01*
X037449Y012945D02*
X040283Y012945D01*
X040354Y013064D02*
X037354Y013064D01*
X037096Y013064D02*
X036977Y013064D01*
X036977Y012945D02*
X037096Y012945D01*
X037096Y012827D02*
X036977Y012827D01*
X035473Y013182D02*
X034850Y013182D01*
X034851Y013182D02*
X034647Y013266D01*
X034426Y013266D01*
X034222Y013182D01*
X034066Y013026D01*
X033982Y012822D01*
X033982Y012601D01*
X034066Y012398D01*
X034222Y012242D01*
X034426Y012157D01*
X034647Y012157D01*
X034851Y012242D01*
X035007Y012398D01*
X035091Y012601D01*
X035091Y012822D01*
X035007Y013026D01*
X034851Y013182D01*
X034969Y013064D02*
X035354Y013064D01*
X035283Y012945D02*
X035040Y012945D01*
X035089Y012827D02*
X035234Y012827D01*
X035232Y012708D02*
X035091Y012708D01*
X035086Y012590D02*
X035237Y012590D01*
X035286Y012471D02*
X035037Y012471D01*
X034962Y012353D02*
X035361Y012353D01*
X035481Y012234D02*
X034832Y012234D01*
X034241Y012234D02*
X028582Y012234D01*
X028601Y012242D02*
X028757Y012398D01*
X028841Y012601D01*
X028841Y012822D01*
X028757Y013026D01*
X028601Y013182D01*
X028397Y013266D01*
X028176Y013266D01*
X027972Y013182D01*
X027816Y013026D01*
X027732Y012822D01*
X027732Y012601D01*
X027816Y012398D01*
X027972Y012242D01*
X028176Y012157D01*
X028397Y012157D01*
X028601Y012242D01*
X028712Y012353D02*
X029226Y012353D01*
X029228Y012351D02*
X029288Y012307D01*
X029355Y012273D01*
X029426Y012250D01*
X029477Y012242D01*
X029477Y012652D01*
X029596Y012652D01*
X029596Y012242D01*
X029647Y012250D01*
X029718Y012273D01*
X029785Y012307D01*
X029845Y012351D01*
X029898Y012403D01*
X029941Y012464D01*
X029975Y012530D01*
X029998Y012601D01*
X030006Y012652D01*
X029597Y012652D01*
X029597Y012772D01*
X030006Y012772D01*
X029998Y012823D01*
X029975Y012894D01*
X029941Y012960D01*
X029898Y013020D01*
X029845Y013073D01*
X029785Y013117D01*
X029718Y013150D01*
X029647Y013174D01*
X029596Y013182D01*
X029596Y012772D01*
X029477Y012772D01*
X029477Y013182D01*
X029426Y013174D01*
X029355Y013150D01*
X029288Y013117D01*
X029228Y013073D01*
X029175Y013020D01*
X029132Y012960D01*
X029098Y012894D01*
X029075Y012823D01*
X029067Y012772D01*
X029476Y012772D01*
X029476Y012652D01*
X029067Y012652D01*
X029075Y012601D01*
X029098Y012530D01*
X029132Y012464D01*
X029175Y012403D01*
X029228Y012351D01*
X029128Y012471D02*
X028787Y012471D01*
X028836Y012590D02*
X029078Y012590D01*
X029076Y012827D02*
X028839Y012827D01*
X028841Y012708D02*
X029476Y012708D01*
X029477Y012590D02*
X029596Y012590D01*
X029597Y012708D02*
X030726Y012708D01*
X030726Y012652D02*
X030317Y012652D01*
X030325Y012601D01*
X030348Y012530D01*
X030382Y012464D01*
X030425Y012403D01*
X030478Y012351D01*
X030538Y012307D01*
X030605Y012273D01*
X030676Y012250D01*
X030727Y012242D01*
X030727Y012652D01*
X030846Y012652D01*
X030846Y012242D01*
X030897Y012250D01*
X030968Y012273D01*
X031035Y012307D01*
X031095Y012351D01*
X031148Y012403D01*
X031191Y012464D01*
X031225Y012530D01*
X031248Y012601D01*
X031256Y012652D01*
X030847Y012652D01*
X030847Y012772D01*
X031256Y012772D01*
X031248Y012823D01*
X031225Y012894D01*
X031191Y012960D01*
X031148Y013020D01*
X031095Y013073D01*
X031035Y013117D01*
X030968Y013150D01*
X030897Y013174D01*
X030846Y013182D01*
X030846Y012772D01*
X030727Y012772D01*
X030727Y013182D01*
X030676Y013174D01*
X030605Y013150D01*
X030538Y013117D01*
X030478Y013073D01*
X030425Y013020D01*
X030382Y012960D01*
X030348Y012894D01*
X030325Y012823D01*
X030317Y012772D01*
X030726Y012772D01*
X030726Y012652D01*
X030727Y012590D02*
X030846Y012590D01*
X030847Y012708D02*
X033982Y012708D01*
X033987Y012590D02*
X031245Y012590D01*
X031195Y012471D02*
X034036Y012471D01*
X034111Y012353D02*
X031097Y012353D01*
X030846Y012353D02*
X030727Y012353D01*
X030727Y012471D02*
X030846Y012471D01*
X030476Y012353D02*
X029847Y012353D01*
X029945Y012471D02*
X030378Y012471D01*
X030328Y012590D02*
X029995Y012590D01*
X029997Y012827D02*
X030326Y012827D01*
X030374Y012945D02*
X029949Y012945D01*
X029854Y013064D02*
X030469Y013064D01*
X030727Y013064D02*
X030846Y013064D01*
X030846Y012945D02*
X030727Y012945D01*
X030727Y012827D02*
X030846Y012827D01*
X031104Y013064D02*
X034104Y013064D01*
X034033Y012945D02*
X031199Y012945D01*
X031247Y012827D02*
X033984Y012827D01*
X034223Y013182D02*
X028600Y013182D01*
X028719Y013064D02*
X029219Y013064D01*
X029124Y012945D02*
X028790Y012945D01*
X027973Y013182D02*
X023600Y013182D01*
X023601Y013182D02*
X023397Y013266D01*
X023176Y013266D01*
X022972Y013182D01*
X022816Y013026D01*
X022732Y012822D01*
X022732Y012601D01*
X022816Y012398D01*
X022972Y012242D01*
X023176Y012157D01*
X023397Y012157D01*
X023601Y012242D01*
X023757Y012398D01*
X023841Y012601D01*
X023841Y012822D01*
X023757Y013026D01*
X023601Y013182D01*
X023719Y013064D02*
X024219Y013064D01*
X024228Y013073D02*
X024175Y013020D01*
X024132Y012960D01*
X024098Y012894D01*
X024075Y012823D01*
X024067Y012772D01*
X024476Y012772D01*
X024476Y012652D01*
X024067Y012652D01*
X024075Y012601D01*
X024098Y012530D01*
X024132Y012464D01*
X024175Y012403D01*
X024228Y012351D01*
X024288Y012307D01*
X024355Y012273D01*
X024426Y012250D01*
X024477Y012242D01*
X024477Y012652D01*
X024596Y012652D01*
X024596Y012242D01*
X024647Y012250D01*
X024718Y012273D01*
X024785Y012307D01*
X024845Y012351D01*
X024898Y012403D01*
X024941Y012464D01*
X024975Y012530D01*
X024998Y012601D01*
X025006Y012652D01*
X024597Y012652D01*
X024597Y012772D01*
X025006Y012772D01*
X024998Y012823D01*
X024975Y012894D01*
X024941Y012960D01*
X024898Y013020D01*
X024845Y013073D01*
X024785Y013117D01*
X024718Y013150D01*
X024647Y013174D01*
X024596Y013182D01*
X024596Y012772D01*
X024477Y012772D01*
X024477Y013182D01*
X024426Y013174D01*
X024355Y013150D01*
X024288Y013117D01*
X024228Y013073D01*
X024124Y012945D02*
X023790Y012945D01*
X023839Y012827D02*
X024076Y012827D01*
X024078Y012590D02*
X023836Y012590D01*
X023841Y012708D02*
X024476Y012708D01*
X024477Y012590D02*
X024596Y012590D01*
X024597Y012708D02*
X027732Y012708D01*
X027737Y012590D02*
X024995Y012590D01*
X024945Y012471D02*
X027786Y012471D01*
X027861Y012353D02*
X024847Y012353D01*
X024596Y012353D02*
X024477Y012353D01*
X024477Y012471D02*
X024596Y012471D01*
X024226Y012353D02*
X023712Y012353D01*
X023787Y012471D02*
X024128Y012471D01*
X023582Y012234D02*
X027991Y012234D01*
X027734Y012827D02*
X024997Y012827D01*
X024949Y012945D02*
X027783Y012945D01*
X027854Y013064D02*
X024854Y013064D01*
X024596Y013064D02*
X024477Y013064D01*
X024477Y012945D02*
X024596Y012945D01*
X024596Y012827D02*
X024477Y012827D01*
X022973Y013182D02*
X014102Y013182D01*
X014221Y013064D02*
X022854Y013064D01*
X022783Y012945D02*
X014340Y012945D01*
X014458Y012827D02*
X022734Y012827D01*
X022732Y012708D02*
X014577Y012708D01*
X014695Y012590D02*
X022737Y012590D01*
X022786Y012471D02*
X014780Y012471D01*
X014801Y012353D02*
X022861Y012353D01*
X022991Y012234D02*
X014801Y012234D01*
X014801Y012115D02*
X035481Y012115D01*
X035481Y011997D02*
X023444Y011997D01*
X023397Y012016D02*
X023601Y011932D01*
X023757Y011776D01*
X023841Y011572D01*
X023841Y011351D01*
X023757Y011148D01*
X023601Y010992D01*
X023397Y010907D01*
X023176Y010907D01*
X022972Y010992D01*
X022816Y011148D01*
X022732Y011351D01*
X022732Y011572D01*
X022816Y011776D01*
X022972Y011932D01*
X023176Y012016D01*
X023397Y012016D01*
X023129Y011997D02*
X014801Y011997D01*
X014801Y011878D02*
X022919Y011878D01*
X022810Y011760D02*
X014801Y011760D01*
X014801Y011641D02*
X022761Y011641D01*
X022732Y011523D02*
X014801Y011523D01*
X014801Y011404D02*
X022732Y011404D01*
X022759Y011286D02*
X014801Y011286D01*
X014801Y011167D02*
X022808Y011167D01*
X022915Y011049D02*
X014801Y011049D01*
X014801Y010930D02*
X023121Y010930D01*
X023452Y010930D02*
X035481Y010930D01*
X035481Y011049D02*
X023658Y011049D01*
X023765Y011167D02*
X035481Y011167D01*
X035481Y011286D02*
X023814Y011286D01*
X023841Y011404D02*
X035481Y011404D01*
X035481Y011523D02*
X023841Y011523D01*
X023813Y011641D02*
X035481Y011641D01*
X035481Y011760D02*
X023763Y011760D01*
X023654Y011878D02*
X035481Y011878D01*
X036081Y011404D02*
X043901Y011404D01*
X043874Y011286D02*
X036081Y011286D01*
X036081Y011167D02*
X043879Y011167D01*
X043929Y011049D02*
X036081Y011049D01*
X036081Y010930D02*
X044039Y010930D01*
X044387Y011641D02*
X045068Y011641D01*
X047678Y009273D02*
X047766Y009302D01*
X047845Y009314D01*
X047845Y008785D01*
X047965Y008785D01*
X048494Y008785D01*
X048482Y008864D01*
X048453Y008952D01*
X048411Y009035D01*
X048356Y009111D01*
X048290Y009176D01*
X048215Y009231D01*
X048132Y009273D01*
X048043Y009302D01*
X047965Y009314D01*
X047965Y008785D01*
X047965Y008665D01*
X048494Y008665D01*
X048482Y008587D01*
X048453Y008498D01*
X048411Y008415D01*
X048356Y008340D01*
X048290Y008274D01*
X048215Y008219D01*
X048132Y008177D01*
X048043Y008148D01*
X047965Y008136D01*
X047965Y008665D01*
X047845Y008665D01*
X047845Y008136D01*
X047766Y008148D01*
X047678Y008177D01*
X047595Y008219D01*
X047519Y008274D01*
X047453Y008340D01*
X047399Y008415D01*
X047356Y008498D01*
X047328Y008587D01*
X047315Y008665D01*
X047844Y008665D01*
X047844Y008785D01*
X047315Y008785D01*
X047328Y008864D01*
X047356Y008952D01*
X047399Y009035D01*
X047453Y009111D01*
X047519Y009176D01*
X047595Y009231D01*
X047678Y009273D01*
X047672Y009270D02*
X046484Y009270D01*
X046311Y009270D02*
X046191Y009270D01*
X046191Y009152D02*
X046311Y009152D01*
X046311Y009033D02*
X046191Y009033D01*
X046191Y008915D02*
X046311Y008915D01*
X046311Y008796D02*
X046191Y008796D01*
X046311Y008678D02*
X047844Y008678D01*
X047845Y008796D02*
X047965Y008796D01*
X047965Y008678D02*
X059568Y008678D01*
X059568Y008796D02*
X048492Y008796D01*
X048465Y008915D02*
X059568Y008915D01*
X059568Y009033D02*
X048411Y009033D01*
X048314Y009152D02*
X059568Y009152D01*
X059568Y009270D02*
X048137Y009270D01*
X047965Y009270D02*
X047845Y009270D01*
X047845Y009152D02*
X047965Y009152D01*
X047965Y009033D02*
X047845Y009033D01*
X047845Y008915D02*
X047965Y008915D01*
X047965Y008559D02*
X047845Y008559D01*
X047845Y008441D02*
X047965Y008441D01*
X047965Y008322D02*
X047845Y008322D01*
X047845Y008204D02*
X047965Y008204D01*
X048184Y008204D02*
X059568Y008204D01*
X059568Y008322D02*
X048338Y008322D01*
X048423Y008441D02*
X059568Y008441D01*
X059568Y008559D02*
X048473Y008559D01*
X047626Y008204D02*
X046530Y008204D01*
X046684Y008322D02*
X047471Y008322D01*
X047386Y008441D02*
X046770Y008441D01*
X046819Y008559D02*
X047337Y008559D01*
X047317Y008796D02*
X046839Y008796D01*
X046811Y008915D02*
X047344Y008915D01*
X047398Y009033D02*
X046758Y009033D01*
X046661Y009152D02*
X047495Y009152D01*
X047731Y005003D02*
X044772Y005003D01*
X045057Y004884D02*
X047445Y004884D01*
X047326Y004766D02*
X045176Y004766D01*
X045289Y004647D02*
X047214Y004647D01*
X047164Y004529D02*
X045338Y004529D01*
X045387Y004410D02*
X047115Y004410D01*
X047094Y004292D02*
X045408Y004292D01*
X045408Y004173D02*
X047094Y004173D01*
X047094Y004054D02*
X045408Y004054D01*
X045366Y003936D02*
X047136Y003936D01*
X047185Y003817D02*
X045317Y003817D01*
X045245Y003699D02*
X047257Y003699D01*
X047376Y003580D02*
X045127Y003580D01*
X044939Y003462D02*
X047563Y003462D01*
X054054Y002538D02*
X054054Y002380D01*
X054114Y002234D01*
X054226Y002123D01*
X054372Y002062D01*
X054530Y002062D01*
X054651Y002112D01*
X054772Y002062D01*
X054930Y002062D01*
X055051Y002112D01*
X055172Y002062D01*
X055330Y002062D01*
X055476Y002123D01*
X055588Y002234D01*
X055648Y002380D01*
X055648Y002538D01*
X055588Y002684D01*
X055476Y002796D01*
X055330Y002857D01*
X055172Y002857D01*
X055051Y002806D01*
X054930Y002857D01*
X054772Y002857D01*
X054651Y002806D01*
X054530Y002857D01*
X054372Y002857D01*
X054226Y002796D01*
X054114Y002684D01*
X054054Y002538D01*
X054054Y002513D02*
X019168Y002513D01*
X019210Y002395D02*
X054054Y002395D01*
X054097Y002276D02*
X019210Y002276D01*
X019198Y002158D02*
X054191Y002158D01*
X054093Y002632D02*
X021882Y002632D01*
X022048Y002751D02*
X054181Y002751D01*
X055522Y002751D02*
X059568Y002751D01*
X059568Y002869D02*
X022123Y002869D01*
X022162Y002988D02*
X027982Y002988D01*
X028591Y002988D02*
X034232Y002988D01*
X034108Y003106D02*
X031100Y003106D01*
X031095Y003101D02*
X031148Y003153D01*
X031191Y003214D01*
X031225Y003280D01*
X031248Y003351D01*
X031256Y003402D01*
X030847Y003402D01*
X030847Y003522D01*
X031256Y003522D01*
X031248Y003573D01*
X031225Y003644D01*
X031191Y003710D01*
X031148Y003770D01*
X031095Y003823D01*
X031035Y003867D01*
X030968Y003900D01*
X030897Y003924D01*
X030846Y003932D01*
X030846Y003522D01*
X030727Y003522D01*
X030727Y003932D01*
X030676Y003924D01*
X030605Y003900D01*
X030538Y003867D01*
X030478Y003823D01*
X030425Y003770D01*
X030382Y003710D01*
X030348Y003644D01*
X030325Y003573D01*
X030317Y003522D01*
X030726Y003522D01*
X030726Y003402D01*
X030317Y003402D01*
X030325Y003351D01*
X030348Y003280D01*
X030382Y003214D01*
X030425Y003153D01*
X030478Y003101D01*
X030538Y003057D01*
X030605Y003023D01*
X030676Y003000D01*
X030727Y002992D01*
X030727Y003402D01*
X030846Y003402D01*
X030846Y002992D01*
X030897Y003000D01*
X030968Y003023D01*
X031035Y003057D01*
X031095Y003101D01*
X031197Y003225D02*
X034034Y003225D01*
X033985Y003343D02*
X031246Y003343D01*
X031246Y003580D02*
X033985Y003580D01*
X033982Y003462D02*
X030847Y003462D01*
X030846Y003580D02*
X030727Y003580D01*
X030726Y003462D02*
X028841Y003462D01*
X028838Y003580D02*
X030327Y003580D01*
X030376Y003699D02*
X028789Y003699D01*
X028715Y003817D02*
X030473Y003817D01*
X030727Y003817D02*
X030846Y003817D01*
X030846Y003699D02*
X030727Y003699D01*
X030727Y003343D02*
X030846Y003343D01*
X030846Y003225D02*
X030727Y003225D01*
X030727Y003106D02*
X030846Y003106D01*
X030473Y003106D02*
X028715Y003106D01*
X028789Y003225D02*
X030376Y003225D01*
X030327Y003343D02*
X028838Y003343D01*
X028591Y003936D02*
X034232Y003936D01*
X034108Y003817D02*
X031100Y003817D01*
X031197Y003699D02*
X034034Y003699D01*
X024189Y001565D02*
X059568Y001565D01*
X059568Y001447D02*
X024189Y001447D01*
X024145Y001684D02*
X059568Y001684D01*
X059568Y001802D02*
X024028Y001802D01*
X023674Y001802D02*
X018935Y001802D01*
X019069Y001921D02*
X059568Y001921D01*
X059568Y002039D02*
X019149Y002039D01*
X018335Y001802D02*
X017951Y001802D01*
X018084Y001921D02*
X018202Y001921D01*
X017351Y001802D02*
X016967Y001802D01*
X017100Y001921D02*
X017218Y001921D01*
X016367Y001802D02*
X016339Y001802D01*
X016294Y001684D02*
X023557Y001684D01*
X021524Y002632D02*
X019115Y002632D01*
X018997Y002751D02*
X021358Y002751D01*
X019843Y004173D02*
X019938Y004268D01*
X018274Y002751D02*
X018012Y002751D01*
X018131Y002632D02*
X018156Y002632D01*
X017290Y002751D02*
X017028Y002751D01*
X017147Y002632D02*
X017171Y002632D01*
X014765Y005596D02*
X059568Y005596D01*
X059568Y005714D02*
X014828Y005714D01*
X014232Y007018D02*
X012481Y007018D01*
X012595Y007137D02*
X014207Y007137D01*
X014163Y007255D02*
X012671Y007255D01*
X012790Y007374D02*
X014163Y007374D01*
X014211Y007492D02*
X012908Y007492D01*
X013027Y007611D02*
X014222Y007611D01*
X014168Y007729D02*
X013145Y007729D01*
X013200Y007848D02*
X014163Y007848D01*
X014200Y007966D02*
X013201Y007966D01*
X013201Y008085D02*
X014201Y008085D01*
X014201Y008204D02*
X013201Y008204D01*
X013201Y008322D02*
X014201Y008322D01*
X014201Y008441D02*
X013201Y008441D01*
X013201Y008559D02*
X014201Y008559D01*
X014201Y008678D02*
X013201Y008678D01*
X013201Y008796D02*
X014201Y008796D01*
X014201Y008915D02*
X013201Y008915D01*
X013201Y009033D02*
X014201Y009033D01*
X014201Y009152D02*
X013201Y009152D01*
X013201Y009270D02*
X014201Y009270D01*
X014801Y009626D02*
X035481Y009626D01*
X029596Y012353D02*
X029477Y012353D01*
X029477Y012471D02*
X029596Y012471D01*
X029596Y012827D02*
X029477Y012827D01*
X029477Y012945D02*
X029596Y012945D01*
X029596Y013064D02*
X029477Y013064D01*
X028299Y014368D02*
X035748Y014368D01*
X035923Y014486D02*
X028424Y014486D01*
X027103Y014368D02*
X021199Y014368D01*
X021324Y014486D02*
X026978Y014486D01*
X026860Y014605D02*
X021442Y014605D01*
X021561Y014723D02*
X026741Y014723D01*
X020994Y013538D02*
X020708Y013538D01*
X020494Y013538D02*
X020208Y013538D01*
X020308Y014131D02*
X020394Y014131D01*
X020808Y014131D02*
X020894Y014131D01*
X020003Y014368D02*
X014155Y014368D01*
X014274Y014486D02*
X019878Y014486D01*
X019760Y014605D02*
X014392Y014605D01*
X014511Y014723D02*
X019641Y014723D01*
X013496Y015571D02*
X013496Y016155D01*
X013501Y016159D01*
X012601Y009270D02*
X004719Y009270D01*
X004883Y009152D02*
X012601Y009152D01*
X012601Y009033D02*
X004963Y009033D01*
X005012Y008915D02*
X012601Y008915D01*
X012601Y008796D02*
X005012Y008796D01*
X004996Y008678D02*
X012601Y008678D01*
X012601Y008559D02*
X004947Y008559D01*
X004844Y008441D02*
X012601Y008441D01*
X012601Y008085D02*
X011015Y008085D01*
X011039Y007966D02*
X012534Y007966D01*
X012415Y007848D02*
X011021Y007848D01*
X010949Y007729D02*
X012297Y007729D01*
X035346Y014723D02*
X041256Y014723D01*
X041138Y014842D02*
X035464Y014842D01*
X035583Y014960D02*
X041019Y014960D01*
X040901Y015079D02*
X035701Y015079D01*
X041548Y015463D02*
X041548Y015472D01*
X041843Y015571D02*
X041843Y016161D01*
X041744Y016161D01*
X056542Y022903D02*
X058379Y022903D01*
X058272Y022784D02*
X056672Y022784D01*
X056791Y022666D02*
X058223Y022666D01*
X058220Y022547D02*
X056909Y022547D01*
X057028Y022429D02*
X058250Y022429D01*
X058325Y022310D02*
X057146Y022310D01*
X059568Y025511D02*
X054570Y025511D01*
X054699Y025629D02*
X059568Y025629D01*
X059568Y025748D02*
X055024Y025748D01*
X055114Y025866D02*
X059568Y025866D01*
X059568Y025985D02*
X055145Y025985D01*
X055134Y026104D02*
X059568Y026104D01*
X059568Y026222D02*
X055073Y026222D01*
X054891Y026341D02*
X059568Y026341D01*
X059568Y027882D02*
X057585Y027882D01*
X057665Y028000D02*
X059568Y028000D01*
X059568Y028119D02*
X057698Y028119D01*
X057698Y028237D02*
X059568Y028237D01*
X059568Y028356D02*
X057650Y028356D01*
X057548Y028474D02*
X059568Y028474D01*
X054807Y026009D02*
X054657Y026159D01*
X050698Y026159D01*
X050548Y026009D01*
X050241Y025866D02*
X048027Y025866D01*
X048059Y025985D02*
X050209Y025985D01*
X050221Y026104D02*
X048048Y026104D01*
X047986Y026222D02*
X050282Y026222D01*
X050464Y026341D02*
X047805Y026341D01*
X047571Y026159D02*
X043611Y026159D01*
X043461Y026009D01*
X043861Y025809D02*
X047321Y025809D01*
X047158Y025511D02*
X044611Y025511D01*
X047571Y026159D02*
X047721Y026009D01*
X047937Y025748D02*
X050331Y025748D01*
X047942Y027289D02*
X054506Y027289D01*
X054413Y027408D02*
X048035Y027408D01*
X048078Y027526D02*
X054370Y027526D01*
X054370Y027645D02*
X048078Y027645D01*
X047411Y027882D02*
X046735Y027882D01*
X046603Y027763D02*
X047323Y027763D01*
X053653Y027763D02*
X054409Y027763D01*
X054498Y027882D02*
X053785Y027882D01*
X019073Y027289D02*
X012509Y027289D01*
X012602Y027408D02*
X018980Y027408D01*
X018937Y027526D02*
X012645Y027526D01*
X012645Y027645D02*
X018937Y027645D01*
X018976Y027763D02*
X017903Y027763D01*
X018035Y027882D02*
X019065Y027882D01*
X018974Y025809D02*
X015501Y025809D01*
X016261Y025511D02*
X018812Y025511D01*
X011986Y027289D02*
X005422Y027289D01*
X005516Y027408D02*
X011893Y027408D01*
X011851Y027526D02*
X005558Y027526D01*
X005558Y027645D02*
X011851Y027645D01*
X011890Y027763D02*
X010903Y027763D01*
X011035Y027882D02*
X011978Y027882D01*
X004892Y027882D02*
X002921Y027882D01*
X002921Y027763D02*
X004803Y027763D01*
X004764Y027645D02*
X002921Y027645D01*
X002921Y027526D02*
X004764Y027526D01*
X004807Y027408D02*
X002921Y027408D01*
X002921Y027289D02*
X004900Y027289D01*
X004463Y025866D02*
X003856Y025866D01*
X003924Y025748D02*
X004463Y025748D01*
X004510Y025629D02*
X003948Y025629D01*
X003940Y025511D02*
X004638Y025511D01*
X055609Y002632D02*
X059568Y002632D01*
X059568Y002513D02*
X055648Y002513D01*
X055648Y002395D02*
X059568Y002395D01*
X059568Y002276D02*
X055605Y002276D01*
X055511Y002158D02*
X059568Y002158D01*
D20*
X035781Y006209D02*
X035781Y012706D01*
X035787Y012712D01*
X014501Y012359D02*
X014501Y007809D01*
X012901Y007909D02*
X012301Y007309D01*
X012901Y007909D02*
X012901Y011209D01*
X014501Y012359D02*
X013151Y013709D01*
X011301Y013709D01*
M02*
